G04 #@! TF.FileFunction,Copper,L2,Bot,Signal*
%FSLAX46Y46*%
G04 Gerber Fmt 4.6, Leading zero omitted, Abs format (unit mm)*
G04 Created by KiCad (PCBNEW 4.1.0-alpha+201608211231+7083~46~ubuntu16.04.1-product) date Wed Aug 24 14:24:17 2016*
%MOMM*%
%LPD*%
G01*
G04 APERTURE LIST*
%ADD10C,0.100000*%
%ADD11C,0.228600*%
%ADD12R,2.540000X1.270000*%
%ADD13O,2.159000X1.651000*%
%ADD14O,1.854200X2.540000*%
%ADD15R,1.854200X2.540000*%
%ADD16C,3.556000*%
%ADD17R,2.550000X2.770000*%
%ADD18R,1.270000X2.540000*%
%ADD19R,2.540000X3.810000*%
%ADD20O,2.540000X3.810000*%
%ADD21C,3.175000*%
%ADD22R,0.380000X1.700000*%
%ADD23R,20.000000X6.400000*%
%ADD24R,0.400000X0.650000*%
%ADD25R,1.750000X0.650000*%
%ADD26R,0.558800X1.330960*%
%ADD27O,1.524000X2.540000*%
%ADD28C,1.905000*%
%ADD29C,0.889000*%
%ADD30C,0.406400*%
%ADD31C,0.508000*%
%ADD32C,0.203200*%
G04 APERTURE END LIST*
D10*
D11*
X143510000Y-79375000D02*
X73660000Y-79375000D01*
X143510000Y-120015000D02*
X143510000Y-79375000D01*
X73660000Y-120015000D02*
X143510000Y-120015000D01*
X73660000Y-79375000D02*
X73660000Y-120015000D01*
D12*
X116840000Y-102616000D03*
X116840000Y-105664000D03*
X113030000Y-102616000D03*
X113030000Y-105664000D03*
D13*
X101244400Y-104775000D03*
X101244400Y-109855000D03*
D14*
X78740000Y-81915000D03*
X81280000Y-81915000D03*
D15*
X76200000Y-81915000D03*
D14*
X83820000Y-81915000D03*
X86360000Y-81915000D03*
X88900000Y-81915000D03*
X91440000Y-81915000D03*
X93980000Y-81915000D03*
X96520000Y-81915000D03*
X99060000Y-81915000D03*
X101600000Y-81915000D03*
X104140000Y-81915000D03*
X106680000Y-81915000D03*
X109220000Y-81915000D03*
X111760000Y-81915000D03*
X114300000Y-81915000D03*
X114300000Y-117475000D03*
X111760000Y-117475000D03*
X109220000Y-117475000D03*
X106680000Y-117475000D03*
X104140000Y-117475000D03*
X101600000Y-117475000D03*
X99060000Y-117475000D03*
X96520000Y-117475000D03*
X93980000Y-117475000D03*
X91440000Y-117475000D03*
X88900000Y-117475000D03*
X86360000Y-117475000D03*
X83820000Y-117475000D03*
X81280000Y-117475000D03*
X78740000Y-117475000D03*
X76200000Y-117475000D03*
D16*
X77470000Y-86995000D03*
X77470000Y-112395000D03*
X118110000Y-117475000D03*
X118110000Y-81915000D03*
D17*
X108585000Y-100920000D03*
X108585000Y-107360000D03*
D18*
X92964000Y-96520000D03*
X89916000Y-96520000D03*
D12*
X131445000Y-98679000D03*
X131445000Y-95631000D03*
X140335000Y-98806000D03*
X140335000Y-101854000D03*
D18*
X135001000Y-83185000D03*
X138049000Y-83185000D03*
X101854000Y-92710000D03*
X98806000Y-92710000D03*
D12*
X88900000Y-108966000D03*
X88900000Y-112014000D03*
X93980000Y-108966000D03*
X93980000Y-112014000D03*
D14*
X112395000Y-110490000D03*
D15*
X114935000Y-110490000D03*
D19*
X132080000Y-91440000D03*
D20*
X127000000Y-91440000D03*
X121920000Y-91440000D03*
X116840000Y-91440000D03*
D19*
X110490000Y-91440000D03*
D20*
X105410000Y-91440000D03*
D21*
X82550000Y-87630000D03*
X100330000Y-87630000D03*
X140970000Y-95250000D03*
X140970000Y-85725000D03*
D22*
X124650000Y-101067500D03*
X125300000Y-101067500D03*
X125950000Y-101067500D03*
X126600000Y-101067500D03*
X127250000Y-101067500D03*
X127900000Y-101067500D03*
X128550000Y-101067500D03*
X129200000Y-101067500D03*
X129850000Y-101067500D03*
X130500000Y-101067500D03*
X131150000Y-101067500D03*
X131800000Y-101067500D03*
X132450000Y-101067500D03*
X133100000Y-101067500D03*
X133750000Y-101067500D03*
X134400000Y-101067500D03*
X135050000Y-101067500D03*
X135700000Y-101067500D03*
X135700000Y-114832500D03*
X135050000Y-114832500D03*
X134400000Y-114832500D03*
X133750000Y-114832500D03*
X133100000Y-114832500D03*
X132450000Y-114832500D03*
X131800000Y-114832500D03*
X131150000Y-114832500D03*
X130500000Y-114832500D03*
X129850000Y-114832500D03*
X129200000Y-114832500D03*
X128550000Y-114832500D03*
X127900000Y-114832500D03*
X127250000Y-114832500D03*
X126600000Y-114832500D03*
X125950000Y-114832500D03*
X125300000Y-114832500D03*
X124650000Y-114832500D03*
D23*
X130175000Y-107950000D03*
D24*
X137025000Y-97730000D03*
X136025000Y-97730000D03*
X136525000Y-96580000D03*
D25*
X135630000Y-92710000D03*
X135630000Y-91440000D03*
X135630000Y-90170000D03*
X135630000Y-88900000D03*
X141230000Y-88900000D03*
X141230000Y-90170000D03*
X141230000Y-91440000D03*
X141230000Y-92710000D03*
D26*
X103819960Y-98988880D03*
X102870000Y-98988880D03*
X101920040Y-98988880D03*
X101920040Y-96591120D03*
X102870000Y-96591120D03*
X103819960Y-96591120D03*
D27*
X88900000Y-106045000D03*
X91440000Y-106045000D03*
X93980000Y-106045000D03*
X87630000Y-101549200D03*
X95250000Y-101549200D03*
D28*
X85090000Y-99695000D03*
X97790000Y-99695000D03*
X97790000Y-112395000D03*
X85090000Y-112395000D03*
D29*
X127618000Y-111734200D03*
X136857000Y-113707200D03*
X132304300Y-111763000D03*
X126611300Y-113080400D03*
X132826200Y-102651900D03*
X130035400Y-116255500D03*
X129614600Y-99103200D03*
X110810000Y-102880000D03*
X130276200Y-111712600D03*
X103561500Y-100218100D03*
X134850200Y-99062100D03*
X133720600Y-112188700D03*
X109222800Y-98794900D03*
X128115400Y-98794900D03*
D30*
X141230000Y-88900000D02*
X140024800Y-88900000D01*
X113030000Y-105664000D02*
X113030000Y-106629200D01*
X138139800Y-84785200D02*
X138049000Y-84785200D01*
X140024800Y-86670200D02*
X138139800Y-84785200D01*
X140024800Y-88900000D02*
X140024800Y-86670200D01*
X140024800Y-86670200D02*
X140970000Y-85725000D01*
X138049000Y-83185000D02*
X138049000Y-84785200D01*
X138049000Y-83185000D02*
X137083800Y-83185000D01*
X108585000Y-107360000D02*
X106979800Y-107360000D01*
X102870000Y-98988900D02*
X102870000Y-97993200D01*
X108585000Y-107360000D02*
X110190200Y-107360000D01*
X112395000Y-107360000D02*
X110190200Y-107360000D01*
X112395000Y-107264200D02*
X112395000Y-107360000D01*
X113030000Y-106629200D02*
X112395000Y-107264200D01*
X129200000Y-100922200D02*
X129200000Y-99887300D01*
X95250000Y-101549200D02*
X95250000Y-99949000D01*
X92964000Y-96520000D02*
X92964000Y-98120200D01*
X112395000Y-107360000D02*
X112395000Y-110490000D01*
X116840000Y-111249000D02*
X116840000Y-105664000D01*
X115998800Y-112090200D02*
X116840000Y-111249000D01*
X112395000Y-112090200D02*
X115998800Y-112090200D01*
X112395000Y-110490000D02*
X112395000Y-112090200D01*
X127250000Y-114832500D02*
X127250000Y-113652300D01*
X129850000Y-114832500D02*
X129850000Y-113652300D01*
X129850000Y-113652300D02*
X127250000Y-113652300D01*
X124650000Y-102425000D02*
X124650000Y-101067500D01*
X130175000Y-107950000D02*
X124650000Y-102425000D01*
X101309600Y-98153100D02*
X101469500Y-97993200D01*
X101309600Y-101689800D02*
X101309600Y-98153100D01*
X106979800Y-107360000D02*
X101309600Y-101689800D01*
X101469500Y-97993200D02*
X102870000Y-97993200D01*
X98806000Y-89154000D02*
X98806000Y-92710000D01*
X100330000Y-87630000D02*
X98806000Y-89154000D01*
X95250000Y-99949000D02*
X95250000Y-98437500D01*
X94932700Y-98120200D02*
X92964000Y-98120200D01*
X95250000Y-98437500D02*
X94932700Y-98120200D01*
X98357800Y-95329700D02*
X98806000Y-95329700D01*
X95250000Y-98437500D02*
X98357800Y-95329700D01*
X98806000Y-92710000D02*
X98806000Y-95329700D01*
X98806000Y-95329700D02*
X101469500Y-97993200D01*
X129200000Y-100922200D02*
X129200000Y-101067500D01*
X129200000Y-102247700D02*
X131800000Y-102247700D01*
X129200000Y-101067500D02*
X129200000Y-102247700D01*
X131800000Y-101067500D02*
X131800000Y-102247700D01*
X129200000Y-99748700D02*
X129200000Y-99887300D01*
X128865000Y-99413700D02*
X129200000Y-99748700D01*
X128865000Y-96490800D02*
X128865000Y-99413700D01*
X129190300Y-96165500D02*
X128865000Y-96490800D01*
X129190300Y-86608300D02*
X129190300Y-96165500D01*
X134188800Y-81609800D02*
X129190300Y-86608300D01*
X135780000Y-81609800D02*
X134188800Y-81609800D01*
X137083800Y-82913600D02*
X135780000Y-81609800D01*
X137083800Y-83185000D02*
X137083800Y-82913600D01*
X127618000Y-113284300D02*
X127618000Y-111734200D01*
X127250000Y-113652300D02*
X127618000Y-113284300D01*
X130175000Y-107950000D02*
X130175000Y-109290200D01*
X130062000Y-109290200D02*
X127618000Y-111734200D01*
X130175000Y-109290200D02*
X130062000Y-109290200D01*
X135700000Y-113091300D02*
X135700000Y-113707200D01*
X131898900Y-109290200D02*
X135700000Y-113091300D01*
X130175000Y-109290200D02*
X131898900Y-109290200D01*
X135700000Y-113707200D02*
X135700000Y-114832500D01*
X135700000Y-113707200D02*
X136857000Y-113707200D01*
D31*
X89916000Y-96520000D02*
X89916000Y-94869000D01*
X125950000Y-114832000D02*
X125950500Y-114832000D01*
X125950500Y-114832000D02*
X126600000Y-114832000D01*
X125950500Y-114832000D02*
X125950000Y-114832500D01*
X126600000Y-101068000D02*
X126600500Y-101068000D01*
X126600500Y-101068000D02*
X127250000Y-101068000D01*
X126600500Y-101068000D02*
X126600000Y-101067500D01*
X133750000Y-101068000D02*
X133750000Y-101067500D01*
X89789000Y-94869000D02*
X82550000Y-87630000D01*
X89916000Y-94869000D02*
X89789000Y-94869000D01*
X81915000Y-87630000D02*
X76200000Y-81915000D01*
X82550000Y-87630000D02*
X81915000Y-87630000D01*
X134399500Y-101068000D02*
X134400000Y-101068000D01*
X134399500Y-101068000D02*
X134400000Y-101067500D01*
X133100000Y-114832000D02*
X133100000Y-114832500D01*
X133750000Y-101068000D02*
X134399500Y-101068000D01*
X127250000Y-101068000D02*
X127250000Y-101067500D01*
X133100000Y-114832000D02*
X133749500Y-114832000D01*
X133749500Y-114832000D02*
X133750000Y-114832000D01*
X133749500Y-114832000D02*
X133750000Y-114832500D01*
X140335000Y-98806000D02*
X138684000Y-98806000D01*
X138682000Y-98806000D02*
X137606000Y-97730000D01*
X138684000Y-98806000D02*
X138682000Y-98806000D01*
X137025000Y-97730000D02*
X137606000Y-97730000D01*
X132304300Y-112020200D02*
X132304300Y-111763000D01*
X133100000Y-112815900D02*
X132304300Y-112020200D01*
X133100000Y-114832000D02*
X133100000Y-112815900D01*
X126600000Y-114832000D02*
X126600000Y-114832500D01*
X126600000Y-113091700D02*
X126611300Y-113080400D01*
X126600000Y-114832000D02*
X126600000Y-113091700D01*
X132663800Y-102814300D02*
X132826200Y-102651900D01*
X128063900Y-102814300D02*
X132663800Y-102814300D01*
X127250000Y-102000400D02*
X128063900Y-102814300D01*
X127250000Y-101068000D02*
X127250000Y-102000400D01*
X140335000Y-98806000D02*
X140335000Y-99822000D01*
X140711300Y-99822000D02*
X140335000Y-99822000D01*
X141960900Y-101071600D02*
X140711300Y-99822000D01*
X141960900Y-102636500D02*
X141960900Y-101071600D01*
X141752400Y-102845000D02*
X141960900Y-102636500D01*
X134580400Y-102845000D02*
X141752400Y-102845000D01*
X133750000Y-102014600D02*
X134580400Y-102845000D01*
X133112700Y-102651900D02*
X133750000Y-102014600D01*
X132826200Y-102651900D02*
X133112700Y-102651900D01*
X133750000Y-102014600D02*
X133750000Y-101068000D01*
D30*
X114300000Y-81915000D02*
X115557300Y-81915000D01*
X127365700Y-99353000D02*
X127900000Y-99887300D01*
X127365700Y-96009900D02*
X127365700Y-99353000D01*
X128620200Y-94755400D02*
X127365700Y-96009900D01*
X128620200Y-90155900D02*
X128620200Y-94755400D01*
X123531300Y-85067000D02*
X128620200Y-90155900D01*
X118277300Y-85067000D02*
X123531300Y-85067000D01*
X115557300Y-82347000D02*
X118277300Y-85067000D01*
X115557300Y-81915000D02*
X115557300Y-82347000D01*
X127900000Y-101067500D02*
X127900000Y-99887300D01*
X106680000Y-81915000D02*
X107937300Y-81915000D01*
X128550000Y-115736100D02*
X128550000Y-114832500D01*
X127765200Y-116520900D02*
X128550000Y-115736100D01*
X123493800Y-116520900D02*
X127765200Y-116520900D01*
X118630500Y-111657600D02*
X123493800Y-116520900D01*
X118630500Y-97022500D02*
X118630500Y-111657600D01*
X114627300Y-93019300D02*
X118630500Y-97022500D01*
X114627300Y-89862300D02*
X114627300Y-93019300D01*
X107937300Y-83172300D02*
X114627300Y-89862300D01*
X107937300Y-81915000D02*
X107937300Y-83172300D01*
X130278200Y-116012700D02*
X130035400Y-116255500D01*
X130500000Y-116012700D02*
X130278200Y-116012700D01*
X130500000Y-114832500D02*
X130500000Y-116012700D01*
X131800000Y-114832500D02*
X131800000Y-116012700D01*
X111760000Y-81915000D02*
X113017300Y-81915000D01*
X113017300Y-81050500D02*
X113017300Y-81915000D01*
X114241000Y-79826800D02*
X113017300Y-81050500D01*
X137779700Y-79826800D02*
X114241000Y-79826800D01*
X143143000Y-85190100D02*
X137779700Y-79826800D01*
X143143000Y-108879000D02*
X143143000Y-85190100D01*
X136009300Y-116012700D02*
X143143000Y-108879000D01*
X131800000Y-116012700D02*
X136009300Y-116012700D01*
X111760000Y-117475000D02*
X113017300Y-117475000D01*
X131150000Y-114832500D02*
X131150000Y-116012700D01*
X131150000Y-116237500D02*
X131150000Y-116012700D01*
X127784500Y-119603000D02*
X131150000Y-116237500D01*
X114280900Y-119603000D02*
X127784500Y-119603000D01*
X113017300Y-118339400D02*
X114280900Y-119603000D01*
X113017300Y-117475000D02*
X113017300Y-118339400D01*
X141230000Y-92710000D02*
X142435200Y-92710000D01*
X141230000Y-90170000D02*
X142435200Y-90170000D01*
X113030000Y-102616000D02*
X116840000Y-102616000D01*
X142435200Y-90170000D02*
X142435200Y-92710000D01*
X85077300Y-116217700D02*
X85077300Y-117475000D01*
X86836300Y-114458700D02*
X85077300Y-116217700D01*
X86836300Y-111722500D02*
X86836300Y-114458700D01*
X88164100Y-110394700D02*
X86836300Y-111722500D01*
X89844700Y-110394700D02*
X88164100Y-110394700D01*
X92889800Y-107349600D02*
X89844700Y-110394700D01*
X92889800Y-105062400D02*
X92889800Y-107349600D01*
X93521200Y-104431000D02*
X92889800Y-105062400D01*
X99490700Y-104431000D02*
X93521200Y-104431000D01*
X99834700Y-104775000D02*
X99490700Y-104431000D01*
X101244400Y-104775000D02*
X99834700Y-104775000D01*
X83820000Y-117475000D02*
X85077300Y-117475000D01*
X108585000Y-100920000D02*
X106979800Y-100920000D01*
X108585000Y-100920000D02*
X110190200Y-100920000D01*
X113030000Y-102616000D02*
X111429800Y-102616000D01*
X135001000Y-83185000D02*
X135001000Y-84645500D01*
X135001000Y-84645500D02*
X135001000Y-84760200D01*
X135001000Y-84760200D02*
X135001000Y-84785200D01*
X140024800Y-89784000D02*
X140024800Y-90170000D01*
X135001000Y-84760200D02*
X140024800Y-89784000D01*
X141230000Y-90170000D02*
X140024800Y-90170000D01*
X111074000Y-102616000D02*
X110810000Y-102880000D01*
X111429800Y-102616000D02*
X111074000Y-102616000D01*
X110190200Y-101732200D02*
X110190200Y-100920000D01*
X111074000Y-102616000D02*
X110190200Y-101732200D01*
X102870000Y-97053400D02*
X102870000Y-96591100D01*
X103711300Y-97894700D02*
X102870000Y-97053400D01*
X104127600Y-97894700D02*
X103711300Y-97894700D01*
X106979800Y-100746900D02*
X104127600Y-97894700D01*
X106979800Y-100920000D02*
X106979800Y-100746900D01*
X102870000Y-92760800D02*
X102819200Y-92710000D01*
X102870000Y-96591100D02*
X102870000Y-92760800D01*
X101854000Y-92710000D02*
X102819200Y-92710000D01*
X129850000Y-99338600D02*
X129614600Y-99103200D01*
X129850000Y-101067500D02*
X129850000Y-99338600D01*
X129850000Y-98867800D02*
X129614600Y-99103200D01*
X129850000Y-89936200D02*
X129850000Y-98867800D01*
X135001000Y-84785200D02*
X129850000Y-89936200D01*
X132450000Y-114832500D02*
X132450000Y-113652300D01*
X132215900Y-113652300D02*
X130276200Y-111712600D01*
X132450000Y-113652300D02*
X132215900Y-113652300D01*
X131688100Y-99887300D02*
X131445000Y-99644200D01*
X132450000Y-99887300D02*
X131688100Y-99887300D01*
X131445000Y-98679000D02*
X131445000Y-99644200D01*
X132450000Y-101067500D02*
X132450000Y-99887300D01*
X133994200Y-96580000D02*
X133045200Y-95631000D01*
X136525000Y-96580000D02*
X133994200Y-96580000D01*
X131445000Y-95631000D02*
X133045200Y-95631000D01*
X138734800Y-101095000D02*
X138734800Y-101854000D01*
X136025000Y-98385200D02*
X138734800Y-101095000D01*
X140335000Y-101854000D02*
X138734800Y-101854000D01*
X136025000Y-97730000D02*
X136025000Y-98057600D01*
X136025000Y-98057600D02*
X136025000Y-98385200D01*
X133100000Y-101067500D02*
X133100000Y-99887300D01*
X133100000Y-99752200D02*
X133100000Y-99887300D01*
X134794600Y-98057600D02*
X133100000Y-99752200D01*
X136025000Y-98057600D02*
X134794600Y-98057600D01*
X90157300Y-81051100D02*
X90157300Y-81915000D01*
X91437000Y-79771400D02*
X90157300Y-81051100D01*
X109189200Y-79771400D02*
X91437000Y-79771400D01*
X110490000Y-81072200D02*
X109189200Y-79771400D01*
X110490000Y-82943900D02*
X110490000Y-81072200D01*
X115264800Y-87718700D02*
X110490000Y-82943900D01*
X115264800Y-92937800D02*
X115264800Y-87718700D01*
X119138800Y-96811800D02*
X115264800Y-92937800D01*
X119138800Y-111447000D02*
X119138800Y-96811800D01*
X123704400Y-116012600D02*
X119138800Y-111447000D01*
X127547700Y-116012600D02*
X123704400Y-116012600D01*
X127900000Y-115660300D02*
X127547700Y-116012600D01*
X127900000Y-114832500D02*
X127900000Y-115660300D01*
X88900000Y-81915000D02*
X90157300Y-81915000D01*
X129200000Y-114832500D02*
X129200000Y-116012700D01*
X128183500Y-117029200D02*
X129200000Y-116012700D01*
X123283200Y-117029200D02*
X128183500Y-117029200D01*
X119702800Y-113448800D02*
X123283200Y-117029200D01*
X111532800Y-113448800D02*
X119702800Y-113448800D01*
X102855600Y-104771600D02*
X111532800Y-113448800D01*
X102855600Y-104489700D02*
X102855600Y-104771600D01*
X101951600Y-103585700D02*
X102855600Y-104489700D01*
X95198600Y-103585700D02*
X101951600Y-103585700D01*
X91440000Y-99827100D02*
X95198600Y-103585700D01*
X91440000Y-81915000D02*
X91440000Y-99827100D01*
X95237300Y-81051100D02*
X95237300Y-81915000D01*
X95958100Y-80330300D02*
X95237300Y-81051100D01*
X102112400Y-80330300D02*
X95958100Y-80330300D01*
X102870000Y-81087900D02*
X102112400Y-80330300D01*
X102870000Y-88595300D02*
X102870000Y-81087900D01*
X100874100Y-90591200D02*
X102870000Y-88595300D01*
X100874100Y-94549500D02*
X100874100Y-90591200D01*
X101920000Y-95595400D02*
X100874100Y-94549500D01*
X101920000Y-96591100D02*
X101920000Y-95595400D01*
X93980000Y-81915000D02*
X95237300Y-81915000D01*
X140024800Y-94304800D02*
X140970000Y-95250000D01*
X140024800Y-91440000D02*
X140024800Y-94304800D01*
X141230000Y-91440000D02*
X140024800Y-91440000D01*
X91440400Y-111073800D02*
X90500200Y-112014000D01*
X99339000Y-111073800D02*
X91440400Y-111073800D01*
X104140000Y-115874800D02*
X99339000Y-111073800D01*
X104140000Y-117475000D02*
X104140000Y-115874800D01*
X88900000Y-112014000D02*
X90500200Y-112014000D01*
X95483100Y-114482300D02*
X93980000Y-112979200D01*
X98214400Y-114482300D02*
X95483100Y-114482300D01*
X100342700Y-116610600D02*
X98214400Y-114482300D01*
X100342700Y-117475000D02*
X100342700Y-116610600D01*
X101600000Y-117475000D02*
X100342700Y-117475000D01*
X93980000Y-112014000D02*
X93980000Y-112979200D01*
X88900000Y-106045000D02*
X88900000Y-108966000D01*
X93980000Y-106045000D02*
X93980000Y-108966000D01*
X114935000Y-105155200D02*
X114935000Y-110490000D01*
X114503600Y-104723800D02*
X114935000Y-105155200D01*
X106659200Y-104723800D02*
X114503600Y-104723800D01*
X101920000Y-99984600D02*
X106659200Y-104723800D01*
X101920000Y-98988900D02*
X101920000Y-99984600D01*
X103820000Y-98988900D02*
X103820000Y-99844900D01*
X103820000Y-99959600D02*
X103820000Y-99844900D01*
X103561500Y-100218100D02*
X103820000Y-99959600D01*
D31*
X135630000Y-88900000D02*
X135002000Y-88900000D01*
X135630000Y-90170000D02*
X134539100Y-90170000D01*
X132080000Y-91440000D02*
X132080000Y-89154000D01*
X134000000Y-89154000D02*
X132080000Y-89154000D01*
X134374000Y-89528000D02*
X134000000Y-89154000D01*
X135002000Y-88900000D02*
X134374000Y-89528000D01*
X134374000Y-90004900D02*
X134539100Y-90170000D01*
X134374000Y-89528000D02*
X134374000Y-90004900D01*
X125299500Y-114832000D02*
X125300000Y-114832000D01*
X125299500Y-114832000D02*
X125300000Y-114832500D01*
X124650000Y-114832000D02*
X125299500Y-114832000D01*
X127000000Y-91440000D02*
X127000000Y-93726000D01*
X123321300Y-114832000D02*
X124650000Y-114832000D01*
X119802700Y-111313400D02*
X123321300Y-114832000D01*
X119802700Y-100923300D02*
X119802700Y-111313400D01*
X127000000Y-93726000D02*
X119802700Y-100923300D01*
X124650000Y-114832000D02*
X124650000Y-114832500D01*
X135050000Y-101068000D02*
X135050500Y-101068000D01*
X135050500Y-101068000D02*
X135699500Y-101068000D01*
X135699500Y-101068000D02*
X135700000Y-101068000D01*
X135699500Y-101068000D02*
X135700000Y-101067500D01*
X135050500Y-101068000D02*
X135050000Y-101067500D01*
X135050000Y-99261900D02*
X135050000Y-101067500D01*
X134850200Y-99062100D02*
X135050000Y-99261900D01*
X134400000Y-114832000D02*
X135049500Y-114832000D01*
X135049500Y-114832000D02*
X135050000Y-114832000D01*
X135049500Y-114832000D02*
X135050000Y-114832500D01*
X134400000Y-112868100D02*
X134400000Y-114832000D01*
X133720600Y-112188700D02*
X134400000Y-112868100D01*
X134400000Y-114832000D02*
X134400000Y-114832500D01*
X125300000Y-101068000D02*
X125300500Y-101068000D01*
X125300500Y-101068000D02*
X125300000Y-101067500D01*
X125950000Y-101068000D02*
X125950000Y-101067500D01*
X135630000Y-92710000D02*
X136258000Y-92710000D01*
X136886000Y-92082000D02*
X136886000Y-91440000D01*
X136258000Y-92710000D02*
X136886000Y-92082000D01*
X135630000Y-91440000D02*
X136886000Y-91440000D01*
X125300500Y-101068000D02*
X125787700Y-101068000D01*
X125787700Y-101068000D02*
X125950000Y-101068000D01*
X136258000Y-93325600D02*
X136258000Y-92710000D01*
X140652400Y-97720000D02*
X136258000Y-93325600D01*
X141696100Y-97720000D02*
X140652400Y-97720000D01*
X142570800Y-98594700D02*
X141696100Y-97720000D01*
X142570800Y-102934300D02*
X142570800Y-98594700D01*
X142003200Y-103501900D02*
X142570800Y-102934300D01*
X127465000Y-103501900D02*
X142003200Y-103501900D01*
X125787700Y-101824600D02*
X127465000Y-103501900D01*
X125787700Y-101068000D02*
X125787700Y-101824600D01*
D30*
X107019000Y-96591100D02*
X109222800Y-98794900D01*
X103820000Y-96591100D02*
X107019000Y-96591100D01*
X128115400Y-99383100D02*
X128115400Y-98794900D01*
X128550000Y-99817700D02*
X128115400Y-99383100D01*
X128550000Y-101067500D02*
X128550000Y-99817700D01*
D32*
G36*
X89798090Y-80691890D02*
X89791846Y-80701234D01*
X89771085Y-80670163D01*
X89371428Y-80403121D01*
X88900000Y-80309348D01*
X88428572Y-80403121D01*
X88028915Y-80670163D01*
X87761873Y-81069820D01*
X87668100Y-81541248D01*
X87668100Y-82288752D01*
X87761873Y-82760180D01*
X88028915Y-83159837D01*
X88428572Y-83426879D01*
X88900000Y-83520652D01*
X89371428Y-83426879D01*
X89771085Y-83159837D01*
X90038127Y-82760180D01*
X90105196Y-82423000D01*
X90157300Y-82423000D01*
X90231854Y-82408170D01*
X90301873Y-82760180D01*
X90568915Y-83159837D01*
X90932000Y-83402442D01*
X90932000Y-99827100D01*
X90970669Y-100021503D01*
X91080790Y-100186310D01*
X94817480Y-103923000D01*
X93521200Y-103923000D01*
X93326797Y-103961669D01*
X93326795Y-103961670D01*
X93326796Y-103961670D01*
X93161989Y-104071790D01*
X92530590Y-104703190D01*
X92420469Y-104867997D01*
X92386405Y-105039249D01*
X92194342Y-104751806D01*
X91848247Y-104520553D01*
X91440000Y-104439348D01*
X91031753Y-104520553D01*
X90685658Y-104751806D01*
X90454405Y-105097901D01*
X90373200Y-105506148D01*
X90373200Y-106583852D01*
X90454405Y-106992099D01*
X90685658Y-107338194D01*
X91031753Y-107569447D01*
X91440000Y-107650652D01*
X91848247Y-107569447D01*
X92159516Y-107361464D01*
X90480771Y-109040209D01*
X90480771Y-108331000D01*
X90457115Y-108212073D01*
X90389748Y-108111252D01*
X90288927Y-108043885D01*
X90170000Y-108020229D01*
X89408000Y-108020229D01*
X89408000Y-107502794D01*
X89654342Y-107338194D01*
X89885595Y-106992099D01*
X89966800Y-106583852D01*
X89966800Y-105506148D01*
X89885595Y-105097901D01*
X89654342Y-104751806D01*
X89308247Y-104520553D01*
X88900000Y-104439348D01*
X88491753Y-104520553D01*
X88145658Y-104751806D01*
X87914405Y-105097901D01*
X87833200Y-105506148D01*
X87833200Y-106583852D01*
X87914405Y-106992099D01*
X88145658Y-107338194D01*
X88392000Y-107502794D01*
X88392000Y-108020229D01*
X87630000Y-108020229D01*
X87511073Y-108043885D01*
X87410252Y-108111252D01*
X87342885Y-108212073D01*
X87319229Y-108331000D01*
X87319229Y-109601000D01*
X87342885Y-109719927D01*
X87410252Y-109820748D01*
X87511073Y-109888115D01*
X87630000Y-109911771D01*
X88038059Y-109911771D01*
X87969697Y-109925369D01*
X87804890Y-110035490D01*
X86477090Y-111363290D01*
X86366969Y-111528097D01*
X86328300Y-111722500D01*
X86328300Y-112099494D01*
X86156509Y-111683727D01*
X85803133Y-111329734D01*
X85341190Y-111137919D01*
X84841005Y-111137482D01*
X84378727Y-111328491D01*
X84024734Y-111681867D01*
X83832919Y-112143810D01*
X83832482Y-112643995D01*
X84023491Y-113106273D01*
X84376867Y-113460266D01*
X84838810Y-113652081D01*
X85338995Y-113652518D01*
X85801273Y-113461509D01*
X86155266Y-113108133D01*
X86328300Y-112691420D01*
X86328300Y-114248280D01*
X84718090Y-115858490D01*
X84607969Y-116023297D01*
X84581399Y-116156873D01*
X84291428Y-115963121D01*
X83820000Y-115869348D01*
X83348572Y-115963121D01*
X82948915Y-116230163D01*
X82681873Y-116629820D01*
X82588100Y-117101248D01*
X82588100Y-117848752D01*
X82681873Y-118320180D01*
X82948915Y-118719837D01*
X83348572Y-118986879D01*
X83820000Y-119080652D01*
X84291428Y-118986879D01*
X84691085Y-118719837D01*
X84958127Y-118320180D01*
X85025196Y-117983000D01*
X85077300Y-117983000D01*
X85151854Y-117968170D01*
X85221873Y-118320180D01*
X85488915Y-118719837D01*
X85888572Y-118986879D01*
X86360000Y-119080652D01*
X86831428Y-118986879D01*
X87231085Y-118719837D01*
X87498127Y-118320180D01*
X87591900Y-117848752D01*
X87591900Y-117101248D01*
X87668100Y-117101248D01*
X87668100Y-117848752D01*
X87761873Y-118320180D01*
X88028915Y-118719837D01*
X88428572Y-118986879D01*
X88900000Y-119080652D01*
X89371428Y-118986879D01*
X89771085Y-118719837D01*
X90038127Y-118320180D01*
X90131900Y-117848752D01*
X90131900Y-117101248D01*
X90208100Y-117101248D01*
X90208100Y-117848752D01*
X90301873Y-118320180D01*
X90568915Y-118719837D01*
X90968572Y-118986879D01*
X91440000Y-119080652D01*
X91911428Y-118986879D01*
X92311085Y-118719837D01*
X92578127Y-118320180D01*
X92671900Y-117848752D01*
X92671900Y-117101248D01*
X92748100Y-117101248D01*
X92748100Y-117848752D01*
X92841873Y-118320180D01*
X93108915Y-118719837D01*
X93508572Y-118986879D01*
X93980000Y-119080652D01*
X94451428Y-118986879D01*
X94851085Y-118719837D01*
X95118127Y-118320180D01*
X95211900Y-117848752D01*
X95211900Y-117101248D01*
X95288100Y-117101248D01*
X95288100Y-117848752D01*
X95381873Y-118320180D01*
X95648915Y-118719837D01*
X96048572Y-118986879D01*
X96520000Y-119080652D01*
X96991428Y-118986879D01*
X97391085Y-118719837D01*
X97658127Y-118320180D01*
X97751900Y-117848752D01*
X97751900Y-117101248D01*
X97658127Y-116629820D01*
X97391085Y-116230163D01*
X96991428Y-115963121D01*
X96520000Y-115869348D01*
X96048572Y-115963121D01*
X95648915Y-116230163D01*
X95381873Y-116629820D01*
X95288100Y-117101248D01*
X95211900Y-117101248D01*
X95118127Y-116629820D01*
X94851085Y-116230163D01*
X94451428Y-115963121D01*
X93980000Y-115869348D01*
X93508572Y-115963121D01*
X93108915Y-116230163D01*
X92841873Y-116629820D01*
X92748100Y-117101248D01*
X92671900Y-117101248D01*
X92578127Y-116629820D01*
X92311085Y-116230163D01*
X91911428Y-115963121D01*
X91440000Y-115869348D01*
X90968572Y-115963121D01*
X90568915Y-116230163D01*
X90301873Y-116629820D01*
X90208100Y-117101248D01*
X90131900Y-117101248D01*
X90038127Y-116629820D01*
X89771085Y-116230163D01*
X89371428Y-115963121D01*
X88900000Y-115869348D01*
X88428572Y-115963121D01*
X88028915Y-116230163D01*
X87761873Y-116629820D01*
X87668100Y-117101248D01*
X87591900Y-117101248D01*
X87498127Y-116629820D01*
X87231085Y-116230163D01*
X86831428Y-115963121D01*
X86360000Y-115869348D01*
X86090456Y-115922964D01*
X87195510Y-114817910D01*
X87305631Y-114653103D01*
X87344300Y-114458700D01*
X87344300Y-112770045D01*
X87410252Y-112868748D01*
X87511073Y-112936115D01*
X87630000Y-112959771D01*
X90170000Y-112959771D01*
X90288927Y-112936115D01*
X90389748Y-112868748D01*
X90457115Y-112767927D01*
X90480771Y-112649000D01*
X90480771Y-112522000D01*
X90500200Y-112522000D01*
X90694603Y-112483331D01*
X90859410Y-112373210D01*
X91650821Y-111581800D01*
X92399229Y-111581800D01*
X92399229Y-112649000D01*
X92422885Y-112767927D01*
X92490252Y-112868748D01*
X92591073Y-112936115D01*
X92710000Y-112959771D01*
X93472000Y-112959771D01*
X93472000Y-112979200D01*
X93510669Y-113173603D01*
X93620790Y-113338410D01*
X95123889Y-114841510D01*
X95288696Y-114951631D01*
X95320950Y-114958046D01*
X95483100Y-114990300D01*
X98003980Y-114990300D01*
X98912390Y-115898710D01*
X98588572Y-115963121D01*
X98188915Y-116230163D01*
X97921873Y-116629820D01*
X97828100Y-117101248D01*
X97828100Y-117848752D01*
X97921873Y-118320180D01*
X98188915Y-118719837D01*
X98588572Y-118986879D01*
X99060000Y-119080652D01*
X99531428Y-118986879D01*
X99931085Y-118719837D01*
X100198127Y-118320180D01*
X100268146Y-117968170D01*
X100342700Y-117983000D01*
X100394804Y-117983000D01*
X100461873Y-118320180D01*
X100728915Y-118719837D01*
X101128572Y-118986879D01*
X101600000Y-119080652D01*
X102071428Y-118986879D01*
X102471085Y-118719837D01*
X102738127Y-118320180D01*
X102831900Y-117848752D01*
X102831900Y-117101248D01*
X102738127Y-116629820D01*
X102471085Y-116230163D01*
X102071428Y-115963121D01*
X101600000Y-115869348D01*
X101128572Y-115963121D01*
X100728915Y-116230163D01*
X100708321Y-116260984D01*
X100701910Y-116251390D01*
X98573610Y-114123090D01*
X98408803Y-114012969D01*
X98214400Y-113974300D01*
X95693521Y-113974300D01*
X94678991Y-112959771D01*
X95250000Y-112959771D01*
X95368927Y-112936115D01*
X95469748Y-112868748D01*
X95537115Y-112767927D01*
X95560771Y-112649000D01*
X95560771Y-111581800D01*
X96824976Y-111581800D01*
X96724734Y-111681867D01*
X96532919Y-112143810D01*
X96532482Y-112643995D01*
X96723491Y-113106273D01*
X97076867Y-113460266D01*
X97538810Y-113652081D01*
X98038995Y-113652518D01*
X98501273Y-113461509D01*
X98855266Y-113108133D01*
X99047081Y-112646190D01*
X99047518Y-112146005D01*
X98856509Y-111683727D01*
X98754760Y-111581800D01*
X99128580Y-111581800D01*
X103573456Y-116026676D01*
X103268915Y-116230163D01*
X103001873Y-116629820D01*
X102908100Y-117101248D01*
X102908100Y-117848752D01*
X103001873Y-118320180D01*
X103268915Y-118719837D01*
X103668572Y-118986879D01*
X104140000Y-119080652D01*
X104611428Y-118986879D01*
X105011085Y-118719837D01*
X105278127Y-118320180D01*
X105371900Y-117848752D01*
X105371900Y-117101248D01*
X105448100Y-117101248D01*
X105448100Y-117848752D01*
X105541873Y-118320180D01*
X105808915Y-118719837D01*
X106208572Y-118986879D01*
X106680000Y-119080652D01*
X107151428Y-118986879D01*
X107551085Y-118719837D01*
X107818127Y-118320180D01*
X107911900Y-117848752D01*
X107911900Y-117101248D01*
X107988100Y-117101248D01*
X107988100Y-117848752D01*
X108081873Y-118320180D01*
X108348915Y-118719837D01*
X108748572Y-118986879D01*
X109220000Y-119080652D01*
X109691428Y-118986879D01*
X110091085Y-118719837D01*
X110358127Y-118320180D01*
X110451900Y-117848752D01*
X110451900Y-117101248D01*
X110358127Y-116629820D01*
X110091085Y-116230163D01*
X109691428Y-115963121D01*
X109220000Y-115869348D01*
X108748572Y-115963121D01*
X108348915Y-116230163D01*
X108081873Y-116629820D01*
X107988100Y-117101248D01*
X107911900Y-117101248D01*
X107818127Y-116629820D01*
X107551085Y-116230163D01*
X107151428Y-115963121D01*
X106680000Y-115869348D01*
X106208572Y-115963121D01*
X105808915Y-116230163D01*
X105541873Y-116629820D01*
X105448100Y-117101248D01*
X105371900Y-117101248D01*
X105278127Y-116629820D01*
X105011085Y-116230163D01*
X104648000Y-115987558D01*
X104648000Y-115874800D01*
X104609331Y-115680397D01*
X104609331Y-115680396D01*
X104499210Y-115515590D01*
X99698210Y-110714590D01*
X99533403Y-110604469D01*
X99339000Y-110565800D01*
X91440400Y-110565800D01*
X91245997Y-110604469D01*
X91081190Y-110714589D01*
X90470154Y-111325625D01*
X90457115Y-111260073D01*
X90389748Y-111159252D01*
X90288927Y-111091885D01*
X90170000Y-111068229D01*
X88208991Y-111068229D01*
X88374520Y-110902700D01*
X89844700Y-110902700D01*
X90039103Y-110864031D01*
X90203910Y-110753910D01*
X92399229Y-108558591D01*
X92399229Y-109601000D01*
X92422885Y-109719927D01*
X92490252Y-109820748D01*
X92591073Y-109888115D01*
X92710000Y-109911771D01*
X95250000Y-109911771D01*
X95368927Y-109888115D01*
X95418486Y-109855000D01*
X99832980Y-109855000D01*
X99919019Y-110287547D01*
X100164037Y-110654243D01*
X100530733Y-110899261D01*
X100963280Y-110985300D01*
X101525520Y-110985300D01*
X101958067Y-110899261D01*
X102324763Y-110654243D01*
X102569781Y-110287547D01*
X102655820Y-109855000D01*
X102569781Y-109422453D01*
X102324763Y-109055757D01*
X101958067Y-108810739D01*
X101525520Y-108724700D01*
X100963280Y-108724700D01*
X100530733Y-108810739D01*
X100164037Y-109055757D01*
X99919019Y-109422453D01*
X99832980Y-109855000D01*
X95418486Y-109855000D01*
X95469748Y-109820748D01*
X95537115Y-109719927D01*
X95560771Y-109601000D01*
X95560771Y-108331000D01*
X95537115Y-108212073D01*
X95469748Y-108111252D01*
X95368927Y-108043885D01*
X95250000Y-108020229D01*
X94488000Y-108020229D01*
X94488000Y-107502794D01*
X94734342Y-107338194D01*
X94965595Y-106992099D01*
X95046800Y-106583852D01*
X95046800Y-105506148D01*
X94965595Y-105097901D01*
X94859421Y-104939000D01*
X99280280Y-104939000D01*
X99475489Y-105134210D01*
X99563671Y-105193131D01*
X99640297Y-105244331D01*
X99834700Y-105283000D01*
X99969435Y-105283000D01*
X100164037Y-105574243D01*
X100530733Y-105819261D01*
X100963280Y-105905300D01*
X101525520Y-105905300D01*
X101958067Y-105819261D01*
X102324763Y-105574243D01*
X102569781Y-105207547D01*
X102570336Y-105204756D01*
X111173590Y-113808010D01*
X111338397Y-113918131D01*
X111532800Y-113956800D01*
X119492380Y-113956800D01*
X122923990Y-117388410D01*
X123088796Y-117498531D01*
X123121050Y-117504946D01*
X123283200Y-117537200D01*
X128183500Y-117537200D01*
X128377903Y-117498531D01*
X128542710Y-117388410D01*
X129356510Y-116574610D01*
X129399804Y-116679390D01*
X129610401Y-116890356D01*
X129729337Y-116939743D01*
X127574080Y-119095000D01*
X119435267Y-119095000D01*
X119874682Y-118656352D01*
X120192437Y-117891112D01*
X120193160Y-117062523D01*
X119876741Y-116296730D01*
X119291352Y-115710318D01*
X118526112Y-115392563D01*
X117697523Y-115391840D01*
X116931730Y-115708259D01*
X116345318Y-116293648D01*
X116027563Y-117058888D01*
X116026840Y-117887477D01*
X116343259Y-118653270D01*
X116784218Y-119095000D01*
X114491320Y-119095000D01*
X114447610Y-119051290D01*
X114771428Y-118986879D01*
X115171085Y-118719837D01*
X115438127Y-118320180D01*
X115531900Y-117848752D01*
X115531900Y-117101248D01*
X115438127Y-116629820D01*
X115171085Y-116230163D01*
X114771428Y-115963121D01*
X114300000Y-115869348D01*
X113828572Y-115963121D01*
X113428915Y-116230163D01*
X113161873Y-116629820D01*
X113091854Y-116981830D01*
X113017300Y-116967000D01*
X112965196Y-116967000D01*
X112898127Y-116629820D01*
X112631085Y-116230163D01*
X112231428Y-115963121D01*
X111760000Y-115869348D01*
X111288572Y-115963121D01*
X110888915Y-116230163D01*
X110621873Y-116629820D01*
X110528100Y-117101248D01*
X110528100Y-117848752D01*
X110621873Y-118320180D01*
X110888915Y-118719837D01*
X111288572Y-118986879D01*
X111760000Y-119080652D01*
X112231428Y-118986879D01*
X112631085Y-118719837D01*
X112651679Y-118689016D01*
X112658090Y-118698610D01*
X113555380Y-119595900D01*
X74079100Y-119595900D01*
X74079100Y-117101248D01*
X74968100Y-117101248D01*
X74968100Y-117848752D01*
X75061873Y-118320180D01*
X75328915Y-118719837D01*
X75728572Y-118986879D01*
X76200000Y-119080652D01*
X76671428Y-118986879D01*
X77071085Y-118719837D01*
X77338127Y-118320180D01*
X77431900Y-117848752D01*
X77431900Y-117101248D01*
X77508100Y-117101248D01*
X77508100Y-117848752D01*
X77601873Y-118320180D01*
X77868915Y-118719837D01*
X78268572Y-118986879D01*
X78740000Y-119080652D01*
X79211428Y-118986879D01*
X79611085Y-118719837D01*
X79878127Y-118320180D01*
X79971900Y-117848752D01*
X79971900Y-117101248D01*
X80048100Y-117101248D01*
X80048100Y-117848752D01*
X80141873Y-118320180D01*
X80408915Y-118719837D01*
X80808572Y-118986879D01*
X81280000Y-119080652D01*
X81751428Y-118986879D01*
X82151085Y-118719837D01*
X82418127Y-118320180D01*
X82511900Y-117848752D01*
X82511900Y-117101248D01*
X82418127Y-116629820D01*
X82151085Y-116230163D01*
X81751428Y-115963121D01*
X81280000Y-115869348D01*
X80808572Y-115963121D01*
X80408915Y-116230163D01*
X80141873Y-116629820D01*
X80048100Y-117101248D01*
X79971900Y-117101248D01*
X79878127Y-116629820D01*
X79611085Y-116230163D01*
X79211428Y-115963121D01*
X78740000Y-115869348D01*
X78268572Y-115963121D01*
X77868915Y-116230163D01*
X77601873Y-116629820D01*
X77508100Y-117101248D01*
X77431900Y-117101248D01*
X77338127Y-116629820D01*
X77071085Y-116230163D01*
X76671428Y-115963121D01*
X76200000Y-115869348D01*
X75728572Y-115963121D01*
X75328915Y-116230163D01*
X75061873Y-116629820D01*
X74968100Y-117101248D01*
X74079100Y-117101248D01*
X74079100Y-112807477D01*
X75386840Y-112807477D01*
X75703259Y-113573270D01*
X76288648Y-114159682D01*
X77053888Y-114477437D01*
X77882477Y-114478160D01*
X78648270Y-114161741D01*
X79234682Y-113576352D01*
X79552437Y-112811112D01*
X79553160Y-111982523D01*
X79236741Y-111216730D01*
X78651352Y-110630318D01*
X77886112Y-110312563D01*
X77057523Y-110311840D01*
X76291730Y-110628259D01*
X75705318Y-111213648D01*
X75387563Y-111978888D01*
X75386840Y-112807477D01*
X74079100Y-112807477D01*
X74079100Y-101010348D01*
X86563200Y-101010348D01*
X86563200Y-102088052D01*
X86644405Y-102496299D01*
X86875658Y-102842394D01*
X87221753Y-103073647D01*
X87630000Y-103154852D01*
X88038247Y-103073647D01*
X88384342Y-102842394D01*
X88615595Y-102496299D01*
X88696800Y-102088052D01*
X88696800Y-101010348D01*
X88615595Y-100602101D01*
X88384342Y-100256006D01*
X88038247Y-100024753D01*
X87630000Y-99943548D01*
X87221753Y-100024753D01*
X86875658Y-100256006D01*
X86644405Y-100602101D01*
X86563200Y-101010348D01*
X74079100Y-101010348D01*
X74079100Y-99943995D01*
X83832482Y-99943995D01*
X84023491Y-100406273D01*
X84376867Y-100760266D01*
X84838810Y-100952081D01*
X85338995Y-100952518D01*
X85801273Y-100761509D01*
X86155266Y-100408133D01*
X86347081Y-99946190D01*
X86347518Y-99446005D01*
X86156509Y-98983727D01*
X85803133Y-98629734D01*
X85341190Y-98437919D01*
X84841005Y-98437482D01*
X84378727Y-98628491D01*
X84024734Y-98981867D01*
X83832919Y-99443810D01*
X83832482Y-99943995D01*
X74079100Y-99943995D01*
X74079100Y-87407477D01*
X75386840Y-87407477D01*
X75703259Y-88173270D01*
X76288648Y-88759682D01*
X77053888Y-89077437D01*
X77882477Y-89078160D01*
X78648270Y-88761741D01*
X79234682Y-88176352D01*
X79552437Y-87411112D01*
X79553160Y-86582523D01*
X79236741Y-85816730D01*
X78651352Y-85230318D01*
X77886112Y-84912563D01*
X77057523Y-84911840D01*
X76291730Y-85228259D01*
X75705318Y-85813648D01*
X75387563Y-86578888D01*
X75386840Y-87407477D01*
X74079100Y-87407477D01*
X74079100Y-80645000D01*
X74962129Y-80645000D01*
X74962129Y-83185000D01*
X74985785Y-83303927D01*
X75053152Y-83404748D01*
X75153973Y-83472115D01*
X75272900Y-83495771D01*
X76990509Y-83495771D01*
X80684041Y-87189304D01*
X80658030Y-87251947D01*
X80657373Y-88004750D01*
X80944851Y-88700501D01*
X81476699Y-89233278D01*
X82171947Y-89521970D01*
X82924750Y-89522627D01*
X83439624Y-89309886D01*
X89120441Y-94990703D01*
X89061252Y-95030252D01*
X88993885Y-95131073D01*
X88970229Y-95250000D01*
X88970229Y-97790000D01*
X88993885Y-97908927D01*
X89061252Y-98009748D01*
X89162073Y-98077115D01*
X89281000Y-98100771D01*
X90551000Y-98100771D01*
X90669927Y-98077115D01*
X90770748Y-98009748D01*
X90838115Y-97908927D01*
X90861771Y-97790000D01*
X90861771Y-95250000D01*
X90838115Y-95131073D01*
X90770748Y-95030252D01*
X90669927Y-94962885D01*
X90551000Y-94939229D01*
X90474800Y-94939229D01*
X90474800Y-94869000D01*
X90432264Y-94655156D01*
X90311131Y-94473869D01*
X90129844Y-94352736D01*
X90046400Y-94336138D01*
X84229647Y-88519385D01*
X84441970Y-88008053D01*
X84442627Y-87255250D01*
X84155149Y-86559499D01*
X83623301Y-86026722D01*
X82928053Y-85738030D01*
X82175250Y-85737373D01*
X81479499Y-86024851D01*
X81289641Y-86214378D01*
X78869862Y-83794600D01*
X78892402Y-83794600D01*
X78892402Y-83633786D01*
X79129731Y-83744357D01*
X79187270Y-83735947D01*
X79718848Y-83452274D01*
X80101405Y-82986769D01*
X80161414Y-82789425D01*
X80408915Y-83159837D01*
X80808572Y-83426879D01*
X81280000Y-83520652D01*
X81751428Y-83426879D01*
X82151085Y-83159837D01*
X82418127Y-82760180D01*
X82511900Y-82288752D01*
X82511900Y-81541248D01*
X82588100Y-81541248D01*
X82588100Y-82288752D01*
X82681873Y-82760180D01*
X82948915Y-83159837D01*
X83348572Y-83426879D01*
X83820000Y-83520652D01*
X84291428Y-83426879D01*
X84691085Y-83159837D01*
X84958127Y-82760180D01*
X85051900Y-82288752D01*
X85051900Y-81541248D01*
X85128100Y-81541248D01*
X85128100Y-82288752D01*
X85221873Y-82760180D01*
X85488915Y-83159837D01*
X85888572Y-83426879D01*
X86360000Y-83520652D01*
X86831428Y-83426879D01*
X87231085Y-83159837D01*
X87498127Y-82760180D01*
X87591900Y-82288752D01*
X87591900Y-81541248D01*
X87498127Y-81069820D01*
X87231085Y-80670163D01*
X86831428Y-80403121D01*
X86360000Y-80309348D01*
X85888572Y-80403121D01*
X85488915Y-80670163D01*
X85221873Y-81069820D01*
X85128100Y-81541248D01*
X85051900Y-81541248D01*
X84958127Y-81069820D01*
X84691085Y-80670163D01*
X84291428Y-80403121D01*
X83820000Y-80309348D01*
X83348572Y-80403121D01*
X82948915Y-80670163D01*
X82681873Y-81069820D01*
X82588100Y-81541248D01*
X82511900Y-81541248D01*
X82418127Y-81069820D01*
X82151085Y-80670163D01*
X81751428Y-80403121D01*
X81280000Y-80309348D01*
X80808572Y-80403121D01*
X80408915Y-80670163D01*
X80161414Y-81040575D01*
X80101405Y-80843231D01*
X79718848Y-80377726D01*
X79187270Y-80094053D01*
X79129731Y-80085643D01*
X78892400Y-80196215D01*
X78892400Y-81762600D01*
X78912400Y-81762600D01*
X78912400Y-82067400D01*
X78892400Y-82067400D01*
X78892400Y-82087400D01*
X78587600Y-82087400D01*
X78587600Y-82067400D01*
X78567600Y-82067400D01*
X78567600Y-81762600D01*
X78587600Y-81762600D01*
X78587600Y-80196215D01*
X78350269Y-80085643D01*
X78292730Y-80094053D01*
X77761152Y-80377726D01*
X77437871Y-80771102D01*
X77437871Y-80645000D01*
X77414215Y-80526073D01*
X77346848Y-80425252D01*
X77246027Y-80357885D01*
X77127100Y-80334229D01*
X75272900Y-80334229D01*
X75153973Y-80357885D01*
X75053152Y-80425252D01*
X74985785Y-80526073D01*
X74962129Y-80645000D01*
X74079100Y-80645000D01*
X74079100Y-79794100D01*
X90695880Y-79794100D01*
X89798090Y-80691890D01*
X89798090Y-80691890D01*
G37*
X89798090Y-80691890D02*
X89791846Y-80701234D01*
X89771085Y-80670163D01*
X89371428Y-80403121D01*
X88900000Y-80309348D01*
X88428572Y-80403121D01*
X88028915Y-80670163D01*
X87761873Y-81069820D01*
X87668100Y-81541248D01*
X87668100Y-82288752D01*
X87761873Y-82760180D01*
X88028915Y-83159837D01*
X88428572Y-83426879D01*
X88900000Y-83520652D01*
X89371428Y-83426879D01*
X89771085Y-83159837D01*
X90038127Y-82760180D01*
X90105196Y-82423000D01*
X90157300Y-82423000D01*
X90231854Y-82408170D01*
X90301873Y-82760180D01*
X90568915Y-83159837D01*
X90932000Y-83402442D01*
X90932000Y-99827100D01*
X90970669Y-100021503D01*
X91080790Y-100186310D01*
X94817480Y-103923000D01*
X93521200Y-103923000D01*
X93326797Y-103961669D01*
X93326795Y-103961670D01*
X93326796Y-103961670D01*
X93161989Y-104071790D01*
X92530590Y-104703190D01*
X92420469Y-104867997D01*
X92386405Y-105039249D01*
X92194342Y-104751806D01*
X91848247Y-104520553D01*
X91440000Y-104439348D01*
X91031753Y-104520553D01*
X90685658Y-104751806D01*
X90454405Y-105097901D01*
X90373200Y-105506148D01*
X90373200Y-106583852D01*
X90454405Y-106992099D01*
X90685658Y-107338194D01*
X91031753Y-107569447D01*
X91440000Y-107650652D01*
X91848247Y-107569447D01*
X92159516Y-107361464D01*
X90480771Y-109040209D01*
X90480771Y-108331000D01*
X90457115Y-108212073D01*
X90389748Y-108111252D01*
X90288927Y-108043885D01*
X90170000Y-108020229D01*
X89408000Y-108020229D01*
X89408000Y-107502794D01*
X89654342Y-107338194D01*
X89885595Y-106992099D01*
X89966800Y-106583852D01*
X89966800Y-105506148D01*
X89885595Y-105097901D01*
X89654342Y-104751806D01*
X89308247Y-104520553D01*
X88900000Y-104439348D01*
X88491753Y-104520553D01*
X88145658Y-104751806D01*
X87914405Y-105097901D01*
X87833200Y-105506148D01*
X87833200Y-106583852D01*
X87914405Y-106992099D01*
X88145658Y-107338194D01*
X88392000Y-107502794D01*
X88392000Y-108020229D01*
X87630000Y-108020229D01*
X87511073Y-108043885D01*
X87410252Y-108111252D01*
X87342885Y-108212073D01*
X87319229Y-108331000D01*
X87319229Y-109601000D01*
X87342885Y-109719927D01*
X87410252Y-109820748D01*
X87511073Y-109888115D01*
X87630000Y-109911771D01*
X88038059Y-109911771D01*
X87969697Y-109925369D01*
X87804890Y-110035490D01*
X86477090Y-111363290D01*
X86366969Y-111528097D01*
X86328300Y-111722500D01*
X86328300Y-112099494D01*
X86156509Y-111683727D01*
X85803133Y-111329734D01*
X85341190Y-111137919D01*
X84841005Y-111137482D01*
X84378727Y-111328491D01*
X84024734Y-111681867D01*
X83832919Y-112143810D01*
X83832482Y-112643995D01*
X84023491Y-113106273D01*
X84376867Y-113460266D01*
X84838810Y-113652081D01*
X85338995Y-113652518D01*
X85801273Y-113461509D01*
X86155266Y-113108133D01*
X86328300Y-112691420D01*
X86328300Y-114248280D01*
X84718090Y-115858490D01*
X84607969Y-116023297D01*
X84581399Y-116156873D01*
X84291428Y-115963121D01*
X83820000Y-115869348D01*
X83348572Y-115963121D01*
X82948915Y-116230163D01*
X82681873Y-116629820D01*
X82588100Y-117101248D01*
X82588100Y-117848752D01*
X82681873Y-118320180D01*
X82948915Y-118719837D01*
X83348572Y-118986879D01*
X83820000Y-119080652D01*
X84291428Y-118986879D01*
X84691085Y-118719837D01*
X84958127Y-118320180D01*
X85025196Y-117983000D01*
X85077300Y-117983000D01*
X85151854Y-117968170D01*
X85221873Y-118320180D01*
X85488915Y-118719837D01*
X85888572Y-118986879D01*
X86360000Y-119080652D01*
X86831428Y-118986879D01*
X87231085Y-118719837D01*
X87498127Y-118320180D01*
X87591900Y-117848752D01*
X87591900Y-117101248D01*
X87668100Y-117101248D01*
X87668100Y-117848752D01*
X87761873Y-118320180D01*
X88028915Y-118719837D01*
X88428572Y-118986879D01*
X88900000Y-119080652D01*
X89371428Y-118986879D01*
X89771085Y-118719837D01*
X90038127Y-118320180D01*
X90131900Y-117848752D01*
X90131900Y-117101248D01*
X90208100Y-117101248D01*
X90208100Y-117848752D01*
X90301873Y-118320180D01*
X90568915Y-118719837D01*
X90968572Y-118986879D01*
X91440000Y-119080652D01*
X91911428Y-118986879D01*
X92311085Y-118719837D01*
X92578127Y-118320180D01*
X92671900Y-117848752D01*
X92671900Y-117101248D01*
X92748100Y-117101248D01*
X92748100Y-117848752D01*
X92841873Y-118320180D01*
X93108915Y-118719837D01*
X93508572Y-118986879D01*
X93980000Y-119080652D01*
X94451428Y-118986879D01*
X94851085Y-118719837D01*
X95118127Y-118320180D01*
X95211900Y-117848752D01*
X95211900Y-117101248D01*
X95288100Y-117101248D01*
X95288100Y-117848752D01*
X95381873Y-118320180D01*
X95648915Y-118719837D01*
X96048572Y-118986879D01*
X96520000Y-119080652D01*
X96991428Y-118986879D01*
X97391085Y-118719837D01*
X97658127Y-118320180D01*
X97751900Y-117848752D01*
X97751900Y-117101248D01*
X97658127Y-116629820D01*
X97391085Y-116230163D01*
X96991428Y-115963121D01*
X96520000Y-115869348D01*
X96048572Y-115963121D01*
X95648915Y-116230163D01*
X95381873Y-116629820D01*
X95288100Y-117101248D01*
X95211900Y-117101248D01*
X95118127Y-116629820D01*
X94851085Y-116230163D01*
X94451428Y-115963121D01*
X93980000Y-115869348D01*
X93508572Y-115963121D01*
X93108915Y-116230163D01*
X92841873Y-116629820D01*
X92748100Y-117101248D01*
X92671900Y-117101248D01*
X92578127Y-116629820D01*
X92311085Y-116230163D01*
X91911428Y-115963121D01*
X91440000Y-115869348D01*
X90968572Y-115963121D01*
X90568915Y-116230163D01*
X90301873Y-116629820D01*
X90208100Y-117101248D01*
X90131900Y-117101248D01*
X90038127Y-116629820D01*
X89771085Y-116230163D01*
X89371428Y-115963121D01*
X88900000Y-115869348D01*
X88428572Y-115963121D01*
X88028915Y-116230163D01*
X87761873Y-116629820D01*
X87668100Y-117101248D01*
X87591900Y-117101248D01*
X87498127Y-116629820D01*
X87231085Y-116230163D01*
X86831428Y-115963121D01*
X86360000Y-115869348D01*
X86090456Y-115922964D01*
X87195510Y-114817910D01*
X87305631Y-114653103D01*
X87344300Y-114458700D01*
X87344300Y-112770045D01*
X87410252Y-112868748D01*
X87511073Y-112936115D01*
X87630000Y-112959771D01*
X90170000Y-112959771D01*
X90288927Y-112936115D01*
X90389748Y-112868748D01*
X90457115Y-112767927D01*
X90480771Y-112649000D01*
X90480771Y-112522000D01*
X90500200Y-112522000D01*
X90694603Y-112483331D01*
X90859410Y-112373210D01*
X91650821Y-111581800D01*
X92399229Y-111581800D01*
X92399229Y-112649000D01*
X92422885Y-112767927D01*
X92490252Y-112868748D01*
X92591073Y-112936115D01*
X92710000Y-112959771D01*
X93472000Y-112959771D01*
X93472000Y-112979200D01*
X93510669Y-113173603D01*
X93620790Y-113338410D01*
X95123889Y-114841510D01*
X95288696Y-114951631D01*
X95320950Y-114958046D01*
X95483100Y-114990300D01*
X98003980Y-114990300D01*
X98912390Y-115898710D01*
X98588572Y-115963121D01*
X98188915Y-116230163D01*
X97921873Y-116629820D01*
X97828100Y-117101248D01*
X97828100Y-117848752D01*
X97921873Y-118320180D01*
X98188915Y-118719837D01*
X98588572Y-118986879D01*
X99060000Y-119080652D01*
X99531428Y-118986879D01*
X99931085Y-118719837D01*
X100198127Y-118320180D01*
X100268146Y-117968170D01*
X100342700Y-117983000D01*
X100394804Y-117983000D01*
X100461873Y-118320180D01*
X100728915Y-118719837D01*
X101128572Y-118986879D01*
X101600000Y-119080652D01*
X102071428Y-118986879D01*
X102471085Y-118719837D01*
X102738127Y-118320180D01*
X102831900Y-117848752D01*
X102831900Y-117101248D01*
X102738127Y-116629820D01*
X102471085Y-116230163D01*
X102071428Y-115963121D01*
X101600000Y-115869348D01*
X101128572Y-115963121D01*
X100728915Y-116230163D01*
X100708321Y-116260984D01*
X100701910Y-116251390D01*
X98573610Y-114123090D01*
X98408803Y-114012969D01*
X98214400Y-113974300D01*
X95693521Y-113974300D01*
X94678991Y-112959771D01*
X95250000Y-112959771D01*
X95368927Y-112936115D01*
X95469748Y-112868748D01*
X95537115Y-112767927D01*
X95560771Y-112649000D01*
X95560771Y-111581800D01*
X96824976Y-111581800D01*
X96724734Y-111681867D01*
X96532919Y-112143810D01*
X96532482Y-112643995D01*
X96723491Y-113106273D01*
X97076867Y-113460266D01*
X97538810Y-113652081D01*
X98038995Y-113652518D01*
X98501273Y-113461509D01*
X98855266Y-113108133D01*
X99047081Y-112646190D01*
X99047518Y-112146005D01*
X98856509Y-111683727D01*
X98754760Y-111581800D01*
X99128580Y-111581800D01*
X103573456Y-116026676D01*
X103268915Y-116230163D01*
X103001873Y-116629820D01*
X102908100Y-117101248D01*
X102908100Y-117848752D01*
X103001873Y-118320180D01*
X103268915Y-118719837D01*
X103668572Y-118986879D01*
X104140000Y-119080652D01*
X104611428Y-118986879D01*
X105011085Y-118719837D01*
X105278127Y-118320180D01*
X105371900Y-117848752D01*
X105371900Y-117101248D01*
X105448100Y-117101248D01*
X105448100Y-117848752D01*
X105541873Y-118320180D01*
X105808915Y-118719837D01*
X106208572Y-118986879D01*
X106680000Y-119080652D01*
X107151428Y-118986879D01*
X107551085Y-118719837D01*
X107818127Y-118320180D01*
X107911900Y-117848752D01*
X107911900Y-117101248D01*
X107988100Y-117101248D01*
X107988100Y-117848752D01*
X108081873Y-118320180D01*
X108348915Y-118719837D01*
X108748572Y-118986879D01*
X109220000Y-119080652D01*
X109691428Y-118986879D01*
X110091085Y-118719837D01*
X110358127Y-118320180D01*
X110451900Y-117848752D01*
X110451900Y-117101248D01*
X110358127Y-116629820D01*
X110091085Y-116230163D01*
X109691428Y-115963121D01*
X109220000Y-115869348D01*
X108748572Y-115963121D01*
X108348915Y-116230163D01*
X108081873Y-116629820D01*
X107988100Y-117101248D01*
X107911900Y-117101248D01*
X107818127Y-116629820D01*
X107551085Y-116230163D01*
X107151428Y-115963121D01*
X106680000Y-115869348D01*
X106208572Y-115963121D01*
X105808915Y-116230163D01*
X105541873Y-116629820D01*
X105448100Y-117101248D01*
X105371900Y-117101248D01*
X105278127Y-116629820D01*
X105011085Y-116230163D01*
X104648000Y-115987558D01*
X104648000Y-115874800D01*
X104609331Y-115680397D01*
X104609331Y-115680396D01*
X104499210Y-115515590D01*
X99698210Y-110714590D01*
X99533403Y-110604469D01*
X99339000Y-110565800D01*
X91440400Y-110565800D01*
X91245997Y-110604469D01*
X91081190Y-110714589D01*
X90470154Y-111325625D01*
X90457115Y-111260073D01*
X90389748Y-111159252D01*
X90288927Y-111091885D01*
X90170000Y-111068229D01*
X88208991Y-111068229D01*
X88374520Y-110902700D01*
X89844700Y-110902700D01*
X90039103Y-110864031D01*
X90203910Y-110753910D01*
X92399229Y-108558591D01*
X92399229Y-109601000D01*
X92422885Y-109719927D01*
X92490252Y-109820748D01*
X92591073Y-109888115D01*
X92710000Y-109911771D01*
X95250000Y-109911771D01*
X95368927Y-109888115D01*
X95418486Y-109855000D01*
X99832980Y-109855000D01*
X99919019Y-110287547D01*
X100164037Y-110654243D01*
X100530733Y-110899261D01*
X100963280Y-110985300D01*
X101525520Y-110985300D01*
X101958067Y-110899261D01*
X102324763Y-110654243D01*
X102569781Y-110287547D01*
X102655820Y-109855000D01*
X102569781Y-109422453D01*
X102324763Y-109055757D01*
X101958067Y-108810739D01*
X101525520Y-108724700D01*
X100963280Y-108724700D01*
X100530733Y-108810739D01*
X100164037Y-109055757D01*
X99919019Y-109422453D01*
X99832980Y-109855000D01*
X95418486Y-109855000D01*
X95469748Y-109820748D01*
X95537115Y-109719927D01*
X95560771Y-109601000D01*
X95560771Y-108331000D01*
X95537115Y-108212073D01*
X95469748Y-108111252D01*
X95368927Y-108043885D01*
X95250000Y-108020229D01*
X94488000Y-108020229D01*
X94488000Y-107502794D01*
X94734342Y-107338194D01*
X94965595Y-106992099D01*
X95046800Y-106583852D01*
X95046800Y-105506148D01*
X94965595Y-105097901D01*
X94859421Y-104939000D01*
X99280280Y-104939000D01*
X99475489Y-105134210D01*
X99563671Y-105193131D01*
X99640297Y-105244331D01*
X99834700Y-105283000D01*
X99969435Y-105283000D01*
X100164037Y-105574243D01*
X100530733Y-105819261D01*
X100963280Y-105905300D01*
X101525520Y-105905300D01*
X101958067Y-105819261D01*
X102324763Y-105574243D01*
X102569781Y-105207547D01*
X102570336Y-105204756D01*
X111173590Y-113808010D01*
X111338397Y-113918131D01*
X111532800Y-113956800D01*
X119492380Y-113956800D01*
X122923990Y-117388410D01*
X123088796Y-117498531D01*
X123121050Y-117504946D01*
X123283200Y-117537200D01*
X128183500Y-117537200D01*
X128377903Y-117498531D01*
X128542710Y-117388410D01*
X129356510Y-116574610D01*
X129399804Y-116679390D01*
X129610401Y-116890356D01*
X129729337Y-116939743D01*
X127574080Y-119095000D01*
X119435267Y-119095000D01*
X119874682Y-118656352D01*
X120192437Y-117891112D01*
X120193160Y-117062523D01*
X119876741Y-116296730D01*
X119291352Y-115710318D01*
X118526112Y-115392563D01*
X117697523Y-115391840D01*
X116931730Y-115708259D01*
X116345318Y-116293648D01*
X116027563Y-117058888D01*
X116026840Y-117887477D01*
X116343259Y-118653270D01*
X116784218Y-119095000D01*
X114491320Y-119095000D01*
X114447610Y-119051290D01*
X114771428Y-118986879D01*
X115171085Y-118719837D01*
X115438127Y-118320180D01*
X115531900Y-117848752D01*
X115531900Y-117101248D01*
X115438127Y-116629820D01*
X115171085Y-116230163D01*
X114771428Y-115963121D01*
X114300000Y-115869348D01*
X113828572Y-115963121D01*
X113428915Y-116230163D01*
X113161873Y-116629820D01*
X113091854Y-116981830D01*
X113017300Y-116967000D01*
X112965196Y-116967000D01*
X112898127Y-116629820D01*
X112631085Y-116230163D01*
X112231428Y-115963121D01*
X111760000Y-115869348D01*
X111288572Y-115963121D01*
X110888915Y-116230163D01*
X110621873Y-116629820D01*
X110528100Y-117101248D01*
X110528100Y-117848752D01*
X110621873Y-118320180D01*
X110888915Y-118719837D01*
X111288572Y-118986879D01*
X111760000Y-119080652D01*
X112231428Y-118986879D01*
X112631085Y-118719837D01*
X112651679Y-118689016D01*
X112658090Y-118698610D01*
X113555380Y-119595900D01*
X74079100Y-119595900D01*
X74079100Y-117101248D01*
X74968100Y-117101248D01*
X74968100Y-117848752D01*
X75061873Y-118320180D01*
X75328915Y-118719837D01*
X75728572Y-118986879D01*
X76200000Y-119080652D01*
X76671428Y-118986879D01*
X77071085Y-118719837D01*
X77338127Y-118320180D01*
X77431900Y-117848752D01*
X77431900Y-117101248D01*
X77508100Y-117101248D01*
X77508100Y-117848752D01*
X77601873Y-118320180D01*
X77868915Y-118719837D01*
X78268572Y-118986879D01*
X78740000Y-119080652D01*
X79211428Y-118986879D01*
X79611085Y-118719837D01*
X79878127Y-118320180D01*
X79971900Y-117848752D01*
X79971900Y-117101248D01*
X80048100Y-117101248D01*
X80048100Y-117848752D01*
X80141873Y-118320180D01*
X80408915Y-118719837D01*
X80808572Y-118986879D01*
X81280000Y-119080652D01*
X81751428Y-118986879D01*
X82151085Y-118719837D01*
X82418127Y-118320180D01*
X82511900Y-117848752D01*
X82511900Y-117101248D01*
X82418127Y-116629820D01*
X82151085Y-116230163D01*
X81751428Y-115963121D01*
X81280000Y-115869348D01*
X80808572Y-115963121D01*
X80408915Y-116230163D01*
X80141873Y-116629820D01*
X80048100Y-117101248D01*
X79971900Y-117101248D01*
X79878127Y-116629820D01*
X79611085Y-116230163D01*
X79211428Y-115963121D01*
X78740000Y-115869348D01*
X78268572Y-115963121D01*
X77868915Y-116230163D01*
X77601873Y-116629820D01*
X77508100Y-117101248D01*
X77431900Y-117101248D01*
X77338127Y-116629820D01*
X77071085Y-116230163D01*
X76671428Y-115963121D01*
X76200000Y-115869348D01*
X75728572Y-115963121D01*
X75328915Y-116230163D01*
X75061873Y-116629820D01*
X74968100Y-117101248D01*
X74079100Y-117101248D01*
X74079100Y-112807477D01*
X75386840Y-112807477D01*
X75703259Y-113573270D01*
X76288648Y-114159682D01*
X77053888Y-114477437D01*
X77882477Y-114478160D01*
X78648270Y-114161741D01*
X79234682Y-113576352D01*
X79552437Y-112811112D01*
X79553160Y-111982523D01*
X79236741Y-111216730D01*
X78651352Y-110630318D01*
X77886112Y-110312563D01*
X77057523Y-110311840D01*
X76291730Y-110628259D01*
X75705318Y-111213648D01*
X75387563Y-111978888D01*
X75386840Y-112807477D01*
X74079100Y-112807477D01*
X74079100Y-101010348D01*
X86563200Y-101010348D01*
X86563200Y-102088052D01*
X86644405Y-102496299D01*
X86875658Y-102842394D01*
X87221753Y-103073647D01*
X87630000Y-103154852D01*
X88038247Y-103073647D01*
X88384342Y-102842394D01*
X88615595Y-102496299D01*
X88696800Y-102088052D01*
X88696800Y-101010348D01*
X88615595Y-100602101D01*
X88384342Y-100256006D01*
X88038247Y-100024753D01*
X87630000Y-99943548D01*
X87221753Y-100024753D01*
X86875658Y-100256006D01*
X86644405Y-100602101D01*
X86563200Y-101010348D01*
X74079100Y-101010348D01*
X74079100Y-99943995D01*
X83832482Y-99943995D01*
X84023491Y-100406273D01*
X84376867Y-100760266D01*
X84838810Y-100952081D01*
X85338995Y-100952518D01*
X85801273Y-100761509D01*
X86155266Y-100408133D01*
X86347081Y-99946190D01*
X86347518Y-99446005D01*
X86156509Y-98983727D01*
X85803133Y-98629734D01*
X85341190Y-98437919D01*
X84841005Y-98437482D01*
X84378727Y-98628491D01*
X84024734Y-98981867D01*
X83832919Y-99443810D01*
X83832482Y-99943995D01*
X74079100Y-99943995D01*
X74079100Y-87407477D01*
X75386840Y-87407477D01*
X75703259Y-88173270D01*
X76288648Y-88759682D01*
X77053888Y-89077437D01*
X77882477Y-89078160D01*
X78648270Y-88761741D01*
X79234682Y-88176352D01*
X79552437Y-87411112D01*
X79553160Y-86582523D01*
X79236741Y-85816730D01*
X78651352Y-85230318D01*
X77886112Y-84912563D01*
X77057523Y-84911840D01*
X76291730Y-85228259D01*
X75705318Y-85813648D01*
X75387563Y-86578888D01*
X75386840Y-87407477D01*
X74079100Y-87407477D01*
X74079100Y-80645000D01*
X74962129Y-80645000D01*
X74962129Y-83185000D01*
X74985785Y-83303927D01*
X75053152Y-83404748D01*
X75153973Y-83472115D01*
X75272900Y-83495771D01*
X76990509Y-83495771D01*
X80684041Y-87189304D01*
X80658030Y-87251947D01*
X80657373Y-88004750D01*
X80944851Y-88700501D01*
X81476699Y-89233278D01*
X82171947Y-89521970D01*
X82924750Y-89522627D01*
X83439624Y-89309886D01*
X89120441Y-94990703D01*
X89061252Y-95030252D01*
X88993885Y-95131073D01*
X88970229Y-95250000D01*
X88970229Y-97790000D01*
X88993885Y-97908927D01*
X89061252Y-98009748D01*
X89162073Y-98077115D01*
X89281000Y-98100771D01*
X90551000Y-98100771D01*
X90669927Y-98077115D01*
X90770748Y-98009748D01*
X90838115Y-97908927D01*
X90861771Y-97790000D01*
X90861771Y-95250000D01*
X90838115Y-95131073D01*
X90770748Y-95030252D01*
X90669927Y-94962885D01*
X90551000Y-94939229D01*
X90474800Y-94939229D01*
X90474800Y-94869000D01*
X90432264Y-94655156D01*
X90311131Y-94473869D01*
X90129844Y-94352736D01*
X90046400Y-94336138D01*
X84229647Y-88519385D01*
X84441970Y-88008053D01*
X84442627Y-87255250D01*
X84155149Y-86559499D01*
X83623301Y-86026722D01*
X82928053Y-85738030D01*
X82175250Y-85737373D01*
X81479499Y-86024851D01*
X81289641Y-86214378D01*
X78869862Y-83794600D01*
X78892402Y-83794600D01*
X78892402Y-83633786D01*
X79129731Y-83744357D01*
X79187270Y-83735947D01*
X79718848Y-83452274D01*
X80101405Y-82986769D01*
X80161414Y-82789425D01*
X80408915Y-83159837D01*
X80808572Y-83426879D01*
X81280000Y-83520652D01*
X81751428Y-83426879D01*
X82151085Y-83159837D01*
X82418127Y-82760180D01*
X82511900Y-82288752D01*
X82511900Y-81541248D01*
X82588100Y-81541248D01*
X82588100Y-82288752D01*
X82681873Y-82760180D01*
X82948915Y-83159837D01*
X83348572Y-83426879D01*
X83820000Y-83520652D01*
X84291428Y-83426879D01*
X84691085Y-83159837D01*
X84958127Y-82760180D01*
X85051900Y-82288752D01*
X85051900Y-81541248D01*
X85128100Y-81541248D01*
X85128100Y-82288752D01*
X85221873Y-82760180D01*
X85488915Y-83159837D01*
X85888572Y-83426879D01*
X86360000Y-83520652D01*
X86831428Y-83426879D01*
X87231085Y-83159837D01*
X87498127Y-82760180D01*
X87591900Y-82288752D01*
X87591900Y-81541248D01*
X87498127Y-81069820D01*
X87231085Y-80670163D01*
X86831428Y-80403121D01*
X86360000Y-80309348D01*
X85888572Y-80403121D01*
X85488915Y-80670163D01*
X85221873Y-81069820D01*
X85128100Y-81541248D01*
X85051900Y-81541248D01*
X84958127Y-81069820D01*
X84691085Y-80670163D01*
X84291428Y-80403121D01*
X83820000Y-80309348D01*
X83348572Y-80403121D01*
X82948915Y-80670163D01*
X82681873Y-81069820D01*
X82588100Y-81541248D01*
X82511900Y-81541248D01*
X82418127Y-81069820D01*
X82151085Y-80670163D01*
X81751428Y-80403121D01*
X81280000Y-80309348D01*
X80808572Y-80403121D01*
X80408915Y-80670163D01*
X80161414Y-81040575D01*
X80101405Y-80843231D01*
X79718848Y-80377726D01*
X79187270Y-80094053D01*
X79129731Y-80085643D01*
X78892400Y-80196215D01*
X78892400Y-81762600D01*
X78912400Y-81762600D01*
X78912400Y-82067400D01*
X78892400Y-82067400D01*
X78892400Y-82087400D01*
X78587600Y-82087400D01*
X78587600Y-82067400D01*
X78567600Y-82067400D01*
X78567600Y-81762600D01*
X78587600Y-81762600D01*
X78587600Y-80196215D01*
X78350269Y-80085643D01*
X78292730Y-80094053D01*
X77761152Y-80377726D01*
X77437871Y-80771102D01*
X77437871Y-80645000D01*
X77414215Y-80526073D01*
X77346848Y-80425252D01*
X77246027Y-80357885D01*
X77127100Y-80334229D01*
X75272900Y-80334229D01*
X75153973Y-80357885D01*
X75053152Y-80425252D01*
X74985785Y-80526073D01*
X74962129Y-80645000D01*
X74079100Y-80645000D01*
X74079100Y-79794100D01*
X90695880Y-79794100D01*
X89798090Y-80691890D01*
G36*
X129526770Y-111860991D02*
X129640604Y-112136490D01*
X129851201Y-112347456D01*
X130126501Y-112461770D01*
X130307108Y-112461928D01*
X131532354Y-113687174D01*
X131491073Y-113695385D01*
X131475000Y-113706125D01*
X131458927Y-113695385D01*
X131340000Y-113671729D01*
X130960000Y-113671729D01*
X130841073Y-113695385D01*
X130825000Y-113706125D01*
X130808927Y-113695385D01*
X130690000Y-113671729D01*
X130571101Y-113671729D01*
X130556794Y-113637189D01*
X130385311Y-113465706D01*
X130161257Y-113372900D01*
X130097400Y-113372900D01*
X129945000Y-113525300D01*
X129945000Y-114680100D01*
X129999229Y-114680100D01*
X129999229Y-114796157D01*
X129992000Y-114832500D01*
X129992000Y-114984900D01*
X129945000Y-114984900D01*
X129945000Y-115004900D01*
X129755000Y-115004900D01*
X129755000Y-114984900D01*
X129708000Y-114984900D01*
X129708000Y-114832500D01*
X129700771Y-114796157D01*
X129700771Y-114680100D01*
X129755000Y-114680100D01*
X129755000Y-113525300D01*
X129602600Y-113372900D01*
X129538743Y-113372900D01*
X129314689Y-113465706D01*
X129143206Y-113637189D01*
X129128899Y-113671729D01*
X129010000Y-113671729D01*
X128891073Y-113695385D01*
X128875000Y-113706125D01*
X128858927Y-113695385D01*
X128740000Y-113671729D01*
X128360000Y-113671729D01*
X128241073Y-113695385D01*
X128225000Y-113706125D01*
X128208927Y-113695385D01*
X128090000Y-113671729D01*
X127971101Y-113671729D01*
X127956794Y-113637189D01*
X127785311Y-113465706D01*
X127561257Y-113372900D01*
X127497400Y-113372900D01*
X127402402Y-113467898D01*
X127402402Y-113372900D01*
X127301174Y-113372900D01*
X127360470Y-113230099D01*
X127360730Y-112932009D01*
X127246896Y-112656510D01*
X127036299Y-112445544D01*
X126760999Y-112331230D01*
X126462909Y-112330970D01*
X126187410Y-112444804D01*
X125976444Y-112655401D01*
X125862130Y-112930701D01*
X125861870Y-113228791D01*
X125975704Y-113504290D01*
X126041200Y-113569901D01*
X126041200Y-113671729D01*
X125760000Y-113671729D01*
X125641073Y-113695385D01*
X125625000Y-113706125D01*
X125608927Y-113695385D01*
X125490000Y-113671729D01*
X125110000Y-113671729D01*
X124991073Y-113695385D01*
X124975000Y-113706125D01*
X124958927Y-113695385D01*
X124840000Y-113671729D01*
X124460000Y-113671729D01*
X124341073Y-113695385D01*
X124240252Y-113762752D01*
X124172885Y-113863573D01*
X124149229Y-113982500D01*
X124149229Y-114273200D01*
X123552762Y-114273200D01*
X121039162Y-111759600D01*
X129526858Y-111759600D01*
X129526770Y-111860991D01*
X129526770Y-111860991D01*
G37*
X129526770Y-111860991D02*
X129640604Y-112136490D01*
X129851201Y-112347456D01*
X130126501Y-112461770D01*
X130307108Y-112461928D01*
X131532354Y-113687174D01*
X131491073Y-113695385D01*
X131475000Y-113706125D01*
X131458927Y-113695385D01*
X131340000Y-113671729D01*
X130960000Y-113671729D01*
X130841073Y-113695385D01*
X130825000Y-113706125D01*
X130808927Y-113695385D01*
X130690000Y-113671729D01*
X130571101Y-113671729D01*
X130556794Y-113637189D01*
X130385311Y-113465706D01*
X130161257Y-113372900D01*
X130097400Y-113372900D01*
X129945000Y-113525300D01*
X129945000Y-114680100D01*
X129999229Y-114680100D01*
X129999229Y-114796157D01*
X129992000Y-114832500D01*
X129992000Y-114984900D01*
X129945000Y-114984900D01*
X129945000Y-115004900D01*
X129755000Y-115004900D01*
X129755000Y-114984900D01*
X129708000Y-114984900D01*
X129708000Y-114832500D01*
X129700771Y-114796157D01*
X129700771Y-114680100D01*
X129755000Y-114680100D01*
X129755000Y-113525300D01*
X129602600Y-113372900D01*
X129538743Y-113372900D01*
X129314689Y-113465706D01*
X129143206Y-113637189D01*
X129128899Y-113671729D01*
X129010000Y-113671729D01*
X128891073Y-113695385D01*
X128875000Y-113706125D01*
X128858927Y-113695385D01*
X128740000Y-113671729D01*
X128360000Y-113671729D01*
X128241073Y-113695385D01*
X128225000Y-113706125D01*
X128208927Y-113695385D01*
X128090000Y-113671729D01*
X127971101Y-113671729D01*
X127956794Y-113637189D01*
X127785311Y-113465706D01*
X127561257Y-113372900D01*
X127497400Y-113372900D01*
X127402402Y-113467898D01*
X127402402Y-113372900D01*
X127301174Y-113372900D01*
X127360470Y-113230099D01*
X127360730Y-112932009D01*
X127246896Y-112656510D01*
X127036299Y-112445544D01*
X126760999Y-112331230D01*
X126462909Y-112330970D01*
X126187410Y-112444804D01*
X125976444Y-112655401D01*
X125862130Y-112930701D01*
X125861870Y-113228791D01*
X125975704Y-113504290D01*
X126041200Y-113569901D01*
X126041200Y-113671729D01*
X125760000Y-113671729D01*
X125641073Y-113695385D01*
X125625000Y-113706125D01*
X125608927Y-113695385D01*
X125490000Y-113671729D01*
X125110000Y-113671729D01*
X124991073Y-113695385D01*
X124975000Y-113706125D01*
X124958927Y-113695385D01*
X124840000Y-113671729D01*
X124460000Y-113671729D01*
X124341073Y-113695385D01*
X124240252Y-113762752D01*
X124172885Y-113863573D01*
X124149229Y-113982500D01*
X124149229Y-114273200D01*
X123552762Y-114273200D01*
X121039162Y-111759600D01*
X129526858Y-111759600D01*
X129526770Y-111860991D01*
G36*
X127345000Y-114680100D02*
X127399229Y-114680100D01*
X127399229Y-114796157D01*
X127392000Y-114832500D01*
X127392000Y-114984900D01*
X127345000Y-114984900D01*
X127345000Y-115004900D01*
X127155000Y-115004900D01*
X127155000Y-114984900D01*
X127128486Y-114984900D01*
X127158800Y-114832500D01*
X127158800Y-114660100D01*
X127345000Y-114660100D01*
X127345000Y-114680100D01*
X127345000Y-114680100D01*
G37*
X127345000Y-114680100D02*
X127399229Y-114680100D01*
X127399229Y-114796157D01*
X127392000Y-114832500D01*
X127392000Y-114984900D01*
X127345000Y-114984900D01*
X127345000Y-115004900D01*
X127155000Y-115004900D01*
X127155000Y-114984900D01*
X127128486Y-114984900D01*
X127158800Y-114832500D01*
X127158800Y-114660100D01*
X127345000Y-114660100D01*
X127345000Y-114680100D01*
G36*
X136499600Y-114803980D02*
X136499600Y-114680098D01*
X136347202Y-114680098D01*
X136499600Y-114527700D01*
X136499600Y-113861243D01*
X136406794Y-113637189D01*
X136235311Y-113465706D01*
X136011257Y-113372900D01*
X135947400Y-113372900D01*
X135795000Y-113525300D01*
X135795000Y-114680100D01*
X135872400Y-114680100D01*
X135872400Y-114984900D01*
X135795000Y-114984900D01*
X135795000Y-115004900D01*
X135605000Y-115004900D01*
X135605000Y-114984900D01*
X135578486Y-114984900D01*
X135608800Y-114832500D01*
X135608750Y-114832250D01*
X135608800Y-114832000D01*
X135578585Y-114680100D01*
X135605000Y-114680100D01*
X135605000Y-113525300D01*
X135452600Y-113372900D01*
X135388743Y-113372900D01*
X135164689Y-113465706D01*
X134993206Y-113637189D01*
X134978899Y-113671729D01*
X134958800Y-113671729D01*
X134958800Y-112868100D01*
X134948417Y-112815900D01*
X134916265Y-112654257D01*
X134795131Y-112472969D01*
X134469936Y-112147774D01*
X134470030Y-112040309D01*
X134356196Y-111764810D01*
X134350995Y-111759600D01*
X139543980Y-111759600D01*
X136499600Y-114803980D01*
X136499600Y-114803980D01*
G37*
X136499600Y-114803980D02*
X136499600Y-114680098D01*
X136347202Y-114680098D01*
X136499600Y-114527700D01*
X136499600Y-113861243D01*
X136406794Y-113637189D01*
X136235311Y-113465706D01*
X136011257Y-113372900D01*
X135947400Y-113372900D01*
X135795000Y-113525300D01*
X135795000Y-114680100D01*
X135872400Y-114680100D01*
X135872400Y-114984900D01*
X135795000Y-114984900D01*
X135795000Y-115004900D01*
X135605000Y-115004900D01*
X135605000Y-114984900D01*
X135578486Y-114984900D01*
X135608800Y-114832500D01*
X135608750Y-114832250D01*
X135608800Y-114832000D01*
X135578585Y-114680100D01*
X135605000Y-114680100D01*
X135605000Y-113525300D01*
X135452600Y-113372900D01*
X135388743Y-113372900D01*
X135164689Y-113465706D01*
X134993206Y-113637189D01*
X134978899Y-113671729D01*
X134958800Y-113671729D01*
X134958800Y-112868100D01*
X134948417Y-112815900D01*
X134916265Y-112654257D01*
X134795131Y-112472969D01*
X134469936Y-112147774D01*
X134470030Y-112040309D01*
X134356196Y-111764810D01*
X134350995Y-111759600D01*
X139543980Y-111759600D01*
X136499600Y-114803980D01*
G36*
X94878090Y-80691890D02*
X94871846Y-80701234D01*
X94851085Y-80670163D01*
X94451428Y-80403121D01*
X93980000Y-80309348D01*
X93508572Y-80403121D01*
X93108915Y-80670163D01*
X92841873Y-81069820D01*
X92748100Y-81541248D01*
X92748100Y-82288752D01*
X92841873Y-82760180D01*
X93108915Y-83159837D01*
X93508572Y-83426879D01*
X93980000Y-83520652D01*
X94451428Y-83426879D01*
X94851085Y-83159837D01*
X95118127Y-82760180D01*
X95185196Y-82423000D01*
X95237300Y-82423000D01*
X95311854Y-82408170D01*
X95381873Y-82760180D01*
X95648915Y-83159837D01*
X96048572Y-83426879D01*
X96520000Y-83520652D01*
X96991428Y-83426879D01*
X97391085Y-83159837D01*
X97658127Y-82760180D01*
X97751900Y-82288752D01*
X97751900Y-81541248D01*
X97658127Y-81069820D01*
X97503430Y-80838300D01*
X98076570Y-80838300D01*
X97921873Y-81069820D01*
X97828100Y-81541248D01*
X97828100Y-82288752D01*
X97921873Y-82760180D01*
X98188915Y-83159837D01*
X98588572Y-83426879D01*
X99060000Y-83520652D01*
X99531428Y-83426879D01*
X99931085Y-83159837D01*
X100198127Y-82760180D01*
X100291900Y-82288752D01*
X100291900Y-81541248D01*
X100198127Y-81069820D01*
X100043430Y-80838300D01*
X100616570Y-80838300D01*
X100461873Y-81069820D01*
X100368100Y-81541248D01*
X100368100Y-82288752D01*
X100461873Y-82760180D01*
X100728915Y-83159837D01*
X101128572Y-83426879D01*
X101600000Y-83520652D01*
X102071428Y-83426879D01*
X102362000Y-83232725D01*
X102362000Y-86763865D01*
X102227694Y-86439622D01*
X101910082Y-86265444D01*
X100545526Y-87630000D01*
X100559669Y-87644143D01*
X100344143Y-87859669D01*
X100330000Y-87845526D01*
X98965444Y-89210082D01*
X99139622Y-89527694D01*
X99956450Y-89838779D01*
X100830148Y-89813597D01*
X101006211Y-89740669D01*
X100514890Y-90231990D01*
X100404769Y-90396797D01*
X100366100Y-90591200D01*
X100366100Y-94549500D01*
X100404769Y-94743903D01*
X100514890Y-94908710D01*
X101377305Y-95771125D01*
X101353525Y-95806713D01*
X101329869Y-95925640D01*
X101329869Y-97256600D01*
X101353525Y-97375527D01*
X101420892Y-97476348D01*
X101521713Y-97543715D01*
X101640640Y-97567371D01*
X102199440Y-97567371D01*
X102318367Y-97543715D01*
X102395020Y-97492497D01*
X102471673Y-97543715D01*
X102590600Y-97567371D01*
X102665551Y-97567371D01*
X102811980Y-97713800D01*
X102717598Y-97713800D01*
X102717598Y-97853498D01*
X102577900Y-97713800D01*
X102469343Y-97713800D01*
X102245289Y-97806606D01*
X102073806Y-97978089D01*
X102059499Y-98012629D01*
X101640640Y-98012629D01*
X101521713Y-98036285D01*
X101420892Y-98103652D01*
X101353525Y-98204473D01*
X101329869Y-98323400D01*
X101329869Y-99654360D01*
X101353525Y-99773287D01*
X101412000Y-99860800D01*
X101412000Y-99984600D01*
X101450669Y-100179003D01*
X101560790Y-100343810D01*
X106299990Y-105083010D01*
X106464797Y-105193131D01*
X106659200Y-105231800D01*
X111150400Y-105231800D01*
X111150400Y-105359200D01*
X111302800Y-105511600D01*
X112877600Y-105511600D01*
X112877600Y-105491600D01*
X113182400Y-105491600D01*
X113182400Y-105511600D01*
X113202400Y-105511600D01*
X113202400Y-105816400D01*
X113182400Y-105816400D01*
X113182400Y-106756200D01*
X113334800Y-106908600D01*
X114421257Y-106908600D01*
X114427000Y-106906221D01*
X114427000Y-108909229D01*
X114007900Y-108909229D01*
X113888973Y-108932885D01*
X113788152Y-109000252D01*
X113720785Y-109101073D01*
X113697129Y-109220000D01*
X113697129Y-109346102D01*
X113373848Y-108952726D01*
X112842270Y-108669053D01*
X112784731Y-108660643D01*
X112547400Y-108771215D01*
X112547400Y-110337600D01*
X112567400Y-110337600D01*
X112567400Y-110642400D01*
X112547400Y-110642400D01*
X112547400Y-112208785D01*
X112784731Y-112319357D01*
X112842270Y-112310947D01*
X113373848Y-112027274D01*
X113697129Y-111633898D01*
X113697129Y-111760000D01*
X113720785Y-111878927D01*
X113788152Y-111979748D01*
X113888973Y-112047115D01*
X114007900Y-112070771D01*
X115862100Y-112070771D01*
X115981027Y-112047115D01*
X116081848Y-111979748D01*
X116149215Y-111878927D01*
X116172871Y-111760000D01*
X116172871Y-109220000D01*
X116149215Y-109101073D01*
X116081848Y-109000252D01*
X115981027Y-108932885D01*
X115862100Y-108909229D01*
X115443000Y-108909229D01*
X115443000Y-106906221D01*
X115448743Y-106908600D01*
X116535200Y-106908600D01*
X116687600Y-106756200D01*
X116687600Y-105816400D01*
X116667600Y-105816400D01*
X116667600Y-105511600D01*
X116687600Y-105511600D01*
X116687600Y-104571800D01*
X116535200Y-104419400D01*
X115448743Y-104419400D01*
X115224689Y-104512206D01*
X115117558Y-104619338D01*
X114862810Y-104364590D01*
X114698003Y-104254469D01*
X114503600Y-104215800D01*
X106869620Y-104215800D01*
X103621273Y-100967453D01*
X103709891Y-100967530D01*
X103985390Y-100853696D01*
X104196356Y-100643099D01*
X104310670Y-100367799D01*
X104310930Y-100069709D01*
X104307668Y-100061815D01*
X104328000Y-99959600D01*
X104328000Y-99860800D01*
X104386475Y-99773287D01*
X104410131Y-99654360D01*
X104410131Y-98895651D01*
X106481067Y-100966587D01*
X106510469Y-101114403D01*
X106620590Y-101279210D01*
X106785397Y-101389331D01*
X106979800Y-101428000D01*
X106999229Y-101428000D01*
X106999229Y-102305000D01*
X107022885Y-102423927D01*
X107090252Y-102524748D01*
X107191073Y-102592115D01*
X107310000Y-102615771D01*
X109860000Y-102615771D01*
X109978927Y-102592115D01*
X110079748Y-102524748D01*
X110147115Y-102423927D01*
X110149835Y-102410255D01*
X110184871Y-102445291D01*
X110175144Y-102455001D01*
X110060830Y-102730301D01*
X110060570Y-103028391D01*
X110174404Y-103303890D01*
X110385001Y-103514856D01*
X110660301Y-103629170D01*
X110958391Y-103629430D01*
X111233890Y-103515596D01*
X111444856Y-103304999D01*
X111455075Y-103280389D01*
X111472885Y-103369927D01*
X111540252Y-103470748D01*
X111641073Y-103538115D01*
X111760000Y-103561771D01*
X114300000Y-103561771D01*
X114418927Y-103538115D01*
X114519748Y-103470748D01*
X114587115Y-103369927D01*
X114610771Y-103251000D01*
X114610771Y-103124000D01*
X115259229Y-103124000D01*
X115259229Y-103251000D01*
X115282885Y-103369927D01*
X115350252Y-103470748D01*
X115451073Y-103538115D01*
X115570000Y-103561771D01*
X118110000Y-103561771D01*
X118122500Y-103559285D01*
X118122500Y-104419400D01*
X117144800Y-104419400D01*
X116992400Y-104571800D01*
X116992400Y-105511600D01*
X117012400Y-105511600D01*
X117012400Y-105816400D01*
X116992400Y-105816400D01*
X116992400Y-106756200D01*
X117144800Y-106908600D01*
X118122500Y-106908600D01*
X118122500Y-111657600D01*
X118161169Y-111852003D01*
X118271290Y-112016810D01*
X119195280Y-112940800D01*
X111743220Y-112940800D01*
X109444820Y-110642400D01*
X110858300Y-110642400D01*
X110858300Y-110985300D01*
X111033595Y-111561769D01*
X111416152Y-112027274D01*
X111947730Y-112310947D01*
X112005269Y-112319357D01*
X112242600Y-112208785D01*
X112242600Y-110642400D01*
X110858300Y-110642400D01*
X109444820Y-110642400D01*
X108797120Y-109994700D01*
X110858300Y-109994700D01*
X110858300Y-110337600D01*
X112242600Y-110337600D01*
X112242600Y-108771215D01*
X112005269Y-108660643D01*
X111947730Y-108669053D01*
X111416152Y-108952726D01*
X111033595Y-109418231D01*
X110858300Y-109994700D01*
X108797120Y-109994700D01*
X108157020Y-109354600D01*
X108280200Y-109354600D01*
X108432600Y-109202200D01*
X108432600Y-107512400D01*
X108737400Y-107512400D01*
X108737400Y-109202200D01*
X108889800Y-109354600D01*
X109981257Y-109354600D01*
X110205311Y-109261794D01*
X110376794Y-109090311D01*
X110469600Y-108866257D01*
X110469600Y-107664800D01*
X110317200Y-107512400D01*
X108737400Y-107512400D01*
X108432600Y-107512400D01*
X106852800Y-107512400D01*
X106700400Y-107664800D01*
X106700400Y-107897980D01*
X104656163Y-105853743D01*
X106700400Y-105853743D01*
X106700400Y-107055200D01*
X106852800Y-107207600D01*
X108432600Y-107207600D01*
X108432600Y-105517800D01*
X108737400Y-105517800D01*
X108737400Y-107207600D01*
X110317200Y-107207600D01*
X110469600Y-107055200D01*
X110469600Y-105968800D01*
X111150400Y-105968800D01*
X111150400Y-106420257D01*
X111243206Y-106644311D01*
X111414689Y-106815794D01*
X111638743Y-106908600D01*
X112725200Y-106908600D01*
X112877600Y-106756200D01*
X112877600Y-105816400D01*
X111302800Y-105816400D01*
X111150400Y-105968800D01*
X110469600Y-105968800D01*
X110469600Y-105853743D01*
X110376794Y-105629689D01*
X110205311Y-105458206D01*
X109981257Y-105365400D01*
X108889800Y-105365400D01*
X108737400Y-105517800D01*
X108432600Y-105517800D01*
X108280200Y-105365400D01*
X107188743Y-105365400D01*
X106964689Y-105458206D01*
X106793206Y-105629689D01*
X106700400Y-105853743D01*
X104656163Y-105853743D01*
X103363600Y-104561180D01*
X103363600Y-104489700D01*
X103324931Y-104295297D01*
X103214810Y-104130490D01*
X102310810Y-103226490D01*
X102146003Y-103116369D01*
X101951600Y-103077700D01*
X96160196Y-103077700D01*
X96458872Y-102722888D01*
X96621600Y-102209600D01*
X96621600Y-101701600D01*
X95402400Y-101701600D01*
X95402400Y-101721600D01*
X95097600Y-101721600D01*
X95097600Y-101701600D01*
X95077600Y-101701600D01*
X95077600Y-101396800D01*
X95097600Y-101396800D01*
X95097600Y-99831563D01*
X95402400Y-99831563D01*
X95402400Y-101396800D01*
X96621600Y-101396800D01*
X96621600Y-100888800D01*
X96458872Y-100375512D01*
X96112104Y-99963569D01*
X96072266Y-99943995D01*
X96532482Y-99943995D01*
X96723491Y-100406273D01*
X97076867Y-100760266D01*
X97538810Y-100952081D01*
X98038995Y-100952518D01*
X98501273Y-100761509D01*
X98855266Y-100408133D01*
X99047081Y-99946190D01*
X99047518Y-99446005D01*
X98856509Y-98983727D01*
X98503133Y-98629734D01*
X98041190Y-98437919D01*
X97541005Y-98437482D01*
X97078727Y-98628491D01*
X96724734Y-98981867D01*
X96532919Y-99443810D01*
X96532482Y-99943995D01*
X96072266Y-99943995D01*
X95613761Y-99718716D01*
X95402400Y-99831563D01*
X95097600Y-99831563D01*
X94886239Y-99718716D01*
X94387896Y-99963569D01*
X94041128Y-100375512D01*
X93878400Y-100888800D01*
X93878400Y-101547080D01*
X91948000Y-99616680D01*
X91948000Y-98271105D01*
X91983689Y-98306794D01*
X92207743Y-98399600D01*
X92659200Y-98399600D01*
X92811600Y-98247200D01*
X92811600Y-96672400D01*
X93116400Y-96672400D01*
X93116400Y-98247200D01*
X93268800Y-98399600D01*
X93720257Y-98399600D01*
X93944311Y-98306794D01*
X94115794Y-98135311D01*
X94208600Y-97911257D01*
X94208600Y-96824800D01*
X94056200Y-96672400D01*
X93116400Y-96672400D01*
X92811600Y-96672400D01*
X92791600Y-96672400D01*
X92791600Y-96367600D01*
X92811600Y-96367600D01*
X92811600Y-94792800D01*
X93116400Y-94792800D01*
X93116400Y-96367600D01*
X94056200Y-96367600D01*
X94208600Y-96215200D01*
X94208600Y-95128743D01*
X94115794Y-94904689D01*
X93944311Y-94733206D01*
X93720257Y-94640400D01*
X93268800Y-94640400D01*
X93116400Y-94792800D01*
X92811600Y-94792800D01*
X92659200Y-94640400D01*
X92207743Y-94640400D01*
X91983689Y-94733206D01*
X91948000Y-94768895D01*
X91948000Y-93014800D01*
X97561400Y-93014800D01*
X97561400Y-94101257D01*
X97654206Y-94325311D01*
X97825689Y-94496794D01*
X98049743Y-94589600D01*
X98501200Y-94589600D01*
X98653600Y-94437200D01*
X98653600Y-92862400D01*
X98958400Y-92862400D01*
X98958400Y-94437200D01*
X99110800Y-94589600D01*
X99562257Y-94589600D01*
X99786311Y-94496794D01*
X99957794Y-94325311D01*
X100050600Y-94101257D01*
X100050600Y-93014800D01*
X99898200Y-92862400D01*
X98958400Y-92862400D01*
X98653600Y-92862400D01*
X97713800Y-92862400D01*
X97561400Y-93014800D01*
X91948000Y-93014800D01*
X91948000Y-91318743D01*
X97561400Y-91318743D01*
X97561400Y-92405200D01*
X97713800Y-92557600D01*
X98653600Y-92557600D01*
X98653600Y-90982800D01*
X98958400Y-90982800D01*
X98958400Y-92557600D01*
X99898200Y-92557600D01*
X100050600Y-92405200D01*
X100050600Y-91318743D01*
X99957794Y-91094689D01*
X99786311Y-90923206D01*
X99562257Y-90830400D01*
X99110800Y-90830400D01*
X98958400Y-90982800D01*
X98653600Y-90982800D01*
X98501200Y-90830400D01*
X98049743Y-90830400D01*
X97825689Y-90923206D01*
X97654206Y-91094689D01*
X97561400Y-91318743D01*
X91948000Y-91318743D01*
X91948000Y-87256450D01*
X98121221Y-87256450D01*
X98146403Y-88130148D01*
X98432306Y-88820378D01*
X98749918Y-88994556D01*
X100114474Y-87630000D01*
X98749918Y-86265444D01*
X98432306Y-86439622D01*
X98121221Y-87256450D01*
X91948000Y-87256450D01*
X91948000Y-86049918D01*
X98965444Y-86049918D01*
X100330000Y-87414474D01*
X101694556Y-86049918D01*
X101520378Y-85732306D01*
X100703550Y-85421221D01*
X99829852Y-85446403D01*
X99139622Y-85732306D01*
X98965444Y-86049918D01*
X91948000Y-86049918D01*
X91948000Y-83402442D01*
X92311085Y-83159837D01*
X92578127Y-82760180D01*
X92671900Y-82288752D01*
X92671900Y-81541248D01*
X92578127Y-81069820D01*
X92311085Y-80670163D01*
X91911428Y-80403121D01*
X91588027Y-80338793D01*
X91647420Y-80279400D01*
X95290580Y-80279400D01*
X94878090Y-80691890D01*
X94878090Y-80691890D01*
G37*
X94878090Y-80691890D02*
X94871846Y-80701234D01*
X94851085Y-80670163D01*
X94451428Y-80403121D01*
X93980000Y-80309348D01*
X93508572Y-80403121D01*
X93108915Y-80670163D01*
X92841873Y-81069820D01*
X92748100Y-81541248D01*
X92748100Y-82288752D01*
X92841873Y-82760180D01*
X93108915Y-83159837D01*
X93508572Y-83426879D01*
X93980000Y-83520652D01*
X94451428Y-83426879D01*
X94851085Y-83159837D01*
X95118127Y-82760180D01*
X95185196Y-82423000D01*
X95237300Y-82423000D01*
X95311854Y-82408170D01*
X95381873Y-82760180D01*
X95648915Y-83159837D01*
X96048572Y-83426879D01*
X96520000Y-83520652D01*
X96991428Y-83426879D01*
X97391085Y-83159837D01*
X97658127Y-82760180D01*
X97751900Y-82288752D01*
X97751900Y-81541248D01*
X97658127Y-81069820D01*
X97503430Y-80838300D01*
X98076570Y-80838300D01*
X97921873Y-81069820D01*
X97828100Y-81541248D01*
X97828100Y-82288752D01*
X97921873Y-82760180D01*
X98188915Y-83159837D01*
X98588572Y-83426879D01*
X99060000Y-83520652D01*
X99531428Y-83426879D01*
X99931085Y-83159837D01*
X100198127Y-82760180D01*
X100291900Y-82288752D01*
X100291900Y-81541248D01*
X100198127Y-81069820D01*
X100043430Y-80838300D01*
X100616570Y-80838300D01*
X100461873Y-81069820D01*
X100368100Y-81541248D01*
X100368100Y-82288752D01*
X100461873Y-82760180D01*
X100728915Y-83159837D01*
X101128572Y-83426879D01*
X101600000Y-83520652D01*
X102071428Y-83426879D01*
X102362000Y-83232725D01*
X102362000Y-86763865D01*
X102227694Y-86439622D01*
X101910082Y-86265444D01*
X100545526Y-87630000D01*
X100559669Y-87644143D01*
X100344143Y-87859669D01*
X100330000Y-87845526D01*
X98965444Y-89210082D01*
X99139622Y-89527694D01*
X99956450Y-89838779D01*
X100830148Y-89813597D01*
X101006211Y-89740669D01*
X100514890Y-90231990D01*
X100404769Y-90396797D01*
X100366100Y-90591200D01*
X100366100Y-94549500D01*
X100404769Y-94743903D01*
X100514890Y-94908710D01*
X101377305Y-95771125D01*
X101353525Y-95806713D01*
X101329869Y-95925640D01*
X101329869Y-97256600D01*
X101353525Y-97375527D01*
X101420892Y-97476348D01*
X101521713Y-97543715D01*
X101640640Y-97567371D01*
X102199440Y-97567371D01*
X102318367Y-97543715D01*
X102395020Y-97492497D01*
X102471673Y-97543715D01*
X102590600Y-97567371D01*
X102665551Y-97567371D01*
X102811980Y-97713800D01*
X102717598Y-97713800D01*
X102717598Y-97853498D01*
X102577900Y-97713800D01*
X102469343Y-97713800D01*
X102245289Y-97806606D01*
X102073806Y-97978089D01*
X102059499Y-98012629D01*
X101640640Y-98012629D01*
X101521713Y-98036285D01*
X101420892Y-98103652D01*
X101353525Y-98204473D01*
X101329869Y-98323400D01*
X101329869Y-99654360D01*
X101353525Y-99773287D01*
X101412000Y-99860800D01*
X101412000Y-99984600D01*
X101450669Y-100179003D01*
X101560790Y-100343810D01*
X106299990Y-105083010D01*
X106464797Y-105193131D01*
X106659200Y-105231800D01*
X111150400Y-105231800D01*
X111150400Y-105359200D01*
X111302800Y-105511600D01*
X112877600Y-105511600D01*
X112877600Y-105491600D01*
X113182400Y-105491600D01*
X113182400Y-105511600D01*
X113202400Y-105511600D01*
X113202400Y-105816400D01*
X113182400Y-105816400D01*
X113182400Y-106756200D01*
X113334800Y-106908600D01*
X114421257Y-106908600D01*
X114427000Y-106906221D01*
X114427000Y-108909229D01*
X114007900Y-108909229D01*
X113888973Y-108932885D01*
X113788152Y-109000252D01*
X113720785Y-109101073D01*
X113697129Y-109220000D01*
X113697129Y-109346102D01*
X113373848Y-108952726D01*
X112842270Y-108669053D01*
X112784731Y-108660643D01*
X112547400Y-108771215D01*
X112547400Y-110337600D01*
X112567400Y-110337600D01*
X112567400Y-110642400D01*
X112547400Y-110642400D01*
X112547400Y-112208785D01*
X112784731Y-112319357D01*
X112842270Y-112310947D01*
X113373848Y-112027274D01*
X113697129Y-111633898D01*
X113697129Y-111760000D01*
X113720785Y-111878927D01*
X113788152Y-111979748D01*
X113888973Y-112047115D01*
X114007900Y-112070771D01*
X115862100Y-112070771D01*
X115981027Y-112047115D01*
X116081848Y-111979748D01*
X116149215Y-111878927D01*
X116172871Y-111760000D01*
X116172871Y-109220000D01*
X116149215Y-109101073D01*
X116081848Y-109000252D01*
X115981027Y-108932885D01*
X115862100Y-108909229D01*
X115443000Y-108909229D01*
X115443000Y-106906221D01*
X115448743Y-106908600D01*
X116535200Y-106908600D01*
X116687600Y-106756200D01*
X116687600Y-105816400D01*
X116667600Y-105816400D01*
X116667600Y-105511600D01*
X116687600Y-105511600D01*
X116687600Y-104571800D01*
X116535200Y-104419400D01*
X115448743Y-104419400D01*
X115224689Y-104512206D01*
X115117558Y-104619338D01*
X114862810Y-104364590D01*
X114698003Y-104254469D01*
X114503600Y-104215800D01*
X106869620Y-104215800D01*
X103621273Y-100967453D01*
X103709891Y-100967530D01*
X103985390Y-100853696D01*
X104196356Y-100643099D01*
X104310670Y-100367799D01*
X104310930Y-100069709D01*
X104307668Y-100061815D01*
X104328000Y-99959600D01*
X104328000Y-99860800D01*
X104386475Y-99773287D01*
X104410131Y-99654360D01*
X104410131Y-98895651D01*
X106481067Y-100966587D01*
X106510469Y-101114403D01*
X106620590Y-101279210D01*
X106785397Y-101389331D01*
X106979800Y-101428000D01*
X106999229Y-101428000D01*
X106999229Y-102305000D01*
X107022885Y-102423927D01*
X107090252Y-102524748D01*
X107191073Y-102592115D01*
X107310000Y-102615771D01*
X109860000Y-102615771D01*
X109978927Y-102592115D01*
X110079748Y-102524748D01*
X110147115Y-102423927D01*
X110149835Y-102410255D01*
X110184871Y-102445291D01*
X110175144Y-102455001D01*
X110060830Y-102730301D01*
X110060570Y-103028391D01*
X110174404Y-103303890D01*
X110385001Y-103514856D01*
X110660301Y-103629170D01*
X110958391Y-103629430D01*
X111233890Y-103515596D01*
X111444856Y-103304999D01*
X111455075Y-103280389D01*
X111472885Y-103369927D01*
X111540252Y-103470748D01*
X111641073Y-103538115D01*
X111760000Y-103561771D01*
X114300000Y-103561771D01*
X114418927Y-103538115D01*
X114519748Y-103470748D01*
X114587115Y-103369927D01*
X114610771Y-103251000D01*
X114610771Y-103124000D01*
X115259229Y-103124000D01*
X115259229Y-103251000D01*
X115282885Y-103369927D01*
X115350252Y-103470748D01*
X115451073Y-103538115D01*
X115570000Y-103561771D01*
X118110000Y-103561771D01*
X118122500Y-103559285D01*
X118122500Y-104419400D01*
X117144800Y-104419400D01*
X116992400Y-104571800D01*
X116992400Y-105511600D01*
X117012400Y-105511600D01*
X117012400Y-105816400D01*
X116992400Y-105816400D01*
X116992400Y-106756200D01*
X117144800Y-106908600D01*
X118122500Y-106908600D01*
X118122500Y-111657600D01*
X118161169Y-111852003D01*
X118271290Y-112016810D01*
X119195280Y-112940800D01*
X111743220Y-112940800D01*
X109444820Y-110642400D01*
X110858300Y-110642400D01*
X110858300Y-110985300D01*
X111033595Y-111561769D01*
X111416152Y-112027274D01*
X111947730Y-112310947D01*
X112005269Y-112319357D01*
X112242600Y-112208785D01*
X112242600Y-110642400D01*
X110858300Y-110642400D01*
X109444820Y-110642400D01*
X108797120Y-109994700D01*
X110858300Y-109994700D01*
X110858300Y-110337600D01*
X112242600Y-110337600D01*
X112242600Y-108771215D01*
X112005269Y-108660643D01*
X111947730Y-108669053D01*
X111416152Y-108952726D01*
X111033595Y-109418231D01*
X110858300Y-109994700D01*
X108797120Y-109994700D01*
X108157020Y-109354600D01*
X108280200Y-109354600D01*
X108432600Y-109202200D01*
X108432600Y-107512400D01*
X108737400Y-107512400D01*
X108737400Y-109202200D01*
X108889800Y-109354600D01*
X109981257Y-109354600D01*
X110205311Y-109261794D01*
X110376794Y-109090311D01*
X110469600Y-108866257D01*
X110469600Y-107664800D01*
X110317200Y-107512400D01*
X108737400Y-107512400D01*
X108432600Y-107512400D01*
X106852800Y-107512400D01*
X106700400Y-107664800D01*
X106700400Y-107897980D01*
X104656163Y-105853743D01*
X106700400Y-105853743D01*
X106700400Y-107055200D01*
X106852800Y-107207600D01*
X108432600Y-107207600D01*
X108432600Y-105517800D01*
X108737400Y-105517800D01*
X108737400Y-107207600D01*
X110317200Y-107207600D01*
X110469600Y-107055200D01*
X110469600Y-105968800D01*
X111150400Y-105968800D01*
X111150400Y-106420257D01*
X111243206Y-106644311D01*
X111414689Y-106815794D01*
X111638743Y-106908600D01*
X112725200Y-106908600D01*
X112877600Y-106756200D01*
X112877600Y-105816400D01*
X111302800Y-105816400D01*
X111150400Y-105968800D01*
X110469600Y-105968800D01*
X110469600Y-105853743D01*
X110376794Y-105629689D01*
X110205311Y-105458206D01*
X109981257Y-105365400D01*
X108889800Y-105365400D01*
X108737400Y-105517800D01*
X108432600Y-105517800D01*
X108280200Y-105365400D01*
X107188743Y-105365400D01*
X106964689Y-105458206D01*
X106793206Y-105629689D01*
X106700400Y-105853743D01*
X104656163Y-105853743D01*
X103363600Y-104561180D01*
X103363600Y-104489700D01*
X103324931Y-104295297D01*
X103214810Y-104130490D01*
X102310810Y-103226490D01*
X102146003Y-103116369D01*
X101951600Y-103077700D01*
X96160196Y-103077700D01*
X96458872Y-102722888D01*
X96621600Y-102209600D01*
X96621600Y-101701600D01*
X95402400Y-101701600D01*
X95402400Y-101721600D01*
X95097600Y-101721600D01*
X95097600Y-101701600D01*
X95077600Y-101701600D01*
X95077600Y-101396800D01*
X95097600Y-101396800D01*
X95097600Y-99831563D01*
X95402400Y-99831563D01*
X95402400Y-101396800D01*
X96621600Y-101396800D01*
X96621600Y-100888800D01*
X96458872Y-100375512D01*
X96112104Y-99963569D01*
X96072266Y-99943995D01*
X96532482Y-99943995D01*
X96723491Y-100406273D01*
X97076867Y-100760266D01*
X97538810Y-100952081D01*
X98038995Y-100952518D01*
X98501273Y-100761509D01*
X98855266Y-100408133D01*
X99047081Y-99946190D01*
X99047518Y-99446005D01*
X98856509Y-98983727D01*
X98503133Y-98629734D01*
X98041190Y-98437919D01*
X97541005Y-98437482D01*
X97078727Y-98628491D01*
X96724734Y-98981867D01*
X96532919Y-99443810D01*
X96532482Y-99943995D01*
X96072266Y-99943995D01*
X95613761Y-99718716D01*
X95402400Y-99831563D01*
X95097600Y-99831563D01*
X94886239Y-99718716D01*
X94387896Y-99963569D01*
X94041128Y-100375512D01*
X93878400Y-100888800D01*
X93878400Y-101547080D01*
X91948000Y-99616680D01*
X91948000Y-98271105D01*
X91983689Y-98306794D01*
X92207743Y-98399600D01*
X92659200Y-98399600D01*
X92811600Y-98247200D01*
X92811600Y-96672400D01*
X93116400Y-96672400D01*
X93116400Y-98247200D01*
X93268800Y-98399600D01*
X93720257Y-98399600D01*
X93944311Y-98306794D01*
X94115794Y-98135311D01*
X94208600Y-97911257D01*
X94208600Y-96824800D01*
X94056200Y-96672400D01*
X93116400Y-96672400D01*
X92811600Y-96672400D01*
X92791600Y-96672400D01*
X92791600Y-96367600D01*
X92811600Y-96367600D01*
X92811600Y-94792800D01*
X93116400Y-94792800D01*
X93116400Y-96367600D01*
X94056200Y-96367600D01*
X94208600Y-96215200D01*
X94208600Y-95128743D01*
X94115794Y-94904689D01*
X93944311Y-94733206D01*
X93720257Y-94640400D01*
X93268800Y-94640400D01*
X93116400Y-94792800D01*
X92811600Y-94792800D01*
X92659200Y-94640400D01*
X92207743Y-94640400D01*
X91983689Y-94733206D01*
X91948000Y-94768895D01*
X91948000Y-93014800D01*
X97561400Y-93014800D01*
X97561400Y-94101257D01*
X97654206Y-94325311D01*
X97825689Y-94496794D01*
X98049743Y-94589600D01*
X98501200Y-94589600D01*
X98653600Y-94437200D01*
X98653600Y-92862400D01*
X98958400Y-92862400D01*
X98958400Y-94437200D01*
X99110800Y-94589600D01*
X99562257Y-94589600D01*
X99786311Y-94496794D01*
X99957794Y-94325311D01*
X100050600Y-94101257D01*
X100050600Y-93014800D01*
X99898200Y-92862400D01*
X98958400Y-92862400D01*
X98653600Y-92862400D01*
X97713800Y-92862400D01*
X97561400Y-93014800D01*
X91948000Y-93014800D01*
X91948000Y-91318743D01*
X97561400Y-91318743D01*
X97561400Y-92405200D01*
X97713800Y-92557600D01*
X98653600Y-92557600D01*
X98653600Y-90982800D01*
X98958400Y-90982800D01*
X98958400Y-92557600D01*
X99898200Y-92557600D01*
X100050600Y-92405200D01*
X100050600Y-91318743D01*
X99957794Y-91094689D01*
X99786311Y-90923206D01*
X99562257Y-90830400D01*
X99110800Y-90830400D01*
X98958400Y-90982800D01*
X98653600Y-90982800D01*
X98501200Y-90830400D01*
X98049743Y-90830400D01*
X97825689Y-90923206D01*
X97654206Y-91094689D01*
X97561400Y-91318743D01*
X91948000Y-91318743D01*
X91948000Y-87256450D01*
X98121221Y-87256450D01*
X98146403Y-88130148D01*
X98432306Y-88820378D01*
X98749918Y-88994556D01*
X100114474Y-87630000D01*
X98749918Y-86265444D01*
X98432306Y-86439622D01*
X98121221Y-87256450D01*
X91948000Y-87256450D01*
X91948000Y-86049918D01*
X98965444Y-86049918D01*
X100330000Y-87414474D01*
X101694556Y-86049918D01*
X101520378Y-85732306D01*
X100703550Y-85421221D01*
X99829852Y-85446403D01*
X99139622Y-85732306D01*
X98965444Y-86049918D01*
X91948000Y-86049918D01*
X91948000Y-83402442D01*
X92311085Y-83159837D01*
X92578127Y-82760180D01*
X92671900Y-82288752D01*
X92671900Y-81541248D01*
X92578127Y-81069820D01*
X92311085Y-80670163D01*
X91911428Y-80403121D01*
X91588027Y-80338793D01*
X91647420Y-80279400D01*
X95290580Y-80279400D01*
X94878090Y-80691890D01*
G36*
X128112200Y-94544980D02*
X127006490Y-95650690D01*
X126896369Y-95815497D01*
X126857700Y-96009900D01*
X126857700Y-99353000D01*
X126896369Y-99547403D01*
X127006490Y-99712210D01*
X127201009Y-99906729D01*
X127060000Y-99906729D01*
X126941073Y-99930385D01*
X126925000Y-99941125D01*
X126908927Y-99930385D01*
X126790000Y-99906729D01*
X126410000Y-99906729D01*
X126291073Y-99930385D01*
X126275000Y-99941125D01*
X126258927Y-99930385D01*
X126140000Y-99906729D01*
X125760000Y-99906729D01*
X125641073Y-99930385D01*
X125625000Y-99941125D01*
X125608927Y-99930385D01*
X125490000Y-99906729D01*
X125371101Y-99906729D01*
X125356794Y-99872189D01*
X125185311Y-99700706D01*
X124961257Y-99607900D01*
X124897400Y-99607900D01*
X124745000Y-99760300D01*
X124745000Y-100915100D01*
X124771514Y-100915100D01*
X124741200Y-101067500D01*
X124741250Y-101067750D01*
X124741200Y-101068000D01*
X124771415Y-101219900D01*
X124745000Y-101219900D01*
X124745000Y-102374700D01*
X124897400Y-102527100D01*
X124961257Y-102527100D01*
X125185311Y-102434294D01*
X125356794Y-102262811D01*
X125371101Y-102228271D01*
X125401109Y-102228271D01*
X127069868Y-103897031D01*
X127166607Y-103961670D01*
X127251156Y-104018164D01*
X127465000Y-104060700D01*
X142003200Y-104060700D01*
X142217044Y-104018164D01*
X142398331Y-103897031D01*
X142635000Y-103660362D01*
X142635000Y-108668580D01*
X140784600Y-110518980D01*
X140784600Y-108254800D01*
X140632200Y-108102400D01*
X130327400Y-108102400D01*
X130327400Y-108122400D01*
X130022600Y-108122400D01*
X130022600Y-108102400D01*
X130002600Y-108102400D01*
X130002600Y-107797600D01*
X130022600Y-107797600D01*
X130022600Y-104292800D01*
X130327400Y-104292800D01*
X130327400Y-107797600D01*
X140632200Y-107797600D01*
X140784600Y-107645200D01*
X140784600Y-104628743D01*
X140691794Y-104404689D01*
X140520311Y-104233206D01*
X140296257Y-104140400D01*
X130479800Y-104140400D01*
X130327400Y-104292800D01*
X130022600Y-104292800D01*
X129870200Y-104140400D01*
X120361500Y-104140400D01*
X120361500Y-101372300D01*
X123850400Y-101372300D01*
X123850400Y-102038757D01*
X123943206Y-102262811D01*
X124114689Y-102434294D01*
X124338743Y-102527100D01*
X124402600Y-102527100D01*
X124555000Y-102374700D01*
X124555000Y-101219900D01*
X124002800Y-101219900D01*
X123850400Y-101372300D01*
X120361500Y-101372300D01*
X120361500Y-101154762D01*
X121420019Y-100096243D01*
X123850400Y-100096243D01*
X123850400Y-100762700D01*
X124002800Y-100915100D01*
X124555000Y-100915100D01*
X124555000Y-99760300D01*
X124402600Y-99607900D01*
X124338743Y-99607900D01*
X124114689Y-99700706D01*
X123943206Y-99872189D01*
X123850400Y-100096243D01*
X121420019Y-100096243D01*
X127395131Y-94121131D01*
X127489432Y-93980000D01*
X127516264Y-93939844D01*
X127558800Y-93726000D01*
X127558800Y-93581940D01*
X127602650Y-93573218D01*
X128112200Y-93232748D01*
X128112200Y-94544980D01*
X128112200Y-94544980D01*
G37*
X128112200Y-94544980D02*
X127006490Y-95650690D01*
X126896369Y-95815497D01*
X126857700Y-96009900D01*
X126857700Y-99353000D01*
X126896369Y-99547403D01*
X127006490Y-99712210D01*
X127201009Y-99906729D01*
X127060000Y-99906729D01*
X126941073Y-99930385D01*
X126925000Y-99941125D01*
X126908927Y-99930385D01*
X126790000Y-99906729D01*
X126410000Y-99906729D01*
X126291073Y-99930385D01*
X126275000Y-99941125D01*
X126258927Y-99930385D01*
X126140000Y-99906729D01*
X125760000Y-99906729D01*
X125641073Y-99930385D01*
X125625000Y-99941125D01*
X125608927Y-99930385D01*
X125490000Y-99906729D01*
X125371101Y-99906729D01*
X125356794Y-99872189D01*
X125185311Y-99700706D01*
X124961257Y-99607900D01*
X124897400Y-99607900D01*
X124745000Y-99760300D01*
X124745000Y-100915100D01*
X124771514Y-100915100D01*
X124741200Y-101067500D01*
X124741250Y-101067750D01*
X124741200Y-101068000D01*
X124771415Y-101219900D01*
X124745000Y-101219900D01*
X124745000Y-102374700D01*
X124897400Y-102527100D01*
X124961257Y-102527100D01*
X125185311Y-102434294D01*
X125356794Y-102262811D01*
X125371101Y-102228271D01*
X125401109Y-102228271D01*
X127069868Y-103897031D01*
X127166607Y-103961670D01*
X127251156Y-104018164D01*
X127465000Y-104060700D01*
X142003200Y-104060700D01*
X142217044Y-104018164D01*
X142398331Y-103897031D01*
X142635000Y-103660362D01*
X142635000Y-108668580D01*
X140784600Y-110518980D01*
X140784600Y-108254800D01*
X140632200Y-108102400D01*
X130327400Y-108102400D01*
X130327400Y-108122400D01*
X130022600Y-108122400D01*
X130022600Y-108102400D01*
X130002600Y-108102400D01*
X130002600Y-107797600D01*
X130022600Y-107797600D01*
X130022600Y-104292800D01*
X130327400Y-104292800D01*
X130327400Y-107797600D01*
X140632200Y-107797600D01*
X140784600Y-107645200D01*
X140784600Y-104628743D01*
X140691794Y-104404689D01*
X140520311Y-104233206D01*
X140296257Y-104140400D01*
X130479800Y-104140400D01*
X130327400Y-104292800D01*
X130022600Y-104292800D01*
X129870200Y-104140400D01*
X120361500Y-104140400D01*
X120361500Y-101372300D01*
X123850400Y-101372300D01*
X123850400Y-102038757D01*
X123943206Y-102262811D01*
X124114689Y-102434294D01*
X124338743Y-102527100D01*
X124402600Y-102527100D01*
X124555000Y-102374700D01*
X124555000Y-101219900D01*
X124002800Y-101219900D01*
X123850400Y-101372300D01*
X120361500Y-101372300D01*
X120361500Y-101154762D01*
X121420019Y-100096243D01*
X123850400Y-100096243D01*
X123850400Y-100762700D01*
X124002800Y-100915100D01*
X124555000Y-100915100D01*
X124555000Y-99760300D01*
X124402600Y-99607900D01*
X124338743Y-99607900D01*
X124114689Y-99700706D01*
X123943206Y-99872189D01*
X123850400Y-100096243D01*
X121420019Y-100096243D01*
X127395131Y-94121131D01*
X127489432Y-93980000D01*
X127516264Y-93939844D01*
X127558800Y-93726000D01*
X127558800Y-93581940D01*
X127602650Y-93573218D01*
X128112200Y-93232748D01*
X128112200Y-94544980D01*
G36*
X109043780Y-80344400D02*
X108748572Y-80403121D01*
X108348915Y-80670163D01*
X108081873Y-81069820D01*
X108011854Y-81421830D01*
X107937300Y-81407000D01*
X107885196Y-81407000D01*
X107818127Y-81069820D01*
X107551085Y-80670163D01*
X107151428Y-80403121D01*
X106680000Y-80309348D01*
X106208572Y-80403121D01*
X105808915Y-80670163D01*
X105541873Y-81069820D01*
X105448100Y-81541248D01*
X105448100Y-82288752D01*
X105541873Y-82760180D01*
X105808915Y-83159837D01*
X106208572Y-83426879D01*
X106680000Y-83520652D01*
X107151428Y-83426879D01*
X107441399Y-83233127D01*
X107467969Y-83366703D01*
X107578090Y-83531510D01*
X114119300Y-90072720D01*
X114119300Y-93019300D01*
X114157969Y-93213703D01*
X114268090Y-93378510D01*
X118122500Y-97232920D01*
X118122500Y-101672715D01*
X118110000Y-101670229D01*
X115570000Y-101670229D01*
X115451073Y-101693885D01*
X115350252Y-101761252D01*
X115282885Y-101862073D01*
X115259229Y-101981000D01*
X115259229Y-102108000D01*
X114610771Y-102108000D01*
X114610771Y-101981000D01*
X114587115Y-101862073D01*
X114519748Y-101761252D01*
X114418927Y-101693885D01*
X114300000Y-101670229D01*
X111760000Y-101670229D01*
X111641073Y-101693885D01*
X111540252Y-101761252D01*
X111472885Y-101862073D01*
X111449229Y-101981000D01*
X111449229Y-102108000D01*
X111284420Y-102108000D01*
X110698200Y-101521780D01*
X110698200Y-100920000D01*
X110659531Y-100725597D01*
X110549410Y-100560790D01*
X110384603Y-100450669D01*
X110190200Y-100412000D01*
X110170771Y-100412000D01*
X110170771Y-99535000D01*
X110147115Y-99416073D01*
X110079748Y-99315252D01*
X109978927Y-99247885D01*
X109860000Y-99224229D01*
X109853318Y-99224229D01*
X109857656Y-99219899D01*
X109971970Y-98944599D01*
X109972230Y-98646509D01*
X109858396Y-98371010D01*
X109647799Y-98160044D01*
X109372499Y-98045730D01*
X109191892Y-98045572D01*
X107378210Y-96231890D01*
X107213403Y-96121769D01*
X107019000Y-96083100D01*
X104410131Y-96083100D01*
X104410131Y-95925640D01*
X104386475Y-95806713D01*
X104319108Y-95705892D01*
X104218287Y-95638525D01*
X104099360Y-95614869D01*
X103540560Y-95614869D01*
X103421633Y-95638525D01*
X103378000Y-95667680D01*
X103378000Y-92760800D01*
X103339331Y-92566397D01*
X103229210Y-92401590D01*
X103178410Y-92350790D01*
X103013603Y-92240669D01*
X102819200Y-92202000D01*
X102799771Y-92202000D01*
X102799771Y-91592400D01*
X103530400Y-91592400D01*
X103530400Y-92227400D01*
X103731797Y-92935091D01*
X104188685Y-93511841D01*
X104831507Y-93869845D01*
X104966410Y-93901506D01*
X105257600Y-93795463D01*
X105257600Y-91592400D01*
X105562400Y-91592400D01*
X105562400Y-93795463D01*
X105853590Y-93901506D01*
X105988493Y-93869845D01*
X106631315Y-93511841D01*
X107088203Y-92935091D01*
X107289600Y-92227400D01*
X107289600Y-91592400D01*
X105562400Y-91592400D01*
X105257600Y-91592400D01*
X103530400Y-91592400D01*
X102799771Y-91592400D01*
X102799771Y-91440000D01*
X102776115Y-91321073D01*
X102708748Y-91220252D01*
X102607927Y-91152885D01*
X102489000Y-91129229D01*
X101382100Y-91129229D01*
X101382100Y-90801620D01*
X101531120Y-90652600D01*
X103530400Y-90652600D01*
X103530400Y-91287600D01*
X105257600Y-91287600D01*
X105257600Y-89084537D01*
X105562400Y-89084537D01*
X105562400Y-91287600D01*
X107289600Y-91287600D01*
X107289600Y-90652600D01*
X107088203Y-89944909D01*
X106763483Y-89535000D01*
X108909229Y-89535000D01*
X108909229Y-93345000D01*
X108932885Y-93463927D01*
X109000252Y-93564748D01*
X109101073Y-93632115D01*
X109220000Y-93655771D01*
X111760000Y-93655771D01*
X111878927Y-93632115D01*
X111979748Y-93564748D01*
X112047115Y-93463927D01*
X112070771Y-93345000D01*
X112070771Y-89535000D01*
X112047115Y-89416073D01*
X111979748Y-89315252D01*
X111878927Y-89247885D01*
X111760000Y-89224229D01*
X109220000Y-89224229D01*
X109101073Y-89247885D01*
X109000252Y-89315252D01*
X108932885Y-89416073D01*
X108909229Y-89535000D01*
X106763483Y-89535000D01*
X106631315Y-89368159D01*
X105988493Y-89010155D01*
X105853590Y-88978494D01*
X105562400Y-89084537D01*
X105257600Y-89084537D01*
X104966410Y-88978494D01*
X104831507Y-89010155D01*
X104188685Y-89368159D01*
X103731797Y-89944909D01*
X103530400Y-90652600D01*
X101531120Y-90652600D01*
X103229210Y-88954510D01*
X103339331Y-88789703D01*
X103378000Y-88595300D01*
X103378000Y-83232725D01*
X103668572Y-83426879D01*
X104140000Y-83520652D01*
X104611428Y-83426879D01*
X105011085Y-83159837D01*
X105278127Y-82760180D01*
X105371900Y-82288752D01*
X105371900Y-81541248D01*
X105278127Y-81069820D01*
X105011085Y-80670163D01*
X104611428Y-80403121D01*
X104140000Y-80309348D01*
X103668572Y-80403121D01*
X103268915Y-80670163D01*
X103229509Y-80729138D01*
X103229210Y-80728690D01*
X102779920Y-80279400D01*
X108978780Y-80279400D01*
X109043780Y-80344400D01*
X109043780Y-80344400D01*
G37*
X109043780Y-80344400D02*
X108748572Y-80403121D01*
X108348915Y-80670163D01*
X108081873Y-81069820D01*
X108011854Y-81421830D01*
X107937300Y-81407000D01*
X107885196Y-81407000D01*
X107818127Y-81069820D01*
X107551085Y-80670163D01*
X107151428Y-80403121D01*
X106680000Y-80309348D01*
X106208572Y-80403121D01*
X105808915Y-80670163D01*
X105541873Y-81069820D01*
X105448100Y-81541248D01*
X105448100Y-82288752D01*
X105541873Y-82760180D01*
X105808915Y-83159837D01*
X106208572Y-83426879D01*
X106680000Y-83520652D01*
X107151428Y-83426879D01*
X107441399Y-83233127D01*
X107467969Y-83366703D01*
X107578090Y-83531510D01*
X114119300Y-90072720D01*
X114119300Y-93019300D01*
X114157969Y-93213703D01*
X114268090Y-93378510D01*
X118122500Y-97232920D01*
X118122500Y-101672715D01*
X118110000Y-101670229D01*
X115570000Y-101670229D01*
X115451073Y-101693885D01*
X115350252Y-101761252D01*
X115282885Y-101862073D01*
X115259229Y-101981000D01*
X115259229Y-102108000D01*
X114610771Y-102108000D01*
X114610771Y-101981000D01*
X114587115Y-101862073D01*
X114519748Y-101761252D01*
X114418927Y-101693885D01*
X114300000Y-101670229D01*
X111760000Y-101670229D01*
X111641073Y-101693885D01*
X111540252Y-101761252D01*
X111472885Y-101862073D01*
X111449229Y-101981000D01*
X111449229Y-102108000D01*
X111284420Y-102108000D01*
X110698200Y-101521780D01*
X110698200Y-100920000D01*
X110659531Y-100725597D01*
X110549410Y-100560790D01*
X110384603Y-100450669D01*
X110190200Y-100412000D01*
X110170771Y-100412000D01*
X110170771Y-99535000D01*
X110147115Y-99416073D01*
X110079748Y-99315252D01*
X109978927Y-99247885D01*
X109860000Y-99224229D01*
X109853318Y-99224229D01*
X109857656Y-99219899D01*
X109971970Y-98944599D01*
X109972230Y-98646509D01*
X109858396Y-98371010D01*
X109647799Y-98160044D01*
X109372499Y-98045730D01*
X109191892Y-98045572D01*
X107378210Y-96231890D01*
X107213403Y-96121769D01*
X107019000Y-96083100D01*
X104410131Y-96083100D01*
X104410131Y-95925640D01*
X104386475Y-95806713D01*
X104319108Y-95705892D01*
X104218287Y-95638525D01*
X104099360Y-95614869D01*
X103540560Y-95614869D01*
X103421633Y-95638525D01*
X103378000Y-95667680D01*
X103378000Y-92760800D01*
X103339331Y-92566397D01*
X103229210Y-92401590D01*
X103178410Y-92350790D01*
X103013603Y-92240669D01*
X102819200Y-92202000D01*
X102799771Y-92202000D01*
X102799771Y-91592400D01*
X103530400Y-91592400D01*
X103530400Y-92227400D01*
X103731797Y-92935091D01*
X104188685Y-93511841D01*
X104831507Y-93869845D01*
X104966410Y-93901506D01*
X105257600Y-93795463D01*
X105257600Y-91592400D01*
X105562400Y-91592400D01*
X105562400Y-93795463D01*
X105853590Y-93901506D01*
X105988493Y-93869845D01*
X106631315Y-93511841D01*
X107088203Y-92935091D01*
X107289600Y-92227400D01*
X107289600Y-91592400D01*
X105562400Y-91592400D01*
X105257600Y-91592400D01*
X103530400Y-91592400D01*
X102799771Y-91592400D01*
X102799771Y-91440000D01*
X102776115Y-91321073D01*
X102708748Y-91220252D01*
X102607927Y-91152885D01*
X102489000Y-91129229D01*
X101382100Y-91129229D01*
X101382100Y-90801620D01*
X101531120Y-90652600D01*
X103530400Y-90652600D01*
X103530400Y-91287600D01*
X105257600Y-91287600D01*
X105257600Y-89084537D01*
X105562400Y-89084537D01*
X105562400Y-91287600D01*
X107289600Y-91287600D01*
X107289600Y-90652600D01*
X107088203Y-89944909D01*
X106763483Y-89535000D01*
X108909229Y-89535000D01*
X108909229Y-93345000D01*
X108932885Y-93463927D01*
X109000252Y-93564748D01*
X109101073Y-93632115D01*
X109220000Y-93655771D01*
X111760000Y-93655771D01*
X111878927Y-93632115D01*
X111979748Y-93564748D01*
X112047115Y-93463927D01*
X112070771Y-93345000D01*
X112070771Y-89535000D01*
X112047115Y-89416073D01*
X111979748Y-89315252D01*
X111878927Y-89247885D01*
X111760000Y-89224229D01*
X109220000Y-89224229D01*
X109101073Y-89247885D01*
X109000252Y-89315252D01*
X108932885Y-89416073D01*
X108909229Y-89535000D01*
X106763483Y-89535000D01*
X106631315Y-89368159D01*
X105988493Y-89010155D01*
X105853590Y-88978494D01*
X105562400Y-89084537D01*
X105257600Y-89084537D01*
X104966410Y-88978494D01*
X104831507Y-89010155D01*
X104188685Y-89368159D01*
X103731797Y-89944909D01*
X103530400Y-90652600D01*
X101531120Y-90652600D01*
X103229210Y-88954510D01*
X103339331Y-88789703D01*
X103378000Y-88595300D01*
X103378000Y-83232725D01*
X103668572Y-83426879D01*
X104140000Y-83520652D01*
X104611428Y-83426879D01*
X105011085Y-83159837D01*
X105278127Y-82760180D01*
X105371900Y-82288752D01*
X105371900Y-81541248D01*
X105278127Y-81069820D01*
X105011085Y-80670163D01*
X104611428Y-80403121D01*
X104140000Y-80309348D01*
X103668572Y-80403121D01*
X103268915Y-80670163D01*
X103229509Y-80729138D01*
X103229210Y-80728690D01*
X102779920Y-80279400D01*
X108978780Y-80279400D01*
X109043780Y-80344400D01*
G36*
X129295000Y-100915100D02*
X129342000Y-100915100D01*
X129342000Y-101067500D01*
X129349229Y-101103843D01*
X129349229Y-101219900D01*
X129295000Y-101219900D01*
X129295000Y-101239900D01*
X129105000Y-101239900D01*
X129105000Y-101219900D01*
X129050771Y-101219900D01*
X129050771Y-101103843D01*
X129058000Y-101067500D01*
X129058000Y-100915100D01*
X129105000Y-100915100D01*
X129105000Y-100895100D01*
X129295000Y-100895100D01*
X129295000Y-100915100D01*
X129295000Y-100915100D01*
G37*
X129295000Y-100915100D02*
X129342000Y-100915100D01*
X129342000Y-101067500D01*
X129349229Y-101103843D01*
X129349229Y-101219900D01*
X129295000Y-101219900D01*
X129295000Y-101239900D01*
X129105000Y-101239900D01*
X129105000Y-101219900D01*
X129050771Y-101219900D01*
X129050771Y-101103843D01*
X129058000Y-101067500D01*
X129058000Y-100915100D01*
X129105000Y-100915100D01*
X129105000Y-100895100D01*
X129295000Y-100895100D01*
X129295000Y-100915100D01*
G36*
X131895000Y-100915100D02*
X131942000Y-100915100D01*
X131942000Y-101067500D01*
X131949229Y-101103843D01*
X131949229Y-101219900D01*
X131895000Y-101219900D01*
X131895000Y-101239900D01*
X131705000Y-101239900D01*
X131705000Y-101219900D01*
X131650771Y-101219900D01*
X131650771Y-100915100D01*
X131705000Y-100915100D01*
X131705000Y-100895100D01*
X131895000Y-100895100D01*
X131895000Y-100915100D01*
X131895000Y-100915100D01*
G37*
X131895000Y-100915100D02*
X131942000Y-100915100D01*
X131942000Y-101067500D01*
X131949229Y-101103843D01*
X131949229Y-101219900D01*
X131895000Y-101219900D01*
X131895000Y-101239900D01*
X131705000Y-101239900D01*
X131705000Y-101219900D01*
X131650771Y-101219900D01*
X131650771Y-100915100D01*
X131705000Y-100915100D01*
X131705000Y-100895100D01*
X131895000Y-100895100D01*
X131895000Y-100915100D01*
G36*
X138539880Y-81305400D02*
X138353800Y-81305400D01*
X138201400Y-81457800D01*
X138201400Y-83032600D01*
X139141200Y-83032600D01*
X139293600Y-82880200D01*
X139293600Y-82059120D01*
X140767309Y-83532830D01*
X140469852Y-83541403D01*
X139779622Y-83827306D01*
X139605444Y-84144918D01*
X140970000Y-85509474D01*
X140984143Y-85495332D01*
X141199669Y-85710858D01*
X141185526Y-85725000D01*
X142550082Y-87089556D01*
X142635000Y-87042987D01*
X142635000Y-88261571D01*
X142621794Y-88229689D01*
X142450311Y-88058206D01*
X142226257Y-87965400D01*
X141534800Y-87965400D01*
X141382400Y-88117800D01*
X141382400Y-88747600D01*
X141402400Y-88747600D01*
X141402400Y-89052400D01*
X141382400Y-89052400D01*
X141382400Y-89072400D01*
X141077600Y-89072400D01*
X141077600Y-89052400D01*
X141057600Y-89052400D01*
X141057600Y-88747600D01*
X141077600Y-88747600D01*
X141077600Y-88117800D01*
X140925200Y-87965400D01*
X140233743Y-87965400D01*
X140009689Y-88058206D01*
X139838206Y-88229689D01*
X139745400Y-88453743D01*
X139745400Y-88595200D01*
X139897798Y-88747598D01*
X139745400Y-88747598D01*
X139745400Y-88786180D01*
X138264302Y-87305082D01*
X139605444Y-87305082D01*
X139779622Y-87622694D01*
X140596450Y-87933779D01*
X141470148Y-87908597D01*
X142160378Y-87622694D01*
X142334556Y-87305082D01*
X140970000Y-85940526D01*
X139605444Y-87305082D01*
X138264302Y-87305082D01*
X135710226Y-84751006D01*
X135754927Y-84742115D01*
X135855748Y-84674748D01*
X135923115Y-84573927D01*
X135946771Y-84455000D01*
X135946771Y-83489800D01*
X136804400Y-83489800D01*
X136804400Y-84576257D01*
X136897206Y-84800311D01*
X137068689Y-84971794D01*
X137292743Y-85064600D01*
X137744200Y-85064600D01*
X137896600Y-84912200D01*
X137896600Y-83337400D01*
X138201400Y-83337400D01*
X138201400Y-84912200D01*
X138353800Y-85064600D01*
X138805257Y-85064600D01*
X138882680Y-85032530D01*
X138761221Y-85351450D01*
X138786403Y-86225148D01*
X139072306Y-86915378D01*
X139389918Y-87089556D01*
X140754474Y-85725000D01*
X139389918Y-84360444D01*
X139293600Y-84413265D01*
X139293600Y-83489800D01*
X139141200Y-83337400D01*
X138201400Y-83337400D01*
X137896600Y-83337400D01*
X136956800Y-83337400D01*
X136804400Y-83489800D01*
X135946771Y-83489800D01*
X135946771Y-81915000D01*
X135923115Y-81796073D01*
X135921559Y-81793743D01*
X136804400Y-81793743D01*
X136804400Y-82880200D01*
X136956800Y-83032600D01*
X137896600Y-83032600D01*
X137896600Y-81457800D01*
X137744200Y-81305400D01*
X137292743Y-81305400D01*
X137068689Y-81398206D01*
X136897206Y-81569689D01*
X136804400Y-81793743D01*
X135921559Y-81793743D01*
X135855748Y-81695252D01*
X135754927Y-81627885D01*
X135636000Y-81604229D01*
X134366000Y-81604229D01*
X134247073Y-81627885D01*
X134146252Y-81695252D01*
X134078885Y-81796073D01*
X134055229Y-81915000D01*
X134055229Y-84455000D01*
X134078885Y-84573927D01*
X134146252Y-84674748D01*
X134247073Y-84742115D01*
X134312626Y-84755154D01*
X129490790Y-89576990D01*
X129380669Y-89741797D01*
X129342000Y-89936200D01*
X129342000Y-98405092D01*
X129190710Y-98467604D01*
X128979744Y-98678201D01*
X128865430Y-98953501D01*
X128865170Y-99251591D01*
X128979004Y-99527090D01*
X129059673Y-99607900D01*
X129047598Y-99607900D01*
X129047598Y-99702898D01*
X129032077Y-99687377D01*
X129019331Y-99623296D01*
X128909210Y-99458490D01*
X128710403Y-99259683D01*
X128750256Y-99219899D01*
X128864570Y-98944599D01*
X128864830Y-98646509D01*
X128750996Y-98371010D01*
X128540399Y-98160044D01*
X128265099Y-98045730D01*
X127967009Y-98045470D01*
X127873700Y-98084025D01*
X127873700Y-96220320D01*
X128979410Y-95114610D01*
X129089531Y-94949803D01*
X129128200Y-94755400D01*
X129128200Y-90155900D01*
X129089531Y-89961497D01*
X129089531Y-89961496D01*
X128979410Y-89796689D01*
X123890510Y-84707790D01*
X123725703Y-84597669D01*
X123531300Y-84559000D01*
X118487720Y-84559000D01*
X117926360Y-83997640D01*
X118522477Y-83998160D01*
X119288270Y-83681741D01*
X119874682Y-83096352D01*
X120192437Y-82331112D01*
X120193160Y-81502523D01*
X119876741Y-80736730D01*
X119475512Y-80334800D01*
X137569280Y-80334800D01*
X138539880Y-81305400D01*
X138539880Y-81305400D01*
G37*
X138539880Y-81305400D02*
X138353800Y-81305400D01*
X138201400Y-81457800D01*
X138201400Y-83032600D01*
X139141200Y-83032600D01*
X139293600Y-82880200D01*
X139293600Y-82059120D01*
X140767309Y-83532830D01*
X140469852Y-83541403D01*
X139779622Y-83827306D01*
X139605444Y-84144918D01*
X140970000Y-85509474D01*
X140984143Y-85495332D01*
X141199669Y-85710858D01*
X141185526Y-85725000D01*
X142550082Y-87089556D01*
X142635000Y-87042987D01*
X142635000Y-88261571D01*
X142621794Y-88229689D01*
X142450311Y-88058206D01*
X142226257Y-87965400D01*
X141534800Y-87965400D01*
X141382400Y-88117800D01*
X141382400Y-88747600D01*
X141402400Y-88747600D01*
X141402400Y-89052400D01*
X141382400Y-89052400D01*
X141382400Y-89072400D01*
X141077600Y-89072400D01*
X141077600Y-89052400D01*
X141057600Y-89052400D01*
X141057600Y-88747600D01*
X141077600Y-88747600D01*
X141077600Y-88117800D01*
X140925200Y-87965400D01*
X140233743Y-87965400D01*
X140009689Y-88058206D01*
X139838206Y-88229689D01*
X139745400Y-88453743D01*
X139745400Y-88595200D01*
X139897798Y-88747598D01*
X139745400Y-88747598D01*
X139745400Y-88786180D01*
X138264302Y-87305082D01*
X139605444Y-87305082D01*
X139779622Y-87622694D01*
X140596450Y-87933779D01*
X141470148Y-87908597D01*
X142160378Y-87622694D01*
X142334556Y-87305082D01*
X140970000Y-85940526D01*
X139605444Y-87305082D01*
X138264302Y-87305082D01*
X135710226Y-84751006D01*
X135754927Y-84742115D01*
X135855748Y-84674748D01*
X135923115Y-84573927D01*
X135946771Y-84455000D01*
X135946771Y-83489800D01*
X136804400Y-83489800D01*
X136804400Y-84576257D01*
X136897206Y-84800311D01*
X137068689Y-84971794D01*
X137292743Y-85064600D01*
X137744200Y-85064600D01*
X137896600Y-84912200D01*
X137896600Y-83337400D01*
X138201400Y-83337400D01*
X138201400Y-84912200D01*
X138353800Y-85064600D01*
X138805257Y-85064600D01*
X138882680Y-85032530D01*
X138761221Y-85351450D01*
X138786403Y-86225148D01*
X139072306Y-86915378D01*
X139389918Y-87089556D01*
X140754474Y-85725000D01*
X139389918Y-84360444D01*
X139293600Y-84413265D01*
X139293600Y-83489800D01*
X139141200Y-83337400D01*
X138201400Y-83337400D01*
X137896600Y-83337400D01*
X136956800Y-83337400D01*
X136804400Y-83489800D01*
X135946771Y-83489800D01*
X135946771Y-81915000D01*
X135923115Y-81796073D01*
X135921559Y-81793743D01*
X136804400Y-81793743D01*
X136804400Y-82880200D01*
X136956800Y-83032600D01*
X137896600Y-83032600D01*
X137896600Y-81457800D01*
X137744200Y-81305400D01*
X137292743Y-81305400D01*
X137068689Y-81398206D01*
X136897206Y-81569689D01*
X136804400Y-81793743D01*
X135921559Y-81793743D01*
X135855748Y-81695252D01*
X135754927Y-81627885D01*
X135636000Y-81604229D01*
X134366000Y-81604229D01*
X134247073Y-81627885D01*
X134146252Y-81695252D01*
X134078885Y-81796073D01*
X134055229Y-81915000D01*
X134055229Y-84455000D01*
X134078885Y-84573927D01*
X134146252Y-84674748D01*
X134247073Y-84742115D01*
X134312626Y-84755154D01*
X129490790Y-89576990D01*
X129380669Y-89741797D01*
X129342000Y-89936200D01*
X129342000Y-98405092D01*
X129190710Y-98467604D01*
X128979744Y-98678201D01*
X128865430Y-98953501D01*
X128865170Y-99251591D01*
X128979004Y-99527090D01*
X129059673Y-99607900D01*
X129047598Y-99607900D01*
X129047598Y-99702898D01*
X129032077Y-99687377D01*
X129019331Y-99623296D01*
X128909210Y-99458490D01*
X128710403Y-99259683D01*
X128750256Y-99219899D01*
X128864570Y-98944599D01*
X128864830Y-98646509D01*
X128750996Y-98371010D01*
X128540399Y-98160044D01*
X128265099Y-98045730D01*
X127967009Y-98045470D01*
X127873700Y-98084025D01*
X127873700Y-96220320D01*
X128979410Y-95114610D01*
X129089531Y-94949803D01*
X129128200Y-94755400D01*
X129128200Y-90155900D01*
X129089531Y-89961497D01*
X129089531Y-89961496D01*
X128979410Y-89796689D01*
X123890510Y-84707790D01*
X123725703Y-84597669D01*
X123531300Y-84559000D01*
X118487720Y-84559000D01*
X117926360Y-83997640D01*
X118522477Y-83998160D01*
X119288270Y-83681741D01*
X119874682Y-83096352D01*
X120192437Y-82331112D01*
X120193160Y-81502523D01*
X119876741Y-80736730D01*
X119475512Y-80334800D01*
X137569280Y-80334800D01*
X138539880Y-81305400D01*
G36*
X103009700Y-98836480D02*
X103042400Y-98836480D01*
X103042400Y-99141280D01*
X103009700Y-99141280D01*
X103009700Y-99161280D01*
X102730300Y-99161280D01*
X102730300Y-99141280D01*
X102697600Y-99141280D01*
X102697600Y-98836480D01*
X102730300Y-98836480D01*
X102730300Y-98816480D01*
X103009700Y-98816480D01*
X103009700Y-98836480D01*
X103009700Y-98836480D01*
G37*
X103009700Y-98836480D02*
X103042400Y-98836480D01*
X103042400Y-99141280D01*
X103009700Y-99141280D01*
X103009700Y-99161280D01*
X102730300Y-99161280D01*
X102730300Y-99141280D01*
X102697600Y-99141280D01*
X102697600Y-98836480D01*
X102730300Y-98836480D01*
X102730300Y-98816480D01*
X103009700Y-98816480D01*
X103009700Y-98836480D01*
M02*
