M48
;DRILL file {KiCad 4.1.0-alpha+201608211231+7083~46~ubuntu16.04.1-product} date Wed Aug 24 14:22:39 2016
;FORMAT={-:-/ absolute / inch / decimal}
FMAT,2
INCH,TZ
T1C0.024
T2C0.025
T3C0.031
T4C0.035
T5C0.043
T6C0.051
T7C0.056
T8C0.063
T9C0.130
%
G90
G05
M72
T1
X3.5Y-4.175
X3.6Y-4.175
X3.7Y-4.175
T2
X4.0772Y-3.9456
X4.3001Y-3.8896
X4.3626Y-4.0504
X4.9847Y-4.452
X5.0243Y-4.399
X5.0439Y-3.8896
X5.1029Y-3.9017
X5.1195Y-4.577
X5.129Y-4.3981
X5.2088Y-4.4001
X5.2294Y-4.0414
X5.2646Y-4.4169
X5.3091Y-3.9001
X5.3881Y-4.4767
T3
X3.986Y-4.125
X3.986Y-4.325
T4
X3.45Y-3.998
X3.75Y-3.998
T5
X3.Y-3.225
X3.Y-4.625
X3.1Y-3.225
X3.1Y-4.625
X3.2Y-3.225
X3.2Y-4.625
X3.3Y-3.225
X3.3Y-4.625
X3.4Y-3.225
X3.4Y-4.625
X3.5Y-3.225
X3.5Y-4.625
X3.6Y-3.225
X3.6Y-4.625
X3.7Y-3.225
X3.7Y-4.625
X3.8Y-3.225
X3.8Y-4.625
X3.9Y-3.225
X3.9Y-4.625
X4.Y-3.225
X4.Y-4.625
X4.1Y-3.225
X4.1Y-4.625
X4.2Y-3.225
X4.2Y-4.625
X4.3Y-3.225
X4.3Y-4.625
X4.4Y-3.225
X4.4Y-4.625
X4.425Y-4.35
X4.5Y-3.225
X4.5Y-4.625
X4.525Y-4.35
T6
X3.35Y-3.925
X3.35Y-4.425
X3.85Y-3.925
X3.85Y-4.425
T7
X4.15Y-3.6
X4.35Y-3.6
X4.6Y-3.6
X4.8Y-3.6
X5.Y-3.6
X5.2Y-3.6
T8
X3.25Y-3.45
X3.95Y-3.45
X5.55Y-3.375
X5.55Y-3.75
T9
X3.05Y-3.425
X3.05Y-4.425
X4.65Y-3.225
X4.65Y-4.625
T0
M30
