G04 #@! TF.FileFunction,Soldermask,Top*
%FSLAX46Y46*%
G04 Gerber Fmt 4.6, Leading zero omitted, Abs format (unit mm)*
G04 Created by KiCad (PCBNEW 4.1.0-alpha+201608211231+7083~46~ubuntu16.04.1-product) date Wed Aug 24 14:24:17 2016*
%MOMM*%
%LPD*%
G01*
G04 APERTURE LIST*
%ADD10C,0.100000*%
%ADD11C,0.228600*%
%ADD12O,2.559000X2.051000*%
%ADD13O,2.254200X2.940000*%
%ADD14R,2.254200X2.940000*%
%ADD15C,3.956000*%
%ADD16R,3.067000X1.990040*%
%ADD17R,2.940000X4.210000*%
%ADD18O,2.940000X4.210000*%
%ADD19C,3.575000*%
%ADD20O,1.924000X2.940000*%
%ADD21C,2.305000*%
%ADD22R,7.150000X3.700000*%
G04 APERTURE END LIST*
D10*
D11*
X143510000Y-79375000D02*
X73660000Y-79375000D01*
X143510000Y-120015000D02*
X143510000Y-79375000D01*
X73660000Y-120015000D02*
X143510000Y-120015000D01*
X73660000Y-79375000D02*
X73660000Y-120015000D01*
D12*
X101244400Y-104775000D03*
X101244400Y-109855000D03*
D13*
X78740000Y-81915000D03*
X81280000Y-81915000D03*
D14*
X76200000Y-81915000D03*
D13*
X83820000Y-81915000D03*
X86360000Y-81915000D03*
X88900000Y-81915000D03*
X91440000Y-81915000D03*
X93980000Y-81915000D03*
X96520000Y-81915000D03*
X99060000Y-81915000D03*
X101600000Y-81915000D03*
X104140000Y-81915000D03*
X106680000Y-81915000D03*
X109220000Y-81915000D03*
X111760000Y-81915000D03*
X114300000Y-81915000D03*
X114300000Y-117475000D03*
X111760000Y-117475000D03*
X109220000Y-117475000D03*
X106680000Y-117475000D03*
X104140000Y-117475000D03*
X101600000Y-117475000D03*
X99060000Y-117475000D03*
X96520000Y-117475000D03*
X93980000Y-117475000D03*
X91440000Y-117475000D03*
X88900000Y-117475000D03*
X86360000Y-117475000D03*
X83820000Y-117475000D03*
X81280000Y-117475000D03*
X78740000Y-117475000D03*
X76200000Y-117475000D03*
D15*
X77470000Y-86995000D03*
X77470000Y-112395000D03*
X118110000Y-117475000D03*
X118110000Y-81915000D03*
D13*
X112395000Y-110490000D03*
D14*
X114935000Y-110490000D03*
D16*
X132397500Y-118203980D03*
X140652500Y-118203980D03*
X132397500Y-114206020D03*
X140652500Y-114206020D03*
D17*
X132080000Y-91440000D03*
D18*
X127000000Y-91440000D03*
X121920000Y-91440000D03*
X116840000Y-91440000D03*
D17*
X110490000Y-91440000D03*
D18*
X105410000Y-91440000D03*
D19*
X82550000Y-87630000D03*
X100330000Y-87630000D03*
X140970000Y-95250000D03*
X140970000Y-85725000D03*
D20*
X88900000Y-106045000D03*
X91440000Y-106045000D03*
X93980000Y-106045000D03*
X87630000Y-101549200D03*
X95250000Y-101549200D03*
D21*
X85090000Y-99695000D03*
X97790000Y-99695000D03*
X97790000Y-112395000D03*
X85090000Y-112395000D03*
D22*
X86965000Y-91440000D03*
X95915000Y-91440000D03*
M02*
