0
SECTION
2
HEADER
9
$ANGBASE
50
0.0
9
$ANGDIR
70
0
0
ENDSEC
0
SECTION
2
TABLES
0
TABLE
2
LTYPE
70
1
0
LTYPE
2
CONTINUOUS
70
0
3
Solid line
72
65
73
0
40
0.0
0
ENDTAB
0
TABLE
2
LAYER
70
24
0
LAYER
2
BLACK
70
0
62
1
6
CONTINUOUS
0
LAYER
2
BLUE
70
0
62
2
6
CONTINUOUS
0
LAYER
2
GREEN
70
0
62
3
6
CONTINUOUS
0
LAYER
2
CYAN
70
0
62
4
6
CONTINUOUS
0
LAYER
2
RED
70
0
62
5
6
CONTINUOUS
0
LAYER
2
MAGENTA
70
0
62
6
6
CONTINUOUS
0
LAYER
2
BROWN
70
0
62
7
6
CONTINUOUS
0
LAYER
2
GRAY
70
0
62
8
6
CONTINUOUS
0
LAYER
2
DARKGRAY
70
0
62
9
6
CONTINUOUS
0
LAYER
2
LIGHTBLUE
70
0
62
10
6
CONTINUOUS
0
LAYER
2
LIGHTGREEN
70
0
62
11
6
CONTINUOUS
0
LAYER
2
LIGHTCYAN
70
0
62
12
6
CONTINUOUS
0
LAYER
2
LIGHTRED
70
0
62
13
6
CONTINUOUS
0
LAYER
2
LIGHTMAGENTA
70
0
62
14
6
CONTINUOUS
0
LAYER
2
YELLOW
70
0
62
15
6
CONTINUOUS
0
LAYER
2
WHITE
70
0
62
16
6
CONTINUOUS
0
LAYER
2
DARKDARKGRAY
70
0
62
17
6
CONTINUOUS
0
LAYER
2
DARKBLUE
70
0
62
18
6
CONTINUOUS
0
LAYER
2
DARKGREEN
70
0
62
19
6
CONTINUOUS
0
LAYER
2
DARKCYAN
70
0
62
20
6
CONTINUOUS
0
LAYER
2
DARKRED
70
0
62
21
6
CONTINUOUS
0
LAYER
2
DARKMAGENTA
70
0
62
22
6
CONTINUOUS
0
LAYER
2
DARKBROWN
70
0
62
23
6
CONTINUOUS
0
LAYER
2
LIGHTYELLOW
70
0
62
24
6
CONTINUOUS
0
ENDTAB
0
ENDSEC
0
SECTION
2
ENTITIES
0
LINE
8
BLACK
10
45000.0
20
31170.0
11
89500.0
21
31170.0
0
LINE
8
BLACK
10
45000.0
20
52170.0
11
45000.0
21
31170.0
0
LINE
8
BLACK
10
89500.0
20
52170.0
11
45000.0
21
52170.0
0
LINE
8
BLACK
10
89500.0
20
31170.0
11
89500.0
21
52170.0
0
CIRCLE
8
BLACK
10
50500.0
20
32170.0
40
875
0
CIRCLE
8
BLACK
10
51000.0
20
51170.0
40
875
0
CIRCLE
8
BLACK
10
83000.0
20
32170.0
40
875
0
CIRCLE
8
BLACK
10
80500.0
20
51170.0
40
875
0
LINE
8
BLACK
10
56400.0
20
31970.0
11
56400.0
21
32370.0
0
LINE
8
BLACK
10
55600.0
20
31970.0
11
55600.0
21
32370.0
0
ARC
8
BLACK
10
56000.0
20
32370.0
40
400.0
50
360.0
51
540.0
0
ARC
8
BLACK
10
56000.0
20
31970.0
40
400.0
50
180.0
51
360.0
0
LINE
8
BLACK
10
57400.0
20
31970.0
11
57400.0
21
32370.0
0
LINE
8
BLACK
10
56600.0
20
31970.0
11
56600.0
21
32370.0
0
ARC
8
BLACK
10
57000.0
20
32370.0
40
400.0
50
360.0
51
540.0
0
ARC
8
BLACK
10
57000.0
20
31970.0
40
400.0
50
180.0
51
360.0
0
LINE
8
BLACK
10
58400.0
20
31970.0
11
58400.0
21
32370.0
0
LINE
8
BLACK
10
57600.0
20
31970.0
11
57600.0
21
32370.0
0
ARC
8
BLACK
10
58000.0
20
32370.0
40
400.0
50
360.0
51
540.0
0
ARC
8
BLACK
10
58000.0
20
31970.0
40
400.0
50
180.0
51
360.0
0
LINE
8
BLACK
10
59400.0
20
31970.0
11
59400.0
21
32370.0
0
LINE
8
BLACK
10
58600.0
20
31970.0
11
58600.0
21
32370.0
0
ARC
8
BLACK
10
59000.0
20
32370.0
40
400.0
50
360.0
51
540.0
0
ARC
8
BLACK
10
59000.0
20
31970.0
40
400.0
50
180.0
51
360.0
0
LINE
8
BLACK
10
60400.0
20
31970.0
11
60400.0
21
32370.0
0
LINE
8
BLACK
10
59600.0
20
31970.0
11
59600.0
21
32370.0
0
ARC
8
BLACK
10
60000.0
20
32370.0
40
400.0
50
360.0
51
540.0
0
ARC
8
BLACK
10
60000.0
20
31970.0
40
400.0
50
180.0
51
360.0
0
LINE
8
BLACK
10
61400.0
20
31970.0
11
61400.0
21
32370.0
0
LINE
8
BLACK
10
60600.0
20
31970.0
11
60600.0
21
32370.0
0
ARC
8
BLACK
10
61000.0
20
32370.0
40
400.0
50
360.0
51
540.0
0
ARC
8
BLACK
10
61000.0
20
31970.0
40
400.0
50
180.0
51
360.0
0
LINE
8
BLACK
10
62400.0
20
31970.0
11
62400.0
21
32370.0
0
LINE
8
BLACK
10
61600.0
20
31970.0
11
61600.0
21
32370.0
0
ARC
8
BLACK
10
62000.0
20
32370.0
40
400.0
50
360.0
51
540.0
0
ARC
8
BLACK
10
62000.0
20
31970.0
40
400.0
50
180.0
51
360.0
0
LINE
8
BLACK
10
63400.0
20
31970.0
11
63400.0
21
32370.0
0
LINE
8
BLACK
10
62600.0
20
31970.0
11
62600.0
21
32370.0
0
ARC
8
BLACK
10
63000.0
20
32370.0
40
400.0
50
360.0
51
540.0
0
ARC
8
BLACK
10
63000.0
20
31970.0
40
400.0
50
180.0
51
360.0
0
LINE
8
BLACK
10
65400.0
20
31970.0
11
65400.0
21
32370.0
0
LINE
8
BLACK
10
64600.0
20
31970.0
11
64600.0
21
32370.0
0
ARC
8
BLACK
10
65000.0
20
32370.0
40
400.0
50
360.0
51
540.0
0
ARC
8
BLACK
10
65000.0
20
31970.0
40
400.0
50
180.0
51
360.0
0
LINE
8
BLACK
10
66400.0
20
31970.0
11
66400.0
21
32370.0
0
LINE
8
BLACK
10
65600.0
20
31970.0
11
65600.0
21
32370.0
0
ARC
8
BLACK
10
66000.0
20
32370.0
40
400.0
50
360.0
51
540.0
0
ARC
8
BLACK
10
66000.0
20
31970.0
40
400.0
50
180.0
51
360.0
0
LINE
8
BLACK
10
67400.0
20
31970.0
11
67400.0
21
32370.0
0
LINE
8
BLACK
10
66600.0
20
31970.0
11
66600.0
21
32370.0
0
ARC
8
BLACK
10
67000.0
20
32370.0
40
400.0
50
360.0
51
540.0
0
ARC
8
BLACK
10
67000.0
20
31970.0
40
400.0
50
180.0
51
360.0
0
LINE
8
BLACK
10
68400.0
20
31970.0
11
68400.0
21
32370.0
0
LINE
8
BLACK
10
67600.0
20
31970.0
11
67600.0
21
32370.0
0
ARC
8
BLACK
10
68000.0
20
32370.0
40
400.0
50
360.0
51
540.0
0
ARC
8
BLACK
10
68000.0
20
31970.0
40
400.0
50
180.0
51
360.0
0
LINE
8
BLACK
10
69400.0
20
31970.0
11
69400.0
21
32370.0
0
LINE
8
BLACK
10
68600.0
20
31970.0
11
68600.0
21
32370.0
0
ARC
8
BLACK
10
69000.0
20
32370.0
40
400.0
50
360.0
51
540.0
0
ARC
8
BLACK
10
69000.0
20
31970.0
40
400.0
50
180.0
51
360.0
0
LINE
8
BLACK
10
70400.0
20
31970.0
11
70400.0
21
32370.0
0
LINE
8
BLACK
10
69600.0
20
31970.0
11
69600.0
21
32370.0
0
ARC
8
BLACK
10
70000.0
20
32370.0
40
400.0
50
360.0
51
540.0
0
ARC
8
BLACK
10
70000.0
20
31970.0
40
400.0
50
180.0
51
360.0
0
LINE
8
BLACK
10
71400.0
20
31970.0
11
71400.0
21
32370.0
0
LINE
8
BLACK
10
70600.0
20
31970.0
11
70600.0
21
32370.0
0
ARC
8
BLACK
10
71000.0
20
32370.0
40
400.0
50
360.0
51
540.0
0
ARC
8
BLACK
10
71000.0
20
31970.0
40
400.0
50
180.0
51
360.0
0
LINE
8
BLACK
10
72400.0
20
31970.0
11
72400.0
21
32370.0
0
LINE
8
BLACK
10
71600.0
20
31970.0
11
71600.0
21
32370.0
0
ARC
8
BLACK
10
72000.0
20
32370.0
40
400.0
50
360.0
51
540.0
0
ARC
8
BLACK
10
72000.0
20
31970.0
40
400.0
50
180.0
51
360.0
0
LINE
8
BLACK
10
74400.0
20
31970.0
11
74400.0
21
32370.0
0
LINE
8
BLACK
10
73600.0
20
31970.0
11
73600.0
21
32370.0
0
ARC
8
BLACK
10
74000.0
20
32370.0
40
400.0
50
360.0
51
540.0
0
ARC
8
BLACK
10
74000.0
20
31970.0
40
400.0
50
180.0
51
360.0
0
LINE
8
BLACK
10
75400.0
20
31970.0
11
75400.0
21
32370.0
0
LINE
8
BLACK
10
74600.0
20
31970.0
11
74600.0
21
32370.0
0
ARC
8
BLACK
10
75000.0
20
32370.0
40
400.0
50
360.0
51
540.0
0
ARC
8
BLACK
10
75000.0
20
31970.0
40
400.0
50
180.0
51
360.0
0
LINE
8
BLACK
10
76400.0
20
31970.0
11
76400.0
21
32370.0
0
LINE
8
BLACK
10
75600.0
20
31970.0
11
75600.0
21
32370.0
0
ARC
8
BLACK
10
76000.0
20
32370.0
40
400.0
50
360.0
51
540.0
0
ARC
8
BLACK
10
76000.0
20
31970.0
40
400.0
50
180.0
51
360.0
0
LINE
8
BLACK
10
77400.0
20
31970.0
11
77400.0
21
32370.0
0
LINE
8
BLACK
10
76600.0
20
31970.0
11
76600.0
21
32370.0
0
ARC
8
BLACK
10
77000.0
20
32370.0
40
400.0
50
360.0
51
540.0
0
ARC
8
BLACK
10
77000.0
20
31970.0
40
400.0
50
180.0
51
360.0
0
LINE
8
BLACK
10
78400.0
20
31970.0
11
78400.0
21
32370.0
0
LINE
8
BLACK
10
77600.0
20
31970.0
11
77600.0
21
32370.0
0
ARC
8
BLACK
10
78000.0
20
32370.0
40
400.0
50
360.0
51
540.0
0
ARC
8
BLACK
10
78000.0
20
31970.0
40
400.0
50
180.0
51
360.0
0
LINE
8
BLACK
10
79400.0
20
31970.0
11
79400.0
21
32370.0
0
LINE
8
BLACK
10
78600.0
20
31970.0
11
78600.0
21
32370.0
0
ARC
8
BLACK
10
79000.0
20
32370.0
40
400.0
50
360.0
51
540.0
0
ARC
8
BLACK
10
79000.0
20
31970.0
40
400.0
50
180.0
51
360.0
0
LINE
8
BLACK
10
80400.0
20
31970.0
11
80400.0
21
32370.0
0
LINE
8
BLACK
10
79600.0
20
31970.0
11
79600.0
21
32370.0
0
ARC
8
BLACK
10
80000.0
20
32370.0
40
400.0
50
360.0
51
540.0
0
ARC
8
BLACK
10
80000.0
20
31970.0
40
400.0
50
180.0
51
360.0
0
LINE
8
BLACK
10
81400.0
20
31970.0
11
81400.0
21
32370.0
0
LINE
8
BLACK
10
80600.0
20
31970.0
11
80600.0
21
32370.0
0
ARC
8
BLACK
10
81000.0
20
32370.0
40
400.0
50
360.0
51
540.0
0
ARC
8
BLACK
10
81000.0
20
31970.0
40
400.0
50
180.0
51
360.0
0
LINE
8
BLACK
10
52800.0
20
50970.0
11
52800.0
21
51370.0
0
LINE
8
BLACK
10
52000.0
20
50970.0
11
52000.0
21
51370.0
0
ARC
8
BLACK
10
52400.0
20
51370.0
40
400.0
50
360.0
51
540.0
0
ARC
8
BLACK
10
52400.0
20
50970.0
40
400.0
50
180.0
51
360.0
0
LINE
8
BLACK
10
53800.0
20
50970.0
11
53800.0
21
51370.0
0
LINE
8
BLACK
10
53000.0
20
50970.0
11
53000.0
21
51370.0
0
ARC
8
BLACK
10
53400.0
20
51370.0
40
400.0
50
360.0
51
540.0
0
ARC
8
BLACK
10
53400.0
20
50970.0
40
400.0
50
180.0
51
360.0
0
LINE
8
BLACK
10
54800.0
20
50970.0
11
54800.0
21
51370.0
0
LINE
8
BLACK
10
54000.0
20
50970.0
11
54000.0
21
51370.0
0
ARC
8
BLACK
10
54400.0
20
51370.0
40
400.0
50
360.0
51
540.0
0
ARC
8
BLACK
10
54400.0
20
50970.0
40
400.0
50
180.0
51
360.0
0
LINE
8
BLACK
10
55800.0
20
50970.0
11
55800.0
21
51370.0
0
LINE
8
BLACK
10
55000.0
20
50970.0
11
55000.0
21
51370.0
0
ARC
8
BLACK
10
55400.0
20
51370.0
40
400.0
50
360.0
51
540.0
0
ARC
8
BLACK
10
55400.0
20
50970.0
40
400.0
50
180.0
51
360.0
0
LINE
8
BLACK
10
56800.0
20
50970.0
11
56800.0
21
51370.0
0
LINE
8
BLACK
10
56000.0
20
50970.0
11
56000.0
21
51370.0
0
ARC
8
BLACK
10
56400.0
20
51370.0
40
400.0
50
360.0
51
540.0
0
ARC
8
BLACK
10
56400.0
20
50970.0
40
400.0
50
180.0
51
360.0
0
LINE
8
BLACK
10
57800.0
20
50970.0
11
57800.0
21
51370.0
0
LINE
8
BLACK
10
57000.0
20
50970.0
11
57000.0
21
51370.0
0
ARC
8
BLACK
10
57400.0
20
51370.0
40
400.0
50
360.0
51
540.0
0
ARC
8
BLACK
10
57400.0
20
50970.0
40
400.0
50
180.0
51
360.0
0
LINE
8
BLACK
10
58800.0
20
50970.0
11
58800.0
21
51370.0
0
LINE
8
BLACK
10
58000.0
20
50970.0
11
58000.0
21
51370.0
0
ARC
8
BLACK
10
58400.0
20
51370.0
40
400.0
50
360.0
51
540.0
0
ARC
8
BLACK
10
58400.0
20
50970.0
40
400.0
50
180.0
51
360.0
0
LINE
8
BLACK
10
59800.0
20
50970.0
11
59800.0
21
51370.0
0
LINE
8
BLACK
10
59000.0
20
50970.0
11
59000.0
21
51370.0
0
ARC
8
BLACK
10
59400.0
20
51370.0
40
400.0
50
360.0
51
540.0
0
ARC
8
BLACK
10
59400.0
20
50970.0
40
400.0
50
180.0
51
360.0
0
LINE
8
BLACK
10
60800.0
20
50970.0
11
60800.0
21
51370.0
0
LINE
8
BLACK
10
60000.0
20
50970.0
11
60000.0
21
51370.0
0
ARC
8
BLACK
10
60400.0
20
51370.0
40
400.0
50
360.0
51
540.0
0
ARC
8
BLACK
10
60400.0
20
50970.0
40
400.0
50
180.0
51
360.0
0
LINE
8
BLACK
10
61800.0
20
50970.0
11
61800.0
21
51370.0
0
LINE
8
BLACK
10
61000.0
20
50970.0
11
61000.0
21
51370.0
0
ARC
8
BLACK
10
61400.0
20
51370.0
40
400.0
50
360.0
51
540.0
0
ARC
8
BLACK
10
61400.0
20
50970.0
40
400.0
50
180.0
51
360.0
0
LINE
8
BLACK
10
63400.0
20
50970.0
11
63400.0
21
51370.0
0
LINE
8
BLACK
10
62600.0
20
50970.0
11
62600.0
21
51370.0
0
ARC
8
BLACK
10
63000.0
20
51370.0
40
400.0
50
360.0
51
540.0
0
ARC
8
BLACK
10
63000.0
20
50970.0
40
400.0
50
180.0
51
360.0
0
LINE
8
BLACK
10
70400.0
20
50970.0
11
70400.0
21
51370.0
0
LINE
8
BLACK
10
69600.0
20
50970.0
11
69600.0
21
51370.0
0
ARC
8
BLACK
10
70000.0
20
51370.0
40
400.0
50
360.0
51
540.0
0
ARC
8
BLACK
10
70000.0
20
50970.0
40
400.0
50
180.0
51
360.0
0
LINE
8
BLACK
10
69400.0
20
50970.0
11
69400.0
21
51370.0
0
LINE
8
BLACK
10
68600.0
20
50970.0
11
68600.0
21
51370.0
0
ARC
8
BLACK
10
69000.0
20
51370.0
40
400.0
50
360.0
51
540.0
0
ARC
8
BLACK
10
69000.0
20
50970.0
40
400.0
50
180.0
51
360.0
0
LINE
8
BLACK
10
68400.0
20
50970.0
11
68400.0
21
51370.0
0
LINE
8
BLACK
10
67600.0
20
50970.0
11
67600.0
21
51370.0
0
ARC
8
BLACK
10
68000.0
20
51370.0
40
400.0
50
360.0
51
540.0
0
ARC
8
BLACK
10
68000.0
20
50970.0
40
400.0
50
180.0
51
360.0
0
LINE
8
BLACK
10
67400.0
20
50970.0
11
67400.0
21
51370.0
0
LINE
8
BLACK
10
66600.0
20
50970.0
11
66600.0
21
51370.0
0
ARC
8
BLACK
10
67000.0
20
51370.0
40
400.0
50
360.0
51
540.0
0
ARC
8
BLACK
10
67000.0
20
50970.0
40
400.0
50
180.0
51
360.0
0
LINE
8
BLACK
10
66400.0
20
50970.0
11
66400.0
21
51370.0
0
LINE
8
BLACK
10
65600.0
20
50970.0
11
65600.0
21
51370.0
0
ARC
8
BLACK
10
66000.0
20
51370.0
40
400.0
50
360.0
51
540.0
0
ARC
8
BLACK
10
66000.0
20
50970.0
40
400.0
50
180.0
51
360.0
0
LINE
8
BLACK
10
65400.0
20
50970.0
11
65400.0
21
51370.0
0
LINE
8
BLACK
10
64600.0
20
50970.0
11
64600.0
21
51370.0
0
ARC
8
BLACK
10
65000.0
20
51370.0
40
400.0
50
360.0
51
540.0
0
ARC
8
BLACK
10
65000.0
20
50970.0
40
400.0
50
180.0
51
360.0
0
LINE
8
BLACK
10
64400.0
20
50970.0
11
64400.0
21
51370.0
0
LINE
8
BLACK
10
63600.0
20
50970.0
11
63600.0
21
51370.0
0
ARC
8
BLACK
10
64000.0
20
51370.0
40
400.0
50
360.0
51
540.0
0
ARC
8
BLACK
10
64000.0
20
50970.0
40
400.0
50
180.0
51
360.0
0
LINE
8
BLACK
10
72400.0
20
50970.0
11
72400.0
21
51370.0
0
LINE
8
BLACK
10
71600.0
20
50970.0
11
71600.0
21
51370.0
0
ARC
8
BLACK
10
72000.0
20
51370.0
40
400.0
50
360.0
51
540.0
0
ARC
8
BLACK
10
72000.0
20
50970.0
40
400.0
50
180.0
51
360.0
0
LINE
8
BLACK
10
73400.0
20
50970.0
11
73400.0
21
51370.0
0
LINE
8
BLACK
10
72600.0
20
50970.0
11
72600.0
21
51370.0
0
ARC
8
BLACK
10
73000.0
20
51370.0
40
400.0
50
360.0
51
540.0
0
ARC
8
BLACK
10
73000.0
20
50970.0
40
400.0
50
180.0
51
360.0
0
LINE
8
BLACK
10
74400.0
20
50970.0
11
74400.0
21
51370.0
0
LINE
8
BLACK
10
73600.0
20
50970.0
11
73600.0
21
51370.0
0
ARC
8
BLACK
10
74000.0
20
51370.0
40
400.0
50
360.0
51
540.0
0
ARC
8
BLACK
10
74000.0
20
50970.0
40
400.0
50
180.0
51
360.0
0
LINE
8
BLACK
10
75400.0
20
50970.0
11
75400.0
21
51370.0
0
LINE
8
BLACK
10
74600.0
20
50970.0
11
74600.0
21
51370.0
0
ARC
8
BLACK
10
75000.0
20
51370.0
40
400.0
50
360.0
51
540.0
0
ARC
8
BLACK
10
75000.0
20
50970.0
40
400.0
50
180.0
51
360.0
0
LINE
8
BLACK
10
76400.0
20
50970.0
11
76400.0
21
51370.0
0
LINE
8
BLACK
10
75600.0
20
50970.0
11
75600.0
21
51370.0
0
ARC
8
BLACK
10
76000.0
20
51370.0
40
400.0
50
360.0
51
540.0
0
ARC
8
BLACK
10
76000.0
20
50970.0
40
400.0
50
180.0
51
360.0
0
LINE
8
BLACK
10
77400.0
20
50970.0
11
77400.0
21
51370.0
0
LINE
8
BLACK
10
76600.0
20
50970.0
11
76600.0
21
51370.0
0
ARC
8
BLACK
10
77000.0
20
51370.0
40
400.0
50
360.0
51
540.0
0
ARC
8
BLACK
10
77000.0
20
50970.0
40
400.0
50
180.0
51
360.0
0
LINE
8
BLACK
10
78400.0
20
50970.0
11
78400.0
21
51370.0
0
LINE
8
BLACK
10
77600.0
20
50970.0
11
77600.0
21
51370.0
0
ARC
8
BLACK
10
78000.0
20
51370.0
40
400.0
50
360.0
51
540.0
0
ARC
8
BLACK
10
78000.0
20
50970.0
40
400.0
50
180.0
51
360.0
0
LINE
8
BLACK
10
79400.0
20
50970.0
11
79400.0
21
51370.0
0
LINE
8
BLACK
10
78600.0
20
50970.0
11
78600.0
21
51370.0
0
ARC
8
BLACK
10
79000.0
20
51370.0
40
400.0
50
360.0
51
540.0
0
ARC
8
BLACK
10
79000.0
20
50970.0
40
400.0
50
180.0
51
360.0
0
CIRCLE
8
BLACK
10
82000.0
20
51170.0
40
400
0
CIRCLE
8
BLACK
10
83000.0
20
51170.0
40
400
0
CIRCLE
8
BLACK
10
82000.0
20
50170.0
40
400
0
CIRCLE
8
BLACK
10
83000.0
20
50170.0
40
400
0
CIRCLE
8
BLACK
10
82000.0
20
49170.0
40
400
0
CIRCLE
8
BLACK
10
83000.0
20
49170.0
40
400
0
CIRCLE
8
BLACK
10
82000.0
20
48170.0
40
400
0
CIRCLE
8
BLACK
10
83000.0
20
48170.0
40
400
0
CIRCLE
8
BLACK
10
82000.0
20
47170.0
40
400
0
CIRCLE
8
BLACK
10
83000.0
20
47170.0
40
400
0
CIRCLE
8
BLACK
10
82000.0
20
46170.0
40
400
0
CIRCLE
8
BLACK
10
83000.0
20
46170.0
40
400
0
CIRCLE
8
BLACK
10
82000.0
20
45170.0
40
400
0
CIRCLE
8
BLACK
10
83000.0
20
45170.0
40
400
0
CIRCLE
8
BLACK
10
82000.0
20
44170.0
40
400
0
CIRCLE
8
BLACK
10
83000.0
20
44170.0
40
400
0
CIRCLE
8
BLACK
10
82000.0
20
43170.0
40
400
0
CIRCLE
8
BLACK
10
83000.0
20
43170.0
40
400
0
CIRCLE
8
BLACK
10
82000.0
20
42170.0
40
400
0
CIRCLE
8
BLACK
10
83000.0
20
42170.0
40
400
0
CIRCLE
8
BLACK
10
82000.0
20
41170.0
40
400
0
CIRCLE
8
BLACK
10
83000.0
20
41170.0
40
400
0
CIRCLE
8
BLACK
10
82000.0
20
40170.0
40
400
0
CIRCLE
8
BLACK
10
83000.0
20
40170.0
40
400
0
CIRCLE
8
BLACK
10
82000.0
20
39170.0
40
400
0
CIRCLE
8
BLACK
10
83000.0
20
39170.0
40
400
0
CIRCLE
8
BLACK
10
82000.0
20
38170.0
40
400
0
CIRCLE
8
BLACK
10
83000.0
20
38170.0
40
400
0
CIRCLE
8
BLACK
10
82000.0
20
37170.0
40
400
0
CIRCLE
8
BLACK
10
83000.0
20
37170.0
40
400
0
CIRCLE
8
BLACK
10
82000.0
20
36170.0
40
400
0
CIRCLE
8
BLACK
10
83000.0
20
36170.0
40
400
0
CIRCLE
8
BLACK
10
82000.0
20
35170.0
40
400
0
CIRCLE
8
BLACK
10
83000.0
20
35170.0
40
400
0
CIRCLE
8
BLACK
10
82000.0
20
34170.0
40
400
0
CIRCLE
8
BLACK
10
83000.0
20
34170.0
40
400
0
CIRCLE
8
BLACK
10
47750.0
20
37920.0
40
700
0
CIRCLE
8
BLACK
10
47750.0
20
41920.0
40
700
0
CIRCLE
8
BLACK
10
50250.0
20
39920.0
40
400
0
CIRCLE
8
BLACK
10
51250.0
20
39920.0
40
400
0
CIRCLE
8
BLACK
10
51250.0
20
40920.0
40
400
0
CIRCLE
8
BLACK
10
51250.0
20
38920.0
40
400
0
CIRCLE
8
BLACK
10
87500.0
20
39920.0
40
465
0
CIRCLE
8
BLACK
10
86500.0
20
39920.0
40
465
0
LINE
8
BLACK
10
88035.0
20
40385.0
11
88035.0
21
39455.0
0
LINE
8
BLACK
10
88035.0
20
39455.0
11
88965.0
21
39455.0
0
LINE
8
BLACK
10
88965.0
20
39455.0
11
88965.0
21
40385.0
0
LINE
8
BLACK
10
88965.0
20
40385.0
11
88035.0
21
40385.0
0
CIRCLE
8
BLACK
10
85500.0
20
39920.0
40
465
0
LINE
8
BLACK
10
52211.0
20
33770.0
11
52211.0
21
32570.0
0
LINE
8
BLACK
10
52211.0
20
32570.0
11
53411.0
21
32570.0
0
LINE
8
BLACK
10
53411.0
20
32570.0
11
53411.0
21
33770.0
0
LINE
8
BLACK
10
53411.0
20
33770.0
11
52211.0
21
33770.0
0
CIRCLE
8
BLACK
10
54189.0
20
33170.0
40
600
0
CIRCLE
8
BLACK
10
70750.0
20
39420.0
40
465
0
LINE
8
BLACK
10
70285.0
20
39955.0
11
71215.0
21
39955.0
0
LINE
8
BLACK
10
71215.0
20
39955.0
11
71215.0
21
40885.0
0
LINE
8
BLACK
10
71215.0
20
40885.0
11
70285.0
21
40885.0
0
LINE
8
BLACK
10
70285.0
20
40885.0
11
70285.0
21
39955.0
0
CIRCLE
8
BLACK
10
63750.0
20
39420.0
40
465
0
LINE
8
BLACK
10
63285.0
20
39955.0
11
64215.0
21
39955.0
0
LINE
8
BLACK
10
64215.0
20
39955.0
11
64215.0
21
40885.0
0
LINE
8
BLACK
10
64215.0
20
40885.0
11
63285.0
21
40885.0
0
LINE
8
BLACK
10
63285.0
20
40885.0
11
63285.0
21
39955.0
0
CIRCLE
8
BLACK
10
55250.0
20
39920.0
40
400
0
CIRCLE
8
BLACK
10
55250.0
20
38920.0
40
400
0
CIRCLE
8
BLACK
10
55250.0
20
40920.0
40
400
0
ENDSEC
0
EOF
