0
SECTION
2
HEADER
9
$ANGBASE
50
0.0
9
$ANGDIR
70
0
0
ENDSEC
0
SECTION
2
TABLES
0
TABLE
2
LTYPE
70
1
0
LTYPE
2
CONTINUOUS
70
0
3
Solid line
72
65
73
0
40
0.0
0
ENDTAB
0
TABLE
2
LAYER
70
24
0
LAYER
2
BLACK
70
0
62
1
6
CONTINUOUS
0
LAYER
2
BLUE
70
0
62
2
6
CONTINUOUS
0
LAYER
2
GREEN
70
0
62
3
6
CONTINUOUS
0
LAYER
2
CYAN
70
0
62
4
6
CONTINUOUS
0
LAYER
2
RED
70
0
62
5
6
CONTINUOUS
0
LAYER
2
MAGENTA
70
0
62
6
6
CONTINUOUS
0
LAYER
2
BROWN
70
0
62
7
6
CONTINUOUS
0
LAYER
2
GRAY
70
0
62
8
6
CONTINUOUS
0
LAYER
2
DARKGRAY
70
0
62
9
6
CONTINUOUS
0
LAYER
2
LIGHTBLUE
70
0
62
10
6
CONTINUOUS
0
LAYER
2
LIGHTGREEN
70
0
62
11
6
CONTINUOUS
0
LAYER
2
LIGHTCYAN
70
0
62
12
6
CONTINUOUS
0
LAYER
2
LIGHTRED
70
0
62
13
6
CONTINUOUS
0
LAYER
2
LIGHTMAGENTA
70
0
62
14
6
CONTINUOUS
0
LAYER
2
YELLOW
70
0
62
15
6
CONTINUOUS
0
LAYER
2
WHITE
70
0
62
16
6
CONTINUOUS
0
LAYER
2
DARKDARKGRAY
70
0
62
17
6
CONTINUOUS
0
LAYER
2
DARKBLUE
70
0
62
18
6
CONTINUOUS
0
LAYER
2
DARKGREEN
70
0
62
19
6
CONTINUOUS
0
LAYER
2
DARKCYAN
70
0
62
20
6
CONTINUOUS
0
LAYER
2
DARKRED
70
0
62
21
6
CONTINUOUS
0
LAYER
2
DARKMAGENTA
70
0
62
22
6
CONTINUOUS
0
LAYER
2
DARKBROWN
70
0
62
23
6
CONTINUOUS
0
LAYER
2
LIGHTYELLOW
70
0
62
24
6
CONTINUOUS
0
ENDTAB
0
ENDSEC
0
SECTION
2
ENTITIES
0
LINE
8
BLACK
10
54250.0
20
34670.0
11
54250.0
21
35170.0
0
LINE
8
BLACK
10
54446.0
20
35889.0
11
54408.0
21
35908.0
0
LINE
8
BLACK
10
54408.0
20
35908.0
11
54351.0
21
35908.0
0
LINE
8
BLACK
10
54351.0
20
35908.0
11
54293.0
21
35889.0
0
LINE
8
BLACK
10
54293.0
20
35889.0
11
54255.0
21
35851.0
0
LINE
8
BLACK
10
54255.0
20
35851.0
11
54236.0
21
35813.0
0
LINE
8
BLACK
10
54236.0
20
35813.0
11
54217.0
21
35737.0
0
LINE
8
BLACK
10
54217.0
20
35737.0
11
54217.0
21
35680.0
0
LINE
8
BLACK
10
54217.0
20
35680.0
11
54236.0
21
35603.0
0
LINE
8
BLACK
10
54236.0
20
35603.0
11
54255.0
21
35565.0
0
LINE
8
BLACK
10
54255.0
20
35565.0
11
54293.0
21
35527.0
0
LINE
8
BLACK
10
54293.0
20
35527.0
11
54351.0
21
35508.0
0
LINE
8
BLACK
10
54351.0
20
35508.0
11
54389.0
21
35508.0
0
LINE
8
BLACK
10
54389.0
20
35508.0
11
54446.0
21
35527.0
0
LINE
8
BLACK
10
54446.0
20
35527.0
11
54465.0
21
35546.0
0
LINE
8
BLACK
10
54465.0
20
35546.0
11
54465.0
21
35680.0
0
LINE
8
BLACK
10
54465.0
20
35680.0
11
54389.0
21
35680.0
0
LINE
8
BLACK
10
54636.0
20
35508.0
11
54636.0
21
35908.0
0
LINE
8
BLACK
10
54636.0
20
35908.0
11
54865.0
21
35508.0
0
LINE
8
BLACK
10
54865.0
20
35508.0
11
54865.0
21
35908.0
0
LINE
8
BLACK
10
55055.0
20
35508.0
11
55055.0
21
35908.0
0
LINE
8
BLACK
10
55055.0
20
35908.0
11
55150.0
21
35908.0
0
LINE
8
BLACK
10
55150.0
20
35908.0
11
55208.0
21
35889.0
0
LINE
8
BLACK
10
55208.0
20
35889.0
11
55246.0
21
35851.0
0
LINE
8
BLACK
10
55246.0
20
35851.0
11
55265.0
21
35813.0
0
LINE
8
BLACK
10
55265.0
20
35813.0
11
55284.0
21
35737.0
0
LINE
8
BLACK
10
55284.0
20
35737.0
11
55284.0
21
35680.0
0
LINE
8
BLACK
10
55284.0
20
35680.0
11
55265.0
21
35603.0
0
LINE
8
BLACK
10
55265.0
20
35603.0
11
55246.0
21
35565.0
0
LINE
8
BLACK
10
55246.0
20
35565.0
11
55208.0
21
35527.0
0
LINE
8
BLACK
10
55208.0
20
35527.0
11
55150.0
21
35508.0
0
LINE
8
BLACK
10
55150.0
20
35508.0
11
55055.0
21
35508.0
0
LINE
8
BLACK
10
52750.0
20
34670.0
11
52750.0
21
35170.0
0
LINE
8
BLACK
10
45000.0
20
31170.0
11
89500.0
21
31170.0
0
LINE
8
BLACK
10
45000.0
20
52170.0
11
45000.0
21
31170.0
0
LINE
8
BLACK
10
89500.0
20
52170.0
11
45000.0
21
52170.0
0
LINE
8
BLACK
10
85452.0
20
41410.0
11
85452.0
21
41544.0
0
LINE
8
BLACK
10
85662.0
20
41601.0
11
85662.0
21
41410.0
0
LINE
8
BLACK
10
85662.0
20
41410.0
11
85262.0
21
41410.0
0
LINE
8
BLACK
10
85262.0
20
41410.0
11
85262.0
21
41601.0
0
LINE
8
BLACK
10
85662.0
20
41772.0
11
85262.0
21
41772.0
0
LINE
8
BLACK
10
85262.0
20
41772.0
11
85662.0
21
42001.0
0
LINE
8
BLACK
10
85662.0
20
42001.0
11
85262.0
21
42001.0
0
LINE
8
BLACK
10
85548.0
20
42172.0
11
85548.0
21
42363.0
0
LINE
8
BLACK
10
85662.0
20
42134.0
11
85262.0
21
42267.0
0
LINE
8
BLACK
10
85262.0
20
42267.0
11
85662.0
21
42401.0
0
LINE
8
BLACK
10
85452.0
20
42668.0
11
85471.0
21
42725.0
0
LINE
8
BLACK
10
85471.0
20
42725.0
11
85490.0
21
42744.0
0
LINE
8
BLACK
10
85490.0
20
42744.0
11
85529.0
21
42763.0
0
LINE
8
BLACK
10
85529.0
20
42763.0
11
85586.0
21
42763.0
0
LINE
8
BLACK
10
85586.0
20
42763.0
11
85624.0
21
42744.0
0
LINE
8
BLACK
10
85624.0
20
42744.0
11
85643.0
21
42725.0
0
LINE
8
BLACK
10
85643.0
20
42725.0
11
85662.0
21
42687.0
0
LINE
8
BLACK
10
85662.0
20
42687.0
11
85662.0
21
42534.0
0
LINE
8
BLACK
10
85662.0
20
42534.0
11
85262.0
21
42534.0
0
LINE
8
BLACK
10
85262.0
20
42534.0
11
85262.0
21
42668.0
0
LINE
8
BLACK
10
85262.0
20
42668.0
11
85281.0
21
42706.0
0
LINE
8
BLACK
10
85281.0
20
42706.0
11
85300.0
21
42725.0
0
LINE
8
BLACK
10
85300.0
20
42725.0
11
85338.0
21
42744.0
0
LINE
8
BLACK
10
85338.0
20
42744.0
11
85376.0
21
42744.0
0
LINE
8
BLACK
10
85376.0
20
42744.0
11
85414.0
21
42725.0
0
LINE
8
BLACK
10
85414.0
20
42725.0
11
85433.0
21
42706.0
0
LINE
8
BLACK
10
85433.0
20
42706.0
11
85452.0
21
42668.0
0
LINE
8
BLACK
10
85452.0
20
42668.0
11
85452.0
21
42534.0
0
LINE
8
BLACK
10
85662.0
20
43125.0
11
85662.0
21
42934.0
0
LINE
8
BLACK
10
85662.0
20
42934.0
11
85262.0
21
42934.0
0
LINE
8
BLACK
10
85452.0
20
43258.0
11
85452.0
21
43392.0
0
LINE
8
BLACK
10
85662.0
20
43449.0
11
85662.0
21
43258.0
0
LINE
8
BLACK
10
85662.0
20
43258.0
11
85262.0
21
43258.0
0
LINE
8
BLACK
10
85262.0
20
43258.0
11
85262.0
21
43449.0
0
LINE
8
BLACK
10
86510.0
20
41406.0
11
86510.0
21
41711.0
0
LINE
8
BLACK
10
86662.0
20
41559.0
11
86357.0
21
41559.0
0
LINE
8
BLACK
10
86262.0
20
42092.0
11
86262.0
21
41901.0
0
LINE
8
BLACK
10
86262.0
20
41901.0
11
86452.0
21
41882.0
0
LINE
8
BLACK
10
86452.0
20
41882.0
11
86433.0
21
41901.0
0
LINE
8
BLACK
10
86433.0
20
41901.0
11
86414.0
21
41939.0
0
LINE
8
BLACK
10
86414.0
20
41939.0
11
86414.0
21
42035.0
0
LINE
8
BLACK
10
86414.0
20
42035.0
11
86433.0
21
42073.0
0
LINE
8
BLACK
10
86433.0
20
42073.0
11
86452.0
21
42092.0
0
LINE
8
BLACK
10
86452.0
20
42092.0
11
86490.0
21
42111.0
0
LINE
8
BLACK
10
86490.0
20
42111.0
11
86586.0
21
42111.0
0
LINE
8
BLACK
10
86586.0
20
42111.0
11
86624.0
21
42092.0
0
LINE
8
BLACK
10
86624.0
20
42092.0
11
86643.0
21
42073.0
0
LINE
8
BLACK
10
86643.0
20
42073.0
11
86662.0
21
42035.0
0
LINE
8
BLACK
10
86662.0
20
42035.0
11
86662.0
21
41939.0
0
LINE
8
BLACK
10
86662.0
20
41939.0
11
86643.0
21
41901.0
0
LINE
8
BLACK
10
86643.0
20
41901.0
11
86624.0
21
41882.0
0
LINE
8
BLACK
10
86262.0
20
42225.0
11
86662.0
21
42358.0
0
LINE
8
BLACK
10
86662.0
20
42358.0
11
86262.0
21
42492.0
0
LINE
8
BLACK
10
87662.0
20
41520.0
11
87262.0
21
41520.0
0
LINE
8
BLACK
10
87262.0
20
41520.0
11
87262.0
21
41615.0
0
LINE
8
BLACK
10
87262.0
20
41615.0
11
87281.0
21
41673.0
0
LINE
8
BLACK
10
87281.0
20
41673.0
11
87319.0
21
41711.0
0
LINE
8
BLACK
10
87319.0
20
41711.0
11
87357.0
21
41730.0
0
LINE
8
BLACK
10
87357.0
20
41730.0
11
87433.0
21
41749.0
0
LINE
8
BLACK
10
87433.0
20
41749.0
11
87490.0
21
41749.0
0
LINE
8
BLACK
10
87490.0
20
41749.0
11
87567.0
21
41730.0
0
LINE
8
BLACK
10
87567.0
20
41730.0
11
87605.0
21
41711.0
0
LINE
8
BLACK
10
87605.0
20
41711.0
11
87643.0
21
41673.0
0
LINE
8
BLACK
10
87643.0
20
41673.0
11
87662.0
21
41615.0
0
LINE
8
BLACK
10
87662.0
20
41615.0
11
87662.0
21
41520.0
0
LINE
8
BLACK
10
87662.0
20
41920.0
11
87262.0
21
41920.0
0
LINE
8
BLACK
10
87662.0
20
42339.0
11
87471.0
21
42205.0
0
LINE
8
BLACK
10
87662.0
20
42110.0
11
87262.0
21
42110.0
0
LINE
8
BLACK
10
87262.0
20
42110.0
11
87262.0
21
42263.0
0
LINE
8
BLACK
10
87262.0
20
42263.0
11
87281.0
21
42301.0
0
LINE
8
BLACK
10
87281.0
20
42301.0
11
87300.0
21
42320.0
0
LINE
8
BLACK
10
87300.0
20
42320.0
11
87338.0
21
42339.0
0
LINE
8
BLACK
10
87338.0
20
42339.0
11
87395.0
21
42339.0
0
LINE
8
BLACK
10
87395.0
20
42339.0
11
87433.0
21
42320.0
0
LINE
8
BLACK
10
87433.0
20
42320.0
11
87452.0
21
42301.0
0
LINE
8
BLACK
10
87452.0
20
42301.0
11
87471.0
21
42263.0
0
LINE
8
BLACK
10
87471.0
20
42263.0
11
87471.0
21
42110.0
0
LINE
8
BLACK
10
88643.0
20
41522.0
11
88662.0
21
41579.0
0
LINE
8
BLACK
10
88662.0
20
41579.0
11
88662.0
21
41675.0
0
LINE
8
BLACK
10
88662.0
20
41675.0
11
88643.0
21
41713.0
0
LINE
8
BLACK
10
88643.0
20
41713.0
11
88624.0
21
41732.0
0
LINE
8
BLACK
10
88624.0
20
41732.0
11
88586.0
21
41751.0
0
LINE
8
BLACK
10
88586.0
20
41751.0
11
88548.0
21
41751.0
0
LINE
8
BLACK
10
88548.0
20
41751.0
11
88510.0
21
41732.0
0
LINE
8
BLACK
10
88510.0
20
41732.0
11
88490.0
21
41713.0
0
LINE
8
BLACK
10
88490.0
20
41713.0
11
88471.0
21
41675.0
0
LINE
8
BLACK
10
88471.0
20
41675.0
11
88452.0
21
41598.0
0
LINE
8
BLACK
10
88452.0
20
41598.0
11
88433.0
21
41560.0
0
LINE
8
BLACK
10
88433.0
20
41560.0
11
88414.0
21
41541.0
0
LINE
8
BLACK
10
88414.0
20
41541.0
11
88376.0
21
41522.0
0
LINE
8
BLACK
10
88376.0
20
41522.0
11
88338.0
21
41522.0
0
LINE
8
BLACK
10
88338.0
20
41522.0
11
88300.0
21
41541.0
0
LINE
8
BLACK
10
88300.0
20
41541.0
11
88281.0
21
41560.0
0
LINE
8
BLACK
10
88281.0
20
41560.0
11
88262.0
21
41598.0
0
LINE
8
BLACK
10
88262.0
20
41598.0
11
88262.0
21
41694.0
0
LINE
8
BLACK
10
88262.0
20
41694.0
11
88281.0
21
41751.0
0
LINE
8
BLACK
10
88262.0
20
41865.0
11
88262.0
21
42094.0
0
LINE
8
BLACK
10
88662.0
20
41979.0
11
88262.0
21
41979.0
0
LINE
8
BLACK
10
88452.0
20
42227.0
11
88452.0
21
42361.0
0
LINE
8
BLACK
10
88662.0
20
42418.0
11
88662.0
21
42227.0
0
LINE
8
BLACK
10
88662.0
20
42227.0
11
88262.0
21
42227.0
0
LINE
8
BLACK
10
88262.0
20
42227.0
11
88262.0
21
42418.0
0
LINE
8
BLACK
10
88662.0
20
42589.0
11
88262.0
21
42589.0
0
LINE
8
BLACK
10
88262.0
20
42589.0
11
88262.0
21
42742.0
0
LINE
8
BLACK
10
88262.0
20
42742.0
11
88281.0
21
42780.0
0
LINE
8
BLACK
10
88281.0
20
42780.0
11
88300.0
21
42799.0
0
LINE
8
BLACK
10
88300.0
20
42799.0
11
88338.0
21
42818.0
0
LINE
8
BLACK
10
88338.0
20
42818.0
11
88395.0
21
42818.0
0
LINE
8
BLACK
10
88395.0
20
42818.0
11
88433.0
21
42799.0
0
LINE
8
BLACK
10
88433.0
20
42799.0
11
88452.0
21
42780.0
0
LINE
8
BLACK
10
88452.0
20
42780.0
11
88471.0
21
42742.0
0
LINE
8
BLACK
10
88471.0
20
42742.0
11
88471.0
21
42589.0
0
LINE
8
BLACK
10
85662.0
20
31693.0
11
85262.0
21
31693.0
0
LINE
8
BLACK
10
85262.0
20
31693.0
11
85262.0
21
31788.0
0
LINE
8
BLACK
10
85262.0
20
31788.0
11
85281.0
21
31846.0
0
LINE
8
BLACK
10
85281.0
20
31846.0
11
85319.0
21
31884.0
0
LINE
8
BLACK
10
85319.0
20
31884.0
11
85357.0
21
31903.0
0
LINE
8
BLACK
10
85357.0
20
31903.0
11
85433.0
21
31922.0
0
LINE
8
BLACK
10
85433.0
20
31922.0
11
85490.0
21
31922.0
0
LINE
8
BLACK
10
85490.0
20
31922.0
11
85567.0
21
31903.0
0
LINE
8
BLACK
10
85567.0
20
31903.0
11
85605.0
21
31884.0
0
LINE
8
BLACK
10
85605.0
20
31884.0
11
85643.0
21
31846.0
0
LINE
8
BLACK
10
85643.0
20
31846.0
11
85662.0
21
31788.0
0
LINE
8
BLACK
10
85662.0
20
31788.0
11
85662.0
21
31693.0
0
LINE
8
BLACK
10
85662.0
20
32093.0
11
85395.0
21
32093.0
0
LINE
8
BLACK
10
85471.0
20
32093.0
11
85433.0
21
32112.0
0
LINE
8
BLACK
10
85433.0
20
32112.0
11
85414.0
21
32131.0
0
LINE
8
BLACK
10
85414.0
20
32131.0
11
85395.0
21
32169.0
0
LINE
8
BLACK
10
85395.0
20
32169.0
11
85395.0
21
32208.0
0
LINE
8
BLACK
10
85662.0
20
32341.0
11
85395.0
21
32341.0
0
LINE
8
BLACK
10
85262.0
20
32341.0
11
85281.0
21
32322.0
0
LINE
8
BLACK
10
85281.0
20
32322.0
11
85300.0
21
32341.0
0
LINE
8
BLACK
10
85300.0
20
32341.0
11
85281.0
21
32360.0
0
LINE
8
BLACK
10
85281.0
20
32360.0
11
85262.0
21
32341.0
0
LINE
8
BLACK
10
85262.0
20
32341.0
11
85300.0
21
32341.0
0
LINE
8
BLACK
10
85395.0
20
32493.0
11
85662.0
21
32588.0
0
LINE
8
BLACK
10
85662.0
20
32588.0
11
85395.0
21
32684.0
0
LINE
8
BLACK
10
85643.0
20
32989.0
11
85662.0
21
32951.0
0
LINE
8
BLACK
10
85662.0
20
32951.0
11
85662.0
21
32874.0
0
LINE
8
BLACK
10
85662.0
20
32874.0
11
85643.0
21
32836.0
0
LINE
8
BLACK
10
85643.0
20
32836.0
11
85605.0
21
32817.0
0
LINE
8
BLACK
10
85605.0
20
32817.0
11
85452.0
21
32817.0
0
LINE
8
BLACK
10
85452.0
20
32817.0
11
85414.0
21
32836.0
0
LINE
8
BLACK
10
85414.0
20
32836.0
11
85395.0
21
32874.0
0
LINE
8
BLACK
10
85395.0
20
32874.0
11
85395.0
21
32951.0
0
LINE
8
BLACK
10
85395.0
20
32951.0
11
85414.0
21
32989.0
0
LINE
8
BLACK
10
85414.0
20
32989.0
11
85452.0
21
33008.0
0
LINE
8
BLACK
10
85452.0
20
33008.0
11
85490.0
21
33008.0
0
LINE
8
BLACK
10
85490.0
20
33008.0
11
85529.0
21
32817.0
0
LINE
8
BLACK
10
85662.0
20
33484.0
11
85262.0
21
33484.0
0
LINE
8
BLACK
10
85262.0
20
33484.0
11
85262.0
21
33637.0
0
LINE
8
BLACK
10
85262.0
20
33637.0
11
85281.0
21
33675.0
0
LINE
8
BLACK
10
85281.0
20
33675.0
11
85300.0
21
33694.0
0
LINE
8
BLACK
10
85300.0
20
33694.0
11
85338.0
21
33713.0
0
LINE
8
BLACK
10
85338.0
20
33713.0
11
85395.0
21
33713.0
0
LINE
8
BLACK
10
85395.0
20
33713.0
11
85433.0
21
33694.0
0
LINE
8
BLACK
10
85433.0
20
33694.0
11
85452.0
21
33675.0
0
LINE
8
BLACK
10
85452.0
20
33675.0
11
85471.0
21
33637.0
0
LINE
8
BLACK
10
85471.0
20
33637.0
11
85471.0
21
33484.0
0
LINE
8
BLACK
10
85662.0
20
34094.0
11
85662.0
21
33865.0
0
LINE
8
BLACK
10
85662.0
20
33979.0
11
85262.0
21
33979.0
0
LINE
8
BLACK
10
85262.0
20
33979.0
11
85319.0
21
33941.0
0
LINE
8
BLACK
10
85319.0
20
33941.0
11
85357.0
21
33903.0
0
LINE
8
BLACK
10
85357.0
20
33903.0
11
85376.0
21
33865.0
0
LINE
8
BLACK
10
85624.0
20
34265.0
11
85643.0
21
34284.0
0
LINE
8
BLACK
10
85643.0
20
34284.0
11
85662.0
21
34265.0
0
LINE
8
BLACK
10
85662.0
20
34265.0
11
85643.0
21
34246.0
0
LINE
8
BLACK
10
85643.0
20
34246.0
11
85624.0
21
34265.0
0
LINE
8
BLACK
10
85624.0
20
34265.0
11
85662.0
21
34265.0
0
LINE
8
BLACK
10
85414.0
20
34265.0
11
85433.0
21
34284.0
0
LINE
8
BLACK
10
85433.0
20
34284.0
11
85452.0
21
34265.0
0
LINE
8
BLACK
10
85452.0
20
34265.0
11
85433.0
21
34246.0
0
LINE
8
BLACK
10
85433.0
20
34246.0
11
85414.0
21
34265.0
0
LINE
8
BLACK
10
85414.0
20
34265.0
11
85452.0
21
34265.0
0
LINE
8
BLACK
10
85262.0
20
34646.0
11
85262.0
21
34455.0
0
LINE
8
BLACK
10
85262.0
20
34455.0
11
85452.0
21
34436.0
0
LINE
8
BLACK
10
85452.0
20
34436.0
11
85433.0
21
34455.0
0
LINE
8
BLACK
10
85433.0
20
34455.0
11
85414.0
21
34493.0
0
LINE
8
BLACK
10
85414.0
20
34493.0
11
85414.0
21
34589.0
0
LINE
8
BLACK
10
85414.0
20
34589.0
11
85433.0
21
34627.0
0
LINE
8
BLACK
10
85433.0
20
34627.0
11
85452.0
21
34646.0
0
LINE
8
BLACK
10
85452.0
20
34646.0
11
85490.0
21
34665.0
0
LINE
8
BLACK
10
85490.0
20
34665.0
11
85586.0
21
34665.0
0
LINE
8
BLACK
10
85586.0
20
34665.0
11
85624.0
21
34646.0
0
LINE
8
BLACK
10
85624.0
20
34646.0
11
85643.0
21
34627.0
0
LINE
8
BLACK
10
85643.0
20
34627.0
11
85662.0
21
34589.0
0
LINE
8
BLACK
10
85662.0
20
34589.0
11
85662.0
21
34493.0
0
LINE
8
BLACK
10
85662.0
20
34493.0
11
85643.0
21
34455.0
0
LINE
8
BLACK
10
85643.0
20
34455.0
11
85624.0
21
34436.0
0
LINE
8
BLACK
10
85814.0
20
35256.0
11
85795.0
21
35236.0
0
LINE
8
BLACK
10
85795.0
20
35236.0
11
85738.0
21
35198.0
0
LINE
8
BLACK
10
85738.0
20
35198.0
11
85700.0
21
35179.0
0
LINE
8
BLACK
10
85700.0
20
35179.0
11
85643.0
21
35160.0
0
LINE
8
BLACK
10
85643.0
20
35160.0
11
85548.0
21
35141.0
0
LINE
8
BLACK
10
85548.0
20
35141.0
11
85471.0
21
35141.0
0
LINE
8
BLACK
10
85471.0
20
35141.0
11
85376.0
21
35160.0
0
LINE
8
BLACK
10
85376.0
20
35160.0
11
85319.0
21
35179.0
0
LINE
8
BLACK
10
85319.0
20
35179.0
11
85281.0
21
35198.0
0
LINE
8
BLACK
10
85281.0
20
35198.0
11
85224.0
21
35236.0
0
LINE
8
BLACK
10
85224.0
20
35236.0
11
85205.0
21
35256.0
0
LINE
8
BLACK
10
85662.0
20
35637.0
11
85471.0
21
35503.0
0
LINE
8
BLACK
10
85662.0
20
35408.0
11
85262.0
21
35408.0
0
LINE
8
BLACK
10
85262.0
20
35408.0
11
85262.0
21
35561.0
0
LINE
8
BLACK
10
85262.0
20
35561.0
11
85281.0
21
35599.0
0
LINE
8
BLACK
10
85281.0
20
35599.0
11
85300.0
21
35618.0
0
LINE
8
BLACK
10
85300.0
20
35618.0
11
85338.0
21
35637.0
0
LINE
8
BLACK
10
85338.0
20
35637.0
11
85395.0
21
35637.0
0
LINE
8
BLACK
10
85395.0
20
35637.0
11
85433.0
21
35618.0
0
LINE
8
BLACK
10
85433.0
20
35618.0
11
85452.0
21
35599.0
0
LINE
8
BLACK
10
85452.0
20
35599.0
11
85471.0
21
35561.0
0
LINE
8
BLACK
10
85471.0
20
35561.0
11
85471.0
21
35408.0
0
LINE
8
BLACK
10
85452.0
20
35808.0
11
85452.0
21
35942.0
0
LINE
8
BLACK
10
85662.0
20
35999.0
11
85662.0
21
35808.0
0
LINE
8
BLACK
10
85662.0
20
35808.0
11
85262.0
21
35808.0
0
LINE
8
BLACK
10
85262.0
20
35808.0
11
85262.0
21
35999.0
0
LINE
8
BLACK
10
85662.0
20
36170.0
11
85262.0
21
36170.0
0
LINE
8
BLACK
10
85262.0
20
36170.0
11
85262.0
21
36265.0
0
LINE
8
BLACK
10
85262.0
20
36265.0
11
85281.0
21
36323.0
0
LINE
8
BLACK
10
85281.0
20
36323.0
11
85319.0
21
36361.0
0
LINE
8
BLACK
10
85319.0
20
36361.0
11
85357.0
21
36380.0
0
LINE
8
BLACK
10
85357.0
20
36380.0
11
85433.0
21
36399.0
0
LINE
8
BLACK
10
85433.0
20
36399.0
11
85490.0
21
36399.0
0
LINE
8
BLACK
10
85490.0
20
36399.0
11
85567.0
21
36380.0
0
LINE
8
BLACK
10
85567.0
20
36380.0
11
85605.0
21
36361.0
0
LINE
8
BLACK
10
85605.0
20
36361.0
11
85643.0
21
36323.0
0
LINE
8
BLACK
10
85643.0
20
36323.0
11
85662.0
21
36265.0
0
LINE
8
BLACK
10
85662.0
20
36265.0
11
85662.0
21
36170.0
0
LINE
8
BLACK
10
85814.0
20
36532.0
11
85795.0
21
36551.0
0
LINE
8
BLACK
10
85795.0
20
36551.0
11
85738.0
21
36589.0
0
LINE
8
BLACK
10
85738.0
20
36589.0
11
85700.0
21
36608.0
0
LINE
8
BLACK
10
85700.0
20
36608.0
11
85643.0
21
36627.0
0
LINE
8
BLACK
10
85643.0
20
36627.0
11
85548.0
21
36646.0
0
LINE
8
BLACK
10
85548.0
20
36646.0
11
85471.0
21
36646.0
0
LINE
8
BLACK
10
85471.0
20
36646.0
11
85376.0
21
36627.0
0
LINE
8
BLACK
10
85376.0
20
36627.0
11
85319.0
21
36608.0
0
LINE
8
BLACK
10
85319.0
20
36608.0
11
85281.0
21
36589.0
0
LINE
8
BLACK
10
85281.0
20
36589.0
11
85224.0
21
36551.0
0
LINE
8
BLACK
10
85224.0
20
36551.0
11
85205.0
21
36532.0
0
LINE
8
BLACK
10
86662.0
20
31603.0
11
86262.0
21
31603.0
0
LINE
8
BLACK
10
86262.0
20
31603.0
11
86262.0
21
31698.0
0
LINE
8
BLACK
10
86262.0
20
31698.0
11
86281.0
21
31756.0
0
LINE
8
BLACK
10
86281.0
20
31756.0
11
86319.0
21
31794.0
0
LINE
8
BLACK
10
86319.0
20
31794.0
11
86357.0
21
31813.0
0
LINE
8
BLACK
10
86357.0
20
31813.0
11
86433.0
21
31832.0
0
LINE
8
BLACK
10
86433.0
20
31832.0
11
86490.0
21
31832.0
0
LINE
8
BLACK
10
86490.0
20
31832.0
11
86567.0
21
31813.0
0
LINE
8
BLACK
10
86567.0
20
31813.0
11
86605.0
21
31794.0
0
LINE
8
BLACK
10
86605.0
20
31794.0
11
86643.0
21
31756.0
0
LINE
8
BLACK
10
86643.0
20
31756.0
11
86662.0
21
31698.0
0
LINE
8
BLACK
10
86662.0
20
31698.0
11
86662.0
21
31603.0
0
LINE
8
BLACK
10
86662.0
20
32003.0
11
86395.0
21
32003.0
0
LINE
8
BLACK
10
86471.0
20
32003.0
11
86433.0
21
32022.0
0
LINE
8
BLACK
10
86433.0
20
32022.0
11
86414.0
21
32041.0
0
LINE
8
BLACK
10
86414.0
20
32041.0
11
86395.0
21
32079.0
0
LINE
8
BLACK
10
86395.0
20
32079.0
11
86395.0
21
32118.0
0
LINE
8
BLACK
10
86662.0
20
32251.0
11
86395.0
21
32251.0
0
LINE
8
BLACK
10
86262.0
20
32251.0
11
86281.0
21
32232.0
0
LINE
8
BLACK
10
86281.0
20
32232.0
11
86300.0
21
32251.0
0
LINE
8
BLACK
10
86300.0
20
32251.0
11
86281.0
21
32270.0
0
LINE
8
BLACK
10
86281.0
20
32270.0
11
86262.0
21
32251.0
0
LINE
8
BLACK
10
86262.0
20
32251.0
11
86300.0
21
32251.0
0
LINE
8
BLACK
10
86395.0
20
32403.0
11
86662.0
21
32498.0
0
LINE
8
BLACK
10
86662.0
20
32498.0
11
86395.0
21
32594.0
0
LINE
8
BLACK
10
86643.0
20
32899.0
11
86662.0
21
32861.0
0
LINE
8
BLACK
10
86662.0
20
32861.0
11
86662.0
21
32784.0
0
LINE
8
BLACK
10
86662.0
20
32784.0
11
86643.0
21
32746.0
0
LINE
8
BLACK
10
86643.0
20
32746.0
11
86605.0
21
32727.0
0
LINE
8
BLACK
10
86605.0
20
32727.0
11
86452.0
21
32727.0
0
LINE
8
BLACK
10
86452.0
20
32727.0
11
86414.0
21
32746.0
0
LINE
8
BLACK
10
86414.0
20
32746.0
11
86395.0
21
32784.0
0
LINE
8
BLACK
10
86395.0
20
32784.0
11
86395.0
21
32861.0
0
LINE
8
BLACK
10
86395.0
20
32861.0
11
86414.0
21
32899.0
0
LINE
8
BLACK
10
86414.0
20
32899.0
11
86452.0
21
32918.0
0
LINE
8
BLACK
10
86452.0
20
32918.0
11
86490.0
21
32918.0
0
LINE
8
BLACK
10
86490.0
20
32918.0
11
86529.0
21
32727.0
0
LINE
8
BLACK
10
86662.0
20
33394.0
11
86262.0
21
33394.0
0
LINE
8
BLACK
10
86262.0
20
33394.0
11
86262.0
21
33547.0
0
LINE
8
BLACK
10
86262.0
20
33547.0
11
86281.0
21
33585.0
0
LINE
8
BLACK
10
86281.0
20
33585.0
11
86300.0
21
33604.0
0
LINE
8
BLACK
10
86300.0
20
33604.0
11
86338.0
21
33623.0
0
LINE
8
BLACK
10
86338.0
20
33623.0
11
86395.0
21
33623.0
0
LINE
8
BLACK
10
86395.0
20
33623.0
11
86433.0
21
33604.0
0
LINE
8
BLACK
10
86433.0
20
33604.0
11
86452.0
21
33585.0
0
LINE
8
BLACK
10
86452.0
20
33585.0
11
86471.0
21
33547.0
0
LINE
8
BLACK
10
86471.0
20
33547.0
11
86471.0
21
33394.0
0
LINE
8
BLACK
10
86662.0
20
34004.0
11
86662.0
21
33775.0
0
LINE
8
BLACK
10
86662.0
20
33889.0
11
86262.0
21
33889.0
0
LINE
8
BLACK
10
86262.0
20
33889.0
11
86319.0
21
33851.0
0
LINE
8
BLACK
10
86319.0
20
33851.0
11
86357.0
21
33813.0
0
LINE
8
BLACK
10
86357.0
20
33813.0
11
86376.0
21
33775.0
0
LINE
8
BLACK
10
86624.0
20
34175.0
11
86643.0
21
34194.0
0
LINE
8
BLACK
10
86643.0
20
34194.0
11
86662.0
21
34175.0
0
LINE
8
BLACK
10
86662.0
20
34175.0
11
86643.0
21
34156.0
0
LINE
8
BLACK
10
86643.0
20
34156.0
11
86624.0
21
34175.0
0
LINE
8
BLACK
10
86624.0
20
34175.0
11
86662.0
21
34175.0
0
LINE
8
BLACK
10
86414.0
20
34175.0
11
86433.0
21
34194.0
0
LINE
8
BLACK
10
86433.0
20
34194.0
11
86452.0
21
34175.0
0
LINE
8
BLACK
10
86452.0
20
34175.0
11
86433.0
21
34156.0
0
LINE
8
BLACK
10
86433.0
20
34156.0
11
86414.0
21
34175.0
0
LINE
8
BLACK
10
86414.0
20
34175.0
11
86452.0
21
34175.0
0
LINE
8
BLACK
10
86395.0
20
34537.0
11
86662.0
21
34537.0
0
LINE
8
BLACK
10
86243.0
20
34441.0
11
86529.0
21
34346.0
0
LINE
8
BLACK
10
86529.0
20
34346.0
11
86529.0
21
34594.0
0
LINE
8
BLACK
10
86814.0
20
35166.0
11
86795.0
21
35146.0
0
LINE
8
BLACK
10
86795.0
20
35146.0
11
86738.0
21
35108.0
0
LINE
8
BLACK
10
86738.0
20
35108.0
11
86700.0
21
35089.0
0
LINE
8
BLACK
10
86700.0
20
35089.0
11
86643.0
21
35070.0
0
LINE
8
BLACK
10
86643.0
20
35070.0
11
86548.0
21
35051.0
0
LINE
8
BLACK
10
86548.0
20
35051.0
11
86471.0
21
35051.0
0
LINE
8
BLACK
10
86471.0
20
35051.0
11
86376.0
21
35070.0
0
LINE
8
BLACK
10
86376.0
20
35070.0
11
86319.0
21
35089.0
0
LINE
8
BLACK
10
86319.0
20
35089.0
11
86281.0
21
35108.0
0
LINE
8
BLACK
10
86281.0
20
35108.0
11
86224.0
21
35146.0
0
LINE
8
BLACK
10
86224.0
20
35146.0
11
86205.0
21
35166.0
0
LINE
8
BLACK
10
86262.0
20
35394.0
11
86262.0
21
35471.0
0
LINE
8
BLACK
10
86262.0
20
35471.0
11
86281.0
21
35509.0
0
LINE
8
BLACK
10
86281.0
20
35509.0
11
86319.0
21
35547.0
0
LINE
8
BLACK
10
86319.0
20
35547.0
11
86395.0
21
35566.0
0
LINE
8
BLACK
10
86395.0
20
35566.0
11
86529.0
21
35566.0
0
LINE
8
BLACK
10
86529.0
20
35566.0
11
86605.0
21
35547.0
0
LINE
8
BLACK
10
86605.0
20
35547.0
11
86643.0
21
35509.0
0
LINE
8
BLACK
10
86643.0
20
35509.0
11
86662.0
21
35471.0
0
LINE
8
BLACK
10
86662.0
20
35471.0
11
86662.0
21
35394.0
0
LINE
8
BLACK
10
86662.0
20
35394.0
11
86643.0
21
35356.0
0
LINE
8
BLACK
10
86643.0
20
35356.0
11
86605.0
21
35318.0
0
LINE
8
BLACK
10
86605.0
20
35318.0
11
86529.0
21
35299.0
0
LINE
8
BLACK
10
86529.0
20
35299.0
11
86395.0
21
35299.0
0
LINE
8
BLACK
10
86395.0
20
35299.0
11
86319.0
21
35318.0
0
LINE
8
BLACK
10
86319.0
20
35318.0
11
86281.0
21
35356.0
0
LINE
8
BLACK
10
86281.0
20
35356.0
11
86262.0
21
35394.0
0
LINE
8
BLACK
10
86662.0
20
35966.0
11
86471.0
21
35832.0
0
LINE
8
BLACK
10
86662.0
20
35737.0
11
86262.0
21
35737.0
0
LINE
8
BLACK
10
86262.0
20
35737.0
11
86262.0
21
35890.0
0
LINE
8
BLACK
10
86262.0
20
35890.0
11
86281.0
21
35928.0
0
LINE
8
BLACK
10
86281.0
20
35928.0
11
86300.0
21
35947.0
0
LINE
8
BLACK
10
86300.0
20
35947.0
11
86338.0
21
35966.0
0
LINE
8
BLACK
10
86338.0
20
35966.0
11
86395.0
21
35966.0
0
LINE
8
BLACK
10
86395.0
20
35966.0
11
86433.0
21
35947.0
0
LINE
8
BLACK
10
86433.0
20
35947.0
11
86452.0
21
35928.0
0
LINE
8
BLACK
10
86452.0
20
35928.0
11
86471.0
21
35890.0
0
LINE
8
BLACK
10
86471.0
20
35890.0
11
86471.0
21
35737.0
0
LINE
8
BLACK
10
86548.0
20
36118.0
11
86548.0
21
36309.0
0
LINE
8
BLACK
10
86662.0
20
36080.0
11
86262.0
21
36213.0
0
LINE
8
BLACK
10
86262.0
20
36213.0
11
86662.0
21
36347.0
0
LINE
8
BLACK
10
86662.0
20
36480.0
11
86262.0
21
36480.0
0
LINE
8
BLACK
10
86262.0
20
36480.0
11
86662.0
21
36709.0
0
LINE
8
BLACK
10
86662.0
20
36709.0
11
86262.0
21
36709.0
0
LINE
8
BLACK
10
86281.0
20
37109.0
11
86262.0
21
37071.0
0
LINE
8
BLACK
10
86262.0
20
37071.0
11
86262.0
21
37014.0
0
LINE
8
BLACK
10
86262.0
20
37014.0
11
86281.0
21
36956.0
0
LINE
8
BLACK
10
86281.0
20
36956.0
11
86319.0
21
36918.0
0
LINE
8
BLACK
10
86319.0
20
36918.0
11
86357.0
21
36899.0
0
LINE
8
BLACK
10
86357.0
20
36899.0
11
86433.0
21
36880.0
0
LINE
8
BLACK
10
86433.0
20
36880.0
11
86490.0
21
36880.0
0
LINE
8
BLACK
10
86490.0
20
36880.0
11
86567.0
21
36899.0
0
LINE
8
BLACK
10
86567.0
20
36899.0
11
86605.0
21
36918.0
0
LINE
8
BLACK
10
86605.0
20
36918.0
11
86643.0
21
36956.0
0
LINE
8
BLACK
10
86643.0
20
36956.0
11
86662.0
21
37014.0
0
LINE
8
BLACK
10
86662.0
20
37014.0
11
86662.0
21
37052.0
0
LINE
8
BLACK
10
86662.0
20
37052.0
11
86643.0
21
37109.0
0
LINE
8
BLACK
10
86643.0
20
37109.0
11
86624.0
21
37128.0
0
LINE
8
BLACK
10
86624.0
20
37128.0
11
86490.0
21
37128.0
0
LINE
8
BLACK
10
86490.0
20
37128.0
11
86490.0
21
37052.0
0
LINE
8
BLACK
10
86452.0
20
37299.0
11
86452.0
21
37433.0
0
LINE
8
BLACK
10
86662.0
20
37490.0
11
86662.0
21
37299.0
0
LINE
8
BLACK
10
86662.0
20
37299.0
11
86262.0
21
37299.0
0
LINE
8
BLACK
10
86262.0
20
37299.0
11
86262.0
21
37490.0
0
LINE
8
BLACK
10
86814.0
20
37623.0
11
86795.0
21
37642.0
0
LINE
8
BLACK
10
86795.0
20
37642.0
11
86738.0
21
37680.0
0
LINE
8
BLACK
10
86738.0
20
37680.0
11
86700.0
21
37699.0
0
LINE
8
BLACK
10
86700.0
20
37699.0
11
86643.0
21
37718.0
0
LINE
8
BLACK
10
86643.0
20
37718.0
11
86548.0
21
37737.0
0
LINE
8
BLACK
10
86548.0
20
37737.0
11
86471.0
21
37737.0
0
LINE
8
BLACK
10
86471.0
20
37737.0
11
86376.0
21
37718.0
0
LINE
8
BLACK
10
86376.0
20
37718.0
11
86319.0
21
37699.0
0
LINE
8
BLACK
10
86319.0
20
37699.0
11
86281.0
21
37680.0
0
LINE
8
BLACK
10
86281.0
20
37680.0
11
86224.0
21
37642.0
0
LINE
8
BLACK
10
86224.0
20
37642.0
11
86205.0
21
37623.0
0
LINE
8
BLACK
10
87662.0
20
31660.0
11
87262.0
21
31660.0
0
LINE
8
BLACK
10
87262.0
20
31660.0
11
87262.0
21
31755.0
0
LINE
8
BLACK
10
87262.0
20
31755.0
11
87281.0
21
31813.0
0
LINE
8
BLACK
10
87281.0
20
31813.0
11
87319.0
21
31851.0
0
LINE
8
BLACK
10
87319.0
20
31851.0
11
87357.0
21
31870.0
0
LINE
8
BLACK
10
87357.0
20
31870.0
11
87433.0
21
31889.0
0
LINE
8
BLACK
10
87433.0
20
31889.0
11
87490.0
21
31889.0
0
LINE
8
BLACK
10
87490.0
20
31889.0
11
87567.0
21
31870.0
0
LINE
8
BLACK
10
87567.0
20
31870.0
11
87605.0
21
31851.0
0
LINE
8
BLACK
10
87605.0
20
31851.0
11
87643.0
21
31813.0
0
LINE
8
BLACK
10
87643.0
20
31813.0
11
87662.0
21
31755.0
0
LINE
8
BLACK
10
87662.0
20
31755.0
11
87662.0
21
31660.0
0
LINE
8
BLACK
10
87662.0
20
32060.0
11
87395.0
21
32060.0
0
LINE
8
BLACK
10
87471.0
20
32060.0
11
87433.0
21
32079.0
0
LINE
8
BLACK
10
87433.0
20
32079.0
11
87414.0
21
32098.0
0
LINE
8
BLACK
10
87414.0
20
32098.0
11
87395.0
21
32136.0
0
LINE
8
BLACK
10
87395.0
20
32136.0
11
87395.0
21
32175.0
0
LINE
8
BLACK
10
87662.0
20
32308.0
11
87395.0
21
32308.0
0
LINE
8
BLACK
10
87262.0
20
32308.0
11
87281.0
21
32289.0
0
LINE
8
BLACK
10
87281.0
20
32289.0
11
87300.0
21
32308.0
0
LINE
8
BLACK
10
87300.0
20
32308.0
11
87281.0
21
32327.0
0
LINE
8
BLACK
10
87281.0
20
32327.0
11
87262.0
21
32308.0
0
LINE
8
BLACK
10
87262.0
20
32308.0
11
87300.0
21
32308.0
0
LINE
8
BLACK
10
87395.0
20
32460.0
11
87662.0
21
32555.0
0
LINE
8
BLACK
10
87662.0
20
32555.0
11
87395.0
21
32651.0
0
LINE
8
BLACK
10
87643.0
20
32956.0
11
87662.0
21
32918.0
0
LINE
8
BLACK
10
87662.0
20
32918.0
11
87662.0
21
32841.0
0
LINE
8
BLACK
10
87662.0
20
32841.0
11
87643.0
21
32803.0
0
LINE
8
BLACK
10
87643.0
20
32803.0
11
87605.0
21
32784.0
0
LINE
8
BLACK
10
87605.0
20
32784.0
11
87452.0
21
32784.0
0
LINE
8
BLACK
10
87452.0
20
32784.0
11
87414.0
21
32803.0
0
LINE
8
BLACK
10
87414.0
20
32803.0
11
87395.0
21
32841.0
0
LINE
8
BLACK
10
87395.0
20
32841.0
11
87395.0
21
32918.0
0
LINE
8
BLACK
10
87395.0
20
32918.0
11
87414.0
21
32956.0
0
LINE
8
BLACK
10
87414.0
20
32956.0
11
87452.0
21
32975.0
0
LINE
8
BLACK
10
87452.0
20
32975.0
11
87490.0
21
32975.0
0
LINE
8
BLACK
10
87490.0
20
32975.0
11
87529.0
21
32784.0
0
LINE
8
BLACK
10
87662.0
20
33451.0
11
87262.0
21
33451.0
0
LINE
8
BLACK
10
87262.0
20
33451.0
11
87262.0
21
33604.0
0
LINE
8
BLACK
10
87262.0
20
33604.0
11
87281.0
21
33642.0
0
LINE
8
BLACK
10
87281.0
20
33642.0
11
87300.0
21
33661.0
0
LINE
8
BLACK
10
87300.0
20
33661.0
11
87338.0
21
33680.0
0
LINE
8
BLACK
10
87338.0
20
33680.0
11
87395.0
21
33680.0
0
LINE
8
BLACK
10
87395.0
20
33680.0
11
87433.0
21
33661.0
0
LINE
8
BLACK
10
87433.0
20
33661.0
11
87452.0
21
33642.0
0
LINE
8
BLACK
10
87452.0
20
33642.0
11
87471.0
21
33604.0
0
LINE
8
BLACK
10
87471.0
20
33604.0
11
87471.0
21
33451.0
0
LINE
8
BLACK
10
87662.0
20
34061.0
11
87662.0
21
33832.0
0
LINE
8
BLACK
10
87662.0
20
33946.0
11
87262.0
21
33946.0
0
LINE
8
BLACK
10
87262.0
20
33946.0
11
87319.0
21
33908.0
0
LINE
8
BLACK
10
87319.0
20
33908.0
11
87357.0
21
33870.0
0
LINE
8
BLACK
10
87357.0
20
33870.0
11
87376.0
21
33832.0
0
LINE
8
BLACK
10
87624.0
20
34232.0
11
87643.0
21
34251.0
0
LINE
8
BLACK
10
87643.0
20
34251.0
11
87662.0
21
34232.0
0
LINE
8
BLACK
10
87662.0
20
34232.0
11
87643.0
21
34213.0
0
LINE
8
BLACK
10
87643.0
20
34213.0
11
87624.0
21
34232.0
0
LINE
8
BLACK
10
87624.0
20
34232.0
11
87662.0
21
34232.0
0
LINE
8
BLACK
10
87414.0
20
34232.0
11
87433.0
21
34251.0
0
LINE
8
BLACK
10
87433.0
20
34251.0
11
87452.0
21
34232.0
0
LINE
8
BLACK
10
87452.0
20
34232.0
11
87433.0
21
34213.0
0
LINE
8
BLACK
10
87433.0
20
34213.0
11
87414.0
21
34232.0
0
LINE
8
BLACK
10
87414.0
20
34232.0
11
87452.0
21
34232.0
0
LINE
8
BLACK
10
87262.0
20
34384.0
11
87262.0
21
34632.0
0
LINE
8
BLACK
10
87262.0
20
34632.0
11
87414.0
21
34498.0
0
LINE
8
BLACK
10
87414.0
20
34498.0
11
87414.0
21
34556.0
0
LINE
8
BLACK
10
87414.0
20
34556.0
11
87433.0
21
34594.0
0
LINE
8
BLACK
10
87433.0
20
34594.0
11
87452.0
21
34613.0
0
LINE
8
BLACK
10
87452.0
20
34613.0
11
87490.0
21
34632.0
0
LINE
8
BLACK
10
87490.0
20
34632.0
11
87586.0
21
34632.0
0
LINE
8
BLACK
10
87586.0
20
34632.0
11
87624.0
21
34613.0
0
LINE
8
BLACK
10
87624.0
20
34613.0
11
87643.0
21
34594.0
0
LINE
8
BLACK
10
87643.0
20
34594.0
11
87662.0
21
34556.0
0
LINE
8
BLACK
10
87662.0
20
34556.0
11
87662.0
21
34441.0
0
LINE
8
BLACK
10
87662.0
20
34441.0
11
87643.0
21
34403.0
0
LINE
8
BLACK
10
87643.0
20
34403.0
11
87624.0
21
34384.0
0
LINE
8
BLACK
10
87814.0
20
35223.0
11
87795.0
21
35203.0
0
LINE
8
BLACK
10
87795.0
20
35203.0
11
87738.0
21
35165.0
0
LINE
8
BLACK
10
87738.0
20
35165.0
11
87700.0
21
35146.0
0
LINE
8
BLACK
10
87700.0
20
35146.0
11
87643.0
21
35127.0
0
LINE
8
BLACK
10
87643.0
20
35127.0
11
87548.0
21
35108.0
0
LINE
8
BLACK
10
87548.0
20
35108.0
11
87471.0
21
35108.0
0
LINE
8
BLACK
10
87471.0
20
35108.0
11
87376.0
21
35127.0
0
LINE
8
BLACK
10
87376.0
20
35127.0
11
87319.0
21
35146.0
0
LINE
8
BLACK
10
87319.0
20
35146.0
11
87281.0
21
35165.0
0
LINE
8
BLACK
10
87281.0
20
35165.0
11
87224.0
21
35203.0
0
LINE
8
BLACK
10
87224.0
20
35203.0
11
87205.0
21
35223.0
0
LINE
8
BLACK
10
87471.0
20
35451.0
11
87662.0
21
35451.0
0
LINE
8
BLACK
10
87262.0
20
35318.0
11
87471.0
21
35451.0
0
LINE
8
BLACK
10
87471.0
20
35451.0
11
87262.0
21
35585.0
0
LINE
8
BLACK
10
87452.0
20
35718.0
11
87452.0
21
35852.0
0
LINE
8
BLACK
10
87662.0
20
35909.0
11
87662.0
21
35718.0
0
LINE
8
BLACK
10
87662.0
20
35718.0
11
87262.0
21
35718.0
0
LINE
8
BLACK
10
87262.0
20
35718.0
11
87262.0
21
35909.0
0
LINE
8
BLACK
10
87662.0
20
36271.0
11
87662.0
21
36080.0
0
LINE
8
BLACK
10
87662.0
20
36080.0
11
87262.0
21
36080.0
0
LINE
8
BLACK
10
87662.0
20
36595.0
11
87662.0
21
36404.0
0
LINE
8
BLACK
10
87662.0
20
36404.0
11
87262.0
21
36404.0
0
LINE
8
BLACK
10
87262.0
20
36804.0
11
87262.0
21
36881.0
0
LINE
8
BLACK
10
87262.0
20
36881.0
11
87281.0
21
36919.0
0
LINE
8
BLACK
10
87281.0
20
36919.0
11
87319.0
21
36957.0
0
LINE
8
BLACK
10
87319.0
20
36957.0
11
87395.0
21
36976.0
0
LINE
8
BLACK
10
87395.0
20
36976.0
11
87529.0
21
36976.0
0
LINE
8
BLACK
10
87529.0
20
36976.0
11
87605.0
21
36957.0
0
LINE
8
BLACK
10
87605.0
20
36957.0
11
87643.0
21
36919.0
0
LINE
8
BLACK
10
87643.0
20
36919.0
11
87662.0
21
36881.0
0
LINE
8
BLACK
10
87662.0
20
36881.0
11
87662.0
21
36804.0
0
LINE
8
BLACK
10
87662.0
20
36804.0
11
87643.0
21
36766.0
0
LINE
8
BLACK
10
87643.0
20
36766.0
11
87605.0
21
36728.0
0
LINE
8
BLACK
10
87605.0
20
36728.0
11
87529.0
21
36709.0
0
LINE
8
BLACK
10
87529.0
20
36709.0
11
87395.0
21
36709.0
0
LINE
8
BLACK
10
87395.0
20
36709.0
11
87319.0
21
36728.0
0
LINE
8
BLACK
10
87319.0
20
36728.0
11
87281.0
21
36766.0
0
LINE
8
BLACK
10
87281.0
20
36766.0
11
87262.0
21
36804.0
0
LINE
8
BLACK
10
87262.0
20
37109.0
11
87662.0
21
37204.0
0
LINE
8
BLACK
10
87662.0
20
37204.0
11
87376.0
21
37281.0
0
LINE
8
BLACK
10
87376.0
20
37281.0
11
87662.0
21
37357.0
0
LINE
8
BLACK
10
87662.0
20
37357.0
11
87262.0
21
37452.0
0
LINE
8
BLACK
10
87814.0
20
37566.0
11
87795.0
21
37585.0
0
LINE
8
BLACK
10
87795.0
20
37585.0
11
87738.0
21
37623.0
0
LINE
8
BLACK
10
87738.0
20
37623.0
11
87700.0
21
37642.0
0
LINE
8
BLACK
10
87700.0
20
37642.0
11
87643.0
21
37661.0
0
LINE
8
BLACK
10
87643.0
20
37661.0
11
87548.0
21
37680.0
0
LINE
8
BLACK
10
87548.0
20
37680.0
11
87471.0
21
37680.0
0
LINE
8
BLACK
10
87471.0
20
37680.0
11
87376.0
21
37661.0
0
LINE
8
BLACK
10
87376.0
20
37661.0
11
87319.0
21
37642.0
0
LINE
8
BLACK
10
87319.0
20
37642.0
11
87281.0
21
37623.0
0
LINE
8
BLACK
10
87281.0
20
37623.0
11
87224.0
21
37585.0
0
LINE
8
BLACK
10
87224.0
20
37585.0
11
87205.0
21
37566.0
0
LINE
8
BLACK
10
88662.0
20
31553.0
11
88262.0
21
31553.0
0
LINE
8
BLACK
10
88262.0
20
31553.0
11
88262.0
21
31648.0
0
LINE
8
BLACK
10
88262.0
20
31648.0
11
88281.0
21
31706.0
0
LINE
8
BLACK
10
88281.0
20
31706.0
11
88319.0
21
31744.0
0
LINE
8
BLACK
10
88319.0
20
31744.0
11
88357.0
21
31763.0
0
LINE
8
BLACK
10
88357.0
20
31763.0
11
88433.0
21
31782.0
0
LINE
8
BLACK
10
88433.0
20
31782.0
11
88490.0
21
31782.0
0
LINE
8
BLACK
10
88490.0
20
31782.0
11
88567.0
21
31763.0
0
LINE
8
BLACK
10
88567.0
20
31763.0
11
88605.0
21
31744.0
0
LINE
8
BLACK
10
88605.0
20
31744.0
11
88643.0
21
31706.0
0
LINE
8
BLACK
10
88643.0
20
31706.0
11
88662.0
21
31648.0
0
LINE
8
BLACK
10
88662.0
20
31648.0
11
88662.0
21
31553.0
0
LINE
8
BLACK
10
88662.0
20
31953.0
11
88395.0
21
31953.0
0
LINE
8
BLACK
10
88471.0
20
31953.0
11
88433.0
21
31972.0
0
LINE
8
BLACK
10
88433.0
20
31972.0
11
88414.0
21
31991.0
0
LINE
8
BLACK
10
88414.0
20
31991.0
11
88395.0
21
32029.0
0
LINE
8
BLACK
10
88395.0
20
32029.0
11
88395.0
21
32068.0
0
LINE
8
BLACK
10
88662.0
20
32201.0
11
88395.0
21
32201.0
0
LINE
8
BLACK
10
88262.0
20
32201.0
11
88281.0
21
32182.0
0
LINE
8
BLACK
10
88281.0
20
32182.0
11
88300.0
21
32201.0
0
LINE
8
BLACK
10
88300.0
20
32201.0
11
88281.0
21
32220.0
0
LINE
8
BLACK
10
88281.0
20
32220.0
11
88262.0
21
32201.0
0
LINE
8
BLACK
10
88262.0
20
32201.0
11
88300.0
21
32201.0
0
LINE
8
BLACK
10
88395.0
20
32353.0
11
88662.0
21
32448.0
0
LINE
8
BLACK
10
88662.0
20
32448.0
11
88395.0
21
32544.0
0
LINE
8
BLACK
10
88643.0
20
32849.0
11
88662.0
21
32811.0
0
LINE
8
BLACK
10
88662.0
20
32811.0
11
88662.0
21
32734.0
0
LINE
8
BLACK
10
88662.0
20
32734.0
11
88643.0
21
32696.0
0
LINE
8
BLACK
10
88643.0
20
32696.0
11
88605.0
21
32677.0
0
LINE
8
BLACK
10
88605.0
20
32677.0
11
88452.0
21
32677.0
0
LINE
8
BLACK
10
88452.0
20
32677.0
11
88414.0
21
32696.0
0
LINE
8
BLACK
10
88414.0
20
32696.0
11
88395.0
21
32734.0
0
LINE
8
BLACK
10
88395.0
20
32734.0
11
88395.0
21
32811.0
0
LINE
8
BLACK
10
88395.0
20
32811.0
11
88414.0
21
32849.0
0
LINE
8
BLACK
10
88414.0
20
32849.0
11
88452.0
21
32868.0
0
LINE
8
BLACK
10
88452.0
20
32868.0
11
88490.0
21
32868.0
0
LINE
8
BLACK
10
88490.0
20
32868.0
11
88529.0
21
32677.0
0
LINE
8
BLACK
10
88662.0
20
33344.0
11
88262.0
21
33344.0
0
LINE
8
BLACK
10
88262.0
20
33344.0
11
88262.0
21
33497.0
0
LINE
8
BLACK
10
88262.0
20
33497.0
11
88281.0
21
33535.0
0
LINE
8
BLACK
10
88281.0
20
33535.0
11
88300.0
21
33554.0
0
LINE
8
BLACK
10
88300.0
20
33554.0
11
88338.0
21
33573.0
0
LINE
8
BLACK
10
88338.0
20
33573.0
11
88395.0
21
33573.0
0
LINE
8
BLACK
10
88395.0
20
33573.0
11
88433.0
21
33554.0
0
LINE
8
BLACK
10
88433.0
20
33554.0
11
88452.0
21
33535.0
0
LINE
8
BLACK
10
88452.0
20
33535.0
11
88471.0
21
33497.0
0
LINE
8
BLACK
10
88471.0
20
33497.0
11
88471.0
21
33344.0
0
LINE
8
BLACK
10
88662.0
20
33954.0
11
88662.0
21
33725.0
0
LINE
8
BLACK
10
88662.0
20
33839.0
11
88262.0
21
33839.0
0
LINE
8
BLACK
10
88262.0
20
33839.0
11
88319.0
21
33801.0
0
LINE
8
BLACK
10
88319.0
20
33801.0
11
88357.0
21
33763.0
0
LINE
8
BLACK
10
88357.0
20
33763.0
11
88376.0
21
33725.0
0
LINE
8
BLACK
10
88624.0
20
34125.0
11
88643.0
21
34144.0
0
LINE
8
BLACK
10
88643.0
20
34144.0
11
88662.0
21
34125.0
0
LINE
8
BLACK
10
88662.0
20
34125.0
11
88643.0
21
34106.0
0
LINE
8
BLACK
10
88643.0
20
34106.0
11
88624.0
21
34125.0
0
LINE
8
BLACK
10
88624.0
20
34125.0
11
88662.0
21
34125.0
0
LINE
8
BLACK
10
88414.0
20
34125.0
11
88433.0
21
34144.0
0
LINE
8
BLACK
10
88433.0
20
34144.0
11
88452.0
21
34125.0
0
LINE
8
BLACK
10
88452.0
20
34125.0
11
88433.0
21
34106.0
0
LINE
8
BLACK
10
88433.0
20
34106.0
11
88414.0
21
34125.0
0
LINE
8
BLACK
10
88414.0
20
34125.0
11
88452.0
21
34125.0
0
LINE
8
BLACK
10
88300.0
20
34296.0
11
88281.0
21
34315.0
0
LINE
8
BLACK
10
88281.0
20
34315.0
11
88262.0
21
34353.0
0
LINE
8
BLACK
10
88262.0
20
34353.0
11
88262.0
21
34449.0
0
LINE
8
BLACK
10
88262.0
20
34449.0
11
88281.0
21
34487.0
0
LINE
8
BLACK
10
88281.0
20
34487.0
11
88300.0
21
34506.0
0
LINE
8
BLACK
10
88300.0
20
34506.0
11
88338.0
21
34525.0
0
LINE
8
BLACK
10
88338.0
20
34525.0
11
88376.0
21
34525.0
0
LINE
8
BLACK
10
88376.0
20
34525.0
11
88433.0
21
34506.0
0
LINE
8
BLACK
10
88433.0
20
34506.0
11
88662.0
21
34277.0
0
LINE
8
BLACK
10
88662.0
20
34277.0
11
88662.0
21
34525.0
0
LINE
8
BLACK
10
88814.0
20
35116.0
11
88795.0
21
35096.0
0
LINE
8
BLACK
10
88795.0
20
35096.0
11
88738.0
21
35058.0
0
LINE
8
BLACK
10
88738.0
20
35058.0
11
88700.0
21
35039.0
0
LINE
8
BLACK
10
88700.0
20
35039.0
11
88643.0
21
35020.0
0
LINE
8
BLACK
10
88643.0
20
35020.0
11
88548.0
21
35001.0
0
LINE
8
BLACK
10
88548.0
20
35001.0
11
88471.0
21
35001.0
0
LINE
8
BLACK
10
88471.0
20
35001.0
11
88376.0
21
35020.0
0
LINE
8
BLACK
10
88376.0
20
35020.0
11
88319.0
21
35039.0
0
LINE
8
BLACK
10
88319.0
20
35039.0
11
88281.0
21
35058.0
0
LINE
8
BLACK
10
88281.0
20
35058.0
11
88224.0
21
35096.0
0
LINE
8
BLACK
10
88224.0
20
35096.0
11
88205.0
21
35116.0
0
LINE
8
BLACK
10
88281.0
20
35478.0
11
88262.0
21
35440.0
0
LINE
8
BLACK
10
88262.0
20
35440.0
11
88262.0
21
35383.0
0
LINE
8
BLACK
10
88262.0
20
35383.0
11
88281.0
21
35325.0
0
LINE
8
BLACK
10
88281.0
20
35325.0
11
88319.0
21
35287.0
0
LINE
8
BLACK
10
88319.0
20
35287.0
11
88357.0
21
35268.0
0
LINE
8
BLACK
10
88357.0
20
35268.0
11
88433.0
21
35249.0
0
LINE
8
BLACK
10
88433.0
20
35249.0
11
88490.0
21
35249.0
0
LINE
8
BLACK
10
88490.0
20
35249.0
11
88567.0
21
35268.0
0
LINE
8
BLACK
10
88567.0
20
35268.0
11
88605.0
21
35287.0
0
LINE
8
BLACK
10
88605.0
20
35287.0
11
88643.0
21
35325.0
0
LINE
8
BLACK
10
88643.0
20
35325.0
11
88662.0
21
35383.0
0
LINE
8
BLACK
10
88662.0
20
35383.0
11
88662.0
21
35421.0
0
LINE
8
BLACK
10
88662.0
20
35421.0
11
88643.0
21
35478.0
0
LINE
8
BLACK
10
88643.0
20
35478.0
11
88624.0
21
35497.0
0
LINE
8
BLACK
10
88624.0
20
35497.0
11
88490.0
21
35497.0
0
LINE
8
BLACK
10
88490.0
20
35497.0
11
88490.0
21
35421.0
0
LINE
8
BLACK
10
88662.0
20
35897.0
11
88471.0
21
35763.0
0
LINE
8
BLACK
10
88662.0
20
35668.0
11
88262.0
21
35668.0
0
LINE
8
BLACK
10
88262.0
20
35668.0
11
88262.0
21
35821.0
0
LINE
8
BLACK
10
88262.0
20
35821.0
11
88281.0
21
35859.0
0
LINE
8
BLACK
10
88281.0
20
35859.0
11
88300.0
21
35878.0
0
LINE
8
BLACK
10
88300.0
20
35878.0
11
88338.0
21
35897.0
0
LINE
8
BLACK
10
88338.0
20
35897.0
11
88395.0
21
35897.0
0
LINE
8
BLACK
10
88395.0
20
35897.0
11
88433.0
21
35878.0
0
LINE
8
BLACK
10
88433.0
20
35878.0
11
88452.0
21
35859.0
0
LINE
8
BLACK
10
88452.0
20
35859.0
11
88471.0
21
35821.0
0
LINE
8
BLACK
10
88471.0
20
35821.0
11
88471.0
21
35668.0
0
LINE
8
BLACK
10
88452.0
20
36068.0
11
88452.0
21
36202.0
0
LINE
8
BLACK
10
88662.0
20
36259.0
11
88662.0
21
36068.0
0
LINE
8
BLACK
10
88662.0
20
36068.0
11
88262.0
21
36068.0
0
LINE
8
BLACK
10
88262.0
20
36068.0
11
88262.0
21
36259.0
0
LINE
8
BLACK
10
88452.0
20
36430.0
11
88452.0
21
36564.0
0
LINE
8
BLACK
10
88662.0
20
36621.0
11
88662.0
21
36430.0
0
LINE
8
BLACK
10
88662.0
20
36430.0
11
88262.0
21
36430.0
0
LINE
8
BLACK
10
88262.0
20
36430.0
11
88262.0
21
36621.0
0
LINE
8
BLACK
10
88662.0
20
36792.0
11
88262.0
21
36792.0
0
LINE
8
BLACK
10
88262.0
20
36792.0
11
88662.0
21
37021.0
0
LINE
8
BLACK
10
88662.0
20
37021.0
11
88262.0
21
37021.0
0
LINE
8
BLACK
10
88814.0
20
37173.0
11
88795.0
21
37192.0
0
LINE
8
BLACK
10
88795.0
20
37192.0
11
88738.0
21
37230.0
0
LINE
8
BLACK
10
88738.0
20
37230.0
11
88700.0
21
37249.0
0
LINE
8
BLACK
10
88700.0
20
37249.0
11
88643.0
21
37268.0
0
LINE
8
BLACK
10
88643.0
20
37268.0
11
88548.0
21
37287.0
0
LINE
8
BLACK
10
88548.0
20
37287.0
11
88471.0
21
37287.0
0
LINE
8
BLACK
10
88471.0
20
37287.0
11
88376.0
21
37268.0
0
LINE
8
BLACK
10
88376.0
20
37268.0
11
88319.0
21
37249.0
0
LINE
8
BLACK
10
88319.0
20
37249.0
11
88281.0
21
37230.0
0
LINE
8
BLACK
10
88281.0
20
37230.0
11
88224.0
21
37192.0
0
LINE
8
BLACK
10
88224.0
20
37192.0
11
88205.0
21
37173.0
0
LINE
8
BLACK
10
53262.0
20
37234.0
11
53262.0
21
37463.0
0
LINE
8
BLACK
10
53662.0
20
37348.0
11
53262.0
21
37348.0
0
LINE
8
BLACK
10
53662.0
20
37653.0
11
53643.0
21
37615.0
0
LINE
8
BLACK
10
53643.0
20
37615.0
11
53624.0
21
37596.0
0
LINE
8
BLACK
10
53624.0
20
37596.0
11
53586.0
21
37577.0
0
LINE
8
BLACK
10
53586.0
20
37577.0
11
53471.0
21
37577.0
0
LINE
8
BLACK
10
53471.0
20
37577.0
11
53433.0
21
37596.0
0
LINE
8
BLACK
10
53433.0
20
37596.0
11
53414.0
21
37615.0
0
LINE
8
BLACK
10
53414.0
20
37615.0
11
53395.0
21
37653.0
0
LINE
8
BLACK
10
53395.0
20
37653.0
11
53395.0
21
37711.0
0
LINE
8
BLACK
10
53395.0
20
37711.0
11
53414.0
21
37749.0
0
LINE
8
BLACK
10
53414.0
20
37749.0
11
53433.0
21
37768.0
0
LINE
8
BLACK
10
53433.0
20
37768.0
11
53471.0
21
37787.0
0
LINE
8
BLACK
10
53471.0
20
37787.0
11
53586.0
21
37787.0
0
LINE
8
BLACK
10
53586.0
20
37787.0
11
53624.0
21
37768.0
0
LINE
8
BLACK
10
53624.0
20
37768.0
11
53643.0
21
37749.0
0
LINE
8
BLACK
10
53643.0
20
37749.0
11
53662.0
21
37711.0
0
LINE
8
BLACK
10
53662.0
20
37711.0
11
53662.0
21
37653.0
0
LINE
8
BLACK
10
53395.0
20
37958.0
11
53795.0
21
37958.0
0
LINE
8
BLACK
10
53414.0
20
37958.0
11
53395.0
21
37996.0
0
LINE
8
BLACK
10
53395.0
20
37996.0
11
53395.0
21
38073.0
0
LINE
8
BLACK
10
53395.0
20
38073.0
11
53414.0
21
38111.0
0
LINE
8
BLACK
10
53414.0
20
38111.0
11
53433.0
21
38130.0
0
LINE
8
BLACK
10
53433.0
20
38130.0
11
53471.0
21
38149.0
0
LINE
8
BLACK
10
53471.0
20
38149.0
11
53586.0
21
38149.0
0
LINE
8
BLACK
10
53586.0
20
38149.0
11
53624.0
21
38130.0
0
LINE
8
BLACK
10
53624.0
20
38130.0
11
53643.0
21
38111.0
0
LINE
8
BLACK
10
53643.0
20
38111.0
11
53662.0
21
38073.0
0
LINE
8
BLACK
10
53662.0
20
38073.0
11
53662.0
21
37996.0
0
LINE
8
BLACK
10
53662.0
20
37996.0
11
53643.0
21
37958.0
0
LINE
8
BLACK
10
53624.0
20
38320.0
11
53643.0
21
38339.0
0
LINE
8
BLACK
10
53643.0
20
38339.0
11
53662.0
21
38320.0
0
LINE
8
BLACK
10
53662.0
20
38320.0
11
53643.0
21
38301.0
0
LINE
8
BLACK
10
53643.0
20
38301.0
11
53624.0
21
38320.0
0
LINE
8
BLACK
10
53624.0
20
38320.0
11
53662.0
21
38320.0
0
LINE
8
BLACK
10
53414.0
20
38320.0
11
53433.0
21
38339.0
0
LINE
8
BLACK
10
53433.0
20
38339.0
11
53452.0
21
38320.0
0
LINE
8
BLACK
10
53452.0
20
38320.0
11
53433.0
21
38301.0
0
LINE
8
BLACK
10
53433.0
20
38301.0
11
53414.0
21
38320.0
0
LINE
8
BLACK
10
53414.0
20
38320.0
11
53452.0
21
38320.0
0
LINE
8
BLACK
10
53662.0
20
38815.0
11
53262.0
21
38815.0
0
LINE
8
BLACK
10
53262.0
20
38815.0
11
53262.0
21
38910.0
0
LINE
8
BLACK
10
53262.0
20
38910.0
11
53281.0
21
38968.0
0
LINE
8
BLACK
10
53281.0
20
38968.0
11
53319.0
21
39006.0
0
LINE
8
BLACK
10
53319.0
20
39006.0
11
53357.0
21
39025.0
0
LINE
8
BLACK
10
53357.0
20
39025.0
11
53433.0
21
39044.0
0
LINE
8
BLACK
10
53433.0
20
39044.0
11
53490.0
21
39044.0
0
LINE
8
BLACK
10
53490.0
20
39044.0
11
53567.0
21
39025.0
0
LINE
8
BLACK
10
53567.0
20
39025.0
11
53605.0
21
39006.0
0
LINE
8
BLACK
10
53605.0
20
39006.0
11
53643.0
21
38968.0
0
LINE
8
BLACK
10
53643.0
20
38968.0
11
53662.0
21
38910.0
0
LINE
8
BLACK
10
53662.0
20
38910.0
11
53662.0
21
38815.0
0
LINE
8
BLACK
10
53262.0
20
39177.0
11
53262.0
21
39425.0
0
LINE
8
BLACK
10
53262.0
20
39425.0
11
53414.0
21
39291.0
0
LINE
8
BLACK
10
53414.0
20
39291.0
11
53414.0
21
39349.0
0
LINE
8
BLACK
10
53414.0
20
39349.0
11
53433.0
21
39387.0
0
LINE
8
BLACK
10
53433.0
20
39387.0
11
53452.0
21
39406.0
0
LINE
8
BLACK
10
53452.0
20
39406.0
11
53490.0
21
39425.0
0
LINE
8
BLACK
10
53490.0
20
39425.0
11
53586.0
21
39425.0
0
LINE
8
BLACK
10
53586.0
20
39425.0
11
53624.0
21
39406.0
0
LINE
8
BLACK
10
53624.0
20
39406.0
11
53643.0
21
39387.0
0
LINE
8
BLACK
10
53643.0
20
39387.0
11
53662.0
21
39349.0
0
LINE
8
BLACK
10
53662.0
20
39349.0
11
53662.0
21
39234.0
0
LINE
8
BLACK
10
53662.0
20
39234.0
11
53643.0
21
39196.0
0
LINE
8
BLACK
10
53643.0
20
39196.0
11
53624.0
21
39177.0
0
LINE
8
BLACK
10
53243.0
20
39882.0
11
53757.0
21
39539.0
0
LINE
8
BLACK
10
53662.0
20
40015.0
11
53262.0
21
40015.0
0
LINE
8
BLACK
10
53662.0
20
40205.0
11
53262.0
21
40205.0
0
LINE
8
BLACK
10
53262.0
20
40205.0
11
53662.0
21
40434.0
0
LINE
8
BLACK
10
53662.0
20
40434.0
11
53262.0
21
40434.0
0
LINE
8
BLACK
10
53262.0
20
40567.0
11
53262.0
21
40796.0
0
LINE
8
BLACK
10
53662.0
20
40681.0
11
53262.0
21
40681.0
0
LINE
8
BLACK
10
53700.0
20
40834.0
11
53700.0
21
41139.0
0
LINE
8
BLACK
10
53262.0
20
41177.0
11
53262.0
21
41406.0
0
LINE
8
BLACK
10
53662.0
20
41291.0
11
53262.0
21
41291.0
0
LINE
8
BLACK
10
53262.0
20
41615.0
11
53262.0
21
41692.0
0
LINE
8
BLACK
10
53262.0
20
41692.0
11
53281.0
21
41730.0
0
LINE
8
BLACK
10
53281.0
20
41730.0
11
53319.0
21
41768.0
0
LINE
8
BLACK
10
53319.0
20
41768.0
11
53395.0
21
41787.0
0
LINE
8
BLACK
10
53395.0
20
41787.0
11
53529.0
21
41787.0
0
LINE
8
BLACK
10
53529.0
20
41787.0
11
53605.0
21
41768.0
0
LINE
8
BLACK
10
53605.0
20
41768.0
11
53643.0
21
41730.0
0
LINE
8
BLACK
10
53643.0
20
41730.0
11
53662.0
21
41692.0
0
LINE
8
BLACK
10
53662.0
20
41692.0
11
53662.0
21
41615.0
0
LINE
8
BLACK
10
53662.0
20
41615.0
11
53643.0
21
41577.0
0
LINE
8
BLACK
10
53643.0
20
41577.0
11
53605.0
21
41539.0
0
LINE
8
BLACK
10
53605.0
20
41539.0
11
53529.0
21
41520.0
0
LINE
8
BLACK
10
53529.0
20
41520.0
11
53395.0
21
41520.0
0
LINE
8
BLACK
10
53395.0
20
41520.0
11
53319.0
21
41539.0
0
LINE
8
BLACK
10
53319.0
20
41539.0
11
53281.0
21
41577.0
0
LINE
8
BLACK
10
53281.0
20
41577.0
11
53262.0
21
41615.0
0
LINE
8
BLACK
10
53662.0
20
41958.0
11
53262.0
21
41958.0
0
LINE
8
BLACK
10
53262.0
20
41958.0
11
53662.0
21
42187.0
0
LINE
8
BLACK
10
53662.0
20
42187.0
11
53262.0
21
42187.0
0
LINE
8
BLACK
10
53452.0
20
42377.0
11
53452.0
21
42511.0
0
LINE
8
BLACK
10
53662.0
20
42568.0
11
53662.0
21
42377.0
0
LINE
8
BLACK
10
53662.0
20
42377.0
11
53262.0
21
42377.0
0
LINE
8
BLACK
10
53262.0
20
42377.0
11
53262.0
21
42568.0
0
LINE
8
BLACK
10
52452.0
20
36330.0
11
52471.0
21
36387.0
0
LINE
8
BLACK
10
52471.0
20
36387.0
11
52490.0
21
36406.0
0
LINE
8
BLACK
10
52490.0
20
36406.0
11
52529.0
21
36425.0
0
LINE
8
BLACK
10
52529.0
20
36425.0
11
52586.0
21
36425.0
0
LINE
8
BLACK
10
52586.0
20
36425.0
11
52624.0
21
36406.0
0
LINE
8
BLACK
10
52624.0
20
36406.0
11
52643.0
21
36387.0
0
LINE
8
BLACK
10
52643.0
20
36387.0
11
52662.0
21
36349.0
0
LINE
8
BLACK
10
52662.0
20
36349.0
11
52662.0
21
36196.0
0
LINE
8
BLACK
10
52662.0
20
36196.0
11
52262.0
21
36196.0
0
LINE
8
BLACK
10
52262.0
20
36196.0
11
52262.0
21
36330.0
0
LINE
8
BLACK
10
52262.0
20
36330.0
11
52281.0
21
36368.0
0
LINE
8
BLACK
10
52281.0
20
36368.0
11
52300.0
21
36387.0
0
LINE
8
BLACK
10
52300.0
20
36387.0
11
52338.0
21
36406.0
0
LINE
8
BLACK
10
52338.0
20
36406.0
11
52376.0
21
36406.0
0
LINE
8
BLACK
10
52376.0
20
36406.0
11
52414.0
21
36387.0
0
LINE
8
BLACK
10
52414.0
20
36387.0
11
52433.0
21
36368.0
0
LINE
8
BLACK
10
52433.0
20
36368.0
11
52452.0
21
36330.0
0
LINE
8
BLACK
10
52452.0
20
36330.0
11
52452.0
21
36196.0
0
LINE
8
BLACK
10
52662.0
20
36653.0
11
52643.0
21
36615.0
0
LINE
8
BLACK
10
52643.0
20
36615.0
11
52624.0
21
36596.0
0
LINE
8
BLACK
10
52624.0
20
36596.0
11
52586.0
21
36577.0
0
LINE
8
BLACK
10
52586.0
20
36577.0
11
52471.0
21
36577.0
0
LINE
8
BLACK
10
52471.0
20
36577.0
11
52433.0
21
36596.0
0
LINE
8
BLACK
10
52433.0
20
36596.0
11
52414.0
21
36615.0
0
LINE
8
BLACK
10
52414.0
20
36615.0
11
52395.0
21
36653.0
0
LINE
8
BLACK
10
52395.0
20
36653.0
11
52395.0
21
36711.0
0
LINE
8
BLACK
10
52395.0
20
36711.0
11
52414.0
21
36749.0
0
LINE
8
BLACK
10
52414.0
20
36749.0
11
52433.0
21
36768.0
0
LINE
8
BLACK
10
52433.0
20
36768.0
11
52471.0
21
36787.0
0
LINE
8
BLACK
10
52471.0
20
36787.0
11
52586.0
21
36787.0
0
LINE
8
BLACK
10
52586.0
20
36787.0
11
52624.0
21
36768.0
0
LINE
8
BLACK
10
52624.0
20
36768.0
11
52643.0
21
36749.0
0
LINE
8
BLACK
10
52643.0
20
36749.0
11
52662.0
21
36711.0
0
LINE
8
BLACK
10
52662.0
20
36711.0
11
52662.0
21
36653.0
0
LINE
8
BLACK
10
52395.0
20
36901.0
11
52395.0
21
37053.0
0
LINE
8
BLACK
10
52262.0
20
36958.0
11
52605.0
21
36958.0
0
LINE
8
BLACK
10
52605.0
20
36958.0
11
52643.0
21
36977.0
0
LINE
8
BLACK
10
52643.0
20
36977.0
11
52662.0
21
37015.0
0
LINE
8
BLACK
10
52662.0
20
37015.0
11
52662.0
21
37053.0
0
LINE
8
BLACK
10
52395.0
20
37130.0
11
52395.0
21
37282.0
0
LINE
8
BLACK
10
52262.0
20
37187.0
11
52605.0
21
37187.0
0
LINE
8
BLACK
10
52605.0
20
37187.0
11
52643.0
21
37206.0
0
LINE
8
BLACK
10
52643.0
20
37206.0
11
52662.0
21
37244.0
0
LINE
8
BLACK
10
52662.0
20
37244.0
11
52662.0
21
37282.0
0
LINE
8
BLACK
10
52662.0
20
37473.0
11
52643.0
21
37435.0
0
LINE
8
BLACK
10
52643.0
20
37435.0
11
52624.0
21
37416.0
0
LINE
8
BLACK
10
52624.0
20
37416.0
11
52586.0
21
37397.0
0
LINE
8
BLACK
10
52586.0
20
37397.0
11
52471.0
21
37397.0
0
LINE
8
BLACK
10
52471.0
20
37397.0
11
52433.0
21
37416.0
0
LINE
8
BLACK
10
52433.0
20
37416.0
11
52414.0
21
37435.0
0
LINE
8
BLACK
10
52414.0
20
37435.0
11
52395.0
21
37473.0
0
LINE
8
BLACK
10
52395.0
20
37473.0
11
52395.0
21
37531.0
0
LINE
8
BLACK
10
52395.0
20
37531.0
11
52414.0
21
37569.0
0
LINE
8
BLACK
10
52414.0
20
37569.0
11
52433.0
21
37588.0
0
LINE
8
BLACK
10
52433.0
20
37588.0
11
52471.0
21
37607.0
0
LINE
8
BLACK
10
52471.0
20
37607.0
11
52586.0
21
37607.0
0
LINE
8
BLACK
10
52586.0
20
37607.0
11
52624.0
21
37588.0
0
LINE
8
BLACK
10
52624.0
20
37588.0
11
52643.0
21
37569.0
0
LINE
8
BLACK
10
52643.0
20
37569.0
11
52662.0
21
37531.0
0
LINE
8
BLACK
10
52662.0
20
37531.0
11
52662.0
21
37473.0
0
LINE
8
BLACK
10
52662.0
20
37778.0
11
52395.0
21
37778.0
0
LINE
8
BLACK
10
52433.0
20
37778.0
11
52414.0
21
37797.0
0
LINE
8
BLACK
10
52414.0
20
37797.0
11
52395.0
21
37835.0
0
LINE
8
BLACK
10
52395.0
20
37835.0
11
52395.0
21
37893.0
0
LINE
8
BLACK
10
52395.0
20
37893.0
11
52414.0
21
37931.0
0
LINE
8
BLACK
10
52414.0
20
37931.0
11
52452.0
21
37950.0
0
LINE
8
BLACK
10
52452.0
20
37950.0
11
52662.0
21
37950.0
0
LINE
8
BLACK
10
52452.0
20
37950.0
11
52414.0
21
37969.0
0
LINE
8
BLACK
10
52414.0
20
37969.0
11
52395.0
21
38007.0
0
LINE
8
BLACK
10
52395.0
20
38007.0
11
52395.0
21
38064.0
0
LINE
8
BLACK
10
52395.0
20
38064.0
11
52414.0
21
38102.0
0
LINE
8
BLACK
10
52414.0
20
38102.0
11
52452.0
21
38121.0
0
LINE
8
BLACK
10
52452.0
20
38121.0
11
52662.0
21
38121.0
0
LINE
8
BLACK
10
52624.0
20
38311.0
11
52643.0
21
38330.0
0
LINE
8
BLACK
10
52643.0
20
38330.0
11
52662.0
21
38311.0
0
LINE
8
BLACK
10
52662.0
20
38311.0
11
52643.0
21
38292.0
0
LINE
8
BLACK
10
52643.0
20
38292.0
11
52624.0
21
38311.0
0
LINE
8
BLACK
10
52624.0
20
38311.0
11
52662.0
21
38311.0
0
LINE
8
BLACK
10
52414.0
20
38311.0
11
52433.0
21
38330.0
0
LINE
8
BLACK
10
52433.0
20
38330.0
11
52452.0
21
38311.0
0
LINE
8
BLACK
10
52452.0
20
38311.0
11
52433.0
21
38292.0
0
LINE
8
BLACK
10
52433.0
20
38292.0
11
52414.0
21
38311.0
0
LINE
8
BLACK
10
52414.0
20
38311.0
11
52452.0
21
38311.0
0
LINE
8
BLACK
10
52662.0
20
38806.0
11
52262.0
21
38806.0
0
LINE
8
BLACK
10
52262.0
20
38806.0
11
52262.0
21
38901.0
0
LINE
8
BLACK
10
52262.0
20
38901.0
11
52281.0
21
38959.0
0
LINE
8
BLACK
10
52281.0
20
38959.0
11
52319.0
21
38997.0
0
LINE
8
BLACK
10
52319.0
20
38997.0
11
52357.0
21
39016.0
0
LINE
8
BLACK
10
52357.0
20
39016.0
11
52433.0
21
39035.0
0
LINE
8
BLACK
10
52433.0
20
39035.0
11
52490.0
21
39035.0
0
LINE
8
BLACK
10
52490.0
20
39035.0
11
52567.0
21
39016.0
0
LINE
8
BLACK
10
52567.0
20
39016.0
11
52605.0
21
38997.0
0
LINE
8
BLACK
10
52605.0
20
38997.0
11
52643.0
21
38959.0
0
LINE
8
BLACK
10
52643.0
20
38959.0
11
52662.0
21
38901.0
0
LINE
8
BLACK
10
52662.0
20
38901.0
11
52662.0
21
38806.0
0
LINE
8
BLACK
10
52300.0
20
39187.0
11
52281.0
21
39206.0
0
LINE
8
BLACK
10
52281.0
20
39206.0
11
52262.0
21
39244.0
0
LINE
8
BLACK
10
52262.0
20
39244.0
11
52262.0
21
39340.0
0
LINE
8
BLACK
10
52262.0
20
39340.0
11
52281.0
21
39378.0
0
LINE
8
BLACK
10
52281.0
20
39378.0
11
52300.0
21
39397.0
0
LINE
8
BLACK
10
52300.0
20
39397.0
11
52338.0
21
39416.0
0
LINE
8
BLACK
10
52338.0
20
39416.0
11
52376.0
21
39416.0
0
LINE
8
BLACK
10
52376.0
20
39416.0
11
52433.0
21
39397.0
0
LINE
8
BLACK
10
52433.0
20
39397.0
11
52662.0
21
39168.0
0
LINE
8
BLACK
10
52662.0
20
39168.0
11
52662.0
21
39416.0
0
LINE
8
BLACK
10
52243.0
20
39873.0
11
52757.0
21
39530.0
0
LINE
8
BLACK
10
52662.0
20
40006.0
11
52262.0
21
40006.0
0
LINE
8
BLACK
10
52662.0
20
40196.0
11
52262.0
21
40196.0
0
LINE
8
BLACK
10
52262.0
20
40196.0
11
52662.0
21
40425.0
0
LINE
8
BLACK
10
52662.0
20
40425.0
11
52262.0
21
40425.0
0
LINE
8
BLACK
10
52262.0
20
40558.0
11
52262.0
21
40787.0
0
LINE
8
BLACK
10
52662.0
20
40672.0
11
52262.0
21
40672.0
0
LINE
8
BLACK
10
52700.0
20
40825.0
11
52700.0
21
41130.0
0
LINE
8
BLACK
10
52643.0
20
41206.0
11
52662.0
21
41263.0
0
LINE
8
BLACK
10
52662.0
20
41263.0
11
52662.0
21
41359.0
0
LINE
8
BLACK
10
52662.0
20
41359.0
11
52643.0
21
41397.0
0
LINE
8
BLACK
10
52643.0
20
41397.0
11
52624.0
21
41416.0
0
LINE
8
BLACK
10
52624.0
20
41416.0
11
52586.0
21
41435.0
0
LINE
8
BLACK
10
52586.0
20
41435.0
11
52548.0
21
41435.0
0
LINE
8
BLACK
10
52548.0
20
41435.0
11
52510.0
21
41416.0
0
LINE
8
BLACK
10
52510.0
20
41416.0
11
52490.0
21
41397.0
0
LINE
8
BLACK
10
52490.0
20
41397.0
11
52471.0
21
41359.0
0
LINE
8
BLACK
10
52471.0
20
41359.0
11
52452.0
21
41282.0
0
LINE
8
BLACK
10
52452.0
20
41282.0
11
52433.0
21
41244.0
0
LINE
8
BLACK
10
52433.0
20
41244.0
11
52414.0
21
41225.0
0
LINE
8
BLACK
10
52414.0
20
41225.0
11
52376.0
21
41206.0
0
LINE
8
BLACK
10
52376.0
20
41206.0
11
52338.0
21
41206.0
0
LINE
8
BLACK
10
52338.0
20
41206.0
11
52300.0
21
41225.0
0
LINE
8
BLACK
10
52300.0
20
41225.0
11
52281.0
21
41244.0
0
LINE
8
BLACK
10
52281.0
20
41244.0
11
52262.0
21
41282.0
0
LINE
8
BLACK
10
52262.0
20
41282.0
11
52262.0
21
41378.0
0
LINE
8
BLACK
10
52262.0
20
41378.0
11
52281.0
21
41435.0
0
LINE
8
BLACK
10
52262.0
20
41549.0
11
52262.0
21
41778.0
0
LINE
8
BLACK
10
52662.0
20
41663.0
11
52262.0
21
41663.0
0
LINE
8
BLACK
10
52452.0
20
41911.0
11
52452.0
21
42045.0
0
LINE
8
BLACK
10
52662.0
20
42102.0
11
52662.0
21
41911.0
0
LINE
8
BLACK
10
52662.0
20
41911.0
11
52262.0
21
41911.0
0
LINE
8
BLACK
10
52262.0
20
41911.0
11
52262.0
21
42102.0
0
LINE
8
BLACK
10
52662.0
20
42273.0
11
52262.0
21
42273.0
0
LINE
8
BLACK
10
52262.0
20
42273.0
11
52262.0
21
42426.0
0
LINE
8
BLACK
10
52262.0
20
42426.0
11
52281.0
21
42464.0
0
LINE
8
BLACK
10
52281.0
20
42464.0
11
52300.0
21
42483.0
0
LINE
8
BLACK
10
52300.0
20
42483.0
11
52338.0
21
42502.0
0
LINE
8
BLACK
10
52338.0
20
42502.0
11
52395.0
21
42502.0
0
LINE
8
BLACK
10
52395.0
20
42502.0
11
52433.0
21
42483.0
0
LINE
8
BLACK
10
52433.0
20
42483.0
11
52452.0
21
42464.0
0
LINE
8
BLACK
10
52452.0
20
42464.0
11
52471.0
21
42426.0
0
LINE
8
BLACK
10
52471.0
20
42426.0
11
52471.0
21
42273.0
0
LINE
8
BLACK
10
52662.0
20
42673.0
11
52262.0
21
42673.0
0
LINE
8
BLACK
10
52262.0
20
42673.0
11
52262.0
21
42826.0
0
LINE
8
BLACK
10
52262.0
20
42826.0
11
52281.0
21
42864.0
0
LINE
8
BLACK
10
52281.0
20
42864.0
11
52300.0
21
42883.0
0
LINE
8
BLACK
10
52300.0
20
42883.0
11
52338.0
21
42902.0
0
LINE
8
BLACK
10
52338.0
20
42902.0
11
52395.0
21
42902.0
0
LINE
8
BLACK
10
52395.0
20
42902.0
11
52433.0
21
42883.0
0
LINE
8
BLACK
10
52433.0
20
42883.0
11
52452.0
21
42864.0
0
LINE
8
BLACK
10
52452.0
20
42864.0
11
52471.0
21
42826.0
0
LINE
8
BLACK
10
52471.0
20
42826.0
11
52471.0
21
42673.0
0
LINE
8
BLACK
10
52452.0
20
43073.0
11
52452.0
21
43207.0
0
LINE
8
BLACK
10
52662.0
20
43264.0
11
52662.0
21
43073.0
0
LINE
8
BLACK
10
52662.0
20
43073.0
11
52262.0
21
43073.0
0
LINE
8
BLACK
10
52262.0
20
43073.0
11
52262.0
21
43264.0
0
LINE
8
BLACK
10
52662.0
20
43664.0
11
52471.0
21
43530.0
0
LINE
8
BLACK
10
52662.0
20
43435.0
11
52262.0
21
43435.0
0
LINE
8
BLACK
10
52262.0
20
43435.0
11
52262.0
21
43588.0
0
LINE
8
BLACK
10
52262.0
20
43588.0
11
52281.0
21
43626.0
0
LINE
8
BLACK
10
52281.0
20
43626.0
11
52300.0
21
43645.0
0
LINE
8
BLACK
10
52300.0
20
43645.0
11
52338.0
21
43664.0
0
LINE
8
BLACK
10
52338.0
20
43664.0
11
52395.0
21
43664.0
0
LINE
8
BLACK
10
52395.0
20
43664.0
11
52433.0
21
43645.0
0
LINE
8
BLACK
10
52433.0
20
43645.0
11
52452.0
21
43626.0
0
LINE
8
BLACK
10
52452.0
20
43626.0
11
52471.0
21
43588.0
0
LINE
8
BLACK
10
52471.0
20
43588.0
11
52471.0
21
43435.0
0
LINE
8
BLACK
10
61633.0
20
41508.0
11
61633.0
21
41908.0
0
LINE
8
BLACK
10
61633.0
20
41908.0
11
61728.0
21
41908.0
0
LINE
8
BLACK
10
61728.0
20
41908.0
11
61786.0
21
41889.0
0
LINE
8
BLACK
10
61786.0
20
41889.0
11
61824.0
21
41851.0
0
LINE
8
BLACK
10
61824.0
20
41851.0
11
61843.0
21
41813.0
0
LINE
8
BLACK
10
61843.0
20
41813.0
11
61862.0
21
41737.0
0
LINE
8
BLACK
10
61862.0
20
41737.0
11
61862.0
21
41680.0
0
LINE
8
BLACK
10
61862.0
20
41680.0
11
61843.0
21
41603.0
0
LINE
8
BLACK
10
61843.0
20
41603.0
11
61824.0
21
41565.0
0
LINE
8
BLACK
10
61824.0
20
41565.0
11
61786.0
21
41527.0
0
LINE
8
BLACK
10
61786.0
20
41527.0
11
61728.0
21
41508.0
0
LINE
8
BLACK
10
61728.0
20
41508.0
11
61633.0
21
41508.0
0
LINE
8
BLACK
10
61995.0
20
41908.0
11
62243.0
21
41908.0
0
LINE
8
BLACK
10
62243.0
20
41908.0
11
62109.0
21
41756.0
0
LINE
8
BLACK
10
62109.0
20
41756.0
11
62167.0
21
41756.0
0
LINE
8
BLACK
10
62167.0
20
41756.0
11
62205.0
21
41737.0
0
LINE
8
BLACK
10
62205.0
20
41737.0
11
62224.0
21
41718.0
0
LINE
8
BLACK
10
62224.0
20
41718.0
11
62243.0
21
41680.0
0
LINE
8
BLACK
10
62243.0
20
41680.0
11
62243.0
21
41584.0
0
LINE
8
BLACK
10
62243.0
20
41584.0
11
62224.0
21
41546.0
0
LINE
8
BLACK
10
62224.0
20
41546.0
11
62205.0
21
41527.0
0
LINE
8
BLACK
10
62205.0
20
41527.0
11
62167.0
21
41508.0
0
LINE
8
BLACK
10
62167.0
20
41508.0
11
62052.0
21
41508.0
0
LINE
8
BLACK
10
62052.0
20
41508.0
11
62014.0
21
41527.0
0
LINE
8
BLACK
10
62014.0
20
41527.0
11
61995.0
21
41546.0
0
LINE
8
BLACK
10
62700.0
20
41927.0
11
62357.0
21
41413.0
0
LINE
8
BLACK
10
62833.0
20
41508.0
11
62833.0
21
41908.0
0
LINE
8
BLACK
10
63023.0
20
41508.0
11
63023.0
21
41908.0
0
LINE
8
BLACK
10
63023.0
20
41908.0
11
63252.0
21
41508.0
0
LINE
8
BLACK
10
63252.0
20
41508.0
11
63252.0
21
41908.0
0
LINE
8
BLACK
10
63385.0
20
41908.0
11
63614.0
21
41908.0
0
LINE
8
BLACK
10
63499.0
20
41508.0
11
63499.0
21
41908.0
0
LINE
8
BLACK
10
63652.0
20
41470.0
11
63957.0
21
41470.0
0
LINE
8
BLACK
10
63995.0
20
41908.0
11
64224.0
21
41908.0
0
LINE
8
BLACK
10
64109.0
20
41508.0
11
64109.0
21
41908.0
0
LINE
8
BLACK
10
64433.0
20
41908.0
11
64510.0
21
41908.0
0
LINE
8
BLACK
10
64510.0
20
41908.0
11
64548.0
21
41889.0
0
LINE
8
BLACK
10
64548.0
20
41889.0
11
64586.0
21
41851.0
0
LINE
8
BLACK
10
64586.0
20
41851.0
11
64605.0
21
41775.0
0
LINE
8
BLACK
10
64605.0
20
41775.0
11
64605.0
21
41641.0
0
LINE
8
BLACK
10
64605.0
20
41641.0
11
64586.0
21
41565.0
0
LINE
8
BLACK
10
64586.0
20
41565.0
11
64548.0
21
41527.0
0
LINE
8
BLACK
10
64548.0
20
41527.0
11
64510.0
21
41508.0
0
LINE
8
BLACK
10
64510.0
20
41508.0
11
64433.0
21
41508.0
0
LINE
8
BLACK
10
64433.0
20
41508.0
11
64395.0
21
41527.0
0
LINE
8
BLACK
10
64395.0
20
41527.0
11
64357.0
21
41565.0
0
LINE
8
BLACK
10
64357.0
20
41565.0
11
64338.0
21
41641.0
0
LINE
8
BLACK
10
64338.0
20
41641.0
11
64338.0
21
41775.0
0
LINE
8
BLACK
10
64338.0
20
41775.0
11
64357.0
21
41851.0
0
LINE
8
BLACK
10
64357.0
20
41851.0
11
64395.0
21
41889.0
0
LINE
8
BLACK
10
64395.0
20
41889.0
11
64433.0
21
41908.0
0
LINE
8
BLACK
10
64776.0
20
41508.0
11
64776.0
21
41908.0
0
LINE
8
BLACK
10
64776.0
20
41908.0
11
65005.0
21
41508.0
0
LINE
8
BLACK
10
65005.0
20
41508.0
11
65005.0
21
41908.0
0
LINE
8
BLACK
10
65195.0
20
41718.0
11
65329.0
21
41718.0
0
LINE
8
BLACK
10
65386.0
20
41508.0
11
65195.0
21
41508.0
0
LINE
8
BLACK
10
65195.0
20
41508.0
11
65195.0
21
41908.0
0
LINE
8
BLACK
10
65195.0
20
41908.0
11
65386.0
21
41908.0
0
LINE
8
BLACK
10
70196.0
20
38389.0
11
70158.0
21
38408.0
0
LINE
8
BLACK
10
70158.0
20
38408.0
11
70101.0
21
38408.0
0
LINE
8
BLACK
10
70101.0
20
38408.0
11
70043.0
21
38389.0
0
LINE
8
BLACK
10
70043.0
20
38389.0
11
70005.0
21
38351.0
0
LINE
8
BLACK
10
70005.0
20
38351.0
11
69986.0
21
38313.0
0
LINE
8
BLACK
10
69986.0
20
38313.0
11
69967.0
21
38237.0
0
LINE
8
BLACK
10
69967.0
20
38237.0
11
69967.0
21
38180.0
0
LINE
8
BLACK
10
69967.0
20
38180.0
11
69986.0
21
38103.0
0
LINE
8
BLACK
10
69986.0
20
38103.0
11
70005.0
21
38065.0
0
LINE
8
BLACK
10
70005.0
20
38065.0
11
70043.0
21
38027.0
0
LINE
8
BLACK
10
70043.0
20
38027.0
11
70101.0
21
38008.0
0
LINE
8
BLACK
10
70101.0
20
38008.0
11
70139.0
21
38008.0
0
LINE
8
BLACK
10
70139.0
20
38008.0
11
70196.0
21
38027.0
0
LINE
8
BLACK
10
70196.0
20
38027.0
11
70215.0
21
38046.0
0
LINE
8
BLACK
10
70215.0
20
38046.0
11
70215.0
21
38180.0
0
LINE
8
BLACK
10
70215.0
20
38180.0
11
70139.0
21
38180.0
0
LINE
8
BLACK
10
70386.0
20
38008.0
11
70386.0
21
38408.0
0
LINE
8
BLACK
10
70386.0
20
38408.0
11
70615.0
21
38008.0
0
LINE
8
BLACK
10
70615.0
20
38008.0
11
70615.0
21
38408.0
0
LINE
8
BLACK
10
70805.0
20
38008.0
11
70805.0
21
38408.0
0
LINE
8
BLACK
10
70805.0
20
38408.0
11
70900.0
21
38408.0
0
LINE
8
BLACK
10
70900.0
20
38408.0
11
70958.0
21
38389.0
0
LINE
8
BLACK
10
70958.0
20
38389.0
11
70996.0
21
38351.0
0
LINE
8
BLACK
10
70996.0
20
38351.0
11
71015.0
21
38313.0
0
LINE
8
BLACK
10
71015.0
20
38313.0
11
71034.0
21
38237.0
0
LINE
8
BLACK
10
71034.0
20
38237.0
11
71034.0
21
38180.0
0
LINE
8
BLACK
10
71034.0
20
38180.0
11
71015.0
21
38103.0
0
LINE
8
BLACK
10
71015.0
20
38103.0
11
70996.0
21
38065.0
0
LINE
8
BLACK
10
70996.0
20
38065.0
11
70958.0
21
38027.0
0
LINE
8
BLACK
10
70958.0
20
38027.0
11
70900.0
21
38008.0
0
LINE
8
BLACK
10
70900.0
20
38008.0
11
70805.0
21
38008.0
0
LINE
8
BLACK
10
68081.0
20
41508.0
11
68081.0
21
41908.0
0
LINE
8
BLACK
10
68081.0
20
41908.0
11
68176.0
21
41908.0
0
LINE
8
BLACK
10
68176.0
20
41908.0
11
68234.0
21
41889.0
0
LINE
8
BLACK
10
68234.0
20
41889.0
11
68272.0
21
41851.0
0
LINE
8
BLACK
10
68272.0
20
41851.0
11
68291.0
21
41813.0
0
LINE
8
BLACK
10
68291.0
20
41813.0
11
68310.0
21
41737.0
0
LINE
8
BLACK
10
68310.0
20
41737.0
11
68310.0
21
41680.0
0
LINE
8
BLACK
10
68310.0
20
41680.0
11
68291.0
21
41603.0
0
LINE
8
BLACK
10
68291.0
20
41603.0
11
68272.0
21
41565.0
0
LINE
8
BLACK
10
68272.0
20
41565.0
11
68234.0
21
41527.0
0
LINE
8
BLACK
10
68234.0
20
41527.0
11
68176.0
21
41508.0
0
LINE
8
BLACK
10
68176.0
20
41508.0
11
68081.0
21
41508.0
0
LINE
8
BLACK
10
68462.0
20
41870.0
11
68481.0
21
41889.0
0
LINE
8
BLACK
10
68481.0
20
41889.0
11
68519.0
21
41908.0
0
LINE
8
BLACK
10
68519.0
20
41908.0
11
68615.0
21
41908.0
0
LINE
8
BLACK
10
68615.0
20
41908.0
11
68653.0
21
41889.0
0
LINE
8
BLACK
10
68653.0
20
41889.0
11
68672.0
21
41870.0
0
LINE
8
BLACK
10
68672.0
20
41870.0
11
68691.0
21
41832.0
0
LINE
8
BLACK
10
68691.0
20
41832.0
11
68691.0
21
41794.0
0
LINE
8
BLACK
10
68691.0
20
41794.0
11
68672.0
21
41737.0
0
LINE
8
BLACK
10
68672.0
20
41737.0
11
68443.0
21
41508.0
0
LINE
8
BLACK
10
68443.0
20
41508.0
11
68691.0
21
41508.0
0
LINE
8
BLACK
10
69148.0
20
41927.0
11
68805.0
21
41413.0
0
LINE
8
BLACK
10
69281.0
20
41508.0
11
69281.0
21
41908.0
0
LINE
8
BLACK
10
69471.0
20
41508.0
11
69471.0
21
41908.0
0
LINE
8
BLACK
10
69471.0
20
41908.0
11
69700.0
21
41508.0
0
LINE
8
BLACK
10
69700.0
20
41508.0
11
69700.0
21
41908.0
0
LINE
8
BLACK
10
69833.0
20
41908.0
11
70062.0
21
41908.0
0
LINE
8
BLACK
10
69947.0
20
41508.0
11
69947.0
21
41908.0
0
LINE
8
BLACK
10
70100.0
20
41470.0
11
70405.0
21
41470.0
0
LINE
8
BLACK
10
70481.0
20
41527.0
11
70538.0
21
41508.0
0
LINE
8
BLACK
10
70538.0
20
41508.0
11
70634.0
21
41508.0
0
LINE
8
BLACK
10
70634.0
20
41508.0
11
70672.0
21
41527.0
0
LINE
8
BLACK
10
70672.0
20
41527.0
11
70691.0
21
41546.0
0
LINE
8
BLACK
10
70691.0
20
41546.0
11
70710.0
21
41584.0
0
LINE
8
BLACK
10
70710.0
20
41584.0
11
70710.0
21
41622.0
0
LINE
8
BLACK
10
70710.0
20
41622.0
11
70691.0
21
41660.0
0
LINE
8
BLACK
10
70691.0
20
41660.0
11
70672.0
21
41680.0
0
LINE
8
BLACK
10
70672.0
20
41680.0
11
70634.0
21
41699.0
0
LINE
8
BLACK
10
70634.0
20
41699.0
11
70557.0
21
41718.0
0
LINE
8
BLACK
10
70557.0
20
41718.0
11
70519.0
21
41737.0
0
LINE
8
BLACK
10
70519.0
20
41737.0
11
70500.0
21
41756.0
0
LINE
8
BLACK
10
70500.0
20
41756.0
11
70481.0
21
41794.0
0
LINE
8
BLACK
10
70481.0
20
41794.0
11
70481.0
21
41832.0
0
LINE
8
BLACK
10
70481.0
20
41832.0
11
70500.0
21
41870.0
0
LINE
8
BLACK
10
70500.0
20
41870.0
11
70519.0
21
41889.0
0
LINE
8
BLACK
10
70519.0
20
41889.0
11
70557.0
21
41908.0
0
LINE
8
BLACK
10
70557.0
20
41908.0
11
70653.0
21
41908.0
0
LINE
8
BLACK
10
70653.0
20
41908.0
11
70710.0
21
41889.0
0
LINE
8
BLACK
10
70824.0
20
41908.0
11
71053.0
21
41908.0
0
LINE
8
BLACK
10
70938.0
20
41508.0
11
70938.0
21
41908.0
0
LINE
8
BLACK
10
71186.0
20
41718.0
11
71320.0
21
41718.0
0
LINE
8
BLACK
10
71377.0
20
41508.0
11
71186.0
21
41508.0
0
LINE
8
BLACK
10
71186.0
20
41508.0
11
71186.0
21
41908.0
0
LINE
8
BLACK
10
71186.0
20
41908.0
11
71377.0
21
41908.0
0
LINE
8
BLACK
10
71548.0
20
41508.0
11
71548.0
21
41908.0
0
LINE
8
BLACK
10
71548.0
20
41908.0
11
71701.0
21
41908.0
0
LINE
8
BLACK
10
71701.0
20
41908.0
11
71739.0
21
41889.0
0
LINE
8
BLACK
10
71739.0
20
41889.0
11
71758.0
21
41870.0
0
LINE
8
BLACK
10
71758.0
20
41870.0
11
71777.0
21
41832.0
0
LINE
8
BLACK
10
71777.0
20
41832.0
11
71777.0
21
41775.0
0
LINE
8
BLACK
10
71777.0
20
41775.0
11
71758.0
21
41737.0
0
LINE
8
BLACK
10
71758.0
20
41737.0
11
71739.0
21
41718.0
0
LINE
8
BLACK
10
71739.0
20
41718.0
11
71701.0
21
41699.0
0
LINE
8
BLACK
10
71701.0
20
41699.0
11
71548.0
21
41699.0
0
LINE
8
BLACK
10
71948.0
20
41508.0
11
71948.0
21
41908.0
0
LINE
8
BLACK
10
71948.0
20
41908.0
11
72101.0
21
41908.0
0
LINE
8
BLACK
10
72101.0
20
41908.0
11
72139.0
21
41889.0
0
LINE
8
BLACK
10
72139.0
20
41889.0
11
72158.0
21
41870.0
0
LINE
8
BLACK
10
72158.0
20
41870.0
11
72177.0
21
41832.0
0
LINE
8
BLACK
10
72177.0
20
41832.0
11
72177.0
21
41775.0
0
LINE
8
BLACK
10
72177.0
20
41775.0
11
72158.0
21
41737.0
0
LINE
8
BLACK
10
72158.0
20
41737.0
11
72139.0
21
41718.0
0
LINE
8
BLACK
10
72139.0
20
41718.0
11
72101.0
21
41699.0
0
LINE
8
BLACK
10
72101.0
20
41699.0
11
71948.0
21
41699.0
0
LINE
8
BLACK
10
72348.0
20
41718.0
11
72482.0
21
41718.0
0
LINE
8
BLACK
10
72539.0
20
41508.0
11
72348.0
21
41508.0
0
LINE
8
BLACK
10
72348.0
20
41508.0
11
72348.0
21
41908.0
0
LINE
8
BLACK
10
72348.0
20
41908.0
11
72539.0
21
41908.0
0
LINE
8
BLACK
10
72939.0
20
41508.0
11
72805.0
21
41699.0
0
LINE
8
BLACK
10
72710.0
20
41508.0
11
72710.0
21
41908.0
0
LINE
8
BLACK
10
72710.0
20
41908.0
11
72863.0
21
41908.0
0
LINE
8
BLACK
10
72863.0
20
41908.0
11
72901.0
21
41889.0
0
LINE
8
BLACK
10
72901.0
20
41889.0
11
72920.0
21
41870.0
0
LINE
8
BLACK
10
72920.0
20
41870.0
11
72939.0
21
41832.0
0
LINE
8
BLACK
10
72939.0
20
41832.0
11
72939.0
21
41775.0
0
LINE
8
BLACK
10
72939.0
20
41775.0
11
72920.0
21
41737.0
0
LINE
8
BLACK
10
72920.0
20
41737.0
11
72901.0
21
41718.0
0
LINE
8
BLACK
10
72901.0
20
41718.0
11
72863.0
21
41699.0
0
LINE
8
BLACK
10
72863.0
20
41699.0
11
72710.0
21
41699.0
0
LINE
8
BLACK
10
63196.0
20
38389.0
11
63158.0
21
38408.0
0
LINE
8
BLACK
10
63158.0
20
38408.0
11
63101.0
21
38408.0
0
LINE
8
BLACK
10
63101.0
20
38408.0
11
63043.0
21
38389.0
0
LINE
8
BLACK
10
63043.0
20
38389.0
11
63005.0
21
38351.0
0
LINE
8
BLACK
10
63005.0
20
38351.0
11
62986.0
21
38313.0
0
LINE
8
BLACK
10
62986.0
20
38313.0
11
62967.0
21
38237.0
0
LINE
8
BLACK
10
62967.0
20
38237.0
11
62967.0
21
38180.0
0
LINE
8
BLACK
10
62967.0
20
38180.0
11
62986.0
21
38103.0
0
LINE
8
BLACK
10
62986.0
20
38103.0
11
63005.0
21
38065.0
0
LINE
8
BLACK
10
63005.0
20
38065.0
11
63043.0
21
38027.0
0
LINE
8
BLACK
10
63043.0
20
38027.0
11
63101.0
21
38008.0
0
LINE
8
BLACK
10
63101.0
20
38008.0
11
63139.0
21
38008.0
0
LINE
8
BLACK
10
63139.0
20
38008.0
11
63196.0
21
38027.0
0
LINE
8
BLACK
10
63196.0
20
38027.0
11
63215.0
21
38046.0
0
LINE
8
BLACK
10
63215.0
20
38046.0
11
63215.0
21
38180.0
0
LINE
8
BLACK
10
63215.0
20
38180.0
11
63139.0
21
38180.0
0
LINE
8
BLACK
10
63386.0
20
38008.0
11
63386.0
21
38408.0
0
LINE
8
BLACK
10
63386.0
20
38408.0
11
63615.0
21
38008.0
0
LINE
8
BLACK
10
63615.0
20
38008.0
11
63615.0
21
38408.0
0
LINE
8
BLACK
10
63805.0
20
38008.0
11
63805.0
21
38408.0
0
LINE
8
BLACK
10
63805.0
20
38408.0
11
63900.0
21
38408.0
0
LINE
8
BLACK
10
63900.0
20
38408.0
11
63958.0
21
38389.0
0
LINE
8
BLACK
10
63958.0
20
38389.0
11
63996.0
21
38351.0
0
LINE
8
BLACK
10
63996.0
20
38351.0
11
64015.0
21
38313.0
0
LINE
8
BLACK
10
64015.0
20
38313.0
11
64034.0
21
38237.0
0
LINE
8
BLACK
10
64034.0
20
38237.0
11
64034.0
21
38180.0
0
LINE
8
BLACK
10
64034.0
20
38180.0
11
64015.0
21
38103.0
0
LINE
8
BLACK
10
64015.0
20
38103.0
11
63996.0
21
38065.0
0
LINE
8
BLACK
10
63996.0
20
38065.0
11
63958.0
21
38027.0
0
LINE
8
BLACK
10
63958.0
20
38027.0
11
63900.0
21
38008.0
0
LINE
8
BLACK
10
63900.0
20
38008.0
11
63805.0
21
38008.0
0
LINE
8
BLACK
10
61308.0
20
44575.0
11
61594.0
21
44575.0
0
LINE
8
BLACK
10
61251.0
20
44346.0
11
61451.0
21
45146.0
0
LINE
8
BLACK
10
61451.0
20
45146.0
11
61651.0
21
44346.0
0
LINE
8
BLACK
10
61851.0
20
44346.0
11
61851.0
21
44880.0
0
LINE
8
BLACK
10
61851.0
20
44727.0
11
61879.0
21
44803.0
0
LINE
8
BLACK
10
61879.0
20
44803.0
11
61908.0
21
44841.0
0
LINE
8
BLACK
10
61908.0
20
44841.0
11
61965.0
21
44880.0
0
LINE
8
BLACK
10
61965.0
20
44880.0
11
62022.0
21
44880.0
0
LINE
8
BLACK
10
62479.0
20
44346.0
11
62479.0
21
45146.0
0
LINE
8
BLACK
10
62479.0
20
44384.0
11
62422.0
21
44346.0
0
LINE
8
BLACK
10
62422.0
20
44346.0
11
62308.0
21
44346.0
0
LINE
8
BLACK
10
62308.0
20
44346.0
11
62250.0
21
44384.0
0
LINE
8
BLACK
10
62250.0
20
44384.0
11
62222.0
21
44422.0
0
LINE
8
BLACK
10
62222.0
20
44422.0
11
62193.0
21
44499.0
0
LINE
8
BLACK
10
62193.0
20
44499.0
11
62193.0
21
44727.0
0
LINE
8
BLACK
10
62193.0
20
44727.0
11
62222.0
21
44803.0
0
LINE
8
BLACK
10
62222.0
20
44803.0
11
62250.0
21
44841.0
0
LINE
8
BLACK
10
62250.0
20
44841.0
11
62308.0
21
44880.0
0
LINE
8
BLACK
10
62308.0
20
44880.0
11
62422.0
21
44880.0
0
LINE
8
BLACK
10
62422.0
20
44880.0
11
62479.0
21
44841.0
0
LINE
8
BLACK
10
63022.0
20
44880.0
11
63022.0
21
44346.0
0
LINE
8
BLACK
10
62765.0
20
44880.0
11
62765.0
21
44460.0
0
LINE
8
BLACK
10
62765.0
20
44460.0
11
62793.0
21
44384.0
0
LINE
8
BLACK
10
62793.0
20
44384.0
11
62851.0
21
44346.0
0
LINE
8
BLACK
10
62851.0
20
44346.0
11
62936.0
21
44346.0
0
LINE
8
BLACK
10
62936.0
20
44346.0
11
62993.0
21
44384.0
0
LINE
8
BLACK
10
62993.0
20
44384.0
11
63022.0
21
44422.0
0
LINE
8
BLACK
10
63308.0
20
44346.0
11
63308.0
21
44880.0
0
LINE
8
BLACK
10
63308.0
20
45146.0
11
63279.0
21
45108.0
0
LINE
8
BLACK
10
63279.0
20
45108.0
11
63308.0
21
45070.0
0
LINE
8
BLACK
10
63308.0
20
45070.0
11
63336.0
21
45108.0
0
LINE
8
BLACK
10
63336.0
20
45108.0
11
63308.0
21
45146.0
0
LINE
8
BLACK
10
63308.0
20
45146.0
11
63308.0
21
45070.0
0
LINE
8
BLACK
10
63594.0
20
44880.0
11
63594.0
21
44346.0
0
LINE
8
BLACK
10
63594.0
20
44803.0
11
63622.0
21
44841.0
0
LINE
8
BLACK
10
63622.0
20
44841.0
11
63680.0
21
44880.0
0
LINE
8
BLACK
10
63680.0
20
44880.0
11
63765.0
21
44880.0
0
LINE
8
BLACK
10
63765.0
20
44880.0
11
63822.0
21
44841.0
0
LINE
8
BLACK
10
63822.0
20
44841.0
11
63851.0
21
44765.0
0
LINE
8
BLACK
10
63851.0
20
44765.0
11
63851.0
21
44346.0
0
LINE
8
BLACK
10
64223.0
20
44346.0
11
64165.0
21
44384.0
0
LINE
8
BLACK
10
64165.0
20
44384.0
11
64137.0
21
44422.0
0
LINE
8
BLACK
10
64137.0
20
44422.0
11
64108.0
21
44499.0
0
LINE
8
BLACK
10
64108.0
20
44499.0
11
64108.0
21
44727.0
0
LINE
8
BLACK
10
64108.0
20
44727.0
11
64137.0
21
44803.0
0
LINE
8
BLACK
10
64137.0
20
44803.0
11
64165.0
21
44841.0
0
LINE
8
BLACK
10
64165.0
20
44841.0
11
64223.0
21
44880.0
0
LINE
8
BLACK
10
64223.0
20
44880.0
11
64308.0
21
44880.0
0
LINE
8
BLACK
10
64308.0
20
44880.0
11
64365.0
21
44841.0
0
LINE
8
BLACK
10
64365.0
20
44841.0
11
64394.0
21
44803.0
0
LINE
8
BLACK
10
64394.0
20
44803.0
11
64423.0
21
44727.0
0
LINE
8
BLACK
10
64423.0
20
44727.0
11
64423.0
21
44499.0
0
LINE
8
BLACK
10
64423.0
20
44499.0
11
64394.0
21
44422.0
0
LINE
8
BLACK
10
64394.0
20
44422.0
11
64365.0
21
44384.0
0
LINE
8
BLACK
10
64365.0
20
44384.0
11
64308.0
21
44346.0
0
LINE
8
BLACK
10
64308.0
20
44346.0
11
64223.0
21
44346.0
0
LINE
8
BLACK
10
65108.0
20
44384.0
11
65194.0
21
44346.0
0
LINE
8
BLACK
10
65194.0
20
44346.0
11
65337.0
21
44346.0
0
LINE
8
BLACK
10
65337.0
20
44346.0
11
65394.0
21
44384.0
0
LINE
8
BLACK
10
65394.0
20
44384.0
11
65423.0
21
44422.0
0
LINE
8
BLACK
10
65423.0
20
44422.0
11
65451.0
21
44499.0
0
LINE
8
BLACK
10
65451.0
20
44499.0
11
65451.0
21
44575.0
0
LINE
8
BLACK
10
65451.0
20
44575.0
11
65423.0
21
44651.0
0
LINE
8
BLACK
10
65423.0
20
44651.0
11
65394.0
21
44689.0
0
LINE
8
BLACK
10
65394.0
20
44689.0
11
65337.0
21
44727.0
0
LINE
8
BLACK
10
65337.0
20
44727.0
11
65223.0
21
44765.0
0
LINE
8
BLACK
10
65223.0
20
44765.0
11
65165.0
21
44803.0
0
LINE
8
BLACK
10
65165.0
20
44803.0
11
65137.0
21
44841.0
0
LINE
8
BLACK
10
65137.0
20
44841.0
11
65108.0
21
44918.0
0
LINE
8
BLACK
10
65108.0
20
44918.0
11
65108.0
21
44994.0
0
LINE
8
BLACK
10
65108.0
20
44994.0
11
65137.0
21
45070.0
0
LINE
8
BLACK
10
65137.0
20
45070.0
11
65165.0
21
45108.0
0
LINE
8
BLACK
10
65165.0
20
45108.0
11
65223.0
21
45146.0
0
LINE
8
BLACK
10
65223.0
20
45146.0
11
65365.0
21
45146.0
0
LINE
8
BLACK
10
65365.0
20
45146.0
11
65451.0
21
45108.0
0
LINE
8
BLACK
10
65622.0
20
44880.0
11
65851.0
21
44880.0
0
LINE
8
BLACK
10
65708.0
20
45146.0
11
65708.0
21
44460.0
0
LINE
8
BLACK
10
65708.0
20
44460.0
11
65736.0
21
44384.0
0
LINE
8
BLACK
10
65736.0
20
44384.0
11
65794.0
21
44346.0
0
LINE
8
BLACK
10
65794.0
20
44346.0
11
65851.0
21
44346.0
0
LINE
8
BLACK
10
66279.0
20
44384.0
11
66222.0
21
44346.0
0
LINE
8
BLACK
10
66222.0
20
44346.0
11
66108.0
21
44346.0
0
LINE
8
BLACK
10
66108.0
20
44346.0
11
66051.0
21
44384.0
0
LINE
8
BLACK
10
66051.0
20
44384.0
11
66022.0
21
44460.0
0
LINE
8
BLACK
10
66022.0
20
44460.0
11
66022.0
21
44765.0
0
LINE
8
BLACK
10
66022.0
20
44765.0
11
66051.0
21
44841.0
0
LINE
8
BLACK
10
66051.0
20
44841.0
11
66108.0
21
44880.0
0
LINE
8
BLACK
10
66108.0
20
44880.0
11
66222.0
21
44880.0
0
LINE
8
BLACK
10
66222.0
20
44880.0
11
66279.0
21
44841.0
0
LINE
8
BLACK
10
66279.0
20
44841.0
11
66308.0
21
44765.0
0
LINE
8
BLACK
10
66308.0
20
44765.0
11
66308.0
21
44689.0
0
LINE
8
BLACK
10
66308.0
20
44689.0
11
66022.0
21
44613.0
0
LINE
8
BLACK
10
66565.0
20
44880.0
11
66565.0
21
44080.0
0
LINE
8
BLACK
10
66565.0
20
44841.0
11
66622.0
21
44880.0
0
LINE
8
BLACK
10
66622.0
20
44880.0
11
66736.0
21
44880.0
0
LINE
8
BLACK
10
66736.0
20
44880.0
11
66793.0
21
44841.0
0
LINE
8
BLACK
10
66793.0
20
44841.0
11
66822.0
21
44803.0
0
LINE
8
BLACK
10
66822.0
20
44803.0
11
66851.0
21
44727.0
0
LINE
8
BLACK
10
66851.0
20
44727.0
11
66851.0
21
44499.0
0
LINE
8
BLACK
10
66851.0
20
44499.0
11
66822.0
21
44422.0
0
LINE
8
BLACK
10
66822.0
20
44422.0
11
66793.0
21
44384.0
0
LINE
8
BLACK
10
66793.0
20
44384.0
11
66736.0
21
44346.0
0
LINE
8
BLACK
10
66736.0
20
44346.0
11
66622.0
21
44346.0
0
LINE
8
BLACK
10
66622.0
20
44346.0
11
66565.0
21
44384.0
0
LINE
8
BLACK
10
67108.0
20
44880.0
11
67108.0
21
44080.0
0
LINE
8
BLACK
10
67108.0
20
44841.0
11
67165.0
21
44880.0
0
LINE
8
BLACK
10
67165.0
20
44880.0
11
67279.0
21
44880.0
0
LINE
8
BLACK
10
67279.0
20
44880.0
11
67336.0
21
44841.0
0
LINE
8
BLACK
10
67336.0
20
44841.0
11
67365.0
21
44803.0
0
LINE
8
BLACK
10
67365.0
20
44803.0
11
67394.0
21
44727.0
0
LINE
8
BLACK
10
67394.0
20
44727.0
11
67394.0
21
44499.0
0
LINE
8
BLACK
10
67394.0
20
44499.0
11
67365.0
21
44422.0
0
LINE
8
BLACK
10
67365.0
20
44422.0
11
67336.0
21
44384.0
0
LINE
8
BLACK
10
67336.0
20
44384.0
11
67279.0
21
44346.0
0
LINE
8
BLACK
10
67279.0
20
44346.0
11
67165.0
21
44346.0
0
LINE
8
BLACK
10
67165.0
20
44346.0
11
67108.0
21
44384.0
0
LINE
8
BLACK
10
67879.0
20
44384.0
11
67822.0
21
44346.0
0
LINE
8
BLACK
10
67822.0
20
44346.0
11
67708.0
21
44346.0
0
LINE
8
BLACK
10
67708.0
20
44346.0
11
67651.0
21
44384.0
0
LINE
8
BLACK
10
67651.0
20
44384.0
11
67622.0
21
44460.0
0
LINE
8
BLACK
10
67622.0
20
44460.0
11
67622.0
21
44765.0
0
LINE
8
BLACK
10
67622.0
20
44765.0
11
67651.0
21
44841.0
0
LINE
8
BLACK
10
67651.0
20
44841.0
11
67708.0
21
44880.0
0
LINE
8
BLACK
10
67708.0
20
44880.0
11
67822.0
21
44880.0
0
LINE
8
BLACK
10
67822.0
20
44880.0
11
67879.0
21
44841.0
0
LINE
8
BLACK
10
67879.0
20
44841.0
11
67908.0
21
44765.0
0
LINE
8
BLACK
10
67908.0
20
44765.0
11
67908.0
21
44689.0
0
LINE
8
BLACK
10
67908.0
20
44689.0
11
67622.0
21
44613.0
0
LINE
8
BLACK
10
68165.0
20
44346.0
11
68165.0
21
44880.0
0
LINE
8
BLACK
10
68165.0
20
44727.0
11
68193.0
21
44803.0
0
LINE
8
BLACK
10
68193.0
20
44803.0
11
68222.0
21
44841.0
0
LINE
8
BLACK
10
68222.0
20
44841.0
11
68279.0
21
44880.0
0
LINE
8
BLACK
10
68279.0
20
44880.0
11
68336.0
21
44880.0
0
LINE
8
BLACK
10
69336.0
20
44422.0
11
69307.0
21
44384.0
0
LINE
8
BLACK
10
69307.0
20
44384.0
11
69221.0
21
44346.0
0
LINE
8
BLACK
10
69221.0
20
44346.0
11
69164.0
21
44346.0
0
LINE
8
BLACK
10
69164.0
20
44346.0
11
69079.0
21
44384.0
0
LINE
8
BLACK
10
69079.0
20
44384.0
11
69021.0
21
44460.0
0
LINE
8
BLACK
10
69021.0
20
44460.0
11
68993.0
21
44537.0
0
LINE
8
BLACK
10
68993.0
20
44537.0
11
68964.0
21
44689.0
0
LINE
8
BLACK
10
68964.0
20
44689.0
11
68964.0
21
44803.0
0
LINE
8
BLACK
10
68964.0
20
44803.0
11
68993.0
21
44956.0
0
LINE
8
BLACK
10
68993.0
20
44956.0
11
69021.0
21
45032.0
0
LINE
8
BLACK
10
69021.0
20
45032.0
11
69079.0
21
45108.0
0
LINE
8
BLACK
10
69079.0
20
45108.0
11
69164.0
21
45146.0
0
LINE
8
BLACK
10
69164.0
20
45146.0
11
69221.0
21
45146.0
0
LINE
8
BLACK
10
69221.0
20
45146.0
11
69307.0
21
45108.0
0
LINE
8
BLACK
10
69307.0
20
45108.0
11
69336.0
21
45070.0
0
LINE
8
BLACK
10
69679.0
20
44346.0
11
69621.0
21
44384.0
0
LINE
8
BLACK
10
69621.0
20
44384.0
11
69593.0
21
44422.0
0
LINE
8
BLACK
10
69593.0
20
44422.0
11
69564.0
21
44499.0
0
LINE
8
BLACK
10
69564.0
20
44499.0
11
69564.0
21
44727.0
0
LINE
8
BLACK
10
69564.0
20
44727.0
11
69593.0
21
44803.0
0
LINE
8
BLACK
10
69593.0
20
44803.0
11
69621.0
21
44841.0
0
LINE
8
BLACK
10
69621.0
20
44841.0
11
69679.0
21
44880.0
0
LINE
8
BLACK
10
69679.0
20
44880.0
11
69764.0
21
44880.0
0
LINE
8
BLACK
10
69764.0
20
44880.0
11
69821.0
21
44841.0
0
LINE
8
BLACK
10
69821.0
20
44841.0
11
69850.0
21
44803.0
0
LINE
8
BLACK
10
69850.0
20
44803.0
11
69879.0
21
44727.0
0
LINE
8
BLACK
10
69879.0
20
44727.0
11
69879.0
21
44499.0
0
LINE
8
BLACK
10
69879.0
20
44499.0
11
69850.0
21
44422.0
0
LINE
8
BLACK
10
69850.0
20
44422.0
11
69821.0
21
44384.0
0
LINE
8
BLACK
10
69821.0
20
44384.0
11
69764.0
21
44346.0
0
LINE
8
BLACK
10
69764.0
20
44346.0
11
69679.0
21
44346.0
0
LINE
8
BLACK
10
70136.0
20
44880.0
11
70136.0
21
44346.0
0
LINE
8
BLACK
10
70136.0
20
44803.0
11
70164.0
21
44841.0
0
LINE
8
BLACK
10
70164.0
20
44841.0
11
70222.0
21
44880.0
0
LINE
8
BLACK
10
70222.0
20
44880.0
11
70307.0
21
44880.0
0
LINE
8
BLACK
10
70307.0
20
44880.0
11
70364.0
21
44841.0
0
LINE
8
BLACK
10
70364.0
20
44841.0
11
70393.0
21
44765.0
0
LINE
8
BLACK
10
70393.0
20
44765.0
11
70393.0
21
44346.0
0
LINE
8
BLACK
10
70593.0
20
44880.0
11
70822.0
21
44880.0
0
LINE
8
BLACK
10
70679.0
20
45146.0
11
70679.0
21
44460.0
0
LINE
8
BLACK
10
70679.0
20
44460.0
11
70707.0
21
44384.0
0
LINE
8
BLACK
10
70707.0
20
44384.0
11
70765.0
21
44346.0
0
LINE
8
BLACK
10
70765.0
20
44346.0
11
70822.0
21
44346.0
0
LINE
8
BLACK
10
71022.0
20
44346.0
11
71022.0
21
44880.0
0
LINE
8
BLACK
10
71022.0
20
44727.0
11
71050.0
21
44803.0
0
LINE
8
BLACK
10
71050.0
20
44803.0
11
71079.0
21
44841.0
0
LINE
8
BLACK
10
71079.0
20
44841.0
11
71136.0
21
44880.0
0
LINE
8
BLACK
10
71136.0
20
44880.0
11
71193.0
21
44880.0
0
LINE
8
BLACK
10
71479.0
20
44346.0
11
71421.0
21
44384.0
0
LINE
8
BLACK
10
71421.0
20
44384.0
11
71393.0
21
44422.0
0
LINE
8
BLACK
10
71393.0
20
44422.0
11
71364.0
21
44499.0
0
LINE
8
BLACK
10
71364.0
20
44499.0
11
71364.0
21
44727.0
0
LINE
8
BLACK
10
71364.0
20
44727.0
11
71393.0
21
44803.0
0
LINE
8
BLACK
10
71393.0
20
44803.0
11
71421.0
21
44841.0
0
LINE
8
BLACK
10
71421.0
20
44841.0
11
71479.0
21
44880.0
0
LINE
8
BLACK
10
71479.0
20
44880.0
11
71564.0
21
44880.0
0
LINE
8
BLACK
10
71564.0
20
44880.0
11
71621.0
21
44841.0
0
LINE
8
BLACK
10
71621.0
20
44841.0
11
71650.0
21
44803.0
0
LINE
8
BLACK
10
71650.0
20
44803.0
11
71679.0
21
44727.0
0
LINE
8
BLACK
10
71679.0
20
44727.0
11
71679.0
21
44499.0
0
LINE
8
BLACK
10
71679.0
20
44499.0
11
71650.0
21
44422.0
0
LINE
8
BLACK
10
71650.0
20
44422.0
11
71621.0
21
44384.0
0
LINE
8
BLACK
10
71621.0
20
44384.0
11
71564.0
21
44346.0
0
LINE
8
BLACK
10
71564.0
20
44346.0
11
71479.0
21
44346.0
0
LINE
8
BLACK
10
72022.0
20
44346.0
11
71964.0
21
44384.0
0
LINE
8
BLACK
10
71964.0
20
44384.0
11
71936.0
21
44460.0
0
LINE
8
BLACK
10
71936.0
20
44460.0
11
71936.0
21
45146.0
0
LINE
8
BLACK
10
72336.0
20
44346.0
11
72278.0
21
44384.0
0
LINE
8
BLACK
10
72278.0
20
44384.0
11
72250.0
21
44460.0
0
LINE
8
BLACK
10
72250.0
20
44460.0
11
72250.0
21
45146.0
0
LINE
8
BLACK
10
72792.0
20
44384.0
11
72735.0
21
44346.0
0
LINE
8
BLACK
10
72735.0
20
44346.0
11
72621.0
21
44346.0
0
LINE
8
BLACK
10
72621.0
20
44346.0
11
72564.0
21
44384.0
0
LINE
8
BLACK
10
72564.0
20
44384.0
11
72535.0
21
44460.0
0
LINE
8
BLACK
10
72535.0
20
44460.0
11
72535.0
21
44765.0
0
LINE
8
BLACK
10
72535.0
20
44765.0
11
72564.0
21
44841.0
0
LINE
8
BLACK
10
72564.0
20
44841.0
11
72621.0
21
44880.0
0
LINE
8
BLACK
10
72621.0
20
44880.0
11
72735.0
21
44880.0
0
LINE
8
BLACK
10
72735.0
20
44880.0
11
72792.0
21
44841.0
0
LINE
8
BLACK
10
72792.0
20
44841.0
11
72821.0
21
44765.0
0
LINE
8
BLACK
10
72821.0
20
44765.0
11
72821.0
21
44689.0
0
LINE
8
BLACK
10
72821.0
20
44689.0
11
72535.0
21
44613.0
0
LINE
8
BLACK
10
73078.0
20
44346.0
11
73078.0
21
44880.0
0
LINE
8
BLACK
10
73078.0
20
44727.0
11
73106.0
21
44803.0
0
LINE
8
BLACK
10
73106.0
20
44803.0
11
73135.0
21
44841.0
0
LINE
8
BLACK
10
73135.0
20
44841.0
11
73192.0
21
44880.0
0
LINE
8
BLACK
10
73192.0
20
44880.0
11
73249.0
21
44880.0
0
LINE
8
BLACK
10
67723.0
20
42846.0
11
67723.0
21
43646.0
0
LINE
8
BLACK
10
67723.0
20
43646.0
11
67923.0
21
43075.0
0
LINE
8
BLACK
10
67923.0
20
43075.0
11
68123.0
21
43646.0
0
LINE
8
BLACK
10
68123.0
20
43646.0
11
68123.0
21
42846.0
0
LINE
8
BLACK
10
68666.0
20
42846.0
11
68666.0
21
43265.0
0
LINE
8
BLACK
10
68666.0
20
43265.0
11
68637.0
21
43341.0
0
LINE
8
BLACK
10
68637.0
20
43341.0
11
68580.0
21
43380.0
0
LINE
8
BLACK
10
68580.0
20
43380.0
11
68466.0
21
43380.0
0
LINE
8
BLACK
10
68466.0
20
43380.0
11
68409.0
21
43341.0
0
LINE
8
BLACK
10
68666.0
20
42884.0
11
68609.0
21
42846.0
0
LINE
8
BLACK
10
68609.0
20
42846.0
11
68466.0
21
42846.0
0
LINE
8
BLACK
10
68466.0
20
42846.0
11
68409.0
21
42884.0
0
LINE
8
BLACK
10
68409.0
20
42884.0
11
68380.0
21
42960.0
0
LINE
8
BLACK
10
68380.0
20
42960.0
11
68380.0
21
43037.0
0
LINE
8
BLACK
10
68380.0
20
43037.0
11
68409.0
21
43113.0
0
LINE
8
BLACK
10
68409.0
20
43113.0
11
68466.0
21
43151.0
0
LINE
8
BLACK
10
68466.0
20
43151.0
11
68609.0
21
43151.0
0
LINE
8
BLACK
10
68609.0
20
43151.0
11
68666.0
21
43189.0
0
LINE
8
BLACK
10
68952.0
20
42846.0
11
68952.0
21
43380.0
0
LINE
8
BLACK
10
68952.0
20
43227.0
11
68980.0
21
43303.0
0
LINE
8
BLACK
10
68980.0
20
43303.0
11
69009.0
21
43341.0
0
LINE
8
BLACK
10
69009.0
20
43341.0
11
69066.0
21
43380.0
0
LINE
8
BLACK
10
69066.0
20
43380.0
11
69123.0
21
43380.0
0
LINE
8
BLACK
10
69751.0
20
43570.0
11
69780.0
21
43608.0
0
LINE
8
BLACK
10
69780.0
20
43608.0
11
69837.0
21
43646.0
0
LINE
8
BLACK
10
69837.0
20
43646.0
11
69980.0
21
43646.0
0
LINE
8
BLACK
10
69980.0
20
43646.0
11
70037.0
21
43608.0
0
LINE
8
BLACK
10
70037.0
20
43608.0
11
70066.0
21
43570.0
0
LINE
8
BLACK
10
70066.0
20
43570.0
11
70094.0
21
43494.0
0
LINE
8
BLACK
10
70094.0
20
43494.0
11
70094.0
21
43418.0
0
LINE
8
BLACK
10
70094.0
20
43418.0
11
70066.0
21
43303.0
0
LINE
8
BLACK
10
70066.0
20
43303.0
11
69723.0
21
42846.0
0
LINE
8
BLACK
10
69723.0
20
42846.0
11
70094.0
21
42846.0
0
LINE
8
BLACK
10
70465.0
20
43646.0
11
70522.0
21
43646.0
0
LINE
8
BLACK
10
70522.0
20
43646.0
11
70579.0
21
43608.0
0
LINE
8
BLACK
10
70579.0
20
43608.0
11
70608.0
21
43570.0
0
LINE
8
BLACK
10
70608.0
20
43570.0
11
70637.0
21
43494.0
0
LINE
8
BLACK
10
70637.0
20
43494.0
11
70665.0
21
43341.0
0
LINE
8
BLACK
10
70665.0
20
43341.0
11
70665.0
21
43151.0
0
LINE
8
BLACK
10
70665.0
20
43151.0
11
70637.0
21
42999.0
0
LINE
8
BLACK
10
70637.0
20
42999.0
11
70608.0
21
42922.0
0
LINE
8
BLACK
10
70608.0
20
42922.0
11
70579.0
21
42884.0
0
LINE
8
BLACK
10
70579.0
20
42884.0
11
70522.0
21
42846.0
0
LINE
8
BLACK
10
70522.0
20
42846.0
11
70465.0
21
42846.0
0
LINE
8
BLACK
10
70465.0
20
42846.0
11
70408.0
21
42884.0
0
LINE
8
BLACK
10
70408.0
20
42884.0
11
70379.0
21
42922.0
0
LINE
8
BLACK
10
70379.0
20
42922.0
11
70351.0
21
42999.0
0
LINE
8
BLACK
10
70351.0
20
42999.0
11
70322.0
21
43151.0
0
LINE
8
BLACK
10
70322.0
20
43151.0
11
70322.0
21
43341.0
0
LINE
8
BLACK
10
70322.0
20
43341.0
11
70351.0
21
43494.0
0
LINE
8
BLACK
10
70351.0
20
43494.0
11
70379.0
21
43570.0
0
LINE
8
BLACK
10
70379.0
20
43570.0
11
70408.0
21
43608.0
0
LINE
8
BLACK
10
70408.0
20
43608.0
11
70465.0
21
43646.0
0
LINE
8
BLACK
10
71236.0
20
42846.0
11
70893.0
21
42846.0
0
LINE
8
BLACK
10
71065.0
20
42846.0
11
71065.0
21
43646.0
0
LINE
8
BLACK
10
71065.0
20
43646.0
11
71008.0
21
43532.0
0
LINE
8
BLACK
10
71008.0
20
43532.0
11
70950.0
21
43456.0
0
LINE
8
BLACK
10
70950.0
20
43456.0
11
70893.0
21
43418.0
0
LINE
8
BLACK
10
71750.0
20
43380.0
11
71750.0
21
42846.0
0
LINE
8
BLACK
10
71607.0
20
43684.0
11
71464.0
21
43113.0
0
LINE
8
BLACK
10
71464.0
20
43113.0
11
71836.0
21
43113.0
0
LINE
8
BLACK
10
63265.0
20
43646.0
11
63465.0
21
42846.0
0
LINE
8
BLACK
10
63465.0
20
42846.0
11
63665.0
21
43646.0
0
LINE
8
BLACK
10
63865.0
20
43265.0
11
64065.0
21
43265.0
0
LINE
8
BLACK
10
64151.0
20
42846.0
11
63865.0
21
42846.0
0
LINE
8
BLACK
10
63865.0
20
42846.0
11
63865.0
21
43646.0
0
LINE
8
BLACK
10
63865.0
20
43646.0
11
64151.0
21
43646.0
0
LINE
8
BLACK
10
64751.0
20
42846.0
11
64551.0
21
43227.0
0
LINE
8
BLACK
10
64408.0
20
42846.0
11
64408.0
21
43646.0
0
LINE
8
BLACK
10
64408.0
20
43646.0
11
64636.0
21
43646.0
0
LINE
8
BLACK
10
64636.0
20
43646.0
11
64694.0
21
43608.0
0
LINE
8
BLACK
10
64694.0
20
43608.0
11
64722.0
21
43570.0
0
LINE
8
BLACK
10
64722.0
20
43570.0
11
64751.0
21
43494.0
0
LINE
8
BLACK
10
64751.0
20
43494.0
11
64751.0
21
43380.0
0
LINE
8
BLACK
10
64751.0
20
43380.0
11
64722.0
21
43303.0
0
LINE
8
BLACK
10
64722.0
20
43303.0
11
64694.0
21
43265.0
0
LINE
8
BLACK
10
64694.0
20
43265.0
11
64636.0
21
43227.0
0
LINE
8
BLACK
10
64636.0
20
43227.0
11
64408.0
21
43227.0
0
LINE
8
BLACK
10
65322.0
20
42846.0
11
64979.0
21
42846.0
0
LINE
8
BLACK
10
65151.0
20
42846.0
11
65151.0
21
43646.0
0
LINE
8
BLACK
10
65151.0
20
43646.0
11
65094.0
21
43532.0
0
LINE
8
BLACK
10
65094.0
20
43532.0
11
65036.0
21
43456.0
0
LINE
8
BLACK
10
65036.0
20
43456.0
11
64979.0
21
43418.0
0
LINE
8
BLACK
10
65579.0
20
42922.0
11
65607.0
21
42884.0
0
LINE
8
BLACK
10
65607.0
20
42884.0
11
65579.0
21
42846.0
0
LINE
8
BLACK
10
65579.0
20
42846.0
11
65550.0
21
42884.0
0
LINE
8
BLACK
10
65550.0
20
42884.0
11
65579.0
21
42922.0
0
LINE
8
BLACK
10
65579.0
20
42922.0
11
65579.0
21
42846.0
0
LINE
8
BLACK
10
66122.0
20
43380.0
11
66122.0
21
42846.0
0
LINE
8
BLACK
10
65979.0
20
43684.0
11
65836.0
21
43113.0
0
LINE
8
BLACK
10
65836.0
20
43113.0
11
66208.0
21
43113.0
0
LINE
8
BLACK
10
89500.0
20
31170.0
11
89500.0
21
52170.0
0
LINE
8
BLACK
10
81050.0
20
39220.0
11
81050.0
21
39820.0
0
LINE
8
BLACK
10
81050.0
20
39820.0
11
79950.0
21
39820.0
0
LINE
8
BLACK
10
79950.0
20
39820.0
11
79950.0
21
39220.0
0
LINE
8
BLACK
10
79950.0
20
38620.0
11
79950.0
21
38020.0
0
LINE
8
BLACK
10
79950.0
20
38020.0
11
81050.0
21
38020.0
0
LINE
8
BLACK
10
81050.0
20
38020.0
11
81050.0
21
38620.0
0
LINE
8
BLACK
10
45500.0
20
37420.0
11
45250.0
21
37420.0
0
LINE
8
BLACK
10
45250.0
20
37420.0
11
45250.0
21
42420.0
0
LINE
8
BLACK
10
45250.0
20
42420.0
11
45500.0
21
42420.0
0
LINE
8
BLACK
10
45500.0
20
36920.0
11
51750.0
21
36920.0
0
LINE
8
BLACK
10
51750.0
20
36920.0
11
51750.0
21
42920.0
0
LINE
8
BLACK
10
51750.0
20
42920.0
11
45500.0
21
42920.0
0
LINE
8
BLACK
10
45500.0
20
42920.0
11
45500.0
21
36920.0
0
LINE
8
BLACK
10
51000.0
20
41420.0
11
49500.0
21
39920.0
0
LINE
8
BLACK
10
49500.0
20
39920.0
11
49000.0
21
39920.0
0
LINE
8
BLACK
10
50750.0
20
38920.0
11
50250.0
21
38920.0
0
LINE
8
BLACK
10
50750.0
20
39920.0
11
50750.0
21
38920.0
0
LINE
8
BLACK
10
89250.0
20
39170.0
11
84750.0
21
39170.0
0
LINE
8
BLACK
10
89250.0
20
40670.0
11
84750.0
21
40670.0
0
LINE
8
BLACK
10
88250.0
20
41170.0
11
88500.0
21
40670.0
0
LINE
8
BLACK
10
88500.0
20
40670.0
11
88750.0
21
41170.0
0
LINE
8
BLACK
10
88750.0
20
41170.0
11
88250.0
21
41170.0
0
LINE
8
BLACK
10
84750.0
20
40670.0
11
84750.0
21
39170.0
0
LINE
8
BLACK
10
89250.0
20
39170.0
11
89250.0
21
40670.0
0
LINE
8
BLACK
10
79250.0
20
35670.0
11
79250.0
21
40420.0
0
LINE
8
BLACK
10
73750.0
20
35670.0
11
73750.0
21
40420.0
0
LINE
8
BLACK
10
73750.0
20
40420.0
11
79250.0
21
40420.0
0
CIRCLE
8
BLACK
10
76500.0
20
37920.0
40
1750
0
LINE
8
BLACK
10
78750.0
20
35170.0
11
74250.0
21
35170.0
0
LINE
8
BLACK
10
73750.0
20
35670.0
11
74250.0
21
35170.0
0
LINE
8
BLACK
10
79250.0
20
35670.0
11
78750.0
21
35170.0
0
LINE
8
BLACK
10
52000.0
20
34670.0
11
52000.0
21
31670.0
0
LINE
8
BLACK
10
52000.0
20
31670.0
11
55000.0
21
31670.0
0
LINE
8
BLACK
10
55000.0
20
31670.0
11
55000.0
21
34670.0
0
LINE
8
BLACK
10
52000.0
20
34670.0
11
55000.0
21
34670.0
0
LINE
8
BLACK
10
60050.0
20
40220.0
11
60050.0
21
40820.0
0
LINE
8
BLACK
10
60050.0
20
40820.0
11
58950.0
21
40820.0
0
LINE
8
BLACK
10
58950.0
20
40820.0
11
58950.0
21
40220.0
0
LINE
8
BLACK
10
58950.0
20
39620.0
11
58950.0
21
39020.0
0
LINE
8
BLACK
10
58950.0
20
39020.0
11
60050.0
21
39020.0
0
LINE
8
BLACK
10
60050.0
20
39020.0
11
60050.0
21
39620.0
0
LINE
8
BLACK
10
71500.0
20
38670.0
11
71500.0
21
41170.0
0
LINE
8
BLACK
10
70000.0
20
38670.0
11
70000.0
21
41170.0
0
LINE
8
BLACK
10
69250.0
20
38670.0
11
69250.0
21
41170.0
0
LINE
8
BLACK
10
69500.0
20
40170.0
11
70000.0
21
40420.0
0
LINE
8
BLACK
10
70000.0
20
40420.0
11
69500.0
21
40670.0
0
LINE
8
BLACK
10
69500.0
20
40670.0
11
69500.0
21
40170.0
0
LINE
8
BLACK
10
69250.0
20
41170.0
11
70000.0
21
41170.0
0
LINE
8
BLACK
10
69250.0
20
38670.0
11
70000.0
21
38670.0
0
LINE
8
BLACK
10
70000.0
20
38670.0
11
71500.0
21
38670.0
0
LINE
8
BLACK
10
71500.0
20
41170.0
11
70000.0
21
41170.0
0
LINE
8
BLACK
10
64500.0
20
38670.0
11
64500.0
21
41170.0
0
LINE
8
BLACK
10
63000.0
20
38670.0
11
63000.0
21
41170.0
0
LINE
8
BLACK
10
62250.0
20
38670.0
11
62250.0
21
41170.0
0
LINE
8
BLACK
10
62500.0
20
40170.0
11
63000.0
21
40420.0
0
LINE
8
BLACK
10
63000.0
20
40420.0
11
62500.0
21
40670.0
0
LINE
8
BLACK
10
62500.0
20
40670.0
11
62500.0
21
40170.0
0
LINE
8
BLACK
10
62250.0
20
41170.0
11
63000.0
21
41170.0
0
LINE
8
BLACK
10
62250.0
20
38670.0
11
63000.0
21
38670.0
0
LINE
8
BLACK
10
63000.0
20
38670.0
11
64500.0
21
38670.0
0
LINE
8
BLACK
10
64500.0
20
41170.0
11
63000.0
21
41170.0
0
LINE
8
BLACK
10
54500.0
20
37670.0
11
57750.0
21
37670.0
0
LINE
8
BLACK
10
57750.0
20
37670.0
11
57750.0
21
42170.0
0
LINE
8
BLACK
10
57750.0
20
42170.0
11
54500.0
21
42170.0
0
LINE
8
BLACK
10
54500.0
20
42170.0
11
54500.0
21
37670.0
0
LINE
8
BLACK
10
62300.0
20
34870.0
11
62900.0
21
34870.0
0
LINE
8
BLACK
10
62900.0
20
34870.0
11
62900.0
21
35970.0
0
LINE
8
BLACK
10
62900.0
20
35970.0
11
62300.0
21
35970.0
0
LINE
8
BLACK
10
61700.0
20
35970.0
11
61100.0
21
35970.0
0
LINE
8
BLACK
10
61100.0
20
35970.0
11
61100.0
21
34870.0
0
LINE
8
BLACK
10
61100.0
20
34870.0
11
61700.0
21
34870.0
0
LINE
8
BLACK
10
71400.0
20
47970.0
11
71400.0
21
48570.0
0
LINE
8
BLACK
10
71400.0
20
48570.0
11
70300.0
21
48570.0
0
LINE
8
BLACK
10
70300.0
20
48570.0
11
70300.0
21
47970.0
0
LINE
8
BLACK
10
70300.0
20
47370.0
11
70300.0
21
46770.0
0
LINE
8
BLACK
10
70300.0
20
46770.0
11
71400.0
21
46770.0
0
LINE
8
BLACK
10
71400.0
20
46770.0
11
71400.0
21
47370.0
0
LINE
8
BLACK
10
66900.0
20
47670.0
11
68100.0
21
47670.0
0
CIRCLE
8
BLACK
10
66700.0
20
47170.0
40
100
0
ENDSEC
0
EOF
