G04 #@! TF.FileFunction,Legend,Top*
%FSLAX46Y46*%
G04 Gerber Fmt 4.6, Leading zero omitted, Abs format (unit mm)*
G04 Created by KiCad (PCBNEW 4.1.0-alpha+201608211231+7083~46~ubuntu16.04.1-product) date Wed Aug 24 14:24:17 2016*
%MOMM*%
%LPD*%
G01*
G04 APERTURE LIST*
%ADD10C,0.100000*%
%ADD11C,0.254000*%
%ADD12C,0.381000*%
%ADD13C,0.228600*%
%ADD14C,0.250000*%
%ADD15C,0.190500*%
%ADD16C,0.375000*%
%ADD17O,2.559000X2.051000*%
%ADD18O,2.254200X2.940000*%
%ADD19R,2.254200X2.940000*%
%ADD20C,3.956000*%
%ADD21R,3.067000X1.990040*%
%ADD22R,2.940000X4.210000*%
%ADD23O,2.940000X4.210000*%
%ADD24C,3.575000*%
%ADD25O,1.924000X2.940000*%
%ADD26C,2.305000*%
%ADD27R,7.150000X3.700000*%
G04 APERTURE END LIST*
D10*
D11*
X140389428Y-92153619D02*
X140728095Y-93169619D01*
X141066761Y-92153619D01*
X141405428Y-93169619D02*
X141405428Y-92153619D01*
X140195904Y-82677000D02*
X140099142Y-82628619D01*
X139954000Y-82628619D01*
X139808857Y-82677000D01*
X139712095Y-82773761D01*
X139663714Y-82870523D01*
X139615333Y-83064047D01*
X139615333Y-83209190D01*
X139663714Y-83402714D01*
X139712095Y-83499476D01*
X139808857Y-83596238D01*
X139954000Y-83644619D01*
X140050761Y-83644619D01*
X140195904Y-83596238D01*
X140244285Y-83547857D01*
X140244285Y-83209190D01*
X140050761Y-83209190D01*
X140679714Y-83644619D02*
X140679714Y-82628619D01*
X141260285Y-83644619D01*
X141260285Y-82628619D01*
X141744095Y-83644619D02*
X141744095Y-82628619D01*
X141986000Y-82628619D01*
X142131142Y-82677000D01*
X142227904Y-82773761D01*
X142276285Y-82870523D01*
X142324666Y-83064047D01*
X142324666Y-83209190D01*
X142276285Y-83402714D01*
X142227904Y-83499476D01*
X142131142Y-83596238D01*
X141986000Y-83644619D01*
X141744095Y-83644619D01*
X99555904Y-84582000D02*
X99459142Y-84533619D01*
X99314000Y-84533619D01*
X99168857Y-84582000D01*
X99072095Y-84678761D01*
X99023714Y-84775523D01*
X98975333Y-84969047D01*
X98975333Y-85114190D01*
X99023714Y-85307714D01*
X99072095Y-85404476D01*
X99168857Y-85501238D01*
X99314000Y-85549619D01*
X99410761Y-85549619D01*
X99555904Y-85501238D01*
X99604285Y-85452857D01*
X99604285Y-85114190D01*
X99410761Y-85114190D01*
X100039714Y-85549619D02*
X100039714Y-84533619D01*
X100620285Y-85549619D01*
X100620285Y-84533619D01*
X101104095Y-85549619D02*
X101104095Y-84533619D01*
X101346000Y-84533619D01*
X101491142Y-84582000D01*
X101587904Y-84678761D01*
X101636285Y-84775523D01*
X101684666Y-84969047D01*
X101684666Y-85114190D01*
X101636285Y-85307714D01*
X101587904Y-85404476D01*
X101491142Y-85501238D01*
X101346000Y-85549619D01*
X101104095Y-85549619D01*
X81195333Y-84533619D02*
X81534000Y-85549619D01*
X81872666Y-84533619D01*
X82211333Y-85549619D02*
X82211333Y-84533619D01*
X82453238Y-84533619D01*
X82598380Y-84582000D01*
X82695142Y-84678761D01*
X82743523Y-84775523D01*
X82791904Y-84969047D01*
X82791904Y-85114190D01*
X82743523Y-85307714D01*
X82695142Y-85404476D01*
X82598380Y-85501238D01*
X82453238Y-85549619D01*
X82211333Y-85549619D01*
X83227333Y-85549619D02*
X83227333Y-84533619D01*
X83469238Y-84533619D01*
X83614380Y-84582000D01*
X83711142Y-84678761D01*
X83759523Y-84775523D01*
X83807904Y-84969047D01*
X83807904Y-85114190D01*
X83759523Y-85307714D01*
X83711142Y-85404476D01*
X83614380Y-85501238D01*
X83469238Y-85549619D01*
X83227333Y-85549619D01*
D12*
X105518857Y-100196650D02*
X105518857Y-99035507D01*
X110598857Y-100196650D02*
X110598857Y-99035507D01*
X111179428Y-99616078D02*
X110018285Y-99616078D01*
X115247420Y-99902327D02*
X115247420Y-98672650D01*
X116731142Y-99325792D02*
X116803714Y-99108078D01*
X116876285Y-99035507D01*
X117021428Y-98962935D01*
X117239142Y-98962935D01*
X117384285Y-99035507D01*
X117456857Y-99108078D01*
X117529428Y-99253221D01*
X117529428Y-99833792D01*
X116005428Y-99833792D01*
X116005428Y-99325792D01*
X116078000Y-99180650D01*
X116150571Y-99108078D01*
X116295714Y-99035507D01*
X116440857Y-99035507D01*
X116586000Y-99108078D01*
X116658571Y-99180650D01*
X116731142Y-99325792D01*
X116731142Y-99833792D01*
X121811142Y-99325792D02*
X121883714Y-99108078D01*
X121956285Y-99035507D01*
X122101428Y-98962935D01*
X122319142Y-98962935D01*
X122464285Y-99035507D01*
X122536857Y-99108078D01*
X122609428Y-99253221D01*
X122609428Y-99833792D01*
X121085428Y-99833792D01*
X121085428Y-99325792D01*
X121158000Y-99180650D01*
X121230571Y-99108078D01*
X121375714Y-99035507D01*
X121520857Y-99035507D01*
X121666000Y-99108078D01*
X121738571Y-99180650D01*
X121811142Y-99325792D01*
X121811142Y-99833792D01*
X125407420Y-99684613D02*
X125407420Y-98672650D01*
X127254000Y-99688650D02*
X127254000Y-98962935D01*
X127689428Y-99833792D02*
X126165428Y-99325792D01*
X127689428Y-98817792D01*
D13*
X143510000Y-79375000D02*
X73660000Y-79375000D01*
X143510000Y-120015000D02*
X143510000Y-79375000D01*
X73660000Y-120015000D02*
X143510000Y-120015000D01*
X73660000Y-79375000D02*
X73660000Y-120015000D01*
D11*
X79737857Y-115394619D02*
X79737857Y-114378619D01*
X80173285Y-115394619D02*
X80173285Y-114862428D01*
X80124904Y-114765666D01*
X80028142Y-114717285D01*
X79883000Y-114717285D01*
X79786238Y-114765666D01*
X79737857Y-114814047D01*
X80511952Y-114717285D02*
X80899000Y-114717285D01*
X80657095Y-114378619D02*
X80657095Y-115249476D01*
X80705476Y-115346238D01*
X80802238Y-115394619D01*
X80899000Y-115394619D01*
X81092523Y-114717285D02*
X81479571Y-114717285D01*
X81237666Y-114378619D02*
X81237666Y-115249476D01*
X81286047Y-115346238D01*
X81382809Y-115394619D01*
X81479571Y-115394619D01*
X81818238Y-114717285D02*
X81818238Y-115733285D01*
X81818238Y-114765666D02*
X81915000Y-114717285D01*
X82108523Y-114717285D01*
X82205285Y-114765666D01*
X82253666Y-114814047D01*
X82302047Y-114910809D01*
X82302047Y-115201095D01*
X82253666Y-115297857D01*
X82205285Y-115346238D01*
X82108523Y-115394619D01*
X81915000Y-115394619D01*
X81818238Y-115346238D01*
X82689095Y-115346238D02*
X82785857Y-115394619D01*
X82979380Y-115394619D01*
X83076142Y-115346238D01*
X83124523Y-115249476D01*
X83124523Y-115201095D01*
X83076142Y-115104333D01*
X82979380Y-115055952D01*
X82834238Y-115055952D01*
X82737476Y-115007571D01*
X82689095Y-114910809D01*
X82689095Y-114862428D01*
X82737476Y-114765666D01*
X82834238Y-114717285D01*
X82979380Y-114717285D01*
X83076142Y-114765666D01*
X83559952Y-115297857D02*
X83608333Y-115346238D01*
X83559952Y-115394619D01*
X83511571Y-115346238D01*
X83559952Y-115297857D01*
X83559952Y-115394619D01*
X83559952Y-114765666D02*
X83608333Y-114814047D01*
X83559952Y-114862428D01*
X83511571Y-114814047D01*
X83559952Y-114765666D01*
X83559952Y-114862428D01*
X84769476Y-114330238D02*
X83898619Y-115636523D01*
X85833857Y-114330238D02*
X84963000Y-115636523D01*
X86607952Y-114717285D02*
X86607952Y-115539761D01*
X86559571Y-115636523D01*
X86511190Y-115684904D01*
X86414428Y-115733285D01*
X86269285Y-115733285D01*
X86172523Y-115684904D01*
X86607952Y-115346238D02*
X86511190Y-115394619D01*
X86317666Y-115394619D01*
X86220904Y-115346238D01*
X86172523Y-115297857D01*
X86124142Y-115201095D01*
X86124142Y-114910809D01*
X86172523Y-114814047D01*
X86220904Y-114765666D01*
X86317666Y-114717285D01*
X86511190Y-114717285D01*
X86607952Y-114765666D01*
X87091761Y-115394619D02*
X87091761Y-114717285D01*
X87091761Y-114378619D02*
X87043380Y-114427000D01*
X87091761Y-114475380D01*
X87140142Y-114427000D01*
X87091761Y-114378619D01*
X87091761Y-114475380D01*
X87430428Y-114717285D02*
X87817476Y-114717285D01*
X87575571Y-114378619D02*
X87575571Y-115249476D01*
X87623952Y-115346238D01*
X87720714Y-115394619D01*
X87817476Y-115394619D01*
X88156142Y-115394619D02*
X88156142Y-114378619D01*
X88591571Y-115394619D02*
X88591571Y-114862428D01*
X88543190Y-114765666D01*
X88446428Y-114717285D01*
X88301285Y-114717285D01*
X88204523Y-114765666D01*
X88156142Y-114814047D01*
X89510809Y-114717285D02*
X89510809Y-115394619D01*
X89075380Y-114717285D02*
X89075380Y-115249476D01*
X89123761Y-115346238D01*
X89220523Y-115394619D01*
X89365666Y-115394619D01*
X89462428Y-115346238D01*
X89510809Y-115297857D01*
X89994619Y-115394619D02*
X89994619Y-114378619D01*
X89994619Y-114765666D02*
X90091380Y-114717285D01*
X90284904Y-114717285D01*
X90381666Y-114765666D01*
X90430047Y-114814047D01*
X90478428Y-114910809D01*
X90478428Y-115201095D01*
X90430047Y-115297857D01*
X90381666Y-115346238D01*
X90284904Y-115394619D01*
X90091380Y-115394619D01*
X89994619Y-115346238D01*
X90913857Y-115297857D02*
X90962238Y-115346238D01*
X90913857Y-115394619D01*
X90865476Y-115346238D01*
X90913857Y-115297857D01*
X90913857Y-115394619D01*
X91833095Y-115346238D02*
X91736333Y-115394619D01*
X91542809Y-115394619D01*
X91446047Y-115346238D01*
X91397666Y-115297857D01*
X91349285Y-115201095D01*
X91349285Y-114910809D01*
X91397666Y-114814047D01*
X91446047Y-114765666D01*
X91542809Y-114717285D01*
X91736333Y-114717285D01*
X91833095Y-114765666D01*
X92413666Y-115394619D02*
X92316904Y-115346238D01*
X92268523Y-115297857D01*
X92220142Y-115201095D01*
X92220142Y-114910809D01*
X92268523Y-114814047D01*
X92316904Y-114765666D01*
X92413666Y-114717285D01*
X92558809Y-114717285D01*
X92655571Y-114765666D01*
X92703952Y-114814047D01*
X92752333Y-114910809D01*
X92752333Y-115201095D01*
X92703952Y-115297857D01*
X92655571Y-115346238D01*
X92558809Y-115394619D01*
X92413666Y-115394619D01*
X93187761Y-115394619D02*
X93187761Y-114717285D01*
X93187761Y-114814047D02*
X93236142Y-114765666D01*
X93332904Y-114717285D01*
X93478047Y-114717285D01*
X93574809Y-114765666D01*
X93623190Y-114862428D01*
X93623190Y-115394619D01*
X93623190Y-114862428D02*
X93671571Y-114765666D01*
X93768333Y-114717285D01*
X93913476Y-114717285D01*
X94010238Y-114765666D01*
X94058619Y-114862428D01*
X94058619Y-115394619D01*
X95268142Y-114330238D02*
X94397285Y-115636523D01*
X95606809Y-114717285D02*
X95606809Y-115588142D01*
X95558428Y-115684904D01*
X95461666Y-115733285D01*
X95413285Y-115733285D01*
X95606809Y-114378619D02*
X95558428Y-114427000D01*
X95606809Y-114475380D01*
X95655190Y-114427000D01*
X95606809Y-114378619D01*
X95606809Y-114475380D01*
X96526047Y-115394619D02*
X96526047Y-114862428D01*
X96477666Y-114765666D01*
X96380904Y-114717285D01*
X96187380Y-114717285D01*
X96090619Y-114765666D01*
X96526047Y-115346238D02*
X96429285Y-115394619D01*
X96187380Y-115394619D01*
X96090619Y-115346238D01*
X96042238Y-115249476D01*
X96042238Y-115152714D01*
X96090619Y-115055952D01*
X96187380Y-115007571D01*
X96429285Y-115007571D01*
X96526047Y-114959190D01*
X97009857Y-114717285D02*
X97009857Y-115394619D01*
X97009857Y-114814047D02*
X97058238Y-114765666D01*
X97155000Y-114717285D01*
X97300142Y-114717285D01*
X97396904Y-114765666D01*
X97445285Y-114862428D01*
X97445285Y-115394619D01*
X98316142Y-115346238D02*
X98219380Y-115394619D01*
X98025857Y-115394619D01*
X97929095Y-115346238D01*
X97880714Y-115249476D01*
X97880714Y-114862428D01*
X97929095Y-114765666D01*
X98025857Y-114717285D01*
X98219380Y-114717285D01*
X98316142Y-114765666D01*
X98364523Y-114862428D01*
X98364523Y-114959190D01*
X97880714Y-115055952D01*
X98945095Y-115394619D02*
X98848333Y-115346238D01*
X98799952Y-115249476D01*
X98799952Y-114378619D01*
X99332142Y-115394619D02*
X99332142Y-114717285D01*
X99332142Y-114378619D02*
X99283761Y-114427000D01*
X99332142Y-114475380D01*
X99380523Y-114427000D01*
X99332142Y-114378619D01*
X99332142Y-114475380D01*
X100251380Y-115394619D02*
X100251380Y-114862428D01*
X100203000Y-114765666D01*
X100106238Y-114717285D01*
X99912714Y-114717285D01*
X99815952Y-114765666D01*
X100251380Y-115346238D02*
X100154619Y-115394619D01*
X99912714Y-115394619D01*
X99815952Y-115346238D01*
X99767571Y-115249476D01*
X99767571Y-115152714D01*
X99815952Y-115055952D01*
X99912714Y-115007571D01*
X100154619Y-115007571D01*
X100251380Y-114959190D01*
X100735190Y-115007571D02*
X101509285Y-115007571D01*
X101993095Y-115394619D02*
X101993095Y-114717285D01*
X101993095Y-114814047D02*
X102041476Y-114765666D01*
X102138238Y-114717285D01*
X102283380Y-114717285D01*
X102380142Y-114765666D01*
X102428523Y-114862428D01*
X102428523Y-115394619D01*
X102428523Y-114862428D02*
X102476904Y-114765666D01*
X102573666Y-114717285D01*
X102718809Y-114717285D01*
X102815571Y-114765666D01*
X102863952Y-114862428D01*
X102863952Y-115394619D01*
X103492904Y-115394619D02*
X103396142Y-115346238D01*
X103347761Y-115297857D01*
X103299380Y-115201095D01*
X103299380Y-114910809D01*
X103347761Y-114814047D01*
X103396142Y-114765666D01*
X103492904Y-114717285D01*
X103638047Y-114717285D01*
X103734809Y-114765666D01*
X103783190Y-114814047D01*
X103831571Y-114910809D01*
X103831571Y-115201095D01*
X103783190Y-115297857D01*
X103734809Y-115346238D01*
X103638047Y-115394619D01*
X103492904Y-115394619D01*
X104702428Y-115394619D02*
X104702428Y-114378619D01*
X104702428Y-115346238D02*
X104605666Y-115394619D01*
X104412142Y-115394619D01*
X104315380Y-115346238D01*
X104267000Y-115297857D01*
X104218619Y-115201095D01*
X104218619Y-114910809D01*
X104267000Y-114814047D01*
X104315380Y-114765666D01*
X104412142Y-114717285D01*
X104605666Y-114717285D01*
X104702428Y-114765666D01*
X105621666Y-114717285D02*
X105621666Y-115394619D01*
X105186238Y-114717285D02*
X105186238Y-115249476D01*
X105234619Y-115346238D01*
X105331380Y-115394619D01*
X105476523Y-115394619D01*
X105573285Y-115346238D01*
X105621666Y-115297857D01*
X106250619Y-115394619D02*
X106153857Y-115346238D01*
X106105476Y-115249476D01*
X106105476Y-114378619D01*
X107073095Y-115394619D02*
X107073095Y-114862428D01*
X107024714Y-114765666D01*
X106927952Y-114717285D01*
X106734428Y-114717285D01*
X106637666Y-114765666D01*
X107073095Y-115346238D02*
X106976333Y-115394619D01*
X106734428Y-115394619D01*
X106637666Y-115346238D01*
X106589285Y-115249476D01*
X106589285Y-115152714D01*
X106637666Y-115055952D01*
X106734428Y-115007571D01*
X106976333Y-115007571D01*
X107073095Y-114959190D01*
X107556904Y-115394619D02*
X107556904Y-114717285D01*
X107556904Y-114910809D02*
X107605285Y-114814047D01*
X107653666Y-114765666D01*
X107750428Y-114717285D01*
X107847190Y-114717285D01*
X108185857Y-115007571D02*
X108959952Y-115007571D01*
X109879190Y-115394619D02*
X109879190Y-114378619D01*
X109879190Y-115346238D02*
X109782428Y-115394619D01*
X109588904Y-115394619D01*
X109492142Y-115346238D01*
X109443761Y-115297857D01*
X109395380Y-115201095D01*
X109395380Y-114910809D01*
X109443761Y-114814047D01*
X109492142Y-114765666D01*
X109588904Y-114717285D01*
X109782428Y-114717285D01*
X109879190Y-114765666D01*
X110750047Y-115346238D02*
X110653285Y-115394619D01*
X110459761Y-115394619D01*
X110363000Y-115346238D01*
X110314619Y-115249476D01*
X110314619Y-114862428D01*
X110363000Y-114765666D01*
X110459761Y-114717285D01*
X110653285Y-114717285D01*
X110750047Y-114765666D01*
X110798428Y-114862428D01*
X110798428Y-114959190D01*
X110314619Y-115055952D01*
X111137095Y-114717285D02*
X111379000Y-115394619D01*
X111620904Y-114717285D01*
X112007952Y-115394619D02*
X112007952Y-114717285D01*
X112007952Y-114378619D02*
X111959571Y-114427000D01*
X112007952Y-114475380D01*
X112056333Y-114427000D01*
X112007952Y-114378619D01*
X112007952Y-114475380D01*
X112927190Y-115346238D02*
X112830428Y-115394619D01*
X112636904Y-115394619D01*
X112540142Y-115346238D01*
X112491761Y-115297857D01*
X112443380Y-115201095D01*
X112443380Y-114910809D01*
X112491761Y-114814047D01*
X112540142Y-114765666D01*
X112636904Y-114717285D01*
X112830428Y-114717285D01*
X112927190Y-114765666D01*
X113749666Y-115346238D02*
X113652904Y-115394619D01*
X113459380Y-115394619D01*
X113362619Y-115346238D01*
X113314238Y-115249476D01*
X113314238Y-114862428D01*
X113362619Y-114765666D01*
X113459380Y-114717285D01*
X113652904Y-114717285D01*
X113749666Y-114765666D01*
X113798047Y-114862428D01*
X113798047Y-114959190D01*
X113314238Y-115055952D01*
X114185095Y-115346238D02*
X114281857Y-115394619D01*
X114475380Y-115394619D01*
X114572142Y-115346238D01*
X114620523Y-115249476D01*
X114620523Y-115201095D01*
X114572142Y-115104333D01*
X114475380Y-115055952D01*
X114330238Y-115055952D01*
X114233476Y-115007571D01*
X114185095Y-114910809D01*
X114185095Y-114862428D01*
X114233476Y-114765666D01*
X114330238Y-114717285D01*
X114475380Y-114717285D01*
X114572142Y-114765666D01*
X100686809Y-100154619D02*
X100203000Y-100154619D01*
X100203000Y-99138619D01*
X101025476Y-100154619D02*
X101025476Y-99477285D01*
X101025476Y-99138619D02*
X100977095Y-99187000D01*
X101025476Y-99235380D01*
X101073857Y-99187000D01*
X101025476Y-99138619D01*
X101025476Y-99235380D01*
X101944714Y-99477285D02*
X101944714Y-100299761D01*
X101896333Y-100396523D01*
X101847952Y-100444904D01*
X101751190Y-100493285D01*
X101606047Y-100493285D01*
X101509285Y-100444904D01*
X101944714Y-100106238D02*
X101847952Y-100154619D01*
X101654428Y-100154619D01*
X101557666Y-100106238D01*
X101509285Y-100057857D01*
X101460904Y-99961095D01*
X101460904Y-99670809D01*
X101509285Y-99574047D01*
X101557666Y-99525666D01*
X101654428Y-99477285D01*
X101847952Y-99477285D01*
X101944714Y-99525666D01*
X102428523Y-100154619D02*
X102428523Y-99138619D01*
X102863952Y-100154619D02*
X102863952Y-99622428D01*
X102815571Y-99525666D01*
X102718809Y-99477285D01*
X102573666Y-99477285D01*
X102476904Y-99525666D01*
X102428523Y-99574047D01*
X103202619Y-99477285D02*
X103589666Y-99477285D01*
X103347761Y-99138619D02*
X103347761Y-100009476D01*
X103396142Y-100106238D01*
X103492904Y-100154619D01*
X103589666Y-100154619D01*
X103879952Y-100106238D02*
X103976714Y-100154619D01*
X104170238Y-100154619D01*
X104267000Y-100106238D01*
X104315380Y-100009476D01*
X104315380Y-99961095D01*
X104267000Y-99864333D01*
X104170238Y-99815952D01*
X104025095Y-99815952D01*
X103928333Y-99767571D01*
X103879952Y-99670809D01*
X103879952Y-99622428D01*
X103928333Y-99525666D01*
X104025095Y-99477285D01*
X104170238Y-99477285D01*
X104267000Y-99525666D01*
D12*
X132334000Y-99688650D02*
X132334000Y-98962935D01*
X132769428Y-99833792D02*
X131245428Y-99325792D01*
X132769428Y-98817792D01*
D11*
X74246619Y-108089095D02*
X74972333Y-108089095D01*
X75117476Y-108137476D01*
X75214238Y-108234238D01*
X75262619Y-108379380D01*
X75262619Y-108476142D01*
X75262619Y-107169857D02*
X74730428Y-107169857D01*
X74633666Y-107218238D01*
X74585285Y-107315000D01*
X74585285Y-107508523D01*
X74633666Y-107605285D01*
X75214238Y-107169857D02*
X75262619Y-107266619D01*
X75262619Y-107508523D01*
X75214238Y-107605285D01*
X75117476Y-107653666D01*
X75020714Y-107653666D01*
X74923952Y-107605285D01*
X74875571Y-107508523D01*
X74875571Y-107266619D01*
X74827190Y-107169857D01*
X74585285Y-106686047D02*
X75262619Y-106686047D01*
X74682047Y-106686047D02*
X74633666Y-106637666D01*
X74585285Y-106540904D01*
X74585285Y-106395761D01*
X74633666Y-106299000D01*
X74730428Y-106250619D01*
X75262619Y-106250619D01*
X75214238Y-105379761D02*
X75262619Y-105476523D01*
X75262619Y-105670047D01*
X75214238Y-105766809D01*
X75117476Y-105815190D01*
X74730428Y-105815190D01*
X74633666Y-105766809D01*
X74585285Y-105670047D01*
X74585285Y-105476523D01*
X74633666Y-105379761D01*
X74730428Y-105331380D01*
X74827190Y-105331380D01*
X74923952Y-105815190D01*
X75262619Y-104750809D02*
X75214238Y-104847571D01*
X75117476Y-104895952D01*
X74246619Y-104895952D01*
X75262619Y-104363761D02*
X74585285Y-104363761D01*
X74246619Y-104363761D02*
X74295000Y-104412142D01*
X74343380Y-104363761D01*
X74295000Y-104315380D01*
X74246619Y-104363761D01*
X74343380Y-104363761D01*
X75262619Y-103444523D02*
X74730428Y-103444523D01*
X74633666Y-103492904D01*
X74585285Y-103589666D01*
X74585285Y-103783190D01*
X74633666Y-103879952D01*
X75214238Y-103444523D02*
X75262619Y-103541285D01*
X75262619Y-103783190D01*
X75214238Y-103879952D01*
X75117476Y-103928333D01*
X75020714Y-103928333D01*
X74923952Y-103879952D01*
X74875571Y-103783190D01*
X74875571Y-103541285D01*
X74827190Y-103444523D01*
X75262619Y-102186619D02*
X74246619Y-102186619D01*
X74972333Y-101847952D01*
X74246619Y-101509285D01*
X75262619Y-101509285D01*
X75262619Y-100880333D02*
X75214238Y-100977095D01*
X75165857Y-101025476D01*
X75069095Y-101073857D01*
X74778809Y-101073857D01*
X74682047Y-101025476D01*
X74633666Y-100977095D01*
X74585285Y-100880333D01*
X74585285Y-100735190D01*
X74633666Y-100638428D01*
X74682047Y-100590047D01*
X74778809Y-100541666D01*
X75069095Y-100541666D01*
X75165857Y-100590047D01*
X75214238Y-100638428D01*
X75262619Y-100735190D01*
X75262619Y-100880333D01*
X75262619Y-99670809D02*
X74246619Y-99670809D01*
X75214238Y-99670809D02*
X75262619Y-99767571D01*
X75262619Y-99961095D01*
X75214238Y-100057857D01*
X75165857Y-100106238D01*
X75069095Y-100154619D01*
X74778809Y-100154619D01*
X74682047Y-100106238D01*
X74633666Y-100057857D01*
X74585285Y-99961095D01*
X74585285Y-99767571D01*
X74633666Y-99670809D01*
X74585285Y-98751571D02*
X75262619Y-98751571D01*
X74585285Y-99187000D02*
X75117476Y-99187000D01*
X75214238Y-99138619D01*
X75262619Y-99041857D01*
X75262619Y-98896714D01*
X75214238Y-98799952D01*
X75165857Y-98751571D01*
X75262619Y-98122619D02*
X75214238Y-98219380D01*
X75117476Y-98267761D01*
X74246619Y-98267761D01*
X75262619Y-97300142D02*
X74730428Y-97300142D01*
X74633666Y-97348523D01*
X74585285Y-97445285D01*
X74585285Y-97638809D01*
X74633666Y-97735571D01*
X75214238Y-97300142D02*
X75262619Y-97396904D01*
X75262619Y-97638809D01*
X75214238Y-97735571D01*
X75117476Y-97783952D01*
X75020714Y-97783952D01*
X74923952Y-97735571D01*
X74875571Y-97638809D01*
X74875571Y-97396904D01*
X74827190Y-97300142D01*
X75262619Y-96816333D02*
X74585285Y-96816333D01*
X74778809Y-96816333D02*
X74682047Y-96767952D01*
X74633666Y-96719571D01*
X74585285Y-96622809D01*
X74585285Y-96526047D01*
X75262619Y-95413285D02*
X74246619Y-95413285D01*
X74246619Y-95171380D01*
X74295000Y-95026238D01*
X74391761Y-94929476D01*
X74488523Y-94881095D01*
X74682047Y-94832714D01*
X74827190Y-94832714D01*
X75020714Y-94881095D01*
X75117476Y-94929476D01*
X75214238Y-95026238D01*
X75262619Y-95171380D01*
X75262619Y-95413285D01*
X75214238Y-94010238D02*
X75262619Y-94107000D01*
X75262619Y-94300523D01*
X75214238Y-94397285D01*
X75117476Y-94445666D01*
X74730428Y-94445666D01*
X74633666Y-94397285D01*
X74585285Y-94300523D01*
X74585285Y-94107000D01*
X74633666Y-94010238D01*
X74730428Y-93961857D01*
X74827190Y-93961857D01*
X74923952Y-94445666D01*
X74585285Y-93623190D02*
X75262619Y-93381285D01*
X74585285Y-93139380D01*
X75262619Y-92752333D02*
X74585285Y-92752333D01*
X74246619Y-92752333D02*
X74295000Y-92800714D01*
X74343380Y-92752333D01*
X74295000Y-92703952D01*
X74246619Y-92752333D01*
X74343380Y-92752333D01*
X75214238Y-91833095D02*
X75262619Y-91929857D01*
X75262619Y-92123380D01*
X75214238Y-92220142D01*
X75165857Y-92268523D01*
X75069095Y-92316904D01*
X74778809Y-92316904D01*
X74682047Y-92268523D01*
X74633666Y-92220142D01*
X74585285Y-92123380D01*
X74585285Y-91929857D01*
X74633666Y-91833095D01*
X75214238Y-91010619D02*
X75262619Y-91107380D01*
X75262619Y-91300904D01*
X75214238Y-91397666D01*
X75117476Y-91446047D01*
X74730428Y-91446047D01*
X74633666Y-91397666D01*
X74585285Y-91300904D01*
X74585285Y-91107380D01*
X74633666Y-91010619D01*
X74730428Y-90962238D01*
X74827190Y-90962238D01*
X74923952Y-91446047D01*
X76992238Y-106395761D02*
X77040619Y-106299000D01*
X77040619Y-106105476D01*
X76992238Y-106008714D01*
X76895476Y-105960333D01*
X76847095Y-105960333D01*
X76750333Y-106008714D01*
X76701952Y-106105476D01*
X76701952Y-106250619D01*
X76653571Y-106347380D01*
X76556809Y-106395761D01*
X76508428Y-106395761D01*
X76411666Y-106347380D01*
X76363285Y-106250619D01*
X76363285Y-106105476D01*
X76411666Y-106008714D01*
X76363285Y-105670047D02*
X76363285Y-105283000D01*
X76024619Y-105524904D02*
X76895476Y-105524904D01*
X76992238Y-105476523D01*
X77040619Y-105379761D01*
X77040619Y-105283000D01*
X76992238Y-104557285D02*
X77040619Y-104654047D01*
X77040619Y-104847571D01*
X76992238Y-104944333D01*
X76895476Y-104992714D01*
X76508428Y-104992714D01*
X76411666Y-104944333D01*
X76363285Y-104847571D01*
X76363285Y-104654047D01*
X76411666Y-104557285D01*
X76508428Y-104508904D01*
X76605190Y-104508904D01*
X76701952Y-104992714D01*
X76363285Y-104073476D02*
X77379285Y-104073476D01*
X76411666Y-104073476D02*
X76363285Y-103976714D01*
X76363285Y-103783190D01*
X76411666Y-103686428D01*
X76460047Y-103638047D01*
X76556809Y-103589666D01*
X76847095Y-103589666D01*
X76943857Y-103638047D01*
X76992238Y-103686428D01*
X77040619Y-103783190D01*
X77040619Y-103976714D01*
X76992238Y-104073476D01*
X76363285Y-103154238D02*
X77379285Y-103154238D01*
X76411666Y-103154238D02*
X76363285Y-103057476D01*
X76363285Y-102863952D01*
X76411666Y-102767190D01*
X76460047Y-102718809D01*
X76556809Y-102670428D01*
X76847095Y-102670428D01*
X76943857Y-102718809D01*
X76992238Y-102767190D01*
X77040619Y-102863952D01*
X77040619Y-103057476D01*
X76992238Y-103154238D01*
X76992238Y-101847952D02*
X77040619Y-101944714D01*
X77040619Y-102138238D01*
X76992238Y-102235000D01*
X76895476Y-102283380D01*
X76508428Y-102283380D01*
X76411666Y-102235000D01*
X76363285Y-102138238D01*
X76363285Y-101944714D01*
X76411666Y-101847952D01*
X76508428Y-101799571D01*
X76605190Y-101799571D01*
X76701952Y-102283380D01*
X77040619Y-101364142D02*
X76363285Y-101364142D01*
X76556809Y-101364142D02*
X76460047Y-101315761D01*
X76411666Y-101267380D01*
X76363285Y-101170619D01*
X76363285Y-101073857D01*
X77137380Y-100977095D02*
X77137380Y-100203000D01*
X76992238Y-99525666D02*
X77040619Y-99622428D01*
X77040619Y-99815952D01*
X76992238Y-99912714D01*
X76943857Y-99961095D01*
X76847095Y-100009476D01*
X76556809Y-100009476D01*
X76460047Y-99961095D01*
X76411666Y-99912714D01*
X76363285Y-99815952D01*
X76363285Y-99622428D01*
X76411666Y-99525666D01*
X77040619Y-98945095D02*
X76992238Y-99041857D01*
X76943857Y-99090238D01*
X76847095Y-99138619D01*
X76556809Y-99138619D01*
X76460047Y-99090238D01*
X76411666Y-99041857D01*
X76363285Y-98945095D01*
X76363285Y-98799952D01*
X76411666Y-98703190D01*
X76460047Y-98654809D01*
X76556809Y-98606428D01*
X76847095Y-98606428D01*
X76943857Y-98654809D01*
X76992238Y-98703190D01*
X77040619Y-98799952D01*
X77040619Y-98945095D01*
X76363285Y-98171000D02*
X77040619Y-98171000D01*
X76460047Y-98171000D02*
X76411666Y-98122619D01*
X76363285Y-98025857D01*
X76363285Y-97880714D01*
X76411666Y-97783952D01*
X76508428Y-97735571D01*
X77040619Y-97735571D01*
X76363285Y-97396904D02*
X76363285Y-97009857D01*
X76024619Y-97251761D02*
X76895476Y-97251761D01*
X76992238Y-97203380D01*
X77040619Y-97106619D01*
X77040619Y-97009857D01*
X77040619Y-96671190D02*
X76363285Y-96671190D01*
X76556809Y-96671190D02*
X76460047Y-96622809D01*
X76411666Y-96574428D01*
X76363285Y-96477666D01*
X76363285Y-96380904D01*
X77040619Y-95897095D02*
X76992238Y-95993857D01*
X76943857Y-96042238D01*
X76847095Y-96090619D01*
X76556809Y-96090619D01*
X76460047Y-96042238D01*
X76411666Y-95993857D01*
X76363285Y-95897095D01*
X76363285Y-95751952D01*
X76411666Y-95655190D01*
X76460047Y-95606809D01*
X76556809Y-95558428D01*
X76847095Y-95558428D01*
X76943857Y-95606809D01*
X76992238Y-95655190D01*
X77040619Y-95751952D01*
X77040619Y-95897095D01*
X77040619Y-94977857D02*
X76992238Y-95074619D01*
X76895476Y-95123000D01*
X76024619Y-95123000D01*
X77040619Y-94445666D02*
X76992238Y-94542428D01*
X76895476Y-94590809D01*
X76024619Y-94590809D01*
X76992238Y-93671571D02*
X77040619Y-93768333D01*
X77040619Y-93961857D01*
X76992238Y-94058619D01*
X76895476Y-94107000D01*
X76508428Y-94107000D01*
X76411666Y-94058619D01*
X76363285Y-93961857D01*
X76363285Y-93768333D01*
X76411666Y-93671571D01*
X76508428Y-93623190D01*
X76605190Y-93623190D01*
X76701952Y-94107000D01*
X77040619Y-93187761D02*
X76363285Y-93187761D01*
X76556809Y-93187761D02*
X76460047Y-93139380D01*
X76411666Y-93091000D01*
X76363285Y-92994238D01*
X76363285Y-92897476D01*
X78818619Y-107508523D02*
X78141285Y-107508523D01*
X78238047Y-107508523D02*
X78189666Y-107460142D01*
X78141285Y-107363380D01*
X78141285Y-107218238D01*
X78189666Y-107121476D01*
X78286428Y-107073095D01*
X78818619Y-107073095D01*
X78286428Y-107073095D02*
X78189666Y-107024714D01*
X78141285Y-106927952D01*
X78141285Y-106782809D01*
X78189666Y-106686047D01*
X78286428Y-106637666D01*
X78818619Y-106637666D01*
X78818619Y-106008714D02*
X78770238Y-106105476D01*
X78721857Y-106153857D01*
X78625095Y-106202238D01*
X78334809Y-106202238D01*
X78238047Y-106153857D01*
X78189666Y-106105476D01*
X78141285Y-106008714D01*
X78141285Y-105863571D01*
X78189666Y-105766809D01*
X78238047Y-105718428D01*
X78334809Y-105670047D01*
X78625095Y-105670047D01*
X78721857Y-105718428D01*
X78770238Y-105766809D01*
X78818619Y-105863571D01*
X78818619Y-106008714D01*
X78818619Y-104799190D02*
X77802619Y-104799190D01*
X78770238Y-104799190D02*
X78818619Y-104895952D01*
X78818619Y-105089476D01*
X78770238Y-105186238D01*
X78721857Y-105234619D01*
X78625095Y-105283000D01*
X78334809Y-105283000D01*
X78238047Y-105234619D01*
X78189666Y-105186238D01*
X78141285Y-105089476D01*
X78141285Y-104895952D01*
X78189666Y-104799190D01*
X78770238Y-103928333D02*
X78818619Y-104025095D01*
X78818619Y-104218619D01*
X78770238Y-104315380D01*
X78673476Y-104363761D01*
X78286428Y-104363761D01*
X78189666Y-104315380D01*
X78141285Y-104218619D01*
X78141285Y-104025095D01*
X78189666Y-103928333D01*
X78286428Y-103879952D01*
X78383190Y-103879952D01*
X78479952Y-104363761D01*
X78818619Y-103299380D02*
X78770238Y-103396142D01*
X78673476Y-103444523D01*
X77802619Y-103444523D01*
X78915380Y-103154238D02*
X78915380Y-102380142D01*
X78141285Y-102138238D02*
X78818619Y-102138238D01*
X78238047Y-102138238D02*
X78189666Y-102089857D01*
X78141285Y-101993095D01*
X78141285Y-101847952D01*
X78189666Y-101751190D01*
X78286428Y-101702809D01*
X78818619Y-101702809D01*
X78141285Y-100783571D02*
X78818619Y-100783571D01*
X78141285Y-101219000D02*
X78673476Y-101219000D01*
X78770238Y-101170619D01*
X78818619Y-101073857D01*
X78818619Y-100928714D01*
X78770238Y-100831952D01*
X78721857Y-100783571D01*
X78818619Y-100299761D02*
X78141285Y-100299761D01*
X78238047Y-100299761D02*
X78189666Y-100251380D01*
X78141285Y-100154619D01*
X78141285Y-100009476D01*
X78189666Y-99912714D01*
X78286428Y-99864333D01*
X78818619Y-99864333D01*
X78286428Y-99864333D02*
X78189666Y-99815952D01*
X78141285Y-99719190D01*
X78141285Y-99574047D01*
X78189666Y-99477285D01*
X78286428Y-99428904D01*
X78818619Y-99428904D01*
X78818619Y-98945095D02*
X77802619Y-98945095D01*
X78189666Y-98945095D02*
X78141285Y-98848333D01*
X78141285Y-98654809D01*
X78189666Y-98558047D01*
X78238047Y-98509666D01*
X78334809Y-98461285D01*
X78625095Y-98461285D01*
X78721857Y-98509666D01*
X78770238Y-98558047D01*
X78818619Y-98654809D01*
X78818619Y-98848333D01*
X78770238Y-98945095D01*
X78770238Y-97638809D02*
X78818619Y-97735571D01*
X78818619Y-97929095D01*
X78770238Y-98025857D01*
X78673476Y-98074238D01*
X78286428Y-98074238D01*
X78189666Y-98025857D01*
X78141285Y-97929095D01*
X78141285Y-97735571D01*
X78189666Y-97638809D01*
X78286428Y-97590428D01*
X78383190Y-97590428D01*
X78479952Y-98074238D01*
X78818619Y-97155000D02*
X78141285Y-97155000D01*
X78334809Y-97155000D02*
X78238047Y-97106619D01*
X78189666Y-97058238D01*
X78141285Y-96961476D01*
X78141285Y-96864714D01*
X78721857Y-96526047D02*
X78770238Y-96477666D01*
X78818619Y-96526047D01*
X78770238Y-96574428D01*
X78721857Y-96526047D01*
X78818619Y-96526047D01*
X78189666Y-96526047D02*
X78238047Y-96477666D01*
X78286428Y-96526047D01*
X78238047Y-96574428D01*
X78189666Y-96526047D01*
X78286428Y-96526047D01*
X78818619Y-94735952D02*
X78818619Y-95316523D01*
X78818619Y-95026238D02*
X77802619Y-95026238D01*
X77947761Y-95123000D01*
X78044523Y-95219761D01*
X78092904Y-95316523D01*
X78818619Y-93768333D02*
X78818619Y-94348904D01*
X78818619Y-94058619D02*
X77802619Y-94058619D01*
X77947761Y-94155380D01*
X78044523Y-94252142D01*
X78092904Y-94348904D01*
X78141285Y-92897476D02*
X78818619Y-92897476D01*
X77754238Y-93139380D02*
X78479952Y-93381285D01*
X78479952Y-92752333D01*
X78818619Y-91833095D02*
X78818619Y-92413666D01*
X78818619Y-92123380D02*
X77802619Y-92123380D01*
X77947761Y-92220142D01*
X78044523Y-92316904D01*
X78092904Y-92413666D01*
X79580619Y-108621285D02*
X79580619Y-108524523D01*
X79629000Y-108427761D01*
X79677380Y-108379380D01*
X79774142Y-108331000D01*
X79967666Y-108282619D01*
X80209571Y-108282619D01*
X80403095Y-108331000D01*
X80499857Y-108379380D01*
X80548238Y-108427761D01*
X80596619Y-108524523D01*
X80596619Y-108621285D01*
X80548238Y-108718047D01*
X80499857Y-108766428D01*
X80403095Y-108814809D01*
X80209571Y-108863190D01*
X79967666Y-108863190D01*
X79774142Y-108814809D01*
X79677380Y-108766428D01*
X79629000Y-108718047D01*
X79580619Y-108621285D01*
X80016047Y-107702047D02*
X79967666Y-107798809D01*
X79919285Y-107847190D01*
X79822523Y-107895571D01*
X79774142Y-107895571D01*
X79677380Y-107847190D01*
X79629000Y-107798809D01*
X79580619Y-107702047D01*
X79580619Y-107508523D01*
X79629000Y-107411761D01*
X79677380Y-107363380D01*
X79774142Y-107315000D01*
X79822523Y-107315000D01*
X79919285Y-107363380D01*
X79967666Y-107411761D01*
X80016047Y-107508523D01*
X80016047Y-107702047D01*
X80064428Y-107798809D01*
X80112809Y-107847190D01*
X80209571Y-107895571D01*
X80403095Y-107895571D01*
X80499857Y-107847190D01*
X80548238Y-107798809D01*
X80596619Y-107702047D01*
X80596619Y-107508523D01*
X80548238Y-107411761D01*
X80499857Y-107363380D01*
X80403095Y-107315000D01*
X80209571Y-107315000D01*
X80112809Y-107363380D01*
X80064428Y-107411761D01*
X80016047Y-107508523D01*
X79532238Y-106153857D02*
X80838523Y-107024714D01*
X79677380Y-105863571D02*
X79629000Y-105815190D01*
X79580619Y-105718428D01*
X79580619Y-105476523D01*
X79629000Y-105379761D01*
X79677380Y-105331380D01*
X79774142Y-105283000D01*
X79870904Y-105283000D01*
X80016047Y-105331380D01*
X80596619Y-105911952D01*
X80596619Y-105283000D01*
X79580619Y-104654047D02*
X79580619Y-104557285D01*
X79629000Y-104460523D01*
X79677380Y-104412142D01*
X79774142Y-104363761D01*
X79967666Y-104315380D01*
X80209571Y-104315380D01*
X80403095Y-104363761D01*
X80499857Y-104412142D01*
X80548238Y-104460523D01*
X80596619Y-104557285D01*
X80596619Y-104654047D01*
X80548238Y-104750809D01*
X80499857Y-104799190D01*
X80403095Y-104847571D01*
X80209571Y-104895952D01*
X79967666Y-104895952D01*
X79774142Y-104847571D01*
X79677380Y-104799190D01*
X79629000Y-104750809D01*
X79580619Y-104654047D01*
X80596619Y-103347761D02*
X80596619Y-103928333D01*
X80596619Y-103638047D02*
X79580619Y-103638047D01*
X79725761Y-103734809D01*
X79822523Y-103831571D01*
X79870904Y-103928333D01*
X79580619Y-102476904D02*
X79580619Y-102670428D01*
X79629000Y-102767190D01*
X79677380Y-102815571D01*
X79822523Y-102912333D01*
X80016047Y-102960714D01*
X80403095Y-102960714D01*
X80499857Y-102912333D01*
X80548238Y-102863952D01*
X80596619Y-102767190D01*
X80596619Y-102573666D01*
X80548238Y-102476904D01*
X80499857Y-102428523D01*
X80403095Y-102380142D01*
X80161190Y-102380142D01*
X80064428Y-102428523D01*
X80016047Y-102476904D01*
X79967666Y-102573666D01*
X79967666Y-102767190D01*
X80016047Y-102863952D01*
X80064428Y-102912333D01*
X80161190Y-102960714D01*
X79919285Y-101267380D02*
X80596619Y-101025476D01*
X79919285Y-100783571D01*
X80548238Y-100009476D02*
X80596619Y-100106238D01*
X80596619Y-100299761D01*
X80548238Y-100396523D01*
X80451476Y-100444904D01*
X80064428Y-100444904D01*
X79967666Y-100396523D01*
X79919285Y-100299761D01*
X79919285Y-100106238D01*
X79967666Y-100009476D01*
X80064428Y-99961095D01*
X80161190Y-99961095D01*
X80257952Y-100444904D01*
X80596619Y-99525666D02*
X79919285Y-99525666D01*
X80112809Y-99525666D02*
X80016047Y-99477285D01*
X79967666Y-99428904D01*
X79919285Y-99332142D01*
X79919285Y-99235380D01*
X80596619Y-97590428D02*
X80596619Y-98171000D01*
X80596619Y-97880714D02*
X79580619Y-97880714D01*
X79725761Y-97977476D01*
X79822523Y-98074238D01*
X79870904Y-98171000D01*
X80499857Y-97155000D02*
X80548238Y-97106619D01*
X80596619Y-97155000D01*
X80548238Y-97203380D01*
X80499857Y-97155000D01*
X80596619Y-97155000D01*
X79580619Y-96477666D02*
X79580619Y-96380904D01*
X79629000Y-96284142D01*
X79677380Y-96235761D01*
X79774142Y-96187380D01*
X79967666Y-96139000D01*
X80209571Y-96139000D01*
X80403095Y-96187380D01*
X80499857Y-96235761D01*
X80548238Y-96284142D01*
X80596619Y-96380904D01*
X80596619Y-96477666D01*
X80548238Y-96574428D01*
X80499857Y-96622809D01*
X80403095Y-96671190D01*
X80209571Y-96719571D01*
X79967666Y-96719571D01*
X79774142Y-96671190D01*
X79677380Y-96622809D01*
X79629000Y-96574428D01*
X79580619Y-96477666D01*
X79919285Y-95074619D02*
X79919285Y-94687571D01*
X79580619Y-94929476D02*
X80451476Y-94929476D01*
X80548238Y-94881095D01*
X80596619Y-94784333D01*
X80596619Y-94687571D01*
X80548238Y-93961857D02*
X80596619Y-94058619D01*
X80596619Y-94252142D01*
X80548238Y-94348904D01*
X80451476Y-94397285D01*
X80064428Y-94397285D01*
X79967666Y-94348904D01*
X79919285Y-94252142D01*
X79919285Y-94058619D01*
X79967666Y-93961857D01*
X80064428Y-93913476D01*
X80161190Y-93913476D01*
X80257952Y-94397285D01*
X80548238Y-93091000D02*
X80596619Y-93187761D01*
X80596619Y-93381285D01*
X80548238Y-93478047D01*
X80451476Y-93526428D01*
X80064428Y-93526428D01*
X79967666Y-93478047D01*
X79919285Y-93381285D01*
X79919285Y-93187761D01*
X79967666Y-93091000D01*
X80064428Y-93042619D01*
X80161190Y-93042619D01*
X80257952Y-93526428D01*
X79919285Y-92607190D02*
X80596619Y-92607190D01*
X80016047Y-92607190D02*
X79967666Y-92558809D01*
X79919285Y-92462047D01*
X79919285Y-92316904D01*
X79967666Y-92220142D01*
X80064428Y-92171761D01*
X80596619Y-92171761D01*
X80548238Y-91736333D02*
X80596619Y-91639571D01*
X80596619Y-91446047D01*
X80548238Y-91349285D01*
X80451476Y-91300904D01*
X80403095Y-91300904D01*
X80306333Y-91349285D01*
X80257952Y-91446047D01*
X80257952Y-91591190D01*
X80209571Y-91687952D01*
X80112809Y-91736333D01*
X80064428Y-91736333D01*
X79967666Y-91687952D01*
X79919285Y-91591190D01*
X79919285Y-91446047D01*
X79967666Y-91349285D01*
X79919285Y-90962238D02*
X80596619Y-90720333D01*
X79919285Y-90478428D02*
X80596619Y-90720333D01*
X80838523Y-90817095D01*
X80886904Y-90865476D01*
X80935285Y-90962238D01*
D12*
X99695000Y-102235000D02*
X104775000Y-102235000D01*
X104775000Y-102235000D02*
X104775000Y-112395000D01*
X104775000Y-112395000D02*
X99695000Y-112395000D01*
X99695000Y-112395000D02*
X99695000Y-102235000D01*
D13*
X80010000Y-86995000D02*
G75*
G03X80010000Y-86995000I-2540000J0D01*
G01*
X80010000Y-112395000D02*
G75*
G03X80010000Y-112395000I-2540000J0D01*
G01*
X120650000Y-117475000D02*
G75*
G03X120650000Y-117475000I-2540000J0D01*
G01*
X120650000Y-81915000D02*
G75*
G03X120650000Y-81915000I-2540000J0D01*
G01*
D12*
X110490000Y-112395000D02*
X116840000Y-112395000D01*
X110490000Y-108585000D02*
X116840000Y-108585000D01*
X110490000Y-106680000D02*
X116840000Y-106680000D01*
X114300000Y-107315000D02*
X114935000Y-108585000D01*
X114935000Y-108585000D02*
X115570000Y-107315000D01*
X115570000Y-107315000D02*
X114300000Y-107315000D01*
X116840000Y-106680000D02*
X116840000Y-108585000D01*
X110490000Y-106680000D02*
X110490000Y-108585000D01*
X110490000Y-108585000D02*
X110490000Y-112395000D01*
X116840000Y-112395000D02*
X116840000Y-108585000D01*
X136525000Y-115443000D02*
X137287000Y-116459000D01*
X136525000Y-114173000D02*
X136525000Y-115443000D01*
X136525000Y-118237000D02*
X136525000Y-116967000D01*
X139065000Y-114173000D02*
X133985000Y-114173000D01*
X139065000Y-118237000D02*
X133985000Y-118237000D01*
X140081000Y-119507000D02*
X140081000Y-112903000D01*
X140081000Y-112903000D02*
X132969000Y-112903000D01*
X132969000Y-112903000D02*
X132969000Y-119507000D01*
X132969000Y-119507000D02*
X140081000Y-119507000D01*
X134620000Y-97790000D02*
X114300000Y-97790000D01*
X114300000Y-97790000D02*
X114300000Y-85090000D01*
X134620000Y-85090000D02*
X114300000Y-85090000D01*
X134620000Y-97790000D02*
X134620000Y-85090000D01*
X113030000Y-97790000D02*
X102870000Y-97790000D01*
X102870000Y-97790000D02*
X102870000Y-85090000D01*
X113030000Y-85090000D02*
X102870000Y-85090000D01*
X113030000Y-97790000D02*
X113030000Y-85090000D01*
X98940000Y-113545000D02*
X98940000Y-98545000D01*
X98940000Y-98545000D02*
X83940000Y-98545000D01*
X83940000Y-98545000D02*
X83940000Y-113545000D01*
X83940000Y-113545000D02*
X98940000Y-113545000D01*
D14*
X97440000Y-93190000D02*
X97440000Y-89690000D01*
X97190000Y-93940000D02*
X97190000Y-88940000D01*
X96940000Y-94440000D02*
X96940000Y-88440000D01*
X96690000Y-94740000D02*
X96690000Y-88140000D01*
X96440000Y-95190000D02*
X96440000Y-87690000D01*
X96190000Y-95440000D02*
X96190000Y-87440000D01*
X95940000Y-95690000D02*
X95940000Y-87190000D01*
X95690000Y-95940000D02*
X95690000Y-86940000D01*
X95440000Y-96190000D02*
X95440000Y-86690000D01*
X97940000Y-97940000D02*
X85940000Y-97940000D01*
X85940000Y-97940000D02*
X84940000Y-96940000D01*
X84940000Y-96940000D02*
X84940000Y-85940000D01*
X84940000Y-85940000D02*
X85940000Y-84940000D01*
X85940000Y-84940000D02*
X97940000Y-84940000D01*
X97940000Y-97940000D02*
X97940000Y-84940000D01*
X97690000Y-91440000D02*
G75*
G03X97690000Y-91440000I-6250000J0D01*
G01*
D11*
X106456238Y-108669666D02*
X106504619Y-108524523D01*
X106504619Y-108282619D01*
X106456238Y-108185857D01*
X106407857Y-108137476D01*
X106311095Y-108089095D01*
X106214333Y-108089095D01*
X106117571Y-108137476D01*
X106069190Y-108185857D01*
X106020809Y-108282619D01*
X105972428Y-108476142D01*
X105924047Y-108572904D01*
X105875666Y-108621285D01*
X105778904Y-108669666D01*
X105682142Y-108669666D01*
X105585380Y-108621285D01*
X105537000Y-108572904D01*
X105488619Y-108476142D01*
X105488619Y-108234238D01*
X105537000Y-108089095D01*
X105488619Y-107750428D02*
X106504619Y-107508523D01*
X105778904Y-107315000D01*
X106504619Y-107121476D01*
X105488619Y-106879571D01*
X106504619Y-105960333D02*
X106504619Y-106540904D01*
X106504619Y-106250619D02*
X105488619Y-106250619D01*
X105633761Y-106347380D01*
X105730523Y-106444142D01*
X105778904Y-106540904D01*
X101267380Y-112854619D02*
X101460904Y-112854619D01*
X101557666Y-112903000D01*
X101654428Y-112999761D01*
X101702809Y-113193285D01*
X101702809Y-113531952D01*
X101654428Y-113725476D01*
X101557666Y-113822238D01*
X101460904Y-113870619D01*
X101267380Y-113870619D01*
X101170619Y-113822238D01*
X101073857Y-113725476D01*
X101025476Y-113531952D01*
X101025476Y-113193285D01*
X101073857Y-112999761D01*
X101170619Y-112903000D01*
X101267380Y-112854619D01*
X102476904Y-113338428D02*
X102138238Y-113338428D01*
X102138238Y-113870619D02*
X102138238Y-112854619D01*
X102622047Y-112854619D01*
X103347761Y-113338428D02*
X103009095Y-113338428D01*
X103009095Y-113870619D02*
X103009095Y-112854619D01*
X103492904Y-112854619D01*
X101606047Y-100789619D02*
X101799571Y-100789619D01*
X101896333Y-100838000D01*
X101993095Y-100934761D01*
X102041476Y-101128285D01*
X102041476Y-101466952D01*
X101993095Y-101660476D01*
X101896333Y-101757238D01*
X101799571Y-101805619D01*
X101606047Y-101805619D01*
X101509285Y-101757238D01*
X101412523Y-101660476D01*
X101364142Y-101466952D01*
X101364142Y-101128285D01*
X101412523Y-100934761D01*
X101509285Y-100838000D01*
X101606047Y-100789619D01*
X102476904Y-101805619D02*
X102476904Y-100789619D01*
X103057476Y-101805619D01*
X103057476Y-100789619D01*
X109631238Y-111264095D02*
X109679619Y-111118952D01*
X109679619Y-110877047D01*
X109631238Y-110780285D01*
X109582857Y-110731904D01*
X109486095Y-110683523D01*
X109389333Y-110683523D01*
X109292571Y-110731904D01*
X109244190Y-110780285D01*
X109195809Y-110877047D01*
X109147428Y-111070571D01*
X109099047Y-111167333D01*
X109050666Y-111215714D01*
X108953904Y-111264095D01*
X108857142Y-111264095D01*
X108760380Y-111215714D01*
X108712000Y-111167333D01*
X108663619Y-111070571D01*
X108663619Y-110828666D01*
X108712000Y-110683523D01*
X109679619Y-109715904D02*
X109679619Y-110296476D01*
X109679619Y-110006190D02*
X108663619Y-110006190D01*
X108808761Y-110102952D01*
X108905523Y-110199714D01*
X108953904Y-110296476D01*
X129328333Y-116616238D02*
X129473476Y-116664619D01*
X129715380Y-116664619D01*
X129812142Y-116616238D01*
X129860523Y-116567857D01*
X129908904Y-116471095D01*
X129908904Y-116374333D01*
X129860523Y-116277571D01*
X129812142Y-116229190D01*
X129715380Y-116180809D01*
X129521857Y-116132428D01*
X129425095Y-116084047D01*
X129376714Y-116035666D01*
X129328333Y-115938904D01*
X129328333Y-115842142D01*
X129376714Y-115745380D01*
X129425095Y-115697000D01*
X129521857Y-115648619D01*
X129763761Y-115648619D01*
X129908904Y-115697000D01*
X130247571Y-115648619D02*
X130489476Y-116664619D01*
X130683000Y-115938904D01*
X130876523Y-116664619D01*
X131118428Y-115648619D01*
X131408714Y-115648619D02*
X132037666Y-115648619D01*
X131699000Y-116035666D01*
X131844142Y-116035666D01*
X131940904Y-116084047D01*
X131989285Y-116132428D01*
X132037666Y-116229190D01*
X132037666Y-116471095D01*
X131989285Y-116567857D01*
X131940904Y-116616238D01*
X131844142Y-116664619D01*
X131553857Y-116664619D01*
X131457095Y-116616238D01*
X131408714Y-116567857D01*
X140722047Y-116374333D02*
X141205857Y-116374333D01*
X140625285Y-116664619D02*
X140963952Y-115648619D01*
X141302619Y-116664619D01*
X142221857Y-116567857D02*
X142173476Y-116616238D01*
X142028333Y-116664619D01*
X141931571Y-116664619D01*
X141786428Y-116616238D01*
X141689666Y-116519476D01*
X141641285Y-116422714D01*
X141592904Y-116229190D01*
X141592904Y-116084047D01*
X141641285Y-115890523D01*
X141689666Y-115793761D01*
X141786428Y-115697000D01*
X141931571Y-115648619D01*
X142028333Y-115648619D01*
X142173476Y-115697000D01*
X142221857Y-115745380D01*
X142512142Y-115648619D02*
X143092714Y-115648619D01*
X142802428Y-116664619D02*
X142802428Y-115648619D01*
X135333619Y-92214095D02*
X135333619Y-91633523D01*
X136349619Y-91923809D02*
X135333619Y-91923809D01*
X136349619Y-90762666D02*
X136349619Y-91343238D01*
X136349619Y-91052952D02*
X135333619Y-91052952D01*
X135478761Y-91149714D01*
X135575523Y-91246476D01*
X135623904Y-91343238D01*
X107175904Y-98503619D02*
X107756476Y-98503619D01*
X107466190Y-99519619D02*
X107466190Y-98503619D01*
X108046761Y-98600380D02*
X108095142Y-98552000D01*
X108191904Y-98503619D01*
X108433809Y-98503619D01*
X108530571Y-98552000D01*
X108578952Y-98600380D01*
X108627333Y-98697142D01*
X108627333Y-98793904D01*
X108578952Y-98939047D01*
X107998380Y-99519619D01*
X108627333Y-99519619D01*
D15*
X81588428Y-89752714D02*
X82023857Y-89752714D01*
X81806142Y-90514714D02*
X81806142Y-89752714D01*
X82277857Y-90514714D02*
X82277857Y-89752714D01*
X82568142Y-89752714D01*
X82640714Y-89789000D01*
X82677000Y-89825285D01*
X82713285Y-89897857D01*
X82713285Y-90006714D01*
X82677000Y-90079285D01*
X82640714Y-90115571D01*
X82568142Y-90151857D01*
X82277857Y-90151857D01*
X83439000Y-90514714D02*
X83003571Y-90514714D01*
X83221285Y-90514714D02*
X83221285Y-89752714D01*
X83148714Y-89861571D01*
X83076142Y-89934142D01*
X83003571Y-89970428D01*
X99368428Y-89752714D02*
X99803857Y-89752714D01*
X99586142Y-90514714D02*
X99586142Y-89752714D01*
X100057857Y-90514714D02*
X100057857Y-89752714D01*
X100348142Y-89752714D01*
X100420714Y-89789000D01*
X100457000Y-89825285D01*
X100493285Y-89897857D01*
X100493285Y-90006714D01*
X100457000Y-90079285D01*
X100420714Y-90115571D01*
X100348142Y-90151857D01*
X100057857Y-90151857D01*
X100783571Y-89825285D02*
X100819857Y-89789000D01*
X100892428Y-89752714D01*
X101073857Y-89752714D01*
X101146428Y-89789000D01*
X101182714Y-89825285D01*
X101219000Y-89897857D01*
X101219000Y-89970428D01*
X101182714Y-90079285D01*
X100747285Y-90514714D01*
X101219000Y-90514714D01*
X140008428Y-97372714D02*
X140443857Y-97372714D01*
X140226142Y-98134714D02*
X140226142Y-97372714D01*
X140697857Y-98134714D02*
X140697857Y-97372714D01*
X140988142Y-97372714D01*
X141060714Y-97409000D01*
X141097000Y-97445285D01*
X141133285Y-97517857D01*
X141133285Y-97626714D01*
X141097000Y-97699285D01*
X141060714Y-97735571D01*
X140988142Y-97771857D01*
X140697857Y-97771857D01*
X141387285Y-97372714D02*
X141859000Y-97372714D01*
X141605000Y-97663000D01*
X141713857Y-97663000D01*
X141786428Y-97699285D01*
X141822714Y-97735571D01*
X141859000Y-97808142D01*
X141859000Y-97989571D01*
X141822714Y-98062142D01*
X141786428Y-98098428D01*
X141713857Y-98134714D01*
X141496142Y-98134714D01*
X141423571Y-98098428D01*
X141387285Y-98062142D01*
X140008428Y-87847714D02*
X140443857Y-87847714D01*
X140226142Y-88609714D02*
X140226142Y-87847714D01*
X140697857Y-88609714D02*
X140697857Y-87847714D01*
X140988142Y-87847714D01*
X141060714Y-87884000D01*
X141097000Y-87920285D01*
X141133285Y-87992857D01*
X141133285Y-88101714D01*
X141097000Y-88174285D01*
X141060714Y-88210571D01*
X140988142Y-88246857D01*
X140697857Y-88246857D01*
X141786428Y-88101714D02*
X141786428Y-88609714D01*
X141605000Y-87811428D02*
X141423571Y-88355714D01*
X141895285Y-88355714D01*
D11*
X83351238Y-113649666D02*
X83399619Y-113504523D01*
X83399619Y-113262619D01*
X83351238Y-113165857D01*
X83302857Y-113117476D01*
X83206095Y-113069095D01*
X83109333Y-113069095D01*
X83012571Y-113117476D01*
X82964190Y-113165857D01*
X82915809Y-113262619D01*
X82867428Y-113456142D01*
X82819047Y-113552904D01*
X82770666Y-113601285D01*
X82673904Y-113649666D01*
X82577142Y-113649666D01*
X82480380Y-113601285D01*
X82432000Y-113552904D01*
X82383619Y-113456142D01*
X82383619Y-113214238D01*
X82432000Y-113069095D01*
X82383619Y-112730428D02*
X83399619Y-112488523D01*
X82673904Y-112295000D01*
X83399619Y-112101476D01*
X82383619Y-111859571D01*
X82480380Y-111520904D02*
X82432000Y-111472523D01*
X82383619Y-111375761D01*
X82383619Y-111133857D01*
X82432000Y-111037095D01*
X82480380Y-110988714D01*
X82577142Y-110940333D01*
X82673904Y-110940333D01*
X82819047Y-110988714D01*
X83399619Y-111569285D01*
X83399619Y-110940333D01*
X84376380Y-108956238D02*
X84521523Y-109004619D01*
X84763428Y-109004619D01*
X84860190Y-108956238D01*
X84908571Y-108907857D01*
X84956952Y-108811095D01*
X84956952Y-108714333D01*
X84908571Y-108617571D01*
X84860190Y-108569190D01*
X84763428Y-108520809D01*
X84569904Y-108472428D01*
X84473142Y-108424047D01*
X84424761Y-108375666D01*
X84376380Y-108278904D01*
X84376380Y-108182142D01*
X84424761Y-108085380D01*
X84473142Y-108037000D01*
X84569904Y-107988619D01*
X84811809Y-107988619D01*
X84956952Y-108037000D01*
X85392380Y-109004619D02*
X85392380Y-107988619D01*
X85779428Y-107988619D01*
X85876190Y-108037000D01*
X85924571Y-108085380D01*
X85972952Y-108182142D01*
X85972952Y-108327285D01*
X85924571Y-108424047D01*
X85876190Y-108472428D01*
X85779428Y-108520809D01*
X85392380Y-108520809D01*
X86360000Y-108956238D02*
X86505142Y-109004619D01*
X86747047Y-109004619D01*
X86843809Y-108956238D01*
X86892190Y-108907857D01*
X86940571Y-108811095D01*
X86940571Y-108714333D01*
X86892190Y-108617571D01*
X86843809Y-108569190D01*
X86747047Y-108520809D01*
X86553523Y-108472428D01*
X86456761Y-108424047D01*
X86408380Y-108375666D01*
X86360000Y-108278904D01*
X86360000Y-108182142D01*
X86408380Y-108085380D01*
X86456761Y-108037000D01*
X86553523Y-107988619D01*
X86795428Y-107988619D01*
X86940571Y-108037000D01*
X87230857Y-107988619D02*
X87811428Y-107988619D01*
X87521142Y-109004619D02*
X87521142Y-107988619D01*
X87908190Y-109101380D02*
X88682285Y-109101380D01*
X88924190Y-109004619D02*
X88924190Y-107988619D01*
X89311238Y-107988619D01*
X89408000Y-108037000D01*
X89456380Y-108085380D01*
X89504761Y-108182142D01*
X89504761Y-108327285D01*
X89456380Y-108424047D01*
X89408000Y-108472428D01*
X89311238Y-108520809D01*
X88924190Y-108520809D01*
X89940190Y-107988619D02*
X89940190Y-108811095D01*
X89988571Y-108907857D01*
X90036952Y-108956238D01*
X90133714Y-109004619D01*
X90327238Y-109004619D01*
X90424000Y-108956238D01*
X90472380Y-108907857D01*
X90520761Y-108811095D01*
X90520761Y-107988619D01*
X90956190Y-108956238D02*
X91101333Y-109004619D01*
X91343238Y-109004619D01*
X91440000Y-108956238D01*
X91488380Y-108907857D01*
X91536761Y-108811095D01*
X91536761Y-108714333D01*
X91488380Y-108617571D01*
X91440000Y-108569190D01*
X91343238Y-108520809D01*
X91149714Y-108472428D01*
X91052952Y-108424047D01*
X91004571Y-108375666D01*
X90956190Y-108278904D01*
X90956190Y-108182142D01*
X91004571Y-108085380D01*
X91052952Y-108037000D01*
X91149714Y-107988619D01*
X91391619Y-107988619D01*
X91536761Y-108037000D01*
X91972190Y-109004619D02*
X91972190Y-107988619D01*
X91972190Y-108472428D02*
X92552761Y-108472428D01*
X92552761Y-109004619D02*
X92552761Y-107988619D01*
X92794666Y-109101380D02*
X93568761Y-109101380D01*
X94294476Y-109004619D02*
X93810666Y-109004619D01*
X93810666Y-107988619D01*
X94633142Y-109004619D02*
X94633142Y-107988619D01*
X95649142Y-108037000D02*
X95552380Y-107988619D01*
X95407238Y-107988619D01*
X95262095Y-108037000D01*
X95165333Y-108133761D01*
X95116952Y-108230523D01*
X95068571Y-108424047D01*
X95068571Y-108569190D01*
X95116952Y-108762714D01*
X95165333Y-108859476D01*
X95262095Y-108956238D01*
X95407238Y-109004619D01*
X95504000Y-109004619D01*
X95649142Y-108956238D01*
X95697523Y-108907857D01*
X95697523Y-108569190D01*
X95504000Y-108569190D01*
X96132952Y-109004619D02*
X96132952Y-107988619D01*
X96132952Y-108472428D02*
X96713523Y-108472428D01*
X96713523Y-109004619D02*
X96713523Y-107988619D01*
X97052190Y-107988619D02*
X97632761Y-107988619D01*
X97342476Y-109004619D02*
X97342476Y-107988619D01*
X97923047Y-108956238D02*
X98068190Y-109004619D01*
X98310095Y-109004619D01*
X98406857Y-108956238D01*
X98455238Y-108907857D01*
X98503619Y-108811095D01*
X98503619Y-108714333D01*
X98455238Y-108617571D01*
X98406857Y-108569190D01*
X98310095Y-108520809D01*
X98116571Y-108472428D01*
X98019809Y-108424047D01*
X97971428Y-108375666D01*
X97923047Y-108278904D01*
X97923047Y-108182142D01*
X97971428Y-108085380D01*
X98019809Y-108037000D01*
X98116571Y-107988619D01*
X98358476Y-107988619D01*
X98503619Y-108037000D01*
X84182857Y-96054333D02*
X84231238Y-96102714D01*
X84279619Y-96247857D01*
X84279619Y-96344619D01*
X84231238Y-96489761D01*
X84134476Y-96586523D01*
X84037714Y-96634904D01*
X83844190Y-96683285D01*
X83699047Y-96683285D01*
X83505523Y-96634904D01*
X83408761Y-96586523D01*
X83312000Y-96489761D01*
X83263619Y-96344619D01*
X83263619Y-96247857D01*
X83312000Y-96102714D01*
X83360380Y-96054333D01*
X83263619Y-95135095D02*
X83263619Y-95618904D01*
X83747428Y-95667285D01*
X83699047Y-95618904D01*
X83650666Y-95522142D01*
X83650666Y-95280238D01*
X83699047Y-95183476D01*
X83747428Y-95135095D01*
X83844190Y-95086714D01*
X84086095Y-95086714D01*
X84182857Y-95135095D01*
X84231238Y-95183476D01*
X84279619Y-95280238D01*
X84279619Y-95522142D01*
X84231238Y-95618904D01*
X84182857Y-95667285D01*
X91899619Y-94850857D02*
X91899619Y-95431428D01*
X91899619Y-95141142D02*
X90883619Y-95141142D01*
X91028761Y-95237904D01*
X91125523Y-95334666D01*
X91173904Y-95431428D01*
X90883619Y-94221904D02*
X90883619Y-94125142D01*
X90932000Y-94028380D01*
X90980380Y-93980000D01*
X91077142Y-93931619D01*
X91270666Y-93883238D01*
X91512571Y-93883238D01*
X91706095Y-93931619D01*
X91802857Y-93980000D01*
X91851238Y-94028380D01*
X91899619Y-94125142D01*
X91899619Y-94221904D01*
X91851238Y-94318666D01*
X91802857Y-94367047D01*
X91706095Y-94415428D01*
X91512571Y-94463809D01*
X91270666Y-94463809D01*
X91077142Y-94415428D01*
X90980380Y-94367047D01*
X90932000Y-94318666D01*
X90883619Y-94221904D01*
X90883619Y-93254285D02*
X90883619Y-93157523D01*
X90932000Y-93060761D01*
X90980380Y-93012380D01*
X91077142Y-92964000D01*
X91270666Y-92915619D01*
X91512571Y-92915619D01*
X91706095Y-92964000D01*
X91802857Y-93012380D01*
X91851238Y-93060761D01*
X91899619Y-93157523D01*
X91899619Y-93254285D01*
X91851238Y-93351047D01*
X91802857Y-93399428D01*
X91706095Y-93447809D01*
X91512571Y-93496190D01*
X91270666Y-93496190D01*
X91077142Y-93447809D01*
X90980380Y-93399428D01*
X90932000Y-93351047D01*
X90883619Y-93254285D01*
X91222285Y-92044761D02*
X91899619Y-92044761D01*
X91222285Y-92480190D02*
X91754476Y-92480190D01*
X91851238Y-92431809D01*
X91899619Y-92335047D01*
X91899619Y-92189904D01*
X91851238Y-92093142D01*
X91802857Y-92044761D01*
X91367428Y-91222285D02*
X91367428Y-91560952D01*
X91899619Y-91560952D02*
X90883619Y-91560952D01*
X90883619Y-91077142D01*
X91996380Y-90932000D02*
X91996380Y-90157904D01*
X91899619Y-89916000D02*
X90883619Y-89916000D01*
X90883619Y-89528952D01*
X90932000Y-89432190D01*
X90980380Y-89383809D01*
X91077142Y-89335428D01*
X91222285Y-89335428D01*
X91319047Y-89383809D01*
X91367428Y-89432190D01*
X91415809Y-89528952D01*
X91415809Y-89916000D01*
X90883619Y-88706476D02*
X90883619Y-88512952D01*
X90932000Y-88416190D01*
X91028761Y-88319428D01*
X91222285Y-88271047D01*
X91560952Y-88271047D01*
X91754476Y-88319428D01*
X91851238Y-88416190D01*
X91899619Y-88512952D01*
X91899619Y-88706476D01*
X91851238Y-88803238D01*
X91754476Y-88900000D01*
X91560952Y-88948380D01*
X91222285Y-88948380D01*
X91028761Y-88900000D01*
X90932000Y-88803238D01*
X90883619Y-88706476D01*
X91899619Y-87351809D02*
X91899619Y-87835619D01*
X90883619Y-87835619D01*
D16*
X86868571Y-94297142D02*
X88011428Y-94297142D01*
X87440000Y-94868571D02*
X87440000Y-93725714D01*
%LPC*%
D17*
X101244400Y-104775000D03*
X101244400Y-109855000D03*
D18*
X78740000Y-81915000D03*
X81280000Y-81915000D03*
D19*
X76200000Y-81915000D03*
D18*
X83820000Y-81915000D03*
X86360000Y-81915000D03*
X88900000Y-81915000D03*
X91440000Y-81915000D03*
X93980000Y-81915000D03*
X96520000Y-81915000D03*
X99060000Y-81915000D03*
X101600000Y-81915000D03*
X104140000Y-81915000D03*
X106680000Y-81915000D03*
X109220000Y-81915000D03*
X111760000Y-81915000D03*
X114300000Y-81915000D03*
X114300000Y-117475000D03*
X111760000Y-117475000D03*
X109220000Y-117475000D03*
X106680000Y-117475000D03*
X104140000Y-117475000D03*
X101600000Y-117475000D03*
X99060000Y-117475000D03*
X96520000Y-117475000D03*
X93980000Y-117475000D03*
X91440000Y-117475000D03*
X88900000Y-117475000D03*
X86360000Y-117475000D03*
X83820000Y-117475000D03*
X81280000Y-117475000D03*
X78740000Y-117475000D03*
X76200000Y-117475000D03*
D20*
X77470000Y-86995000D03*
X77470000Y-112395000D03*
X118110000Y-117475000D03*
X118110000Y-81915000D03*
D18*
X112395000Y-110490000D03*
D19*
X114935000Y-110490000D03*
D21*
X132397500Y-118203980D03*
X140652500Y-118203980D03*
X132397500Y-114206020D03*
X140652500Y-114206020D03*
D22*
X132080000Y-91440000D03*
D23*
X127000000Y-91440000D03*
X121920000Y-91440000D03*
X116840000Y-91440000D03*
D22*
X110490000Y-91440000D03*
D23*
X105410000Y-91440000D03*
D24*
X82550000Y-87630000D03*
X100330000Y-87630000D03*
X140970000Y-95250000D03*
X140970000Y-85725000D03*
D25*
X88900000Y-106045000D03*
X91440000Y-106045000D03*
X93980000Y-106045000D03*
X87630000Y-101549200D03*
X95250000Y-101549200D03*
D26*
X85090000Y-99695000D03*
X97790000Y-99695000D03*
X97790000Y-112395000D03*
X85090000Y-112395000D03*
D27*
X86965000Y-91440000D03*
X95915000Y-91440000D03*
M02*
