G04 #@! TF.FileFunction,Copper,L1,Top,Signal*
%FSLAX46Y46*%
G04 Gerber Fmt 4.6, Leading zero omitted, Abs format (unit mm)*
G04 Created by KiCad (PCBNEW 4.1.0-alpha+201608211231+7083~46~ubuntu16.04.1-product) date Wed Aug 24 14:24:17 2016*
%MOMM*%
%LPD*%
G01*
G04 APERTURE LIST*
%ADD10C,0.100000*%
%ADD11C,0.228600*%
%ADD12O,2.159000X1.651000*%
%ADD13O,1.854200X2.540000*%
%ADD14R,1.854200X2.540000*%
%ADD15C,3.556000*%
%ADD16R,2.667000X1.590040*%
%ADD17R,2.540000X3.810000*%
%ADD18O,2.540000X3.810000*%
%ADD19C,3.175000*%
%ADD20O,1.524000X2.540000*%
%ADD21C,1.905000*%
%ADD22R,6.750000X3.300000*%
%ADD23C,0.889000*%
%ADD24C,0.406400*%
%ADD25C,0.508000*%
%ADD26C,0.609600*%
%ADD27C,0.203200*%
G04 APERTURE END LIST*
D10*
D11*
X143510000Y-79375000D02*
X73660000Y-79375000D01*
X143510000Y-120015000D02*
X143510000Y-79375000D01*
X73660000Y-120015000D02*
X143510000Y-120015000D01*
X73660000Y-79375000D02*
X73660000Y-120015000D01*
D12*
X101244400Y-104775000D03*
X101244400Y-109855000D03*
D13*
X78740000Y-81915000D03*
X81280000Y-81915000D03*
D14*
X76200000Y-81915000D03*
D13*
X83820000Y-81915000D03*
X86360000Y-81915000D03*
X88900000Y-81915000D03*
X91440000Y-81915000D03*
X93980000Y-81915000D03*
X96520000Y-81915000D03*
X99060000Y-81915000D03*
X101600000Y-81915000D03*
X104140000Y-81915000D03*
X106680000Y-81915000D03*
X109220000Y-81915000D03*
X111760000Y-81915000D03*
X114300000Y-81915000D03*
X114300000Y-117475000D03*
X111760000Y-117475000D03*
X109220000Y-117475000D03*
X106680000Y-117475000D03*
X104140000Y-117475000D03*
X101600000Y-117475000D03*
X99060000Y-117475000D03*
X96520000Y-117475000D03*
X93980000Y-117475000D03*
X91440000Y-117475000D03*
X88900000Y-117475000D03*
X86360000Y-117475000D03*
X83820000Y-117475000D03*
X81280000Y-117475000D03*
X78740000Y-117475000D03*
X76200000Y-117475000D03*
D15*
X77470000Y-86995000D03*
X77470000Y-112395000D03*
X118110000Y-117475000D03*
X118110000Y-81915000D03*
D13*
X112395000Y-110490000D03*
D14*
X114935000Y-110490000D03*
D16*
X132397500Y-118203980D03*
X140652500Y-118203980D03*
X132397500Y-114206020D03*
X140652500Y-114206020D03*
D17*
X132080000Y-91440000D03*
D18*
X127000000Y-91440000D03*
X121920000Y-91440000D03*
X116840000Y-91440000D03*
D17*
X110490000Y-91440000D03*
D18*
X105410000Y-91440000D03*
D19*
X82550000Y-87630000D03*
X100330000Y-87630000D03*
X140970000Y-95250000D03*
X140970000Y-85725000D03*
D20*
X88900000Y-106045000D03*
X91440000Y-106045000D03*
X93980000Y-106045000D03*
X87630000Y-101549200D03*
X95250000Y-101549200D03*
D21*
X85090000Y-99695000D03*
X97790000Y-99695000D03*
X97790000Y-112395000D03*
X85090000Y-112395000D03*
D22*
X86965000Y-91440000D03*
X95915000Y-91440000D03*
D23*
X127618000Y-111734200D03*
X136857000Y-113707200D03*
X132304300Y-111763000D03*
X126611300Y-113080400D03*
X132826200Y-102651900D03*
X130035400Y-116255500D03*
X129614600Y-99103200D03*
X110810000Y-102880000D03*
X130276200Y-111712600D03*
X103561500Y-100218100D03*
X134850200Y-99062100D03*
X133720600Y-112188700D03*
X109222800Y-98794900D03*
X128115400Y-98794900D03*
D24*
X95915000Y-91440000D02*
X95915000Y-90449900D01*
X112395000Y-110490000D02*
X112395000Y-108889800D01*
X78740000Y-81915000D02*
X79997300Y-81915000D01*
X79997300Y-82778900D02*
X79997300Y-81915000D01*
X81342800Y-84124400D02*
X79997300Y-82778900D01*
X89589500Y-84124400D02*
X81342800Y-84124400D01*
X95915000Y-90449900D02*
X89589500Y-84124400D01*
X98734900Y-87630000D02*
X95915000Y-90449900D01*
X100330000Y-87630000D02*
X98734900Y-87630000D01*
X106045000Y-89204800D02*
X106489500Y-88760300D01*
X105410000Y-89204800D02*
X106045000Y-89204800D01*
X109524800Y-85725000D02*
X140970000Y-85725000D01*
X106489500Y-88760300D02*
X109524800Y-85725000D01*
X101460300Y-88760300D02*
X100330000Y-87630000D01*
X106489500Y-88760300D02*
X101460300Y-88760300D01*
X105410000Y-91440000D02*
X105410000Y-89204800D01*
X124773600Y-108889800D02*
X127618000Y-111734200D01*
X112395000Y-108889800D02*
X124773600Y-108889800D01*
X140652500Y-114206000D02*
X138988800Y-114206000D01*
X138490000Y-113707200D02*
X136857000Y-113707200D01*
X138988800Y-114206000D02*
X138490000Y-113707200D01*
D25*
X86360000Y-91440000D02*
X82550000Y-87630000D01*
X86965000Y-91440000D02*
X86360000Y-91440000D01*
X86965000Y-91440000D02*
X86965000Y-93471000D01*
X127462700Y-113080400D02*
X128786400Y-111756700D01*
X126611300Y-113080400D02*
X127462700Y-113080400D01*
X83752600Y-96683400D02*
X86965000Y-93471000D01*
X83752600Y-100225400D02*
X83752600Y-96683400D01*
X87427200Y-103900000D02*
X83752600Y-100225400D01*
X94825200Y-103900000D02*
X87427200Y-103900000D01*
X97996100Y-107070900D02*
X94825200Y-103900000D01*
X124100500Y-107070900D02*
X97996100Y-107070900D01*
X128786400Y-111756700D02*
X124100500Y-107070900D01*
X129548500Y-112518900D02*
X128786400Y-111756700D01*
X130701000Y-112518900D02*
X129548500Y-112518900D01*
X131456900Y-111763000D02*
X130701000Y-112518900D01*
X132304300Y-111763000D02*
X131456900Y-111763000D01*
X132304300Y-103173800D02*
X132826200Y-102651900D01*
X132304300Y-111763000D02*
X132304300Y-103173800D01*
D26*
X100393500Y-107746800D02*
X101244400Y-108597700D01*
X91440000Y-107746800D02*
X100393500Y-107746800D01*
X91440000Y-106045000D02*
X91440000Y-107746800D01*
X101244400Y-109855000D02*
X101244400Y-108597700D01*
D24*
X109220000Y-81915000D02*
X110477300Y-81915000D01*
X110477300Y-82778900D02*
X110477300Y-81915000D01*
X111706000Y-84007600D02*
X110477300Y-82778900D01*
X129741500Y-84007600D02*
X111706000Y-84007600D01*
X129919500Y-83829600D02*
X129741500Y-84007600D01*
X141811800Y-83829600D02*
X129919500Y-83829600D01*
X142865900Y-84883700D02*
X141811800Y-83829600D01*
X142865900Y-87105900D02*
X142865900Y-84883700D01*
X136431200Y-93540600D02*
X142865900Y-87105900D01*
X136431200Y-110538300D02*
X136431200Y-93540600D01*
X133887400Y-113082100D02*
X136431200Y-110538300D01*
X130928700Y-113082100D02*
X133887400Y-113082100D01*
X130035400Y-113975400D02*
X130928700Y-113082100D01*
X130035400Y-116255500D02*
X130035400Y-113975400D01*
X108915000Y-104775000D02*
X110810000Y-102880000D01*
X101244400Y-104775000D02*
X108915000Y-104775000D01*
X130276200Y-107318400D02*
X130276200Y-111712600D01*
X125837800Y-102880000D02*
X130276200Y-107318400D01*
X110810000Y-102880000D02*
X125837800Y-102880000D01*
X125837800Y-102880000D02*
X129614600Y-99103200D01*
X110477300Y-118338900D02*
X110477300Y-117475000D01*
X111703500Y-119565100D02*
X110477300Y-118338900D01*
X133598900Y-119565100D02*
X111703500Y-119565100D01*
X135350800Y-117813200D02*
X133598900Y-119565100D01*
X135350800Y-114138100D02*
X135350800Y-117813200D01*
X140970000Y-108518900D02*
X135350800Y-114138100D01*
X140970000Y-95250000D02*
X140970000Y-108518900D01*
X109220000Y-117475000D02*
X110477300Y-117475000D01*
X114935000Y-110490000D02*
X116192300Y-110490000D01*
X123906300Y-118204000D02*
X116192300Y-110490000D01*
X132397500Y-118204000D02*
X123906300Y-118204000D01*
X87630000Y-101549200D02*
X87630000Y-99949000D01*
X110490000Y-91440000D02*
X108889800Y-91440000D01*
X101836600Y-98493200D02*
X108889800Y-91440000D01*
X101775600Y-98432200D02*
X101836600Y-98493200D01*
X89146800Y-98432200D02*
X101775600Y-98432200D01*
X87630000Y-99949000D02*
X89146800Y-98432200D01*
X101836600Y-98493200D02*
X103561500Y-100218100D01*
D25*
X121920000Y-91440000D02*
X121920000Y-93726000D01*
X129514100Y-93726000D02*
X134850200Y-99062100D01*
X121920000Y-93726000D02*
X129514100Y-93726000D01*
X116840000Y-91440000D02*
X116840000Y-93726000D01*
X120418100Y-97304100D02*
X116840000Y-93726000D01*
X128979800Y-97304100D02*
X120418100Y-97304100D01*
X133720600Y-102044900D02*
X128979800Y-97304100D01*
X133720600Y-112188700D02*
X133720600Y-102044900D01*
D24*
X109222800Y-98794900D02*
X128115400Y-98794900D01*
D27*
G36*
X143090900Y-84390279D02*
X142171010Y-83470390D01*
X142006203Y-83360269D01*
X141811800Y-83321600D01*
X129919500Y-83321600D01*
X129725097Y-83360269D01*
X129560290Y-83470390D01*
X129531080Y-83499600D01*
X119470729Y-83499600D01*
X119874682Y-83096352D01*
X120192437Y-82331112D01*
X120193160Y-81502523D01*
X119876741Y-80736730D01*
X119291352Y-80150318D01*
X118526112Y-79832563D01*
X117697523Y-79831840D01*
X116931730Y-80148259D01*
X116345318Y-80733648D01*
X116027563Y-81498888D01*
X116026840Y-82327477D01*
X116343259Y-83093270D01*
X116748880Y-83499600D01*
X114405835Y-83499600D01*
X114771428Y-83426879D01*
X115171085Y-83159837D01*
X115438127Y-82760180D01*
X115531900Y-82288752D01*
X115531900Y-81541248D01*
X115438127Y-81069820D01*
X115171085Y-80670163D01*
X114771428Y-80403121D01*
X114300000Y-80309348D01*
X113828572Y-80403121D01*
X113428915Y-80670163D01*
X113161873Y-81069820D01*
X113068100Y-81541248D01*
X113068100Y-82288752D01*
X113161873Y-82760180D01*
X113428915Y-83159837D01*
X113828572Y-83426879D01*
X114194165Y-83499600D01*
X111916420Y-83499600D01*
X111908027Y-83491207D01*
X112231428Y-83426879D01*
X112631085Y-83159837D01*
X112898127Y-82760180D01*
X112991900Y-82288752D01*
X112991900Y-81541248D01*
X112898127Y-81069820D01*
X112631085Y-80670163D01*
X112231428Y-80403121D01*
X111760000Y-80309348D01*
X111288572Y-80403121D01*
X110888915Y-80670163D01*
X110621873Y-81069820D01*
X110551854Y-81421830D01*
X110477300Y-81407000D01*
X110425196Y-81407000D01*
X110358127Y-81069820D01*
X110091085Y-80670163D01*
X109691428Y-80403121D01*
X109220000Y-80309348D01*
X108748572Y-80403121D01*
X108348915Y-80670163D01*
X108081873Y-81069820D01*
X107988100Y-81541248D01*
X107988100Y-82288752D01*
X108081873Y-82760180D01*
X108348915Y-83159837D01*
X108748572Y-83426879D01*
X109220000Y-83520652D01*
X109691428Y-83426879D01*
X110091085Y-83159837D01*
X110111846Y-83128766D01*
X110118090Y-83138110D01*
X111346790Y-84366810D01*
X111511596Y-84476931D01*
X111706000Y-84515600D01*
X129741500Y-84515600D01*
X129935903Y-84476931D01*
X130100710Y-84366810D01*
X130129920Y-84337600D01*
X139681370Y-84337600D01*
X139366722Y-84651699D01*
X139131989Y-85217000D01*
X109524800Y-85217000D01*
X109362650Y-85249254D01*
X109330396Y-85255669D01*
X109165589Y-85365790D01*
X106279080Y-88252300D01*
X102120550Y-88252300D01*
X102221970Y-88008053D01*
X102222627Y-87255250D01*
X101935149Y-86559499D01*
X101403301Y-86026722D01*
X100708053Y-85738030D01*
X99955250Y-85737373D01*
X99259499Y-86024851D01*
X98726722Y-86556699D01*
X98451139Y-87220376D01*
X98375690Y-87270790D01*
X96167251Y-89479229D01*
X95662749Y-89479229D01*
X89948710Y-83765190D01*
X89783903Y-83655069D01*
X89589500Y-83616400D01*
X81553220Y-83616400D01*
X81428027Y-83491207D01*
X81751428Y-83426879D01*
X82151085Y-83159837D01*
X82418127Y-82760180D01*
X82511900Y-82288752D01*
X82511900Y-81541248D01*
X82588100Y-81541248D01*
X82588100Y-82288752D01*
X82681873Y-82760180D01*
X82948915Y-83159837D01*
X83348572Y-83426879D01*
X83820000Y-83520652D01*
X84291428Y-83426879D01*
X84691085Y-83159837D01*
X84958127Y-82760180D01*
X85051900Y-82288752D01*
X85051900Y-81541248D01*
X85128100Y-81541248D01*
X85128100Y-82288752D01*
X85221873Y-82760180D01*
X85488915Y-83159837D01*
X85888572Y-83426879D01*
X86360000Y-83520652D01*
X86831428Y-83426879D01*
X87231085Y-83159837D01*
X87498127Y-82760180D01*
X87591900Y-82288752D01*
X87591900Y-81541248D01*
X87668100Y-81541248D01*
X87668100Y-82288752D01*
X87761873Y-82760180D01*
X88028915Y-83159837D01*
X88428572Y-83426879D01*
X88900000Y-83520652D01*
X89371428Y-83426879D01*
X89771085Y-83159837D01*
X90038127Y-82760180D01*
X90131900Y-82288752D01*
X90131900Y-81541248D01*
X90208100Y-81541248D01*
X90208100Y-82288752D01*
X90301873Y-82760180D01*
X90568915Y-83159837D01*
X90968572Y-83426879D01*
X91440000Y-83520652D01*
X91911428Y-83426879D01*
X92311085Y-83159837D01*
X92578127Y-82760180D01*
X92671900Y-82288752D01*
X92671900Y-81541248D01*
X92748100Y-81541248D01*
X92748100Y-82288752D01*
X92841873Y-82760180D01*
X93108915Y-83159837D01*
X93508572Y-83426879D01*
X93980000Y-83520652D01*
X94451428Y-83426879D01*
X94851085Y-83159837D01*
X95118127Y-82760180D01*
X95211900Y-82288752D01*
X95211900Y-81541248D01*
X95288100Y-81541248D01*
X95288100Y-82288752D01*
X95381873Y-82760180D01*
X95648915Y-83159837D01*
X96048572Y-83426879D01*
X96520000Y-83520652D01*
X96991428Y-83426879D01*
X97391085Y-83159837D01*
X97658127Y-82760180D01*
X97751900Y-82288752D01*
X97751900Y-81541248D01*
X97828100Y-81541248D01*
X97828100Y-82288752D01*
X97921873Y-82760180D01*
X98188915Y-83159837D01*
X98588572Y-83426879D01*
X99060000Y-83520652D01*
X99531428Y-83426879D01*
X99931085Y-83159837D01*
X100198127Y-82760180D01*
X100291900Y-82288752D01*
X100291900Y-81541248D01*
X100368100Y-81541248D01*
X100368100Y-82288752D01*
X100461873Y-82760180D01*
X100728915Y-83159837D01*
X101128572Y-83426879D01*
X101600000Y-83520652D01*
X102071428Y-83426879D01*
X102471085Y-83159837D01*
X102738127Y-82760180D01*
X102831900Y-82288752D01*
X102831900Y-81541248D01*
X102908100Y-81541248D01*
X102908100Y-82288752D01*
X103001873Y-82760180D01*
X103268915Y-83159837D01*
X103668572Y-83426879D01*
X104140000Y-83520652D01*
X104611428Y-83426879D01*
X105011085Y-83159837D01*
X105278127Y-82760180D01*
X105371900Y-82288752D01*
X105371900Y-81541248D01*
X105448100Y-81541248D01*
X105448100Y-82288752D01*
X105541873Y-82760180D01*
X105808915Y-83159837D01*
X106208572Y-83426879D01*
X106680000Y-83520652D01*
X107151428Y-83426879D01*
X107551085Y-83159837D01*
X107818127Y-82760180D01*
X107911900Y-82288752D01*
X107911900Y-81541248D01*
X107818127Y-81069820D01*
X107551085Y-80670163D01*
X107151428Y-80403121D01*
X106680000Y-80309348D01*
X106208572Y-80403121D01*
X105808915Y-80670163D01*
X105541873Y-81069820D01*
X105448100Y-81541248D01*
X105371900Y-81541248D01*
X105278127Y-81069820D01*
X105011085Y-80670163D01*
X104611428Y-80403121D01*
X104140000Y-80309348D01*
X103668572Y-80403121D01*
X103268915Y-80670163D01*
X103001873Y-81069820D01*
X102908100Y-81541248D01*
X102831900Y-81541248D01*
X102738127Y-81069820D01*
X102471085Y-80670163D01*
X102071428Y-80403121D01*
X101600000Y-80309348D01*
X101128572Y-80403121D01*
X100728915Y-80670163D01*
X100461873Y-81069820D01*
X100368100Y-81541248D01*
X100291900Y-81541248D01*
X100198127Y-81069820D01*
X99931085Y-80670163D01*
X99531428Y-80403121D01*
X99060000Y-80309348D01*
X98588572Y-80403121D01*
X98188915Y-80670163D01*
X97921873Y-81069820D01*
X97828100Y-81541248D01*
X97751900Y-81541248D01*
X97658127Y-81069820D01*
X97391085Y-80670163D01*
X96991428Y-80403121D01*
X96520000Y-80309348D01*
X96048572Y-80403121D01*
X95648915Y-80670163D01*
X95381873Y-81069820D01*
X95288100Y-81541248D01*
X95211900Y-81541248D01*
X95118127Y-81069820D01*
X94851085Y-80670163D01*
X94451428Y-80403121D01*
X93980000Y-80309348D01*
X93508572Y-80403121D01*
X93108915Y-80670163D01*
X92841873Y-81069820D01*
X92748100Y-81541248D01*
X92671900Y-81541248D01*
X92578127Y-81069820D01*
X92311085Y-80670163D01*
X91911428Y-80403121D01*
X91440000Y-80309348D01*
X90968572Y-80403121D01*
X90568915Y-80670163D01*
X90301873Y-81069820D01*
X90208100Y-81541248D01*
X90131900Y-81541248D01*
X90038127Y-81069820D01*
X89771085Y-80670163D01*
X89371428Y-80403121D01*
X88900000Y-80309348D01*
X88428572Y-80403121D01*
X88028915Y-80670163D01*
X87761873Y-81069820D01*
X87668100Y-81541248D01*
X87591900Y-81541248D01*
X87498127Y-81069820D01*
X87231085Y-80670163D01*
X86831428Y-80403121D01*
X86360000Y-80309348D01*
X85888572Y-80403121D01*
X85488915Y-80670163D01*
X85221873Y-81069820D01*
X85128100Y-81541248D01*
X85051900Y-81541248D01*
X84958127Y-81069820D01*
X84691085Y-80670163D01*
X84291428Y-80403121D01*
X83820000Y-80309348D01*
X83348572Y-80403121D01*
X82948915Y-80670163D01*
X82681873Y-81069820D01*
X82588100Y-81541248D01*
X82511900Y-81541248D01*
X82418127Y-81069820D01*
X82151085Y-80670163D01*
X81751428Y-80403121D01*
X81280000Y-80309348D01*
X80808572Y-80403121D01*
X80408915Y-80670163D01*
X80141873Y-81069820D01*
X80071854Y-81421830D01*
X79997300Y-81407000D01*
X79945196Y-81407000D01*
X79878127Y-81069820D01*
X79611085Y-80670163D01*
X79211428Y-80403121D01*
X78740000Y-80309348D01*
X78268572Y-80403121D01*
X77868915Y-80670163D01*
X77736700Y-80868037D01*
X77736700Y-80523743D01*
X77643894Y-80299689D01*
X77472411Y-80128206D01*
X77248357Y-80035400D01*
X76504800Y-80035400D01*
X76352400Y-80187800D01*
X76352400Y-81762600D01*
X76372400Y-81762600D01*
X76372400Y-82067400D01*
X76352400Y-82067400D01*
X76352400Y-83642200D01*
X76504800Y-83794600D01*
X77248357Y-83794600D01*
X77472411Y-83701794D01*
X77643894Y-83530311D01*
X77736700Y-83306257D01*
X77736700Y-82961963D01*
X77868915Y-83159837D01*
X78268572Y-83426879D01*
X78740000Y-83520652D01*
X79211428Y-83426879D01*
X79611085Y-83159837D01*
X79631846Y-83128766D01*
X79638090Y-83138110D01*
X80983590Y-84483610D01*
X81148396Y-84593731D01*
X81180650Y-84600146D01*
X81342800Y-84632400D01*
X89379080Y-84632400D01*
X94225909Y-89479229D01*
X92540000Y-89479229D01*
X92421073Y-89502885D01*
X92320252Y-89570252D01*
X92252885Y-89671073D01*
X92229229Y-89790000D01*
X92229229Y-93090000D01*
X92252885Y-93208927D01*
X92320252Y-93309748D01*
X92421073Y-93377115D01*
X92540000Y-93400771D01*
X99290000Y-93400771D01*
X99408927Y-93377115D01*
X99509748Y-93309748D01*
X99577115Y-93208927D01*
X99600771Y-93090000D01*
X99600771Y-89790000D01*
X99577115Y-89671073D01*
X99509748Y-89570252D01*
X99408927Y-89502885D01*
X99290000Y-89479229D01*
X97604091Y-89479229D01*
X98624847Y-88458473D01*
X98724851Y-88700501D01*
X99256699Y-89233278D01*
X99951947Y-89521970D01*
X100704750Y-89522627D01*
X101365774Y-89249498D01*
X101460300Y-89268300D01*
X104902000Y-89268300D01*
X104902000Y-89287955D01*
X104807350Y-89306782D01*
X104296448Y-89648155D01*
X103955075Y-90159057D01*
X103835200Y-90761707D01*
X103835200Y-92118293D01*
X103955075Y-92720943D01*
X104296448Y-93231845D01*
X104807350Y-93573218D01*
X105410000Y-93693093D01*
X106012650Y-93573218D01*
X106089534Y-93521846D01*
X101687180Y-97924200D01*
X89146800Y-97924200D01*
X88952396Y-97962869D01*
X88787590Y-98072990D01*
X87270790Y-99589790D01*
X87160669Y-99754597D01*
X87122000Y-99949000D01*
X87122000Y-100091406D01*
X86875658Y-100256006D01*
X86644405Y-100602101D01*
X86563200Y-101010348D01*
X86563200Y-102088052D01*
X86644405Y-102496299D01*
X86875658Y-102842394D01*
X87221753Y-103073647D01*
X87630000Y-103154852D01*
X88038247Y-103073647D01*
X88384342Y-102842394D01*
X88615595Y-102496299D01*
X88696800Y-102088052D01*
X88696800Y-101010348D01*
X94183200Y-101010348D01*
X94183200Y-102088052D01*
X94264405Y-102496299D01*
X94495658Y-102842394D01*
X94841753Y-103073647D01*
X95250000Y-103154852D01*
X95658247Y-103073647D01*
X96004342Y-102842394D01*
X96235595Y-102496299D01*
X96316800Y-102088052D01*
X96316800Y-101010348D01*
X96235595Y-100602101D01*
X96004342Y-100256006D01*
X95658247Y-100024753D01*
X95250000Y-99943548D01*
X94841753Y-100024753D01*
X94495658Y-100256006D01*
X94264405Y-100602101D01*
X94183200Y-101010348D01*
X88696800Y-101010348D01*
X88615595Y-100602101D01*
X88384342Y-100256006D01*
X88178772Y-100118648D01*
X89357220Y-98940200D01*
X96766474Y-98940200D01*
X96724734Y-98981867D01*
X96532919Y-99443810D01*
X96532482Y-99943995D01*
X96723491Y-100406273D01*
X97076867Y-100760266D01*
X97538810Y-100952081D01*
X98038995Y-100952518D01*
X98501273Y-100761509D01*
X98855266Y-100408133D01*
X99047081Y-99946190D01*
X99047518Y-99446005D01*
X98856509Y-98983727D01*
X98813058Y-98940200D01*
X101565180Y-98940200D01*
X102812226Y-100187246D01*
X102812070Y-100366491D01*
X102925904Y-100641990D01*
X103136501Y-100852956D01*
X103411801Y-100967270D01*
X103709891Y-100967530D01*
X103985390Y-100853696D01*
X104196356Y-100643099D01*
X104310670Y-100367799D01*
X104310930Y-100069709D01*
X104197096Y-99794210D01*
X103986499Y-99583244D01*
X103711199Y-99468930D01*
X103530592Y-99468772D01*
X103005111Y-98943291D01*
X108473370Y-98943291D01*
X108587204Y-99218790D01*
X108797801Y-99429756D01*
X109073101Y-99544070D01*
X109371191Y-99544330D01*
X109646690Y-99430496D01*
X109774510Y-99302900D01*
X127563767Y-99302900D01*
X127690401Y-99429756D01*
X127965701Y-99544070D01*
X128263791Y-99544330D01*
X128539290Y-99430496D01*
X128750256Y-99219899D01*
X128864570Y-98944599D01*
X128864830Y-98646509D01*
X128750996Y-98371010D01*
X128540399Y-98160044D01*
X128265099Y-98045730D01*
X127967009Y-98045470D01*
X127691510Y-98159304D01*
X127563690Y-98286900D01*
X109774433Y-98286900D01*
X109647799Y-98160044D01*
X109372499Y-98045730D01*
X109074409Y-98045470D01*
X108798910Y-98159304D01*
X108587944Y-98369901D01*
X108473630Y-98645201D01*
X108473370Y-98943291D01*
X103005111Y-98943291D01*
X102555020Y-98493200D01*
X108909229Y-92138991D01*
X108909229Y-93345000D01*
X108932885Y-93463927D01*
X109000252Y-93564748D01*
X109101073Y-93632115D01*
X109220000Y-93655771D01*
X111760000Y-93655771D01*
X111878927Y-93632115D01*
X111979748Y-93564748D01*
X112047115Y-93463927D01*
X112070771Y-93345000D01*
X112070771Y-89535000D01*
X112047115Y-89416073D01*
X111979748Y-89315252D01*
X111878927Y-89247885D01*
X111760000Y-89224229D01*
X109220000Y-89224229D01*
X109101073Y-89247885D01*
X109000252Y-89315252D01*
X108932885Y-89416073D01*
X108909229Y-89535000D01*
X108909229Y-90932000D01*
X108889800Y-90932000D01*
X108695396Y-90970669D01*
X108530590Y-91080790D01*
X106813553Y-92797827D01*
X106864925Y-92720943D01*
X106984800Y-92118293D01*
X106984800Y-90761707D01*
X106864925Y-90159057D01*
X106523552Y-89648155D01*
X106400915Y-89566212D01*
X106404210Y-89564010D01*
X106848710Y-89119510D01*
X109735221Y-86233000D01*
X139132431Y-86233000D01*
X139364851Y-86795501D01*
X139896699Y-87328278D01*
X140591947Y-87616970D01*
X141344750Y-87617627D01*
X141840657Y-87412723D01*
X136071990Y-93181390D01*
X135961869Y-93346197D01*
X135923200Y-93540600D01*
X135923200Y-110327879D01*
X134394227Y-111856852D01*
X134356196Y-111764810D01*
X134279400Y-111687879D01*
X134279400Y-102044900D01*
X134252251Y-101908410D01*
X134236865Y-101831057D01*
X134115732Y-101649769D01*
X129374931Y-96908969D01*
X129291584Y-96853278D01*
X129193644Y-96787836D01*
X128979800Y-96745300D01*
X120649563Y-96745300D01*
X117463529Y-93559267D01*
X117953552Y-93231845D01*
X118294925Y-92720943D01*
X118414800Y-92118293D01*
X118414800Y-90761707D01*
X120345200Y-90761707D01*
X120345200Y-92118293D01*
X120465075Y-92720943D01*
X120806448Y-93231845D01*
X121317350Y-93573218D01*
X121361200Y-93581940D01*
X121361200Y-93726000D01*
X121403736Y-93939844D01*
X121524869Y-94121131D01*
X121706156Y-94242264D01*
X121920000Y-94284800D01*
X129282638Y-94284800D01*
X134100864Y-99103026D01*
X134100770Y-99210491D01*
X134214604Y-99485990D01*
X134425201Y-99696956D01*
X134700501Y-99811270D01*
X134998591Y-99811530D01*
X135274090Y-99697696D01*
X135485056Y-99487099D01*
X135599370Y-99211799D01*
X135599630Y-98913709D01*
X135485796Y-98638210D01*
X135275199Y-98427244D01*
X134999899Y-98312930D01*
X134891197Y-98312835D01*
X129909231Y-93330869D01*
X129877621Y-93309748D01*
X129727944Y-93209736D01*
X129514100Y-93167200D01*
X128156746Y-93167200D01*
X128454925Y-92720943D01*
X128574800Y-92118293D01*
X128574800Y-90761707D01*
X128454925Y-90159057D01*
X128113552Y-89648155D01*
X127944204Y-89535000D01*
X130499229Y-89535000D01*
X130499229Y-93345000D01*
X130522885Y-93463927D01*
X130590252Y-93564748D01*
X130691073Y-93632115D01*
X130810000Y-93655771D01*
X133350000Y-93655771D01*
X133468927Y-93632115D01*
X133569748Y-93564748D01*
X133637115Y-93463927D01*
X133660771Y-93345000D01*
X133660771Y-89535000D01*
X133637115Y-89416073D01*
X133569748Y-89315252D01*
X133468927Y-89247885D01*
X133350000Y-89224229D01*
X130810000Y-89224229D01*
X130691073Y-89247885D01*
X130590252Y-89315252D01*
X130522885Y-89416073D01*
X130499229Y-89535000D01*
X127944204Y-89535000D01*
X127602650Y-89306782D01*
X127000000Y-89186907D01*
X126397350Y-89306782D01*
X125886448Y-89648155D01*
X125545075Y-90159057D01*
X125425200Y-90761707D01*
X125425200Y-92118293D01*
X125545075Y-92720943D01*
X125843254Y-93167200D01*
X123076746Y-93167200D01*
X123374925Y-92720943D01*
X123494800Y-92118293D01*
X123494800Y-90761707D01*
X123374925Y-90159057D01*
X123033552Y-89648155D01*
X122522650Y-89306782D01*
X121920000Y-89186907D01*
X121317350Y-89306782D01*
X120806448Y-89648155D01*
X120465075Y-90159057D01*
X120345200Y-90761707D01*
X118414800Y-90761707D01*
X118294925Y-90159057D01*
X117953552Y-89648155D01*
X117442650Y-89306782D01*
X116840000Y-89186907D01*
X116237350Y-89306782D01*
X115726448Y-89648155D01*
X115385075Y-90159057D01*
X115265200Y-90761707D01*
X115265200Y-92118293D01*
X115385075Y-92720943D01*
X115726448Y-93231845D01*
X116237350Y-93573218D01*
X116281200Y-93581940D01*
X116281200Y-93726000D01*
X116323736Y-93939844D01*
X116370567Y-94009931D01*
X116444869Y-94121131D01*
X120022969Y-97699232D01*
X120204257Y-97820365D01*
X120418100Y-97862900D01*
X128748338Y-97862900D01*
X129305579Y-98420141D01*
X129190710Y-98467604D01*
X128979744Y-98678201D01*
X128865430Y-98953501D01*
X128865272Y-99134108D01*
X125627380Y-102372000D01*
X111361633Y-102372000D01*
X111234999Y-102245144D01*
X110959699Y-102130830D01*
X110661609Y-102130570D01*
X110386110Y-102244404D01*
X110175144Y-102455001D01*
X110060830Y-102730301D01*
X110060672Y-102910908D01*
X108704580Y-104267000D01*
X102519365Y-104267000D01*
X102324763Y-103975757D01*
X101958067Y-103730739D01*
X101525520Y-103644700D01*
X100963280Y-103644700D01*
X100530733Y-103730739D01*
X100164037Y-103975757D01*
X99919019Y-104342453D01*
X99832980Y-104775000D01*
X99919019Y-105207547D01*
X100164037Y-105574243D01*
X100530733Y-105819261D01*
X100963280Y-105905300D01*
X101525520Y-105905300D01*
X101958067Y-105819261D01*
X102324763Y-105574243D01*
X102519365Y-105283000D01*
X108915000Y-105283000D01*
X109109403Y-105244331D01*
X109274210Y-105134210D01*
X110779146Y-103629274D01*
X110958391Y-103629430D01*
X111233890Y-103515596D01*
X111361710Y-103388000D01*
X125627380Y-103388000D01*
X129768200Y-107528821D01*
X129768200Y-111160967D01*
X129641344Y-111287601D01*
X129527030Y-111562901D01*
X129526770Y-111860991D01*
X129640604Y-112136490D01*
X129851201Y-112347456D01*
X130126501Y-112461770D01*
X130424591Y-112462030D01*
X130700090Y-112348196D01*
X130911056Y-112137599D01*
X131025370Y-111862299D01*
X131025630Y-111564209D01*
X130911796Y-111288710D01*
X130784200Y-111160890D01*
X130784200Y-107318400D01*
X130745531Y-107123997D01*
X130708990Y-107069310D01*
X130635410Y-106959189D01*
X126556220Y-102880000D01*
X129583746Y-99852474D01*
X129762991Y-99852630D01*
X130038490Y-99738796D01*
X130249456Y-99528199D01*
X130297627Y-99412189D01*
X133161800Y-102276363D01*
X133161800Y-111687778D01*
X133085744Y-111763701D01*
X132971430Y-112039001D01*
X132971170Y-112337091D01*
X133069100Y-112574100D01*
X130928700Y-112574100D01*
X130734297Y-112612769D01*
X130569490Y-112722890D01*
X129676190Y-113616190D01*
X129566069Y-113780997D01*
X129527400Y-113975400D01*
X129527400Y-115703867D01*
X129400544Y-115830501D01*
X129286230Y-116105801D01*
X129285970Y-116403891D01*
X129399804Y-116679390D01*
X129610401Y-116890356D01*
X129885701Y-117004670D01*
X130183791Y-117004930D01*
X130459290Y-116891096D01*
X130670256Y-116680499D01*
X130784570Y-116405199D01*
X130784830Y-116107109D01*
X130670996Y-115831610D01*
X130543400Y-115703790D01*
X130543400Y-114185820D01*
X130753229Y-113975991D01*
X130753229Y-115001040D01*
X130776885Y-115119967D01*
X130844252Y-115220788D01*
X130945073Y-115288155D01*
X131064000Y-115311811D01*
X133731000Y-115311811D01*
X133849927Y-115288155D01*
X133950748Y-115220788D01*
X134018115Y-115119967D01*
X134041771Y-115001040D01*
X134041771Y-113559394D01*
X134081803Y-113551431D01*
X134246610Y-113441310D01*
X136790410Y-110897511D01*
X136900530Y-110732704D01*
X136900531Y-110732703D01*
X136939200Y-110538300D01*
X136939200Y-93751020D01*
X143090900Y-87599320D01*
X143090900Y-119595900D01*
X134286520Y-119595900D01*
X135710010Y-118172410D01*
X135820131Y-118007603D01*
X135858800Y-117813200D01*
X135858800Y-117408960D01*
X139008229Y-117408960D01*
X139008229Y-118999000D01*
X139031885Y-119117927D01*
X139099252Y-119218748D01*
X139200073Y-119286115D01*
X139319000Y-119309771D01*
X141986000Y-119309771D01*
X142104927Y-119286115D01*
X142205748Y-119218748D01*
X142273115Y-119117927D01*
X142296771Y-118999000D01*
X142296771Y-117408960D01*
X142273115Y-117290033D01*
X142205748Y-117189212D01*
X142104927Y-117121845D01*
X141986000Y-117098189D01*
X139319000Y-117098189D01*
X139200073Y-117121845D01*
X139099252Y-117189212D01*
X139031885Y-117290033D01*
X139008229Y-117408960D01*
X135858800Y-117408960D01*
X135858800Y-114348520D01*
X136178958Y-114028362D01*
X136221404Y-114131090D01*
X136432001Y-114342056D01*
X136707301Y-114456370D01*
X137005391Y-114456630D01*
X137280890Y-114342796D01*
X137408710Y-114215200D01*
X138279580Y-114215200D01*
X138629590Y-114565210D01*
X138794397Y-114675331D01*
X138988800Y-114714000D01*
X139008229Y-114714000D01*
X139008229Y-115001040D01*
X139031885Y-115119967D01*
X139099252Y-115220788D01*
X139200073Y-115288155D01*
X139319000Y-115311811D01*
X141986000Y-115311811D01*
X142104927Y-115288155D01*
X142205748Y-115220788D01*
X142273115Y-115119967D01*
X142296771Y-115001040D01*
X142296771Y-113411000D01*
X142273115Y-113292073D01*
X142205748Y-113191252D01*
X142104927Y-113123885D01*
X141986000Y-113100229D01*
X139319000Y-113100229D01*
X139200073Y-113123885D01*
X139099252Y-113191252D01*
X139031885Y-113292073D01*
X139008229Y-113411000D01*
X139008229Y-113507009D01*
X138849210Y-113347990D01*
X138684403Y-113237869D01*
X138490000Y-113199200D01*
X137408633Y-113199200D01*
X137281999Y-113072344D01*
X137178113Y-113029207D01*
X141329210Y-108878110D01*
X141439331Y-108713303D01*
X141478000Y-108518900D01*
X141478000Y-97087569D01*
X142040501Y-96855149D01*
X142573278Y-96323301D01*
X142861970Y-95628053D01*
X142862627Y-94875250D01*
X142575149Y-94179499D01*
X142043301Y-93646722D01*
X141348053Y-93358030D01*
X140595250Y-93357373D01*
X139899499Y-93644851D01*
X139366722Y-94176699D01*
X139078030Y-94871947D01*
X139077373Y-95624750D01*
X139364851Y-96320501D01*
X139896699Y-96853278D01*
X140462000Y-97088011D01*
X140462000Y-108308480D01*
X134991590Y-113778890D01*
X134881469Y-113943697D01*
X134842800Y-114138100D01*
X134842800Y-117602780D01*
X134041771Y-118403809D01*
X134041771Y-117408960D01*
X134018115Y-117290033D01*
X133950748Y-117189212D01*
X133849927Y-117121845D01*
X133731000Y-117098189D01*
X131064000Y-117098189D01*
X130945073Y-117121845D01*
X130844252Y-117189212D01*
X130776885Y-117290033D01*
X130753229Y-117408960D01*
X130753229Y-117696000D01*
X124116721Y-117696000D01*
X116551510Y-110130790D01*
X116386703Y-110020669D01*
X116192300Y-109982000D01*
X116172871Y-109982000D01*
X116172871Y-109397800D01*
X124563180Y-109397800D01*
X126868726Y-111703346D01*
X126868570Y-111882591D01*
X126982404Y-112158090D01*
X127193001Y-112369056D01*
X127468301Y-112483370D01*
X127766391Y-112483630D01*
X128041890Y-112369796D01*
X128252856Y-112159199D01*
X128367170Y-111883899D01*
X128367430Y-111585809D01*
X128253596Y-111310310D01*
X128042999Y-111099344D01*
X127767699Y-110985030D01*
X127587092Y-110984872D01*
X125132810Y-108530590D01*
X124968003Y-108420469D01*
X124773600Y-108381800D01*
X112395000Y-108381800D01*
X112200597Y-108420469D01*
X112035790Y-108530590D01*
X111925669Y-108695397D01*
X111887000Y-108889800D01*
X111887000Y-109002558D01*
X111523915Y-109245163D01*
X111256873Y-109644820D01*
X111163100Y-110116248D01*
X111163100Y-110863752D01*
X111256873Y-111335180D01*
X111523915Y-111734837D01*
X111923572Y-112001879D01*
X112395000Y-112095652D01*
X112866428Y-112001879D01*
X113266085Y-111734837D01*
X113533127Y-111335180D01*
X113626900Y-110863752D01*
X113626900Y-110116248D01*
X113533127Y-109644820D01*
X113368074Y-109397800D01*
X113697129Y-109397800D01*
X113697129Y-111760000D01*
X113720785Y-111878927D01*
X113788152Y-111979748D01*
X113888973Y-112047115D01*
X114007900Y-112070771D01*
X115862100Y-112070771D01*
X115981027Y-112047115D01*
X116081848Y-111979748D01*
X116149215Y-111878927D01*
X116172871Y-111760000D01*
X116172871Y-111188991D01*
X123547089Y-118563210D01*
X123711896Y-118673331D01*
X123744150Y-118679746D01*
X123906300Y-118712000D01*
X130753229Y-118712000D01*
X130753229Y-118999000D01*
X130764786Y-119057100D01*
X119473234Y-119057100D01*
X119874682Y-118656352D01*
X120192437Y-117891112D01*
X120193160Y-117062523D01*
X119876741Y-116296730D01*
X119291352Y-115710318D01*
X118526112Y-115392563D01*
X117697523Y-115391840D01*
X116931730Y-115708259D01*
X116345318Y-116293648D01*
X116027563Y-117058888D01*
X116026840Y-117887477D01*
X116343259Y-118653270D01*
X116746385Y-119057100D01*
X114418404Y-119057100D01*
X114771428Y-118986879D01*
X115171085Y-118719837D01*
X115438127Y-118320180D01*
X115531900Y-117848752D01*
X115531900Y-117101248D01*
X115438127Y-116629820D01*
X115171085Y-116230163D01*
X114771428Y-115963121D01*
X114300000Y-115869348D01*
X113828572Y-115963121D01*
X113428915Y-116230163D01*
X113161873Y-116629820D01*
X113068100Y-117101248D01*
X113068100Y-117848752D01*
X113161873Y-118320180D01*
X113428915Y-118719837D01*
X113828572Y-118986879D01*
X114181596Y-119057100D01*
X111913920Y-119057100D01*
X111908027Y-119051207D01*
X112231428Y-118986879D01*
X112631085Y-118719837D01*
X112898127Y-118320180D01*
X112991900Y-117848752D01*
X112991900Y-117101248D01*
X112898127Y-116629820D01*
X112631085Y-116230163D01*
X112231428Y-115963121D01*
X111760000Y-115869348D01*
X111288572Y-115963121D01*
X110888915Y-116230163D01*
X110621873Y-116629820D01*
X110551854Y-116981830D01*
X110477300Y-116967000D01*
X110425196Y-116967000D01*
X110358127Y-116629820D01*
X110091085Y-116230163D01*
X109691428Y-115963121D01*
X109220000Y-115869348D01*
X108748572Y-115963121D01*
X108348915Y-116230163D01*
X108081873Y-116629820D01*
X107988100Y-117101248D01*
X107988100Y-117848752D01*
X108081873Y-118320180D01*
X108348915Y-118719837D01*
X108748572Y-118986879D01*
X109220000Y-119080652D01*
X109691428Y-118986879D01*
X110091085Y-118719837D01*
X110111846Y-118688766D01*
X110118090Y-118698110D01*
X111015880Y-119595900D01*
X74079100Y-119595900D01*
X74079100Y-117101248D01*
X74968100Y-117101248D01*
X74968100Y-117848752D01*
X75061873Y-118320180D01*
X75328915Y-118719837D01*
X75728572Y-118986879D01*
X76200000Y-119080652D01*
X76671428Y-118986879D01*
X77071085Y-118719837D01*
X77338127Y-118320180D01*
X77431900Y-117848752D01*
X77431900Y-117101248D01*
X77508100Y-117101248D01*
X77508100Y-117848752D01*
X77601873Y-118320180D01*
X77868915Y-118719837D01*
X78268572Y-118986879D01*
X78740000Y-119080652D01*
X79211428Y-118986879D01*
X79611085Y-118719837D01*
X79878127Y-118320180D01*
X79971900Y-117848752D01*
X79971900Y-117101248D01*
X80048100Y-117101248D01*
X80048100Y-117848752D01*
X80141873Y-118320180D01*
X80408915Y-118719837D01*
X80808572Y-118986879D01*
X81280000Y-119080652D01*
X81751428Y-118986879D01*
X82151085Y-118719837D01*
X82418127Y-118320180D01*
X82511900Y-117848752D01*
X82511900Y-117101248D01*
X82588100Y-117101248D01*
X82588100Y-117848752D01*
X82681873Y-118320180D01*
X82948915Y-118719837D01*
X83348572Y-118986879D01*
X83820000Y-119080652D01*
X84291428Y-118986879D01*
X84691085Y-118719837D01*
X84958127Y-118320180D01*
X85051900Y-117848752D01*
X85051900Y-117101248D01*
X85128100Y-117101248D01*
X85128100Y-117848752D01*
X85221873Y-118320180D01*
X85488915Y-118719837D01*
X85888572Y-118986879D01*
X86360000Y-119080652D01*
X86831428Y-118986879D01*
X87231085Y-118719837D01*
X87498127Y-118320180D01*
X87591900Y-117848752D01*
X87591900Y-117101248D01*
X87668100Y-117101248D01*
X87668100Y-117848752D01*
X87761873Y-118320180D01*
X88028915Y-118719837D01*
X88428572Y-118986879D01*
X88900000Y-119080652D01*
X89371428Y-118986879D01*
X89771085Y-118719837D01*
X90038127Y-118320180D01*
X90131900Y-117848752D01*
X90131900Y-117101248D01*
X90208100Y-117101248D01*
X90208100Y-117848752D01*
X90301873Y-118320180D01*
X90568915Y-118719837D01*
X90968572Y-118986879D01*
X91440000Y-119080652D01*
X91911428Y-118986879D01*
X92311085Y-118719837D01*
X92578127Y-118320180D01*
X92671900Y-117848752D01*
X92671900Y-117101248D01*
X92748100Y-117101248D01*
X92748100Y-117848752D01*
X92841873Y-118320180D01*
X93108915Y-118719837D01*
X93508572Y-118986879D01*
X93980000Y-119080652D01*
X94451428Y-118986879D01*
X94851085Y-118719837D01*
X95118127Y-118320180D01*
X95211900Y-117848752D01*
X95211900Y-117101248D01*
X95288100Y-117101248D01*
X95288100Y-117848752D01*
X95381873Y-118320180D01*
X95648915Y-118719837D01*
X96048572Y-118986879D01*
X96520000Y-119080652D01*
X96991428Y-118986879D01*
X97391085Y-118719837D01*
X97658127Y-118320180D01*
X97751900Y-117848752D01*
X97751900Y-117101248D01*
X97828100Y-117101248D01*
X97828100Y-117848752D01*
X97921873Y-118320180D01*
X98188915Y-118719837D01*
X98588572Y-118986879D01*
X99060000Y-119080652D01*
X99531428Y-118986879D01*
X99931085Y-118719837D01*
X100198127Y-118320180D01*
X100291900Y-117848752D01*
X100291900Y-117101248D01*
X100368100Y-117101248D01*
X100368100Y-117848752D01*
X100461873Y-118320180D01*
X100728915Y-118719837D01*
X101128572Y-118986879D01*
X101600000Y-119080652D01*
X102071428Y-118986879D01*
X102471085Y-118719837D01*
X102738127Y-118320180D01*
X102831900Y-117848752D01*
X102831900Y-117101248D01*
X102908100Y-117101248D01*
X102908100Y-117848752D01*
X103001873Y-118320180D01*
X103268915Y-118719837D01*
X103668572Y-118986879D01*
X104140000Y-119080652D01*
X104611428Y-118986879D01*
X105011085Y-118719837D01*
X105278127Y-118320180D01*
X105371900Y-117848752D01*
X105371900Y-117101248D01*
X105448100Y-117101248D01*
X105448100Y-117848752D01*
X105541873Y-118320180D01*
X105808915Y-118719837D01*
X106208572Y-118986879D01*
X106680000Y-119080652D01*
X107151428Y-118986879D01*
X107551085Y-118719837D01*
X107818127Y-118320180D01*
X107911900Y-117848752D01*
X107911900Y-117101248D01*
X107818127Y-116629820D01*
X107551085Y-116230163D01*
X107151428Y-115963121D01*
X106680000Y-115869348D01*
X106208572Y-115963121D01*
X105808915Y-116230163D01*
X105541873Y-116629820D01*
X105448100Y-117101248D01*
X105371900Y-117101248D01*
X105278127Y-116629820D01*
X105011085Y-116230163D01*
X104611428Y-115963121D01*
X104140000Y-115869348D01*
X103668572Y-115963121D01*
X103268915Y-116230163D01*
X103001873Y-116629820D01*
X102908100Y-117101248D01*
X102831900Y-117101248D01*
X102738127Y-116629820D01*
X102471085Y-116230163D01*
X102071428Y-115963121D01*
X101600000Y-115869348D01*
X101128572Y-115963121D01*
X100728915Y-116230163D01*
X100461873Y-116629820D01*
X100368100Y-117101248D01*
X100291900Y-117101248D01*
X100198127Y-116629820D01*
X99931085Y-116230163D01*
X99531428Y-115963121D01*
X99060000Y-115869348D01*
X98588572Y-115963121D01*
X98188915Y-116230163D01*
X97921873Y-116629820D01*
X97828100Y-117101248D01*
X97751900Y-117101248D01*
X97658127Y-116629820D01*
X97391085Y-116230163D01*
X96991428Y-115963121D01*
X96520000Y-115869348D01*
X96048572Y-115963121D01*
X95648915Y-116230163D01*
X95381873Y-116629820D01*
X95288100Y-117101248D01*
X95211900Y-117101248D01*
X95118127Y-116629820D01*
X94851085Y-116230163D01*
X94451428Y-115963121D01*
X93980000Y-115869348D01*
X93508572Y-115963121D01*
X93108915Y-116230163D01*
X92841873Y-116629820D01*
X92748100Y-117101248D01*
X92671900Y-117101248D01*
X92578127Y-116629820D01*
X92311085Y-116230163D01*
X91911428Y-115963121D01*
X91440000Y-115869348D01*
X90968572Y-115963121D01*
X90568915Y-116230163D01*
X90301873Y-116629820D01*
X90208100Y-117101248D01*
X90131900Y-117101248D01*
X90038127Y-116629820D01*
X89771085Y-116230163D01*
X89371428Y-115963121D01*
X88900000Y-115869348D01*
X88428572Y-115963121D01*
X88028915Y-116230163D01*
X87761873Y-116629820D01*
X87668100Y-117101248D01*
X87591900Y-117101248D01*
X87498127Y-116629820D01*
X87231085Y-116230163D01*
X86831428Y-115963121D01*
X86360000Y-115869348D01*
X85888572Y-115963121D01*
X85488915Y-116230163D01*
X85221873Y-116629820D01*
X85128100Y-117101248D01*
X85051900Y-117101248D01*
X84958127Y-116629820D01*
X84691085Y-116230163D01*
X84291428Y-115963121D01*
X83820000Y-115869348D01*
X83348572Y-115963121D01*
X82948915Y-116230163D01*
X82681873Y-116629820D01*
X82588100Y-117101248D01*
X82511900Y-117101248D01*
X82418127Y-116629820D01*
X82151085Y-116230163D01*
X81751428Y-115963121D01*
X81280000Y-115869348D01*
X80808572Y-115963121D01*
X80408915Y-116230163D01*
X80141873Y-116629820D01*
X80048100Y-117101248D01*
X79971900Y-117101248D01*
X79878127Y-116629820D01*
X79611085Y-116230163D01*
X79211428Y-115963121D01*
X78740000Y-115869348D01*
X78268572Y-115963121D01*
X77868915Y-116230163D01*
X77601873Y-116629820D01*
X77508100Y-117101248D01*
X77431900Y-117101248D01*
X77338127Y-116629820D01*
X77071085Y-116230163D01*
X76671428Y-115963121D01*
X76200000Y-115869348D01*
X75728572Y-115963121D01*
X75328915Y-116230163D01*
X75061873Y-116629820D01*
X74968100Y-117101248D01*
X74079100Y-117101248D01*
X74079100Y-112807477D01*
X75386840Y-112807477D01*
X75703259Y-113573270D01*
X76288648Y-114159682D01*
X77053888Y-114477437D01*
X77882477Y-114478160D01*
X78648270Y-114161741D01*
X79234682Y-113576352D01*
X79552437Y-112811112D01*
X79552582Y-112643995D01*
X83832482Y-112643995D01*
X84023491Y-113106273D01*
X84376867Y-113460266D01*
X84838810Y-113652081D01*
X85338995Y-113652518D01*
X85801273Y-113461509D01*
X86155266Y-113108133D01*
X86347081Y-112646190D01*
X86347082Y-112643995D01*
X96532482Y-112643995D01*
X96723491Y-113106273D01*
X97076867Y-113460266D01*
X97538810Y-113652081D01*
X98038995Y-113652518D01*
X98501273Y-113461509D01*
X98855266Y-113108133D01*
X99047081Y-112646190D01*
X99047518Y-112146005D01*
X98856509Y-111683727D01*
X98503133Y-111329734D01*
X98041190Y-111137919D01*
X97541005Y-111137482D01*
X97078727Y-111328491D01*
X96724734Y-111681867D01*
X96532919Y-112143810D01*
X96532482Y-112643995D01*
X86347082Y-112643995D01*
X86347518Y-112146005D01*
X86156509Y-111683727D01*
X85803133Y-111329734D01*
X85341190Y-111137919D01*
X84841005Y-111137482D01*
X84378727Y-111328491D01*
X84024734Y-111681867D01*
X83832919Y-112143810D01*
X83832482Y-112643995D01*
X79552582Y-112643995D01*
X79553160Y-111982523D01*
X79236741Y-111216730D01*
X78651352Y-110630318D01*
X77886112Y-110312563D01*
X77057523Y-110311840D01*
X76291730Y-110628259D01*
X75705318Y-111213648D01*
X75387563Y-111978888D01*
X75386840Y-112807477D01*
X74079100Y-112807477D01*
X74079100Y-105506148D01*
X87833200Y-105506148D01*
X87833200Y-106583852D01*
X87914405Y-106992099D01*
X88145658Y-107338194D01*
X88491753Y-107569447D01*
X88900000Y-107650652D01*
X89308247Y-107569447D01*
X89654342Y-107338194D01*
X89885595Y-106992099D01*
X89966800Y-106583852D01*
X89966800Y-105506148D01*
X90373200Y-105506148D01*
X90373200Y-106583852D01*
X90454405Y-106992099D01*
X90685658Y-107338194D01*
X90830400Y-107434907D01*
X90830400Y-107746800D01*
X90876803Y-107980084D01*
X91008948Y-108177852D01*
X91206716Y-108309997D01*
X91440000Y-108356400D01*
X100140996Y-108356400D01*
X100584616Y-108800021D01*
X100530733Y-108810739D01*
X100164037Y-109055757D01*
X99919019Y-109422453D01*
X99832980Y-109855000D01*
X99919019Y-110287547D01*
X100164037Y-110654243D01*
X100530733Y-110899261D01*
X100963280Y-110985300D01*
X101525520Y-110985300D01*
X101958067Y-110899261D01*
X102324763Y-110654243D01*
X102569781Y-110287547D01*
X102655820Y-109855000D01*
X102569781Y-109422453D01*
X102324763Y-109055757D01*
X101958067Y-108810739D01*
X101854000Y-108790039D01*
X101854000Y-108597700D01*
X101807597Y-108364416D01*
X101771235Y-108309997D01*
X101675452Y-108166647D01*
X100824552Y-107315748D01*
X100626784Y-107183603D01*
X100393500Y-107137200D01*
X94868642Y-107137200D01*
X94965595Y-106992099D01*
X95046800Y-106583852D01*
X95046800Y-105506148D01*
X94965595Y-105097901D01*
X94734342Y-104751806D01*
X94388247Y-104520553D01*
X93980000Y-104439348D01*
X93571753Y-104520553D01*
X93225658Y-104751806D01*
X92994405Y-105097901D01*
X92913200Y-105506148D01*
X92913200Y-106583852D01*
X92994405Y-106992099D01*
X93091358Y-107137200D01*
X92328642Y-107137200D01*
X92425595Y-106992099D01*
X92506800Y-106583852D01*
X92506800Y-105506148D01*
X92425595Y-105097901D01*
X92194342Y-104751806D01*
X91848247Y-104520553D01*
X91440000Y-104439348D01*
X91031753Y-104520553D01*
X90685658Y-104751806D01*
X90454405Y-105097901D01*
X90373200Y-105506148D01*
X89966800Y-105506148D01*
X89885595Y-105097901D01*
X89654342Y-104751806D01*
X89308247Y-104520553D01*
X88900000Y-104439348D01*
X88491753Y-104520553D01*
X88145658Y-104751806D01*
X87914405Y-105097901D01*
X87833200Y-105506148D01*
X74079100Y-105506148D01*
X74079100Y-99943995D01*
X83832482Y-99943995D01*
X84023491Y-100406273D01*
X84376867Y-100760266D01*
X84838810Y-100952081D01*
X85338995Y-100952518D01*
X85801273Y-100761509D01*
X86155266Y-100408133D01*
X86347081Y-99946190D01*
X86347518Y-99446005D01*
X86156509Y-98983727D01*
X85803133Y-98629734D01*
X85341190Y-98437919D01*
X84841005Y-98437482D01*
X84378727Y-98628491D01*
X84024734Y-98981867D01*
X83832919Y-99443810D01*
X83832482Y-99943995D01*
X74079100Y-99943995D01*
X74079100Y-91744800D01*
X82980400Y-91744800D01*
X82980400Y-93211257D01*
X83073206Y-93435311D01*
X83244689Y-93606794D01*
X83468743Y-93699600D01*
X86660200Y-93699600D01*
X86812600Y-93547200D01*
X86812600Y-91592400D01*
X87117400Y-91592400D01*
X87117400Y-93547200D01*
X87269800Y-93699600D01*
X90461257Y-93699600D01*
X90685311Y-93606794D01*
X90856794Y-93435311D01*
X90949600Y-93211257D01*
X90949600Y-91744800D01*
X90797200Y-91592400D01*
X87117400Y-91592400D01*
X86812600Y-91592400D01*
X83132800Y-91592400D01*
X82980400Y-91744800D01*
X74079100Y-91744800D01*
X74079100Y-89210082D01*
X81185444Y-89210082D01*
X81359622Y-89527694D01*
X82176450Y-89838779D01*
X82980400Y-89815607D01*
X82980400Y-91135200D01*
X83132800Y-91287600D01*
X86812600Y-91287600D01*
X86812600Y-89332800D01*
X87117400Y-89332800D01*
X87117400Y-91287600D01*
X90797200Y-91287600D01*
X90949600Y-91135200D01*
X90949600Y-89668743D01*
X90856794Y-89444689D01*
X90685311Y-89273206D01*
X90461257Y-89180400D01*
X87269800Y-89180400D01*
X87117400Y-89332800D01*
X86812600Y-89332800D01*
X86660200Y-89180400D01*
X84164827Y-89180400D01*
X84240378Y-89104849D01*
X84130084Y-88994555D01*
X84447694Y-88820378D01*
X84758779Y-88003550D01*
X84733597Y-87129852D01*
X84447694Y-86439622D01*
X84130082Y-86265444D01*
X82765526Y-87630000D01*
X82779669Y-87644143D01*
X82564143Y-87859669D01*
X82550000Y-87845526D01*
X81185444Y-89210082D01*
X74079100Y-89210082D01*
X74079100Y-87407477D01*
X75386840Y-87407477D01*
X75703259Y-88173270D01*
X76288648Y-88759682D01*
X77053888Y-89077437D01*
X77882477Y-89078160D01*
X78648270Y-88761741D01*
X79234682Y-88176352D01*
X79552437Y-87411112D01*
X79552571Y-87256450D01*
X80341221Y-87256450D01*
X80366403Y-88130148D01*
X80652306Y-88820378D01*
X80969918Y-88994556D01*
X82334474Y-87630000D01*
X80969918Y-86265444D01*
X80652306Y-86439622D01*
X80341221Y-87256450D01*
X79552571Y-87256450D01*
X79553160Y-86582523D01*
X79333093Y-86049918D01*
X81185444Y-86049918D01*
X82550000Y-87414474D01*
X83914556Y-86049918D01*
X83740378Y-85732306D01*
X82923550Y-85421221D01*
X82049852Y-85446403D01*
X81359622Y-85732306D01*
X81185444Y-86049918D01*
X79333093Y-86049918D01*
X79236741Y-85816730D01*
X78651352Y-85230318D01*
X77886112Y-84912563D01*
X77057523Y-84911840D01*
X76291730Y-85228259D01*
X75705318Y-85813648D01*
X75387563Y-86578888D01*
X75386840Y-87407477D01*
X74079100Y-87407477D01*
X74079100Y-82219800D01*
X74663300Y-82219800D01*
X74663300Y-83306257D01*
X74756106Y-83530311D01*
X74927589Y-83701794D01*
X75151643Y-83794600D01*
X75895200Y-83794600D01*
X76047600Y-83642200D01*
X76047600Y-82067400D01*
X74815700Y-82067400D01*
X74663300Y-82219800D01*
X74079100Y-82219800D01*
X74079100Y-80523743D01*
X74663300Y-80523743D01*
X74663300Y-81610200D01*
X74815700Y-81762600D01*
X76047600Y-81762600D01*
X76047600Y-80187800D01*
X75895200Y-80035400D01*
X75151643Y-80035400D01*
X74927589Y-80128206D01*
X74756106Y-80299689D01*
X74663300Y-80523743D01*
X74079100Y-80523743D01*
X74079100Y-79794100D01*
X143090900Y-79794100D01*
X143090900Y-84390279D01*
X143090900Y-84390279D01*
G37*
X143090900Y-84390279D02*
X142171010Y-83470390D01*
X142006203Y-83360269D01*
X141811800Y-83321600D01*
X129919500Y-83321600D01*
X129725097Y-83360269D01*
X129560290Y-83470390D01*
X129531080Y-83499600D01*
X119470729Y-83499600D01*
X119874682Y-83096352D01*
X120192437Y-82331112D01*
X120193160Y-81502523D01*
X119876741Y-80736730D01*
X119291352Y-80150318D01*
X118526112Y-79832563D01*
X117697523Y-79831840D01*
X116931730Y-80148259D01*
X116345318Y-80733648D01*
X116027563Y-81498888D01*
X116026840Y-82327477D01*
X116343259Y-83093270D01*
X116748880Y-83499600D01*
X114405835Y-83499600D01*
X114771428Y-83426879D01*
X115171085Y-83159837D01*
X115438127Y-82760180D01*
X115531900Y-82288752D01*
X115531900Y-81541248D01*
X115438127Y-81069820D01*
X115171085Y-80670163D01*
X114771428Y-80403121D01*
X114300000Y-80309348D01*
X113828572Y-80403121D01*
X113428915Y-80670163D01*
X113161873Y-81069820D01*
X113068100Y-81541248D01*
X113068100Y-82288752D01*
X113161873Y-82760180D01*
X113428915Y-83159837D01*
X113828572Y-83426879D01*
X114194165Y-83499600D01*
X111916420Y-83499600D01*
X111908027Y-83491207D01*
X112231428Y-83426879D01*
X112631085Y-83159837D01*
X112898127Y-82760180D01*
X112991900Y-82288752D01*
X112991900Y-81541248D01*
X112898127Y-81069820D01*
X112631085Y-80670163D01*
X112231428Y-80403121D01*
X111760000Y-80309348D01*
X111288572Y-80403121D01*
X110888915Y-80670163D01*
X110621873Y-81069820D01*
X110551854Y-81421830D01*
X110477300Y-81407000D01*
X110425196Y-81407000D01*
X110358127Y-81069820D01*
X110091085Y-80670163D01*
X109691428Y-80403121D01*
X109220000Y-80309348D01*
X108748572Y-80403121D01*
X108348915Y-80670163D01*
X108081873Y-81069820D01*
X107988100Y-81541248D01*
X107988100Y-82288752D01*
X108081873Y-82760180D01*
X108348915Y-83159837D01*
X108748572Y-83426879D01*
X109220000Y-83520652D01*
X109691428Y-83426879D01*
X110091085Y-83159837D01*
X110111846Y-83128766D01*
X110118090Y-83138110D01*
X111346790Y-84366810D01*
X111511596Y-84476931D01*
X111706000Y-84515600D01*
X129741500Y-84515600D01*
X129935903Y-84476931D01*
X130100710Y-84366810D01*
X130129920Y-84337600D01*
X139681370Y-84337600D01*
X139366722Y-84651699D01*
X139131989Y-85217000D01*
X109524800Y-85217000D01*
X109362650Y-85249254D01*
X109330396Y-85255669D01*
X109165589Y-85365790D01*
X106279080Y-88252300D01*
X102120550Y-88252300D01*
X102221970Y-88008053D01*
X102222627Y-87255250D01*
X101935149Y-86559499D01*
X101403301Y-86026722D01*
X100708053Y-85738030D01*
X99955250Y-85737373D01*
X99259499Y-86024851D01*
X98726722Y-86556699D01*
X98451139Y-87220376D01*
X98375690Y-87270790D01*
X96167251Y-89479229D01*
X95662749Y-89479229D01*
X89948710Y-83765190D01*
X89783903Y-83655069D01*
X89589500Y-83616400D01*
X81553220Y-83616400D01*
X81428027Y-83491207D01*
X81751428Y-83426879D01*
X82151085Y-83159837D01*
X82418127Y-82760180D01*
X82511900Y-82288752D01*
X82511900Y-81541248D01*
X82588100Y-81541248D01*
X82588100Y-82288752D01*
X82681873Y-82760180D01*
X82948915Y-83159837D01*
X83348572Y-83426879D01*
X83820000Y-83520652D01*
X84291428Y-83426879D01*
X84691085Y-83159837D01*
X84958127Y-82760180D01*
X85051900Y-82288752D01*
X85051900Y-81541248D01*
X85128100Y-81541248D01*
X85128100Y-82288752D01*
X85221873Y-82760180D01*
X85488915Y-83159837D01*
X85888572Y-83426879D01*
X86360000Y-83520652D01*
X86831428Y-83426879D01*
X87231085Y-83159837D01*
X87498127Y-82760180D01*
X87591900Y-82288752D01*
X87591900Y-81541248D01*
X87668100Y-81541248D01*
X87668100Y-82288752D01*
X87761873Y-82760180D01*
X88028915Y-83159837D01*
X88428572Y-83426879D01*
X88900000Y-83520652D01*
X89371428Y-83426879D01*
X89771085Y-83159837D01*
X90038127Y-82760180D01*
X90131900Y-82288752D01*
X90131900Y-81541248D01*
X90208100Y-81541248D01*
X90208100Y-82288752D01*
X90301873Y-82760180D01*
X90568915Y-83159837D01*
X90968572Y-83426879D01*
X91440000Y-83520652D01*
X91911428Y-83426879D01*
X92311085Y-83159837D01*
X92578127Y-82760180D01*
X92671900Y-82288752D01*
X92671900Y-81541248D01*
X92748100Y-81541248D01*
X92748100Y-82288752D01*
X92841873Y-82760180D01*
X93108915Y-83159837D01*
X93508572Y-83426879D01*
X93980000Y-83520652D01*
X94451428Y-83426879D01*
X94851085Y-83159837D01*
X95118127Y-82760180D01*
X95211900Y-82288752D01*
X95211900Y-81541248D01*
X95288100Y-81541248D01*
X95288100Y-82288752D01*
X95381873Y-82760180D01*
X95648915Y-83159837D01*
X96048572Y-83426879D01*
X96520000Y-83520652D01*
X96991428Y-83426879D01*
X97391085Y-83159837D01*
X97658127Y-82760180D01*
X97751900Y-82288752D01*
X97751900Y-81541248D01*
X97828100Y-81541248D01*
X97828100Y-82288752D01*
X97921873Y-82760180D01*
X98188915Y-83159837D01*
X98588572Y-83426879D01*
X99060000Y-83520652D01*
X99531428Y-83426879D01*
X99931085Y-83159837D01*
X100198127Y-82760180D01*
X100291900Y-82288752D01*
X100291900Y-81541248D01*
X100368100Y-81541248D01*
X100368100Y-82288752D01*
X100461873Y-82760180D01*
X100728915Y-83159837D01*
X101128572Y-83426879D01*
X101600000Y-83520652D01*
X102071428Y-83426879D01*
X102471085Y-83159837D01*
X102738127Y-82760180D01*
X102831900Y-82288752D01*
X102831900Y-81541248D01*
X102908100Y-81541248D01*
X102908100Y-82288752D01*
X103001873Y-82760180D01*
X103268915Y-83159837D01*
X103668572Y-83426879D01*
X104140000Y-83520652D01*
X104611428Y-83426879D01*
X105011085Y-83159837D01*
X105278127Y-82760180D01*
X105371900Y-82288752D01*
X105371900Y-81541248D01*
X105448100Y-81541248D01*
X105448100Y-82288752D01*
X105541873Y-82760180D01*
X105808915Y-83159837D01*
X106208572Y-83426879D01*
X106680000Y-83520652D01*
X107151428Y-83426879D01*
X107551085Y-83159837D01*
X107818127Y-82760180D01*
X107911900Y-82288752D01*
X107911900Y-81541248D01*
X107818127Y-81069820D01*
X107551085Y-80670163D01*
X107151428Y-80403121D01*
X106680000Y-80309348D01*
X106208572Y-80403121D01*
X105808915Y-80670163D01*
X105541873Y-81069820D01*
X105448100Y-81541248D01*
X105371900Y-81541248D01*
X105278127Y-81069820D01*
X105011085Y-80670163D01*
X104611428Y-80403121D01*
X104140000Y-80309348D01*
X103668572Y-80403121D01*
X103268915Y-80670163D01*
X103001873Y-81069820D01*
X102908100Y-81541248D01*
X102831900Y-81541248D01*
X102738127Y-81069820D01*
X102471085Y-80670163D01*
X102071428Y-80403121D01*
X101600000Y-80309348D01*
X101128572Y-80403121D01*
X100728915Y-80670163D01*
X100461873Y-81069820D01*
X100368100Y-81541248D01*
X100291900Y-81541248D01*
X100198127Y-81069820D01*
X99931085Y-80670163D01*
X99531428Y-80403121D01*
X99060000Y-80309348D01*
X98588572Y-80403121D01*
X98188915Y-80670163D01*
X97921873Y-81069820D01*
X97828100Y-81541248D01*
X97751900Y-81541248D01*
X97658127Y-81069820D01*
X97391085Y-80670163D01*
X96991428Y-80403121D01*
X96520000Y-80309348D01*
X96048572Y-80403121D01*
X95648915Y-80670163D01*
X95381873Y-81069820D01*
X95288100Y-81541248D01*
X95211900Y-81541248D01*
X95118127Y-81069820D01*
X94851085Y-80670163D01*
X94451428Y-80403121D01*
X93980000Y-80309348D01*
X93508572Y-80403121D01*
X93108915Y-80670163D01*
X92841873Y-81069820D01*
X92748100Y-81541248D01*
X92671900Y-81541248D01*
X92578127Y-81069820D01*
X92311085Y-80670163D01*
X91911428Y-80403121D01*
X91440000Y-80309348D01*
X90968572Y-80403121D01*
X90568915Y-80670163D01*
X90301873Y-81069820D01*
X90208100Y-81541248D01*
X90131900Y-81541248D01*
X90038127Y-81069820D01*
X89771085Y-80670163D01*
X89371428Y-80403121D01*
X88900000Y-80309348D01*
X88428572Y-80403121D01*
X88028915Y-80670163D01*
X87761873Y-81069820D01*
X87668100Y-81541248D01*
X87591900Y-81541248D01*
X87498127Y-81069820D01*
X87231085Y-80670163D01*
X86831428Y-80403121D01*
X86360000Y-80309348D01*
X85888572Y-80403121D01*
X85488915Y-80670163D01*
X85221873Y-81069820D01*
X85128100Y-81541248D01*
X85051900Y-81541248D01*
X84958127Y-81069820D01*
X84691085Y-80670163D01*
X84291428Y-80403121D01*
X83820000Y-80309348D01*
X83348572Y-80403121D01*
X82948915Y-80670163D01*
X82681873Y-81069820D01*
X82588100Y-81541248D01*
X82511900Y-81541248D01*
X82418127Y-81069820D01*
X82151085Y-80670163D01*
X81751428Y-80403121D01*
X81280000Y-80309348D01*
X80808572Y-80403121D01*
X80408915Y-80670163D01*
X80141873Y-81069820D01*
X80071854Y-81421830D01*
X79997300Y-81407000D01*
X79945196Y-81407000D01*
X79878127Y-81069820D01*
X79611085Y-80670163D01*
X79211428Y-80403121D01*
X78740000Y-80309348D01*
X78268572Y-80403121D01*
X77868915Y-80670163D01*
X77736700Y-80868037D01*
X77736700Y-80523743D01*
X77643894Y-80299689D01*
X77472411Y-80128206D01*
X77248357Y-80035400D01*
X76504800Y-80035400D01*
X76352400Y-80187800D01*
X76352400Y-81762600D01*
X76372400Y-81762600D01*
X76372400Y-82067400D01*
X76352400Y-82067400D01*
X76352400Y-83642200D01*
X76504800Y-83794600D01*
X77248357Y-83794600D01*
X77472411Y-83701794D01*
X77643894Y-83530311D01*
X77736700Y-83306257D01*
X77736700Y-82961963D01*
X77868915Y-83159837D01*
X78268572Y-83426879D01*
X78740000Y-83520652D01*
X79211428Y-83426879D01*
X79611085Y-83159837D01*
X79631846Y-83128766D01*
X79638090Y-83138110D01*
X80983590Y-84483610D01*
X81148396Y-84593731D01*
X81180650Y-84600146D01*
X81342800Y-84632400D01*
X89379080Y-84632400D01*
X94225909Y-89479229D01*
X92540000Y-89479229D01*
X92421073Y-89502885D01*
X92320252Y-89570252D01*
X92252885Y-89671073D01*
X92229229Y-89790000D01*
X92229229Y-93090000D01*
X92252885Y-93208927D01*
X92320252Y-93309748D01*
X92421073Y-93377115D01*
X92540000Y-93400771D01*
X99290000Y-93400771D01*
X99408927Y-93377115D01*
X99509748Y-93309748D01*
X99577115Y-93208927D01*
X99600771Y-93090000D01*
X99600771Y-89790000D01*
X99577115Y-89671073D01*
X99509748Y-89570252D01*
X99408927Y-89502885D01*
X99290000Y-89479229D01*
X97604091Y-89479229D01*
X98624847Y-88458473D01*
X98724851Y-88700501D01*
X99256699Y-89233278D01*
X99951947Y-89521970D01*
X100704750Y-89522627D01*
X101365774Y-89249498D01*
X101460300Y-89268300D01*
X104902000Y-89268300D01*
X104902000Y-89287955D01*
X104807350Y-89306782D01*
X104296448Y-89648155D01*
X103955075Y-90159057D01*
X103835200Y-90761707D01*
X103835200Y-92118293D01*
X103955075Y-92720943D01*
X104296448Y-93231845D01*
X104807350Y-93573218D01*
X105410000Y-93693093D01*
X106012650Y-93573218D01*
X106089534Y-93521846D01*
X101687180Y-97924200D01*
X89146800Y-97924200D01*
X88952396Y-97962869D01*
X88787590Y-98072990D01*
X87270790Y-99589790D01*
X87160669Y-99754597D01*
X87122000Y-99949000D01*
X87122000Y-100091406D01*
X86875658Y-100256006D01*
X86644405Y-100602101D01*
X86563200Y-101010348D01*
X86563200Y-102088052D01*
X86644405Y-102496299D01*
X86875658Y-102842394D01*
X87221753Y-103073647D01*
X87630000Y-103154852D01*
X88038247Y-103073647D01*
X88384342Y-102842394D01*
X88615595Y-102496299D01*
X88696800Y-102088052D01*
X88696800Y-101010348D01*
X94183200Y-101010348D01*
X94183200Y-102088052D01*
X94264405Y-102496299D01*
X94495658Y-102842394D01*
X94841753Y-103073647D01*
X95250000Y-103154852D01*
X95658247Y-103073647D01*
X96004342Y-102842394D01*
X96235595Y-102496299D01*
X96316800Y-102088052D01*
X96316800Y-101010348D01*
X96235595Y-100602101D01*
X96004342Y-100256006D01*
X95658247Y-100024753D01*
X95250000Y-99943548D01*
X94841753Y-100024753D01*
X94495658Y-100256006D01*
X94264405Y-100602101D01*
X94183200Y-101010348D01*
X88696800Y-101010348D01*
X88615595Y-100602101D01*
X88384342Y-100256006D01*
X88178772Y-100118648D01*
X89357220Y-98940200D01*
X96766474Y-98940200D01*
X96724734Y-98981867D01*
X96532919Y-99443810D01*
X96532482Y-99943995D01*
X96723491Y-100406273D01*
X97076867Y-100760266D01*
X97538810Y-100952081D01*
X98038995Y-100952518D01*
X98501273Y-100761509D01*
X98855266Y-100408133D01*
X99047081Y-99946190D01*
X99047518Y-99446005D01*
X98856509Y-98983727D01*
X98813058Y-98940200D01*
X101565180Y-98940200D01*
X102812226Y-100187246D01*
X102812070Y-100366491D01*
X102925904Y-100641990D01*
X103136501Y-100852956D01*
X103411801Y-100967270D01*
X103709891Y-100967530D01*
X103985390Y-100853696D01*
X104196356Y-100643099D01*
X104310670Y-100367799D01*
X104310930Y-100069709D01*
X104197096Y-99794210D01*
X103986499Y-99583244D01*
X103711199Y-99468930D01*
X103530592Y-99468772D01*
X103005111Y-98943291D01*
X108473370Y-98943291D01*
X108587204Y-99218790D01*
X108797801Y-99429756D01*
X109073101Y-99544070D01*
X109371191Y-99544330D01*
X109646690Y-99430496D01*
X109774510Y-99302900D01*
X127563767Y-99302900D01*
X127690401Y-99429756D01*
X127965701Y-99544070D01*
X128263791Y-99544330D01*
X128539290Y-99430496D01*
X128750256Y-99219899D01*
X128864570Y-98944599D01*
X128864830Y-98646509D01*
X128750996Y-98371010D01*
X128540399Y-98160044D01*
X128265099Y-98045730D01*
X127967009Y-98045470D01*
X127691510Y-98159304D01*
X127563690Y-98286900D01*
X109774433Y-98286900D01*
X109647799Y-98160044D01*
X109372499Y-98045730D01*
X109074409Y-98045470D01*
X108798910Y-98159304D01*
X108587944Y-98369901D01*
X108473630Y-98645201D01*
X108473370Y-98943291D01*
X103005111Y-98943291D01*
X102555020Y-98493200D01*
X108909229Y-92138991D01*
X108909229Y-93345000D01*
X108932885Y-93463927D01*
X109000252Y-93564748D01*
X109101073Y-93632115D01*
X109220000Y-93655771D01*
X111760000Y-93655771D01*
X111878927Y-93632115D01*
X111979748Y-93564748D01*
X112047115Y-93463927D01*
X112070771Y-93345000D01*
X112070771Y-89535000D01*
X112047115Y-89416073D01*
X111979748Y-89315252D01*
X111878927Y-89247885D01*
X111760000Y-89224229D01*
X109220000Y-89224229D01*
X109101073Y-89247885D01*
X109000252Y-89315252D01*
X108932885Y-89416073D01*
X108909229Y-89535000D01*
X108909229Y-90932000D01*
X108889800Y-90932000D01*
X108695396Y-90970669D01*
X108530590Y-91080790D01*
X106813553Y-92797827D01*
X106864925Y-92720943D01*
X106984800Y-92118293D01*
X106984800Y-90761707D01*
X106864925Y-90159057D01*
X106523552Y-89648155D01*
X106400915Y-89566212D01*
X106404210Y-89564010D01*
X106848710Y-89119510D01*
X109735221Y-86233000D01*
X139132431Y-86233000D01*
X139364851Y-86795501D01*
X139896699Y-87328278D01*
X140591947Y-87616970D01*
X141344750Y-87617627D01*
X141840657Y-87412723D01*
X136071990Y-93181390D01*
X135961869Y-93346197D01*
X135923200Y-93540600D01*
X135923200Y-110327879D01*
X134394227Y-111856852D01*
X134356196Y-111764810D01*
X134279400Y-111687879D01*
X134279400Y-102044900D01*
X134252251Y-101908410D01*
X134236865Y-101831057D01*
X134115732Y-101649769D01*
X129374931Y-96908969D01*
X129291584Y-96853278D01*
X129193644Y-96787836D01*
X128979800Y-96745300D01*
X120649563Y-96745300D01*
X117463529Y-93559267D01*
X117953552Y-93231845D01*
X118294925Y-92720943D01*
X118414800Y-92118293D01*
X118414800Y-90761707D01*
X120345200Y-90761707D01*
X120345200Y-92118293D01*
X120465075Y-92720943D01*
X120806448Y-93231845D01*
X121317350Y-93573218D01*
X121361200Y-93581940D01*
X121361200Y-93726000D01*
X121403736Y-93939844D01*
X121524869Y-94121131D01*
X121706156Y-94242264D01*
X121920000Y-94284800D01*
X129282638Y-94284800D01*
X134100864Y-99103026D01*
X134100770Y-99210491D01*
X134214604Y-99485990D01*
X134425201Y-99696956D01*
X134700501Y-99811270D01*
X134998591Y-99811530D01*
X135274090Y-99697696D01*
X135485056Y-99487099D01*
X135599370Y-99211799D01*
X135599630Y-98913709D01*
X135485796Y-98638210D01*
X135275199Y-98427244D01*
X134999899Y-98312930D01*
X134891197Y-98312835D01*
X129909231Y-93330869D01*
X129877621Y-93309748D01*
X129727944Y-93209736D01*
X129514100Y-93167200D01*
X128156746Y-93167200D01*
X128454925Y-92720943D01*
X128574800Y-92118293D01*
X128574800Y-90761707D01*
X128454925Y-90159057D01*
X128113552Y-89648155D01*
X127944204Y-89535000D01*
X130499229Y-89535000D01*
X130499229Y-93345000D01*
X130522885Y-93463927D01*
X130590252Y-93564748D01*
X130691073Y-93632115D01*
X130810000Y-93655771D01*
X133350000Y-93655771D01*
X133468927Y-93632115D01*
X133569748Y-93564748D01*
X133637115Y-93463927D01*
X133660771Y-93345000D01*
X133660771Y-89535000D01*
X133637115Y-89416073D01*
X133569748Y-89315252D01*
X133468927Y-89247885D01*
X133350000Y-89224229D01*
X130810000Y-89224229D01*
X130691073Y-89247885D01*
X130590252Y-89315252D01*
X130522885Y-89416073D01*
X130499229Y-89535000D01*
X127944204Y-89535000D01*
X127602650Y-89306782D01*
X127000000Y-89186907D01*
X126397350Y-89306782D01*
X125886448Y-89648155D01*
X125545075Y-90159057D01*
X125425200Y-90761707D01*
X125425200Y-92118293D01*
X125545075Y-92720943D01*
X125843254Y-93167200D01*
X123076746Y-93167200D01*
X123374925Y-92720943D01*
X123494800Y-92118293D01*
X123494800Y-90761707D01*
X123374925Y-90159057D01*
X123033552Y-89648155D01*
X122522650Y-89306782D01*
X121920000Y-89186907D01*
X121317350Y-89306782D01*
X120806448Y-89648155D01*
X120465075Y-90159057D01*
X120345200Y-90761707D01*
X118414800Y-90761707D01*
X118294925Y-90159057D01*
X117953552Y-89648155D01*
X117442650Y-89306782D01*
X116840000Y-89186907D01*
X116237350Y-89306782D01*
X115726448Y-89648155D01*
X115385075Y-90159057D01*
X115265200Y-90761707D01*
X115265200Y-92118293D01*
X115385075Y-92720943D01*
X115726448Y-93231845D01*
X116237350Y-93573218D01*
X116281200Y-93581940D01*
X116281200Y-93726000D01*
X116323736Y-93939844D01*
X116370567Y-94009931D01*
X116444869Y-94121131D01*
X120022969Y-97699232D01*
X120204257Y-97820365D01*
X120418100Y-97862900D01*
X128748338Y-97862900D01*
X129305579Y-98420141D01*
X129190710Y-98467604D01*
X128979744Y-98678201D01*
X128865430Y-98953501D01*
X128865272Y-99134108D01*
X125627380Y-102372000D01*
X111361633Y-102372000D01*
X111234999Y-102245144D01*
X110959699Y-102130830D01*
X110661609Y-102130570D01*
X110386110Y-102244404D01*
X110175144Y-102455001D01*
X110060830Y-102730301D01*
X110060672Y-102910908D01*
X108704580Y-104267000D01*
X102519365Y-104267000D01*
X102324763Y-103975757D01*
X101958067Y-103730739D01*
X101525520Y-103644700D01*
X100963280Y-103644700D01*
X100530733Y-103730739D01*
X100164037Y-103975757D01*
X99919019Y-104342453D01*
X99832980Y-104775000D01*
X99919019Y-105207547D01*
X100164037Y-105574243D01*
X100530733Y-105819261D01*
X100963280Y-105905300D01*
X101525520Y-105905300D01*
X101958067Y-105819261D01*
X102324763Y-105574243D01*
X102519365Y-105283000D01*
X108915000Y-105283000D01*
X109109403Y-105244331D01*
X109274210Y-105134210D01*
X110779146Y-103629274D01*
X110958391Y-103629430D01*
X111233890Y-103515596D01*
X111361710Y-103388000D01*
X125627380Y-103388000D01*
X129768200Y-107528821D01*
X129768200Y-111160967D01*
X129641344Y-111287601D01*
X129527030Y-111562901D01*
X129526770Y-111860991D01*
X129640604Y-112136490D01*
X129851201Y-112347456D01*
X130126501Y-112461770D01*
X130424591Y-112462030D01*
X130700090Y-112348196D01*
X130911056Y-112137599D01*
X131025370Y-111862299D01*
X131025630Y-111564209D01*
X130911796Y-111288710D01*
X130784200Y-111160890D01*
X130784200Y-107318400D01*
X130745531Y-107123997D01*
X130708990Y-107069310D01*
X130635410Y-106959189D01*
X126556220Y-102880000D01*
X129583746Y-99852474D01*
X129762991Y-99852630D01*
X130038490Y-99738796D01*
X130249456Y-99528199D01*
X130297627Y-99412189D01*
X133161800Y-102276363D01*
X133161800Y-111687778D01*
X133085744Y-111763701D01*
X132971430Y-112039001D01*
X132971170Y-112337091D01*
X133069100Y-112574100D01*
X130928700Y-112574100D01*
X130734297Y-112612769D01*
X130569490Y-112722890D01*
X129676190Y-113616190D01*
X129566069Y-113780997D01*
X129527400Y-113975400D01*
X129527400Y-115703867D01*
X129400544Y-115830501D01*
X129286230Y-116105801D01*
X129285970Y-116403891D01*
X129399804Y-116679390D01*
X129610401Y-116890356D01*
X129885701Y-117004670D01*
X130183791Y-117004930D01*
X130459290Y-116891096D01*
X130670256Y-116680499D01*
X130784570Y-116405199D01*
X130784830Y-116107109D01*
X130670996Y-115831610D01*
X130543400Y-115703790D01*
X130543400Y-114185820D01*
X130753229Y-113975991D01*
X130753229Y-115001040D01*
X130776885Y-115119967D01*
X130844252Y-115220788D01*
X130945073Y-115288155D01*
X131064000Y-115311811D01*
X133731000Y-115311811D01*
X133849927Y-115288155D01*
X133950748Y-115220788D01*
X134018115Y-115119967D01*
X134041771Y-115001040D01*
X134041771Y-113559394D01*
X134081803Y-113551431D01*
X134246610Y-113441310D01*
X136790410Y-110897511D01*
X136900530Y-110732704D01*
X136900531Y-110732703D01*
X136939200Y-110538300D01*
X136939200Y-93751020D01*
X143090900Y-87599320D01*
X143090900Y-119595900D01*
X134286520Y-119595900D01*
X135710010Y-118172410D01*
X135820131Y-118007603D01*
X135858800Y-117813200D01*
X135858800Y-117408960D01*
X139008229Y-117408960D01*
X139008229Y-118999000D01*
X139031885Y-119117927D01*
X139099252Y-119218748D01*
X139200073Y-119286115D01*
X139319000Y-119309771D01*
X141986000Y-119309771D01*
X142104927Y-119286115D01*
X142205748Y-119218748D01*
X142273115Y-119117927D01*
X142296771Y-118999000D01*
X142296771Y-117408960D01*
X142273115Y-117290033D01*
X142205748Y-117189212D01*
X142104927Y-117121845D01*
X141986000Y-117098189D01*
X139319000Y-117098189D01*
X139200073Y-117121845D01*
X139099252Y-117189212D01*
X139031885Y-117290033D01*
X139008229Y-117408960D01*
X135858800Y-117408960D01*
X135858800Y-114348520D01*
X136178958Y-114028362D01*
X136221404Y-114131090D01*
X136432001Y-114342056D01*
X136707301Y-114456370D01*
X137005391Y-114456630D01*
X137280890Y-114342796D01*
X137408710Y-114215200D01*
X138279580Y-114215200D01*
X138629590Y-114565210D01*
X138794397Y-114675331D01*
X138988800Y-114714000D01*
X139008229Y-114714000D01*
X139008229Y-115001040D01*
X139031885Y-115119967D01*
X139099252Y-115220788D01*
X139200073Y-115288155D01*
X139319000Y-115311811D01*
X141986000Y-115311811D01*
X142104927Y-115288155D01*
X142205748Y-115220788D01*
X142273115Y-115119967D01*
X142296771Y-115001040D01*
X142296771Y-113411000D01*
X142273115Y-113292073D01*
X142205748Y-113191252D01*
X142104927Y-113123885D01*
X141986000Y-113100229D01*
X139319000Y-113100229D01*
X139200073Y-113123885D01*
X139099252Y-113191252D01*
X139031885Y-113292073D01*
X139008229Y-113411000D01*
X139008229Y-113507009D01*
X138849210Y-113347990D01*
X138684403Y-113237869D01*
X138490000Y-113199200D01*
X137408633Y-113199200D01*
X137281999Y-113072344D01*
X137178113Y-113029207D01*
X141329210Y-108878110D01*
X141439331Y-108713303D01*
X141478000Y-108518900D01*
X141478000Y-97087569D01*
X142040501Y-96855149D01*
X142573278Y-96323301D01*
X142861970Y-95628053D01*
X142862627Y-94875250D01*
X142575149Y-94179499D01*
X142043301Y-93646722D01*
X141348053Y-93358030D01*
X140595250Y-93357373D01*
X139899499Y-93644851D01*
X139366722Y-94176699D01*
X139078030Y-94871947D01*
X139077373Y-95624750D01*
X139364851Y-96320501D01*
X139896699Y-96853278D01*
X140462000Y-97088011D01*
X140462000Y-108308480D01*
X134991590Y-113778890D01*
X134881469Y-113943697D01*
X134842800Y-114138100D01*
X134842800Y-117602780D01*
X134041771Y-118403809D01*
X134041771Y-117408960D01*
X134018115Y-117290033D01*
X133950748Y-117189212D01*
X133849927Y-117121845D01*
X133731000Y-117098189D01*
X131064000Y-117098189D01*
X130945073Y-117121845D01*
X130844252Y-117189212D01*
X130776885Y-117290033D01*
X130753229Y-117408960D01*
X130753229Y-117696000D01*
X124116721Y-117696000D01*
X116551510Y-110130790D01*
X116386703Y-110020669D01*
X116192300Y-109982000D01*
X116172871Y-109982000D01*
X116172871Y-109397800D01*
X124563180Y-109397800D01*
X126868726Y-111703346D01*
X126868570Y-111882591D01*
X126982404Y-112158090D01*
X127193001Y-112369056D01*
X127468301Y-112483370D01*
X127766391Y-112483630D01*
X128041890Y-112369796D01*
X128252856Y-112159199D01*
X128367170Y-111883899D01*
X128367430Y-111585809D01*
X128253596Y-111310310D01*
X128042999Y-111099344D01*
X127767699Y-110985030D01*
X127587092Y-110984872D01*
X125132810Y-108530590D01*
X124968003Y-108420469D01*
X124773600Y-108381800D01*
X112395000Y-108381800D01*
X112200597Y-108420469D01*
X112035790Y-108530590D01*
X111925669Y-108695397D01*
X111887000Y-108889800D01*
X111887000Y-109002558D01*
X111523915Y-109245163D01*
X111256873Y-109644820D01*
X111163100Y-110116248D01*
X111163100Y-110863752D01*
X111256873Y-111335180D01*
X111523915Y-111734837D01*
X111923572Y-112001879D01*
X112395000Y-112095652D01*
X112866428Y-112001879D01*
X113266085Y-111734837D01*
X113533127Y-111335180D01*
X113626900Y-110863752D01*
X113626900Y-110116248D01*
X113533127Y-109644820D01*
X113368074Y-109397800D01*
X113697129Y-109397800D01*
X113697129Y-111760000D01*
X113720785Y-111878927D01*
X113788152Y-111979748D01*
X113888973Y-112047115D01*
X114007900Y-112070771D01*
X115862100Y-112070771D01*
X115981027Y-112047115D01*
X116081848Y-111979748D01*
X116149215Y-111878927D01*
X116172871Y-111760000D01*
X116172871Y-111188991D01*
X123547089Y-118563210D01*
X123711896Y-118673331D01*
X123744150Y-118679746D01*
X123906300Y-118712000D01*
X130753229Y-118712000D01*
X130753229Y-118999000D01*
X130764786Y-119057100D01*
X119473234Y-119057100D01*
X119874682Y-118656352D01*
X120192437Y-117891112D01*
X120193160Y-117062523D01*
X119876741Y-116296730D01*
X119291352Y-115710318D01*
X118526112Y-115392563D01*
X117697523Y-115391840D01*
X116931730Y-115708259D01*
X116345318Y-116293648D01*
X116027563Y-117058888D01*
X116026840Y-117887477D01*
X116343259Y-118653270D01*
X116746385Y-119057100D01*
X114418404Y-119057100D01*
X114771428Y-118986879D01*
X115171085Y-118719837D01*
X115438127Y-118320180D01*
X115531900Y-117848752D01*
X115531900Y-117101248D01*
X115438127Y-116629820D01*
X115171085Y-116230163D01*
X114771428Y-115963121D01*
X114300000Y-115869348D01*
X113828572Y-115963121D01*
X113428915Y-116230163D01*
X113161873Y-116629820D01*
X113068100Y-117101248D01*
X113068100Y-117848752D01*
X113161873Y-118320180D01*
X113428915Y-118719837D01*
X113828572Y-118986879D01*
X114181596Y-119057100D01*
X111913920Y-119057100D01*
X111908027Y-119051207D01*
X112231428Y-118986879D01*
X112631085Y-118719837D01*
X112898127Y-118320180D01*
X112991900Y-117848752D01*
X112991900Y-117101248D01*
X112898127Y-116629820D01*
X112631085Y-116230163D01*
X112231428Y-115963121D01*
X111760000Y-115869348D01*
X111288572Y-115963121D01*
X110888915Y-116230163D01*
X110621873Y-116629820D01*
X110551854Y-116981830D01*
X110477300Y-116967000D01*
X110425196Y-116967000D01*
X110358127Y-116629820D01*
X110091085Y-116230163D01*
X109691428Y-115963121D01*
X109220000Y-115869348D01*
X108748572Y-115963121D01*
X108348915Y-116230163D01*
X108081873Y-116629820D01*
X107988100Y-117101248D01*
X107988100Y-117848752D01*
X108081873Y-118320180D01*
X108348915Y-118719837D01*
X108748572Y-118986879D01*
X109220000Y-119080652D01*
X109691428Y-118986879D01*
X110091085Y-118719837D01*
X110111846Y-118688766D01*
X110118090Y-118698110D01*
X111015880Y-119595900D01*
X74079100Y-119595900D01*
X74079100Y-117101248D01*
X74968100Y-117101248D01*
X74968100Y-117848752D01*
X75061873Y-118320180D01*
X75328915Y-118719837D01*
X75728572Y-118986879D01*
X76200000Y-119080652D01*
X76671428Y-118986879D01*
X77071085Y-118719837D01*
X77338127Y-118320180D01*
X77431900Y-117848752D01*
X77431900Y-117101248D01*
X77508100Y-117101248D01*
X77508100Y-117848752D01*
X77601873Y-118320180D01*
X77868915Y-118719837D01*
X78268572Y-118986879D01*
X78740000Y-119080652D01*
X79211428Y-118986879D01*
X79611085Y-118719837D01*
X79878127Y-118320180D01*
X79971900Y-117848752D01*
X79971900Y-117101248D01*
X80048100Y-117101248D01*
X80048100Y-117848752D01*
X80141873Y-118320180D01*
X80408915Y-118719837D01*
X80808572Y-118986879D01*
X81280000Y-119080652D01*
X81751428Y-118986879D01*
X82151085Y-118719837D01*
X82418127Y-118320180D01*
X82511900Y-117848752D01*
X82511900Y-117101248D01*
X82588100Y-117101248D01*
X82588100Y-117848752D01*
X82681873Y-118320180D01*
X82948915Y-118719837D01*
X83348572Y-118986879D01*
X83820000Y-119080652D01*
X84291428Y-118986879D01*
X84691085Y-118719837D01*
X84958127Y-118320180D01*
X85051900Y-117848752D01*
X85051900Y-117101248D01*
X85128100Y-117101248D01*
X85128100Y-117848752D01*
X85221873Y-118320180D01*
X85488915Y-118719837D01*
X85888572Y-118986879D01*
X86360000Y-119080652D01*
X86831428Y-118986879D01*
X87231085Y-118719837D01*
X87498127Y-118320180D01*
X87591900Y-117848752D01*
X87591900Y-117101248D01*
X87668100Y-117101248D01*
X87668100Y-117848752D01*
X87761873Y-118320180D01*
X88028915Y-118719837D01*
X88428572Y-118986879D01*
X88900000Y-119080652D01*
X89371428Y-118986879D01*
X89771085Y-118719837D01*
X90038127Y-118320180D01*
X90131900Y-117848752D01*
X90131900Y-117101248D01*
X90208100Y-117101248D01*
X90208100Y-117848752D01*
X90301873Y-118320180D01*
X90568915Y-118719837D01*
X90968572Y-118986879D01*
X91440000Y-119080652D01*
X91911428Y-118986879D01*
X92311085Y-118719837D01*
X92578127Y-118320180D01*
X92671900Y-117848752D01*
X92671900Y-117101248D01*
X92748100Y-117101248D01*
X92748100Y-117848752D01*
X92841873Y-118320180D01*
X93108915Y-118719837D01*
X93508572Y-118986879D01*
X93980000Y-119080652D01*
X94451428Y-118986879D01*
X94851085Y-118719837D01*
X95118127Y-118320180D01*
X95211900Y-117848752D01*
X95211900Y-117101248D01*
X95288100Y-117101248D01*
X95288100Y-117848752D01*
X95381873Y-118320180D01*
X95648915Y-118719837D01*
X96048572Y-118986879D01*
X96520000Y-119080652D01*
X96991428Y-118986879D01*
X97391085Y-118719837D01*
X97658127Y-118320180D01*
X97751900Y-117848752D01*
X97751900Y-117101248D01*
X97828100Y-117101248D01*
X97828100Y-117848752D01*
X97921873Y-118320180D01*
X98188915Y-118719837D01*
X98588572Y-118986879D01*
X99060000Y-119080652D01*
X99531428Y-118986879D01*
X99931085Y-118719837D01*
X100198127Y-118320180D01*
X100291900Y-117848752D01*
X100291900Y-117101248D01*
X100368100Y-117101248D01*
X100368100Y-117848752D01*
X100461873Y-118320180D01*
X100728915Y-118719837D01*
X101128572Y-118986879D01*
X101600000Y-119080652D01*
X102071428Y-118986879D01*
X102471085Y-118719837D01*
X102738127Y-118320180D01*
X102831900Y-117848752D01*
X102831900Y-117101248D01*
X102908100Y-117101248D01*
X102908100Y-117848752D01*
X103001873Y-118320180D01*
X103268915Y-118719837D01*
X103668572Y-118986879D01*
X104140000Y-119080652D01*
X104611428Y-118986879D01*
X105011085Y-118719837D01*
X105278127Y-118320180D01*
X105371900Y-117848752D01*
X105371900Y-117101248D01*
X105448100Y-117101248D01*
X105448100Y-117848752D01*
X105541873Y-118320180D01*
X105808915Y-118719837D01*
X106208572Y-118986879D01*
X106680000Y-119080652D01*
X107151428Y-118986879D01*
X107551085Y-118719837D01*
X107818127Y-118320180D01*
X107911900Y-117848752D01*
X107911900Y-117101248D01*
X107818127Y-116629820D01*
X107551085Y-116230163D01*
X107151428Y-115963121D01*
X106680000Y-115869348D01*
X106208572Y-115963121D01*
X105808915Y-116230163D01*
X105541873Y-116629820D01*
X105448100Y-117101248D01*
X105371900Y-117101248D01*
X105278127Y-116629820D01*
X105011085Y-116230163D01*
X104611428Y-115963121D01*
X104140000Y-115869348D01*
X103668572Y-115963121D01*
X103268915Y-116230163D01*
X103001873Y-116629820D01*
X102908100Y-117101248D01*
X102831900Y-117101248D01*
X102738127Y-116629820D01*
X102471085Y-116230163D01*
X102071428Y-115963121D01*
X101600000Y-115869348D01*
X101128572Y-115963121D01*
X100728915Y-116230163D01*
X100461873Y-116629820D01*
X100368100Y-117101248D01*
X100291900Y-117101248D01*
X100198127Y-116629820D01*
X99931085Y-116230163D01*
X99531428Y-115963121D01*
X99060000Y-115869348D01*
X98588572Y-115963121D01*
X98188915Y-116230163D01*
X97921873Y-116629820D01*
X97828100Y-117101248D01*
X97751900Y-117101248D01*
X97658127Y-116629820D01*
X97391085Y-116230163D01*
X96991428Y-115963121D01*
X96520000Y-115869348D01*
X96048572Y-115963121D01*
X95648915Y-116230163D01*
X95381873Y-116629820D01*
X95288100Y-117101248D01*
X95211900Y-117101248D01*
X95118127Y-116629820D01*
X94851085Y-116230163D01*
X94451428Y-115963121D01*
X93980000Y-115869348D01*
X93508572Y-115963121D01*
X93108915Y-116230163D01*
X92841873Y-116629820D01*
X92748100Y-117101248D01*
X92671900Y-117101248D01*
X92578127Y-116629820D01*
X92311085Y-116230163D01*
X91911428Y-115963121D01*
X91440000Y-115869348D01*
X90968572Y-115963121D01*
X90568915Y-116230163D01*
X90301873Y-116629820D01*
X90208100Y-117101248D01*
X90131900Y-117101248D01*
X90038127Y-116629820D01*
X89771085Y-116230163D01*
X89371428Y-115963121D01*
X88900000Y-115869348D01*
X88428572Y-115963121D01*
X88028915Y-116230163D01*
X87761873Y-116629820D01*
X87668100Y-117101248D01*
X87591900Y-117101248D01*
X87498127Y-116629820D01*
X87231085Y-116230163D01*
X86831428Y-115963121D01*
X86360000Y-115869348D01*
X85888572Y-115963121D01*
X85488915Y-116230163D01*
X85221873Y-116629820D01*
X85128100Y-117101248D01*
X85051900Y-117101248D01*
X84958127Y-116629820D01*
X84691085Y-116230163D01*
X84291428Y-115963121D01*
X83820000Y-115869348D01*
X83348572Y-115963121D01*
X82948915Y-116230163D01*
X82681873Y-116629820D01*
X82588100Y-117101248D01*
X82511900Y-117101248D01*
X82418127Y-116629820D01*
X82151085Y-116230163D01*
X81751428Y-115963121D01*
X81280000Y-115869348D01*
X80808572Y-115963121D01*
X80408915Y-116230163D01*
X80141873Y-116629820D01*
X80048100Y-117101248D01*
X79971900Y-117101248D01*
X79878127Y-116629820D01*
X79611085Y-116230163D01*
X79211428Y-115963121D01*
X78740000Y-115869348D01*
X78268572Y-115963121D01*
X77868915Y-116230163D01*
X77601873Y-116629820D01*
X77508100Y-117101248D01*
X77431900Y-117101248D01*
X77338127Y-116629820D01*
X77071085Y-116230163D01*
X76671428Y-115963121D01*
X76200000Y-115869348D01*
X75728572Y-115963121D01*
X75328915Y-116230163D01*
X75061873Y-116629820D01*
X74968100Y-117101248D01*
X74079100Y-117101248D01*
X74079100Y-112807477D01*
X75386840Y-112807477D01*
X75703259Y-113573270D01*
X76288648Y-114159682D01*
X77053888Y-114477437D01*
X77882477Y-114478160D01*
X78648270Y-114161741D01*
X79234682Y-113576352D01*
X79552437Y-112811112D01*
X79552582Y-112643995D01*
X83832482Y-112643995D01*
X84023491Y-113106273D01*
X84376867Y-113460266D01*
X84838810Y-113652081D01*
X85338995Y-113652518D01*
X85801273Y-113461509D01*
X86155266Y-113108133D01*
X86347081Y-112646190D01*
X86347082Y-112643995D01*
X96532482Y-112643995D01*
X96723491Y-113106273D01*
X97076867Y-113460266D01*
X97538810Y-113652081D01*
X98038995Y-113652518D01*
X98501273Y-113461509D01*
X98855266Y-113108133D01*
X99047081Y-112646190D01*
X99047518Y-112146005D01*
X98856509Y-111683727D01*
X98503133Y-111329734D01*
X98041190Y-111137919D01*
X97541005Y-111137482D01*
X97078727Y-111328491D01*
X96724734Y-111681867D01*
X96532919Y-112143810D01*
X96532482Y-112643995D01*
X86347082Y-112643995D01*
X86347518Y-112146005D01*
X86156509Y-111683727D01*
X85803133Y-111329734D01*
X85341190Y-111137919D01*
X84841005Y-111137482D01*
X84378727Y-111328491D01*
X84024734Y-111681867D01*
X83832919Y-112143810D01*
X83832482Y-112643995D01*
X79552582Y-112643995D01*
X79553160Y-111982523D01*
X79236741Y-111216730D01*
X78651352Y-110630318D01*
X77886112Y-110312563D01*
X77057523Y-110311840D01*
X76291730Y-110628259D01*
X75705318Y-111213648D01*
X75387563Y-111978888D01*
X75386840Y-112807477D01*
X74079100Y-112807477D01*
X74079100Y-105506148D01*
X87833200Y-105506148D01*
X87833200Y-106583852D01*
X87914405Y-106992099D01*
X88145658Y-107338194D01*
X88491753Y-107569447D01*
X88900000Y-107650652D01*
X89308247Y-107569447D01*
X89654342Y-107338194D01*
X89885595Y-106992099D01*
X89966800Y-106583852D01*
X89966800Y-105506148D01*
X90373200Y-105506148D01*
X90373200Y-106583852D01*
X90454405Y-106992099D01*
X90685658Y-107338194D01*
X90830400Y-107434907D01*
X90830400Y-107746800D01*
X90876803Y-107980084D01*
X91008948Y-108177852D01*
X91206716Y-108309997D01*
X91440000Y-108356400D01*
X100140996Y-108356400D01*
X100584616Y-108800021D01*
X100530733Y-108810739D01*
X100164037Y-109055757D01*
X99919019Y-109422453D01*
X99832980Y-109855000D01*
X99919019Y-110287547D01*
X100164037Y-110654243D01*
X100530733Y-110899261D01*
X100963280Y-110985300D01*
X101525520Y-110985300D01*
X101958067Y-110899261D01*
X102324763Y-110654243D01*
X102569781Y-110287547D01*
X102655820Y-109855000D01*
X102569781Y-109422453D01*
X102324763Y-109055757D01*
X101958067Y-108810739D01*
X101854000Y-108790039D01*
X101854000Y-108597700D01*
X101807597Y-108364416D01*
X101771235Y-108309997D01*
X101675452Y-108166647D01*
X100824552Y-107315748D01*
X100626784Y-107183603D01*
X100393500Y-107137200D01*
X94868642Y-107137200D01*
X94965595Y-106992099D01*
X95046800Y-106583852D01*
X95046800Y-105506148D01*
X94965595Y-105097901D01*
X94734342Y-104751806D01*
X94388247Y-104520553D01*
X93980000Y-104439348D01*
X93571753Y-104520553D01*
X93225658Y-104751806D01*
X92994405Y-105097901D01*
X92913200Y-105506148D01*
X92913200Y-106583852D01*
X92994405Y-106992099D01*
X93091358Y-107137200D01*
X92328642Y-107137200D01*
X92425595Y-106992099D01*
X92506800Y-106583852D01*
X92506800Y-105506148D01*
X92425595Y-105097901D01*
X92194342Y-104751806D01*
X91848247Y-104520553D01*
X91440000Y-104439348D01*
X91031753Y-104520553D01*
X90685658Y-104751806D01*
X90454405Y-105097901D01*
X90373200Y-105506148D01*
X89966800Y-105506148D01*
X89885595Y-105097901D01*
X89654342Y-104751806D01*
X89308247Y-104520553D01*
X88900000Y-104439348D01*
X88491753Y-104520553D01*
X88145658Y-104751806D01*
X87914405Y-105097901D01*
X87833200Y-105506148D01*
X74079100Y-105506148D01*
X74079100Y-99943995D01*
X83832482Y-99943995D01*
X84023491Y-100406273D01*
X84376867Y-100760266D01*
X84838810Y-100952081D01*
X85338995Y-100952518D01*
X85801273Y-100761509D01*
X86155266Y-100408133D01*
X86347081Y-99946190D01*
X86347518Y-99446005D01*
X86156509Y-98983727D01*
X85803133Y-98629734D01*
X85341190Y-98437919D01*
X84841005Y-98437482D01*
X84378727Y-98628491D01*
X84024734Y-98981867D01*
X83832919Y-99443810D01*
X83832482Y-99943995D01*
X74079100Y-99943995D01*
X74079100Y-91744800D01*
X82980400Y-91744800D01*
X82980400Y-93211257D01*
X83073206Y-93435311D01*
X83244689Y-93606794D01*
X83468743Y-93699600D01*
X86660200Y-93699600D01*
X86812600Y-93547200D01*
X86812600Y-91592400D01*
X87117400Y-91592400D01*
X87117400Y-93547200D01*
X87269800Y-93699600D01*
X90461257Y-93699600D01*
X90685311Y-93606794D01*
X90856794Y-93435311D01*
X90949600Y-93211257D01*
X90949600Y-91744800D01*
X90797200Y-91592400D01*
X87117400Y-91592400D01*
X86812600Y-91592400D01*
X83132800Y-91592400D01*
X82980400Y-91744800D01*
X74079100Y-91744800D01*
X74079100Y-89210082D01*
X81185444Y-89210082D01*
X81359622Y-89527694D01*
X82176450Y-89838779D01*
X82980400Y-89815607D01*
X82980400Y-91135200D01*
X83132800Y-91287600D01*
X86812600Y-91287600D01*
X86812600Y-89332800D01*
X87117400Y-89332800D01*
X87117400Y-91287600D01*
X90797200Y-91287600D01*
X90949600Y-91135200D01*
X90949600Y-89668743D01*
X90856794Y-89444689D01*
X90685311Y-89273206D01*
X90461257Y-89180400D01*
X87269800Y-89180400D01*
X87117400Y-89332800D01*
X86812600Y-89332800D01*
X86660200Y-89180400D01*
X84164827Y-89180400D01*
X84240378Y-89104849D01*
X84130084Y-88994555D01*
X84447694Y-88820378D01*
X84758779Y-88003550D01*
X84733597Y-87129852D01*
X84447694Y-86439622D01*
X84130082Y-86265444D01*
X82765526Y-87630000D01*
X82779669Y-87644143D01*
X82564143Y-87859669D01*
X82550000Y-87845526D01*
X81185444Y-89210082D01*
X74079100Y-89210082D01*
X74079100Y-87407477D01*
X75386840Y-87407477D01*
X75703259Y-88173270D01*
X76288648Y-88759682D01*
X77053888Y-89077437D01*
X77882477Y-89078160D01*
X78648270Y-88761741D01*
X79234682Y-88176352D01*
X79552437Y-87411112D01*
X79552571Y-87256450D01*
X80341221Y-87256450D01*
X80366403Y-88130148D01*
X80652306Y-88820378D01*
X80969918Y-88994556D01*
X82334474Y-87630000D01*
X80969918Y-86265444D01*
X80652306Y-86439622D01*
X80341221Y-87256450D01*
X79552571Y-87256450D01*
X79553160Y-86582523D01*
X79333093Y-86049918D01*
X81185444Y-86049918D01*
X82550000Y-87414474D01*
X83914556Y-86049918D01*
X83740378Y-85732306D01*
X82923550Y-85421221D01*
X82049852Y-85446403D01*
X81359622Y-85732306D01*
X81185444Y-86049918D01*
X79333093Y-86049918D01*
X79236741Y-85816730D01*
X78651352Y-85230318D01*
X77886112Y-84912563D01*
X77057523Y-84911840D01*
X76291730Y-85228259D01*
X75705318Y-85813648D01*
X75387563Y-86578888D01*
X75386840Y-87407477D01*
X74079100Y-87407477D01*
X74079100Y-82219800D01*
X74663300Y-82219800D01*
X74663300Y-83306257D01*
X74756106Y-83530311D01*
X74927589Y-83701794D01*
X75151643Y-83794600D01*
X75895200Y-83794600D01*
X76047600Y-83642200D01*
X76047600Y-82067400D01*
X74815700Y-82067400D01*
X74663300Y-82219800D01*
X74079100Y-82219800D01*
X74079100Y-80523743D01*
X74663300Y-80523743D01*
X74663300Y-81610200D01*
X74815700Y-81762600D01*
X76047600Y-81762600D01*
X76047600Y-80187800D01*
X75895200Y-80035400D01*
X75151643Y-80035400D01*
X74927589Y-80128206D01*
X74756106Y-80299689D01*
X74663300Y-80523743D01*
X74079100Y-80523743D01*
X74079100Y-79794100D01*
X143090900Y-79794100D01*
X143090900Y-84390279D01*
M02*
