M48
;DRILL file {PCBnew (2011-05-25)-stable} date Tue 11 Mar 2014 02:38:16 PM EDT
;FORMAT={2:4/ absolute / inch / suppress trailing zeros}
FMAT,2
INCH,LZ
T1C0.025
T2C0.035
T3C0.039
T4C0.040
T5C0.043
T6C0.047
T7C0.079
T8C0.130
%
G90
G05
M72
T1
X067Y-04035
X0671Y-0368
X0675Y-03335
X06925Y-0328
T2
X05025Y-04275
X05125Y-04175
X05125Y-04275
X05125Y-04375
T3
X05525Y-04175
X05525Y-04275
X05525Y-04375
T4
X0524Y-0315
X0534Y-0315
X0544Y-0315
X0554Y-0315
X056Y-0505
X0564Y-0315
X057Y-0505
X0574Y-0315
X058Y-0505
X0584Y-0315
X059Y-0505
X0594Y-0315
X06Y-0505
X0604Y-0315
X061Y-0505
X0614Y-0315
X062Y-0505
X063Y-0315
X063Y-0505
X064Y-0315
X065Y-0315
X065Y-0505
X066Y-0315
X066Y-0505
X067Y-0315
X067Y-0505
X068Y-0315
X068Y-0505
X069Y-0315
X069Y-0505
X07Y-0315
X07Y-0505
X071Y-0505
X072Y-0315
X072Y-0505
X073Y-0315
X074Y-0315
X074Y-0505
X075Y-0315
X075Y-0505
X076Y-0315
X076Y-0505
X077Y-0315
X077Y-0505
X078Y-0315
X078Y-0505
X079Y-0315
X079Y-0505
X08Y-0505
X081Y-0505
X082Y-0315
X082Y-0325
X082Y-0335
X082Y-0345
X082Y-0355
X082Y-0365
X082Y-0375
X082Y-0385
X082Y-0395
X082Y-0405
X082Y-0415
X082Y-0425
X082Y-0435
X082Y-0445
X082Y-0455
X082Y-0465
X082Y-0475
X082Y-0485
X083Y-0315
X083Y-0325
X083Y-0335
X083Y-0345
X083Y-0355
X083Y-0365
X083Y-0375
X083Y-0385
X083Y-0395
X083Y-0405
X083Y-0415
X083Y-0425
X083Y-0435
X083Y-0445
X083Y-0455
X083Y-0465
X083Y-0475
X083Y-0485
T5
X06375Y-04225
X06375Y-04325
X07075Y-04225
X07075Y-04325
X0855Y-04275
X0865Y-04275
X0875Y-04275
X0885Y-04275
T6
X052811Y-0495
X054189Y-0495
T7
X04775Y-04075
X04775Y-04475
T8
X0505Y-0505
X051Y-0315
X0805Y-0315
X083Y-0505
T0
M30
