G04 (created by PCBNEW-RS274X (2011-05-25)-stable) date Tue 11 Mar 2014 02:38:01 PM EDT*
G01*
G70*
G90*
%MOIN*%
G04 Gerber Fmt 3.4, Leading zero omitted, Abs format*
%FSLAX34Y34*%
G04 APERTURE LIST*
%ADD10C,0.006000*%
%ADD11C,0.009000*%
%ADD12C,0.155000*%
%ADD13O,0.060000X0.100000*%
%ADD14C,0.060000*%
%ADD15C,0.120000*%
%ADD16C,0.073000*%
%ADD17R,0.073000X0.073000*%
%ADD18R,0.100000X0.100000*%
%ADD19C,0.100000*%
%ADD20C,0.035000*%
%ADD21C,0.008000*%
%ADD22C,0.036000*%
%ADD23C,0.016000*%
%ADD24C,0.010000*%
G04 APERTURE END LIST*
G54D10*
G54D11*
X45000Y-51500D02*
X89500Y-51500D01*
X45000Y-30500D02*
X45000Y-51500D01*
X89500Y-30500D02*
X45000Y-30500D01*
X89500Y-51500D02*
X89500Y-30500D01*
G54D12*
X50500Y-50500D03*
X51000Y-31500D03*
X83000Y-50500D03*
X80500Y-31500D03*
G54D13*
X56000Y-50500D03*
X57000Y-50500D03*
X58000Y-50500D03*
X59000Y-50500D03*
X60000Y-50500D03*
X61000Y-50500D03*
X62000Y-50500D03*
X63000Y-50500D03*
X65000Y-50500D03*
X66000Y-50500D03*
X67000Y-50500D03*
X68000Y-50500D03*
X69000Y-50500D03*
X70000Y-50500D03*
X71000Y-50500D03*
X72000Y-50500D03*
X74000Y-50500D03*
X75000Y-50500D03*
X76000Y-50500D03*
X77000Y-50500D03*
X78000Y-50500D03*
X79000Y-50500D03*
X80000Y-50500D03*
X81000Y-50500D03*
X52400Y-31500D03*
X53400Y-31500D03*
X54400Y-31500D03*
X55400Y-31500D03*
X56400Y-31500D03*
X57400Y-31500D03*
X58400Y-31500D03*
X59400Y-31500D03*
X60400Y-31500D03*
X61400Y-31500D03*
X63000Y-31500D03*
X70000Y-31500D03*
X69000Y-31500D03*
X68000Y-31500D03*
X67000Y-31500D03*
X66000Y-31500D03*
X65000Y-31500D03*
X64000Y-31500D03*
X72000Y-31500D03*
X73000Y-31500D03*
X74000Y-31500D03*
X75000Y-31500D03*
X76000Y-31500D03*
X77000Y-31500D03*
X78000Y-31500D03*
X79000Y-31500D03*
G54D14*
X82000Y-31500D03*
X83000Y-31500D03*
X82000Y-32500D03*
X83000Y-32500D03*
X82000Y-33500D03*
X83000Y-33500D03*
X82000Y-34500D03*
X83000Y-34500D03*
X82000Y-35500D03*
X83000Y-35500D03*
X82000Y-36500D03*
X83000Y-36500D03*
X82000Y-37500D03*
X83000Y-37500D03*
X82000Y-38500D03*
X83000Y-38500D03*
X82000Y-39500D03*
X83000Y-39500D03*
X82000Y-40500D03*
X83000Y-40500D03*
X82000Y-41500D03*
X83000Y-41500D03*
X82000Y-42500D03*
X83000Y-42500D03*
X82000Y-43500D03*
X83000Y-43500D03*
X82000Y-44500D03*
X83000Y-44500D03*
X82000Y-45500D03*
X83000Y-45500D03*
X82000Y-46500D03*
X83000Y-46500D03*
X82000Y-47500D03*
X83000Y-47500D03*
X82000Y-48500D03*
X83000Y-48500D03*
G54D15*
X47750Y-44750D03*
X47750Y-40750D03*
G54D14*
X50250Y-42750D03*
X51250Y-42750D03*
X51250Y-41750D03*
X51250Y-43750D03*
G54D16*
X87500Y-42750D03*
X86500Y-42750D03*
G54D17*
X88500Y-42750D03*
G54D16*
X85500Y-42750D03*
G54D18*
X52811Y-49500D03*
G54D19*
X54189Y-49500D03*
G54D16*
X70750Y-43250D03*
G54D17*
X70750Y-42250D03*
G54D16*
X63750Y-43250D03*
G54D17*
X63750Y-42250D03*
G54D14*
X55250Y-42750D03*
X55250Y-43750D03*
X55250Y-41750D03*
G54D20*
X69250Y-32800D03*
X67500Y-33350D03*
X67100Y-36800D03*
X67000Y-40350D03*
G54D21*
X68050Y-32800D02*
X69250Y-32800D01*
X67500Y-33350D02*
X68050Y-32800D01*
G54D22*
X86500Y-35000D02*
X83000Y-31500D01*
X86500Y-42750D02*
X86500Y-35000D01*
G54D23*
X83750Y-46500D02*
X83000Y-46500D01*
X87500Y-42750D02*
X83750Y-46500D01*
X85500Y-43000D02*
X83000Y-45500D01*
X85500Y-42750D02*
X85500Y-43000D01*
X63750Y-42250D02*
X63750Y-40150D01*
X63750Y-40150D02*
X67100Y-36800D01*
X83750Y-47500D02*
X83000Y-47500D01*
X88500Y-42750D02*
X83750Y-47500D01*
G54D22*
X57033Y-43750D02*
X63000Y-49717D01*
X55250Y-43750D02*
X57033Y-43750D01*
X63000Y-50500D02*
X63000Y-49717D01*
G54D21*
X64100Y-43250D02*
X63750Y-43250D01*
X67000Y-40350D02*
X64100Y-43250D01*
G54D22*
X52811Y-44189D02*
X52811Y-49500D01*
X55250Y-41750D02*
X52811Y-44189D01*
G54D10*
G36*
X89205Y-51205D02*
X83744Y-51205D01*
X83868Y-51081D01*
X84025Y-50705D01*
X84025Y-50297D01*
X83869Y-49920D01*
X83581Y-49632D01*
X83205Y-49475D01*
X82797Y-49475D01*
X82550Y-49577D01*
X82550Y-48826D01*
X82689Y-48965D01*
X82891Y-49049D01*
X83109Y-49049D01*
X83311Y-48965D01*
X83465Y-48811D01*
X83549Y-48609D01*
X83549Y-48391D01*
X83465Y-48189D01*
X83311Y-48035D01*
X83226Y-48000D01*
X83311Y-47965D01*
X83446Y-47830D01*
X83750Y-47830D01*
X83876Y-47805D01*
X83877Y-47805D01*
X83983Y-47733D01*
X88352Y-43364D01*
X88914Y-43364D01*
X89006Y-43326D01*
X89076Y-43256D01*
X89114Y-43165D01*
X89114Y-43066D01*
X89114Y-42336D01*
X89076Y-42244D01*
X89006Y-42174D01*
X88915Y-42136D01*
X88816Y-42136D01*
X88086Y-42136D01*
X87994Y-42174D01*
X87924Y-42244D01*
X87906Y-42286D01*
X87849Y-42229D01*
X87623Y-42135D01*
X87378Y-42135D01*
X87152Y-42229D01*
X86979Y-42401D01*
X86974Y-42412D01*
X86924Y-42396D01*
X86854Y-42466D01*
X86854Y-42326D01*
X86820Y-42225D01*
X86595Y-42143D01*
X86356Y-42153D01*
X86180Y-42225D01*
X86146Y-42326D01*
X86500Y-42679D01*
X86854Y-42326D01*
X86854Y-42466D01*
X86571Y-42750D01*
X86500Y-42821D01*
X86146Y-43174D01*
X86180Y-43275D01*
X86405Y-43357D01*
X86427Y-43356D01*
X83613Y-46170D01*
X83446Y-46170D01*
X83311Y-46035D01*
X83226Y-46000D01*
X83311Y-45965D01*
X83465Y-45811D01*
X83549Y-45609D01*
X83549Y-45417D01*
X85601Y-43365D01*
X85622Y-43365D01*
X85848Y-43271D01*
X86021Y-43099D01*
X86025Y-43087D01*
X86076Y-43104D01*
X86429Y-42750D01*
X86076Y-42396D01*
X86025Y-42412D01*
X86021Y-42402D01*
X85849Y-42229D01*
X85623Y-42135D01*
X85378Y-42135D01*
X85152Y-42229D01*
X84979Y-42401D01*
X84885Y-42627D01*
X84885Y-42872D01*
X84966Y-43067D01*
X83549Y-44484D01*
X83549Y-44391D01*
X83465Y-44189D01*
X83311Y-44035D01*
X83226Y-44000D01*
X83311Y-43965D01*
X83465Y-43811D01*
X83549Y-43609D01*
X83549Y-43391D01*
X83465Y-43189D01*
X83311Y-43035D01*
X83226Y-43000D01*
X83311Y-42965D01*
X83465Y-42811D01*
X83549Y-42609D01*
X83549Y-42391D01*
X83465Y-42189D01*
X83311Y-42035D01*
X83226Y-42000D01*
X83311Y-41965D01*
X83465Y-41811D01*
X83549Y-41609D01*
X83549Y-41391D01*
X83465Y-41189D01*
X83311Y-41035D01*
X83226Y-41000D01*
X83311Y-40965D01*
X83465Y-40811D01*
X83549Y-40609D01*
X83549Y-40391D01*
X83465Y-40189D01*
X83311Y-40035D01*
X83226Y-40000D01*
X83311Y-39965D01*
X83465Y-39811D01*
X83549Y-39609D01*
X83549Y-39391D01*
X83465Y-39189D01*
X83311Y-39035D01*
X83226Y-39000D01*
X83311Y-38965D01*
X83465Y-38811D01*
X83549Y-38609D01*
X83549Y-38391D01*
X83465Y-38189D01*
X83311Y-38035D01*
X83226Y-38000D01*
X83311Y-37965D01*
X83465Y-37811D01*
X83549Y-37609D01*
X83549Y-37391D01*
X83465Y-37189D01*
X83311Y-37035D01*
X83226Y-37000D01*
X83311Y-36965D01*
X83465Y-36811D01*
X83549Y-36609D01*
X83549Y-36391D01*
X83465Y-36189D01*
X83311Y-36035D01*
X83226Y-36000D01*
X83311Y-35965D01*
X83465Y-35811D01*
X83549Y-35609D01*
X83549Y-35391D01*
X83465Y-35189D01*
X83311Y-35035D01*
X83226Y-35000D01*
X83311Y-34965D01*
X83465Y-34811D01*
X83549Y-34609D01*
X83549Y-34391D01*
X83465Y-34189D01*
X83311Y-34035D01*
X83226Y-34000D01*
X83311Y-33965D01*
X83465Y-33811D01*
X83549Y-33609D01*
X83549Y-33391D01*
X83465Y-33189D01*
X83311Y-33035D01*
X83226Y-33000D01*
X83311Y-32965D01*
X83465Y-32811D01*
X83549Y-32609D01*
X83549Y-32391D01*
X83543Y-32376D01*
X83543Y-31579D01*
X83532Y-31366D01*
X83472Y-31219D01*
X83378Y-31192D01*
X83308Y-31262D01*
X83308Y-31122D01*
X83281Y-31028D01*
X83079Y-30957D01*
X82866Y-30968D01*
X82719Y-31028D01*
X82692Y-31122D01*
X83000Y-31429D01*
X83308Y-31122D01*
X83308Y-31262D01*
X83071Y-31500D01*
X83378Y-31808D01*
X83472Y-31781D01*
X83543Y-31579D01*
X83543Y-32376D01*
X83465Y-32189D01*
X83311Y-32035D01*
X83219Y-31997D01*
X83281Y-31972D01*
X83308Y-31878D01*
X83000Y-31571D01*
X82692Y-31878D01*
X82719Y-31972D01*
X82784Y-31995D01*
X82689Y-32035D01*
X82550Y-32174D01*
X82550Y-31787D01*
X82622Y-31808D01*
X82929Y-31500D01*
X82622Y-31192D01*
X82550Y-31212D01*
X82550Y-30795D01*
X89205Y-30795D01*
X89205Y-51205D01*
X89205Y-51205D01*
G37*
G54D24*
X89205Y-51205D02*
X83744Y-51205D01*
X83868Y-51081D01*
X84025Y-50705D01*
X84025Y-50297D01*
X83869Y-49920D01*
X83581Y-49632D01*
X83205Y-49475D01*
X82797Y-49475D01*
X82550Y-49577D01*
X82550Y-48826D01*
X82689Y-48965D01*
X82891Y-49049D01*
X83109Y-49049D01*
X83311Y-48965D01*
X83465Y-48811D01*
X83549Y-48609D01*
X83549Y-48391D01*
X83465Y-48189D01*
X83311Y-48035D01*
X83226Y-48000D01*
X83311Y-47965D01*
X83446Y-47830D01*
X83750Y-47830D01*
X83876Y-47805D01*
X83877Y-47805D01*
X83983Y-47733D01*
X88352Y-43364D01*
X88914Y-43364D01*
X89006Y-43326D01*
X89076Y-43256D01*
X89114Y-43165D01*
X89114Y-43066D01*
X89114Y-42336D01*
X89076Y-42244D01*
X89006Y-42174D01*
X88915Y-42136D01*
X88816Y-42136D01*
X88086Y-42136D01*
X87994Y-42174D01*
X87924Y-42244D01*
X87906Y-42286D01*
X87849Y-42229D01*
X87623Y-42135D01*
X87378Y-42135D01*
X87152Y-42229D01*
X86979Y-42401D01*
X86974Y-42412D01*
X86924Y-42396D01*
X86854Y-42466D01*
X86854Y-42326D01*
X86820Y-42225D01*
X86595Y-42143D01*
X86356Y-42153D01*
X86180Y-42225D01*
X86146Y-42326D01*
X86500Y-42679D01*
X86854Y-42326D01*
X86854Y-42466D01*
X86571Y-42750D01*
X86500Y-42821D01*
X86146Y-43174D01*
X86180Y-43275D01*
X86405Y-43357D01*
X86427Y-43356D01*
X83613Y-46170D01*
X83446Y-46170D01*
X83311Y-46035D01*
X83226Y-46000D01*
X83311Y-45965D01*
X83465Y-45811D01*
X83549Y-45609D01*
X83549Y-45417D01*
X85601Y-43365D01*
X85622Y-43365D01*
X85848Y-43271D01*
X86021Y-43099D01*
X86025Y-43087D01*
X86076Y-43104D01*
X86429Y-42750D01*
X86076Y-42396D01*
X86025Y-42412D01*
X86021Y-42402D01*
X85849Y-42229D01*
X85623Y-42135D01*
X85378Y-42135D01*
X85152Y-42229D01*
X84979Y-42401D01*
X84885Y-42627D01*
X84885Y-42872D01*
X84966Y-43067D01*
X83549Y-44484D01*
X83549Y-44391D01*
X83465Y-44189D01*
X83311Y-44035D01*
X83226Y-44000D01*
X83311Y-43965D01*
X83465Y-43811D01*
X83549Y-43609D01*
X83549Y-43391D01*
X83465Y-43189D01*
X83311Y-43035D01*
X83226Y-43000D01*
X83311Y-42965D01*
X83465Y-42811D01*
X83549Y-42609D01*
X83549Y-42391D01*
X83465Y-42189D01*
X83311Y-42035D01*
X83226Y-42000D01*
X83311Y-41965D01*
X83465Y-41811D01*
X83549Y-41609D01*
X83549Y-41391D01*
X83465Y-41189D01*
X83311Y-41035D01*
X83226Y-41000D01*
X83311Y-40965D01*
X83465Y-40811D01*
X83549Y-40609D01*
X83549Y-40391D01*
X83465Y-40189D01*
X83311Y-40035D01*
X83226Y-40000D01*
X83311Y-39965D01*
X83465Y-39811D01*
X83549Y-39609D01*
X83549Y-39391D01*
X83465Y-39189D01*
X83311Y-39035D01*
X83226Y-39000D01*
X83311Y-38965D01*
X83465Y-38811D01*
X83549Y-38609D01*
X83549Y-38391D01*
X83465Y-38189D01*
X83311Y-38035D01*
X83226Y-38000D01*
X83311Y-37965D01*
X83465Y-37811D01*
X83549Y-37609D01*
X83549Y-37391D01*
X83465Y-37189D01*
X83311Y-37035D01*
X83226Y-37000D01*
X83311Y-36965D01*
X83465Y-36811D01*
X83549Y-36609D01*
X83549Y-36391D01*
X83465Y-36189D01*
X83311Y-36035D01*
X83226Y-36000D01*
X83311Y-35965D01*
X83465Y-35811D01*
X83549Y-35609D01*
X83549Y-35391D01*
X83465Y-35189D01*
X83311Y-35035D01*
X83226Y-35000D01*
X83311Y-34965D01*
X83465Y-34811D01*
X83549Y-34609D01*
X83549Y-34391D01*
X83465Y-34189D01*
X83311Y-34035D01*
X83226Y-34000D01*
X83311Y-33965D01*
X83465Y-33811D01*
X83549Y-33609D01*
X83549Y-33391D01*
X83465Y-33189D01*
X83311Y-33035D01*
X83226Y-33000D01*
X83311Y-32965D01*
X83465Y-32811D01*
X83549Y-32609D01*
X83549Y-32391D01*
X83543Y-32376D01*
X83543Y-31579D01*
X83532Y-31366D01*
X83472Y-31219D01*
X83378Y-31192D01*
X83308Y-31262D01*
X83308Y-31122D01*
X83281Y-31028D01*
X83079Y-30957D01*
X82866Y-30968D01*
X82719Y-31028D01*
X82692Y-31122D01*
X83000Y-31429D01*
X83308Y-31122D01*
X83308Y-31262D01*
X83071Y-31500D01*
X83378Y-31808D01*
X83472Y-31781D01*
X83543Y-31579D01*
X83543Y-32376D01*
X83465Y-32189D01*
X83311Y-32035D01*
X83219Y-31997D01*
X83281Y-31972D01*
X83308Y-31878D01*
X83000Y-31571D01*
X82692Y-31878D01*
X82719Y-31972D01*
X82784Y-31995D01*
X82689Y-32035D01*
X82550Y-32174D01*
X82550Y-31787D01*
X82622Y-31808D01*
X82929Y-31500D01*
X82622Y-31192D01*
X82550Y-31212D01*
X82550Y-30795D01*
X89205Y-30795D01*
X89205Y-51205D01*
G54D10*
G36*
X55700Y-42424D02*
X55561Y-42285D01*
X55469Y-42247D01*
X55531Y-42222D01*
X55558Y-42128D01*
X55250Y-41821D01*
X55179Y-41891D01*
X55179Y-41750D01*
X54872Y-41442D01*
X54778Y-41469D01*
X54707Y-41671D01*
X54718Y-41884D01*
X54778Y-42031D01*
X54872Y-42058D01*
X55179Y-41750D01*
X55179Y-41891D01*
X54942Y-42128D01*
X54969Y-42222D01*
X55034Y-42245D01*
X54939Y-42285D01*
X54785Y-42439D01*
X54701Y-42641D01*
X54701Y-42859D01*
X54785Y-43061D01*
X54939Y-43215D01*
X55008Y-43243D01*
X54971Y-43271D01*
X54939Y-43285D01*
X54896Y-43328D01*
X54700Y-43475D01*
X54700Y-48952D01*
X54614Y-48866D01*
X54339Y-48751D01*
X54041Y-48751D01*
X53766Y-48865D01*
X53560Y-49069D01*
X53560Y-49049D01*
X53560Y-48950D01*
X53522Y-48859D01*
X53452Y-48789D01*
X53360Y-48751D01*
X52923Y-48750D01*
X52861Y-48812D01*
X52861Y-49400D01*
X52861Y-49450D01*
X52861Y-49550D01*
X52861Y-49600D01*
X52861Y-50188D01*
X52923Y-50250D01*
X53360Y-50249D01*
X53452Y-50211D01*
X53522Y-50141D01*
X53560Y-50050D01*
X53560Y-49951D01*
X53560Y-49929D01*
X53764Y-50134D01*
X54039Y-50249D01*
X54337Y-50249D01*
X54612Y-50135D01*
X54700Y-50047D01*
X54700Y-51205D01*
X52761Y-51205D01*
X52761Y-50188D01*
X52761Y-49550D01*
X52761Y-49450D01*
X52761Y-48812D01*
X52699Y-48750D01*
X52262Y-48751D01*
X52170Y-48789D01*
X52100Y-48859D01*
X52062Y-48950D01*
X52062Y-49049D01*
X52061Y-49388D01*
X52123Y-49450D01*
X52761Y-49450D01*
X52761Y-49550D01*
X52123Y-49550D01*
X52061Y-49612D01*
X52062Y-49951D01*
X52062Y-50050D01*
X52100Y-50141D01*
X52170Y-50211D01*
X52262Y-50249D01*
X52699Y-50250D01*
X52761Y-50188D01*
X52761Y-51205D01*
X51799Y-51205D01*
X51799Y-43859D01*
X51799Y-43641D01*
X51715Y-43439D01*
X51561Y-43285D01*
X51476Y-43250D01*
X51561Y-43215D01*
X51715Y-43061D01*
X51799Y-42859D01*
X51799Y-42641D01*
X51715Y-42439D01*
X51561Y-42285D01*
X51476Y-42250D01*
X51561Y-42215D01*
X51715Y-42061D01*
X51799Y-41859D01*
X51799Y-41641D01*
X51715Y-41439D01*
X51561Y-41285D01*
X51359Y-41201D01*
X51141Y-41201D01*
X50939Y-41285D01*
X50785Y-41439D01*
X50701Y-41641D01*
X50701Y-41859D01*
X50785Y-42061D01*
X50939Y-42215D01*
X51023Y-42250D01*
X50939Y-42285D01*
X50785Y-42439D01*
X50750Y-42523D01*
X50715Y-42439D01*
X50561Y-42285D01*
X50359Y-42201D01*
X50141Y-42201D01*
X49939Y-42285D01*
X49785Y-42439D01*
X49701Y-42641D01*
X49701Y-42859D01*
X49785Y-43061D01*
X49939Y-43215D01*
X50141Y-43299D01*
X50359Y-43299D01*
X50561Y-43215D01*
X50715Y-43061D01*
X50750Y-42976D01*
X50785Y-43061D01*
X50939Y-43215D01*
X51023Y-43250D01*
X50939Y-43285D01*
X50785Y-43439D01*
X50701Y-43641D01*
X50701Y-43859D01*
X50785Y-44061D01*
X50939Y-44215D01*
X51141Y-44299D01*
X51359Y-44299D01*
X51561Y-44215D01*
X51715Y-44061D01*
X51799Y-43859D01*
X51799Y-51205D01*
X51244Y-51205D01*
X51368Y-51081D01*
X51525Y-50705D01*
X51525Y-50297D01*
X51369Y-49920D01*
X51081Y-49632D01*
X50705Y-49475D01*
X50297Y-49475D01*
X49920Y-49631D01*
X49632Y-49919D01*
X49475Y-50295D01*
X49475Y-50703D01*
X49631Y-51080D01*
X49756Y-51205D01*
X48600Y-51205D01*
X48600Y-44920D01*
X48600Y-44582D01*
X48600Y-40920D01*
X48600Y-40582D01*
X48471Y-40270D01*
X48232Y-40030D01*
X47920Y-39900D01*
X47582Y-39900D01*
X47270Y-40029D01*
X47030Y-40268D01*
X46900Y-40580D01*
X46900Y-40918D01*
X47029Y-41230D01*
X47268Y-41470D01*
X47580Y-41600D01*
X47918Y-41600D01*
X48230Y-41471D01*
X48470Y-41232D01*
X48600Y-40920D01*
X48600Y-44582D01*
X48471Y-44270D01*
X48232Y-44030D01*
X47920Y-43900D01*
X47582Y-43900D01*
X47270Y-44029D01*
X47030Y-44268D01*
X46900Y-44580D01*
X46900Y-44918D01*
X47029Y-45230D01*
X47268Y-45470D01*
X47580Y-45600D01*
X47918Y-45600D01*
X48230Y-45471D01*
X48470Y-45232D01*
X48600Y-44920D01*
X48600Y-51205D01*
X45295Y-51205D01*
X45295Y-30795D01*
X50256Y-30795D01*
X50132Y-30919D01*
X49975Y-31295D01*
X49975Y-31703D01*
X50131Y-32080D01*
X50419Y-32368D01*
X50795Y-32525D01*
X51203Y-32525D01*
X51580Y-32369D01*
X51868Y-32081D01*
X51917Y-31961D01*
X51942Y-32020D01*
X52094Y-32171D01*
X52292Y-32254D01*
X52507Y-32254D01*
X52706Y-32172D01*
X52857Y-32020D01*
X52899Y-31917D01*
X52942Y-32020D01*
X53094Y-32171D01*
X53292Y-32254D01*
X53507Y-32254D01*
X53706Y-32172D01*
X53857Y-32020D01*
X53899Y-31917D01*
X53942Y-32020D01*
X54094Y-32171D01*
X54292Y-32254D01*
X54507Y-32254D01*
X54706Y-32172D01*
X54857Y-32020D01*
X54899Y-31917D01*
X54942Y-32020D01*
X55094Y-32171D01*
X55292Y-32254D01*
X55507Y-32254D01*
X55700Y-32174D01*
X55700Y-41462D01*
X55628Y-41442D01*
X55558Y-41512D01*
X55558Y-41372D01*
X55531Y-41278D01*
X55329Y-41207D01*
X55116Y-41218D01*
X54969Y-41278D01*
X54942Y-41372D01*
X55250Y-41679D01*
X55558Y-41372D01*
X55558Y-41512D01*
X55321Y-41750D01*
X55628Y-42058D01*
X55700Y-42037D01*
X55700Y-42424D01*
X55700Y-42424D01*
G37*
G54D24*
X55700Y-42424D02*
X55561Y-42285D01*
X55469Y-42247D01*
X55531Y-42222D01*
X55558Y-42128D01*
X55250Y-41821D01*
X55179Y-41891D01*
X55179Y-41750D01*
X54872Y-41442D01*
X54778Y-41469D01*
X54707Y-41671D01*
X54718Y-41884D01*
X54778Y-42031D01*
X54872Y-42058D01*
X55179Y-41750D01*
X55179Y-41891D01*
X54942Y-42128D01*
X54969Y-42222D01*
X55034Y-42245D01*
X54939Y-42285D01*
X54785Y-42439D01*
X54701Y-42641D01*
X54701Y-42859D01*
X54785Y-43061D01*
X54939Y-43215D01*
X55008Y-43243D01*
X54971Y-43271D01*
X54939Y-43285D01*
X54896Y-43328D01*
X54700Y-43475D01*
X54700Y-48952D01*
X54614Y-48866D01*
X54339Y-48751D01*
X54041Y-48751D01*
X53766Y-48865D01*
X53560Y-49069D01*
X53560Y-49049D01*
X53560Y-48950D01*
X53522Y-48859D01*
X53452Y-48789D01*
X53360Y-48751D01*
X52923Y-48750D01*
X52861Y-48812D01*
X52861Y-49400D01*
X52861Y-49450D01*
X52861Y-49550D01*
X52861Y-49600D01*
X52861Y-50188D01*
X52923Y-50250D01*
X53360Y-50249D01*
X53452Y-50211D01*
X53522Y-50141D01*
X53560Y-50050D01*
X53560Y-49951D01*
X53560Y-49929D01*
X53764Y-50134D01*
X54039Y-50249D01*
X54337Y-50249D01*
X54612Y-50135D01*
X54700Y-50047D01*
X54700Y-51205D01*
X52761Y-51205D01*
X52761Y-50188D01*
X52761Y-49550D01*
X52761Y-49450D01*
X52761Y-48812D01*
X52699Y-48750D01*
X52262Y-48751D01*
X52170Y-48789D01*
X52100Y-48859D01*
X52062Y-48950D01*
X52062Y-49049D01*
X52061Y-49388D01*
X52123Y-49450D01*
X52761Y-49450D01*
X52761Y-49550D01*
X52123Y-49550D01*
X52061Y-49612D01*
X52062Y-49951D01*
X52062Y-50050D01*
X52100Y-50141D01*
X52170Y-50211D01*
X52262Y-50249D01*
X52699Y-50250D01*
X52761Y-50188D01*
X52761Y-51205D01*
X51799Y-51205D01*
X51799Y-43859D01*
X51799Y-43641D01*
X51715Y-43439D01*
X51561Y-43285D01*
X51476Y-43250D01*
X51561Y-43215D01*
X51715Y-43061D01*
X51799Y-42859D01*
X51799Y-42641D01*
X51715Y-42439D01*
X51561Y-42285D01*
X51476Y-42250D01*
X51561Y-42215D01*
X51715Y-42061D01*
X51799Y-41859D01*
X51799Y-41641D01*
X51715Y-41439D01*
X51561Y-41285D01*
X51359Y-41201D01*
X51141Y-41201D01*
X50939Y-41285D01*
X50785Y-41439D01*
X50701Y-41641D01*
X50701Y-41859D01*
X50785Y-42061D01*
X50939Y-42215D01*
X51023Y-42250D01*
X50939Y-42285D01*
X50785Y-42439D01*
X50750Y-42523D01*
X50715Y-42439D01*
X50561Y-42285D01*
X50359Y-42201D01*
X50141Y-42201D01*
X49939Y-42285D01*
X49785Y-42439D01*
X49701Y-42641D01*
X49701Y-42859D01*
X49785Y-43061D01*
X49939Y-43215D01*
X50141Y-43299D01*
X50359Y-43299D01*
X50561Y-43215D01*
X50715Y-43061D01*
X50750Y-42976D01*
X50785Y-43061D01*
X50939Y-43215D01*
X51023Y-43250D01*
X50939Y-43285D01*
X50785Y-43439D01*
X50701Y-43641D01*
X50701Y-43859D01*
X50785Y-44061D01*
X50939Y-44215D01*
X51141Y-44299D01*
X51359Y-44299D01*
X51561Y-44215D01*
X51715Y-44061D01*
X51799Y-43859D01*
X51799Y-51205D01*
X51244Y-51205D01*
X51368Y-51081D01*
X51525Y-50705D01*
X51525Y-50297D01*
X51369Y-49920D01*
X51081Y-49632D01*
X50705Y-49475D01*
X50297Y-49475D01*
X49920Y-49631D01*
X49632Y-49919D01*
X49475Y-50295D01*
X49475Y-50703D01*
X49631Y-51080D01*
X49756Y-51205D01*
X48600Y-51205D01*
X48600Y-44920D01*
X48600Y-44582D01*
X48600Y-40920D01*
X48600Y-40582D01*
X48471Y-40270D01*
X48232Y-40030D01*
X47920Y-39900D01*
X47582Y-39900D01*
X47270Y-40029D01*
X47030Y-40268D01*
X46900Y-40580D01*
X46900Y-40918D01*
X47029Y-41230D01*
X47268Y-41470D01*
X47580Y-41600D01*
X47918Y-41600D01*
X48230Y-41471D01*
X48470Y-41232D01*
X48600Y-40920D01*
X48600Y-44582D01*
X48471Y-44270D01*
X48232Y-44030D01*
X47920Y-43900D01*
X47582Y-43900D01*
X47270Y-44029D01*
X47030Y-44268D01*
X46900Y-44580D01*
X46900Y-44918D01*
X47029Y-45230D01*
X47268Y-45470D01*
X47580Y-45600D01*
X47918Y-45600D01*
X48230Y-45471D01*
X48470Y-45232D01*
X48600Y-44920D01*
X48600Y-51205D01*
X45295Y-51205D01*
X45295Y-30795D01*
X50256Y-30795D01*
X50132Y-30919D01*
X49975Y-31295D01*
X49975Y-31703D01*
X50131Y-32080D01*
X50419Y-32368D01*
X50795Y-32525D01*
X51203Y-32525D01*
X51580Y-32369D01*
X51868Y-32081D01*
X51917Y-31961D01*
X51942Y-32020D01*
X52094Y-32171D01*
X52292Y-32254D01*
X52507Y-32254D01*
X52706Y-32172D01*
X52857Y-32020D01*
X52899Y-31917D01*
X52942Y-32020D01*
X53094Y-32171D01*
X53292Y-32254D01*
X53507Y-32254D01*
X53706Y-32172D01*
X53857Y-32020D01*
X53899Y-31917D01*
X53942Y-32020D01*
X54094Y-32171D01*
X54292Y-32254D01*
X54507Y-32254D01*
X54706Y-32172D01*
X54857Y-32020D01*
X54899Y-31917D01*
X54942Y-32020D01*
X55094Y-32171D01*
X55292Y-32254D01*
X55507Y-32254D01*
X55700Y-32174D01*
X55700Y-41462D01*
X55628Y-41442D01*
X55558Y-41512D01*
X55558Y-41372D01*
X55531Y-41278D01*
X55329Y-41207D01*
X55116Y-41218D01*
X54969Y-41278D01*
X54942Y-41372D01*
X55250Y-41679D01*
X55558Y-41372D01*
X55558Y-41512D01*
X55321Y-41750D01*
X55628Y-42058D01*
X55700Y-42037D01*
X55700Y-42424D01*
G54D10*
G36*
X82200Y-51205D02*
X81225Y-51205D01*
X81306Y-51172D01*
X81457Y-51020D01*
X81540Y-50822D01*
X81540Y-50607D01*
X81540Y-50179D01*
X81458Y-49980D01*
X81306Y-49829D01*
X81108Y-49746D01*
X80893Y-49746D01*
X80694Y-49828D01*
X80543Y-49980D01*
X80500Y-50082D01*
X80458Y-49980D01*
X80306Y-49829D01*
X80108Y-49746D01*
X79893Y-49746D01*
X79694Y-49828D01*
X79543Y-49980D01*
X79500Y-50082D01*
X79458Y-49980D01*
X79306Y-49829D01*
X79108Y-49746D01*
X78893Y-49746D01*
X78694Y-49828D01*
X78543Y-49980D01*
X78500Y-50082D01*
X78458Y-49980D01*
X78306Y-49829D01*
X78108Y-49746D01*
X77893Y-49746D01*
X77694Y-49828D01*
X77543Y-49980D01*
X77500Y-50082D01*
X77458Y-49980D01*
X77306Y-49829D01*
X77108Y-49746D01*
X76893Y-49746D01*
X76694Y-49828D01*
X76543Y-49980D01*
X76500Y-50082D01*
X76458Y-49980D01*
X76306Y-49829D01*
X76108Y-49746D01*
X75893Y-49746D01*
X75694Y-49828D01*
X75543Y-49980D01*
X75500Y-50082D01*
X75458Y-49980D01*
X75306Y-49829D01*
X75108Y-49746D01*
X74893Y-49746D01*
X74694Y-49828D01*
X74543Y-49980D01*
X74500Y-50082D01*
X74458Y-49980D01*
X74306Y-49829D01*
X74108Y-49746D01*
X73893Y-49746D01*
X73694Y-49828D01*
X73543Y-49980D01*
X73460Y-50178D01*
X73460Y-50393D01*
X73460Y-50821D01*
X73542Y-51020D01*
X73694Y-51171D01*
X73775Y-51205D01*
X72225Y-51205D01*
X72306Y-51172D01*
X72457Y-51020D01*
X72540Y-50822D01*
X72540Y-50607D01*
X72540Y-50179D01*
X72458Y-49980D01*
X72306Y-49829D01*
X72108Y-49746D01*
X71893Y-49746D01*
X71694Y-49828D01*
X71543Y-49980D01*
X71500Y-50082D01*
X71458Y-49980D01*
X71365Y-49887D01*
X71365Y-43373D01*
X71365Y-43128D01*
X71271Y-42902D01*
X71213Y-42843D01*
X71256Y-42826D01*
X71326Y-42756D01*
X71364Y-42665D01*
X71364Y-42566D01*
X71364Y-41836D01*
X71326Y-41744D01*
X71256Y-41674D01*
X71165Y-41636D01*
X71066Y-41636D01*
X70336Y-41636D01*
X70244Y-41674D01*
X70174Y-41744D01*
X70136Y-41835D01*
X70136Y-41934D01*
X70136Y-42664D01*
X70174Y-42756D01*
X70244Y-42826D01*
X70286Y-42843D01*
X70229Y-42901D01*
X70135Y-43127D01*
X70135Y-43372D01*
X70229Y-43598D01*
X70401Y-43771D01*
X70627Y-43865D01*
X70872Y-43865D01*
X71098Y-43771D01*
X71271Y-43599D01*
X71365Y-43373D01*
X71365Y-49887D01*
X71306Y-49829D01*
X71108Y-49746D01*
X70893Y-49746D01*
X70694Y-49828D01*
X70543Y-49980D01*
X70500Y-50082D01*
X70458Y-49980D01*
X70306Y-49829D01*
X70108Y-49746D01*
X69893Y-49746D01*
X69694Y-49828D01*
X69675Y-49847D01*
X69675Y-32885D01*
X69675Y-32716D01*
X69611Y-32560D01*
X69491Y-32440D01*
X69335Y-32375D01*
X69166Y-32375D01*
X69010Y-32439D01*
X68939Y-32510D01*
X68050Y-32510D01*
X67939Y-32532D01*
X67845Y-32595D01*
X67844Y-32595D01*
X67844Y-32596D01*
X67515Y-32925D01*
X67416Y-32925D01*
X67260Y-32989D01*
X67140Y-33109D01*
X67075Y-33265D01*
X67075Y-33434D01*
X67139Y-33590D01*
X67259Y-33710D01*
X67415Y-33775D01*
X67584Y-33775D01*
X67740Y-33711D01*
X67860Y-33591D01*
X67925Y-33435D01*
X67925Y-33335D01*
X68170Y-33090D01*
X68939Y-33090D01*
X69009Y-33160D01*
X69165Y-33225D01*
X69334Y-33225D01*
X69490Y-33161D01*
X69610Y-33041D01*
X69675Y-32885D01*
X69675Y-49847D01*
X69543Y-49980D01*
X69500Y-50082D01*
X69458Y-49980D01*
X69306Y-49829D01*
X69108Y-49746D01*
X68893Y-49746D01*
X68694Y-49828D01*
X68543Y-49980D01*
X68500Y-50082D01*
X68458Y-49980D01*
X68306Y-49829D01*
X68108Y-49746D01*
X67893Y-49746D01*
X67694Y-49828D01*
X67543Y-49980D01*
X67525Y-50022D01*
X67525Y-36885D01*
X67525Y-36716D01*
X67461Y-36560D01*
X67341Y-36440D01*
X67185Y-36375D01*
X67016Y-36375D01*
X66860Y-36439D01*
X66740Y-36559D01*
X66675Y-36715D01*
X66675Y-36758D01*
X63517Y-39917D01*
X63445Y-40023D01*
X63420Y-40150D01*
X63420Y-41636D01*
X63336Y-41636D01*
X63244Y-41674D01*
X63174Y-41744D01*
X63136Y-41835D01*
X63136Y-41934D01*
X63136Y-42664D01*
X63174Y-42756D01*
X63244Y-42826D01*
X63286Y-42843D01*
X63229Y-42901D01*
X63135Y-43127D01*
X63135Y-43372D01*
X63229Y-43598D01*
X63401Y-43771D01*
X63627Y-43865D01*
X63872Y-43865D01*
X64098Y-43771D01*
X64271Y-43599D01*
X64349Y-43410D01*
X66985Y-40775D01*
X67084Y-40775D01*
X67240Y-40711D01*
X67360Y-40591D01*
X67425Y-40435D01*
X67425Y-40266D01*
X67361Y-40110D01*
X67241Y-39990D01*
X67085Y-39925D01*
X66916Y-39925D01*
X66760Y-39989D01*
X66640Y-40109D01*
X66575Y-40265D01*
X66575Y-40365D01*
X64364Y-42576D01*
X64364Y-42566D01*
X64364Y-41836D01*
X64326Y-41744D01*
X64256Y-41674D01*
X64165Y-41636D01*
X64080Y-41636D01*
X64080Y-40286D01*
X67141Y-37225D01*
X67184Y-37225D01*
X67340Y-37161D01*
X67460Y-37041D01*
X67525Y-36885D01*
X67525Y-50022D01*
X67500Y-50082D01*
X67458Y-49980D01*
X67306Y-49829D01*
X67108Y-49746D01*
X66893Y-49746D01*
X66694Y-49828D01*
X66543Y-49980D01*
X66500Y-50082D01*
X66458Y-49980D01*
X66306Y-49829D01*
X66108Y-49746D01*
X65893Y-49746D01*
X65694Y-49828D01*
X65543Y-49980D01*
X65500Y-50082D01*
X65458Y-49980D01*
X65306Y-49829D01*
X65108Y-49746D01*
X64893Y-49746D01*
X64694Y-49828D01*
X64543Y-49980D01*
X64460Y-50178D01*
X64460Y-50393D01*
X64460Y-50821D01*
X64542Y-51020D01*
X64694Y-51171D01*
X64775Y-51205D01*
X63205Y-51205D01*
X63353Y-51125D01*
X63489Y-50957D01*
X63550Y-50750D01*
X63550Y-50550D01*
X63550Y-50450D01*
X63550Y-50250D01*
X63489Y-50043D01*
X63353Y-49875D01*
X63163Y-49772D01*
X63135Y-49768D01*
X63050Y-49815D01*
X63050Y-50450D01*
X63550Y-50450D01*
X63550Y-50550D01*
X63100Y-50550D01*
X63050Y-50550D01*
X62950Y-50550D01*
X62950Y-50450D01*
X62950Y-50400D01*
X62950Y-49815D01*
X62865Y-49768D01*
X62837Y-49772D01*
X62647Y-49875D01*
X62511Y-50043D01*
X62499Y-50081D01*
X62458Y-49980D01*
X62306Y-49829D01*
X62108Y-49746D01*
X61893Y-49746D01*
X61694Y-49828D01*
X61543Y-49980D01*
X61500Y-50082D01*
X61458Y-49980D01*
X61306Y-49829D01*
X61108Y-49746D01*
X60893Y-49746D01*
X60694Y-49828D01*
X60543Y-49980D01*
X60500Y-50082D01*
X60458Y-49980D01*
X60306Y-49829D01*
X60108Y-49746D01*
X59893Y-49746D01*
X59694Y-49828D01*
X59543Y-49980D01*
X59500Y-50082D01*
X59458Y-49980D01*
X59306Y-49829D01*
X59108Y-49746D01*
X58893Y-49746D01*
X58694Y-49828D01*
X58543Y-49980D01*
X58500Y-50082D01*
X58458Y-49980D01*
X58306Y-49829D01*
X58108Y-49746D01*
X57893Y-49746D01*
X57694Y-49828D01*
X57543Y-49980D01*
X57500Y-50082D01*
X57458Y-49980D01*
X57306Y-49829D01*
X57108Y-49746D01*
X56893Y-49746D01*
X56694Y-49828D01*
X56543Y-49980D01*
X56500Y-50082D01*
X56458Y-49980D01*
X56306Y-49829D01*
X56108Y-49746D01*
X55893Y-49746D01*
X55793Y-49787D01*
X55793Y-43829D01*
X55782Y-43616D01*
X55722Y-43469D01*
X55628Y-43442D01*
X55321Y-43750D01*
X55628Y-44058D01*
X55722Y-44031D01*
X55793Y-43829D01*
X55793Y-49787D01*
X55694Y-49828D01*
X55543Y-49980D01*
X55460Y-50178D01*
X55460Y-50393D01*
X55460Y-50821D01*
X55542Y-51020D01*
X55694Y-51171D01*
X55775Y-51205D01*
X55050Y-51205D01*
X55050Y-44250D01*
X55171Y-44293D01*
X55384Y-44282D01*
X55531Y-44222D01*
X55558Y-44128D01*
X55285Y-43856D01*
X55250Y-43821D01*
X55179Y-43750D01*
X55250Y-43679D01*
X55285Y-43644D01*
X55284Y-43643D01*
X55468Y-43460D01*
X56050Y-43025D01*
X56050Y-32127D01*
X56094Y-32171D01*
X56292Y-32254D01*
X56507Y-32254D01*
X56706Y-32172D01*
X56857Y-32020D01*
X56899Y-31917D01*
X56942Y-32020D01*
X57094Y-32171D01*
X57292Y-32254D01*
X57507Y-32254D01*
X57706Y-32172D01*
X57857Y-32020D01*
X57899Y-31917D01*
X57942Y-32020D01*
X58094Y-32171D01*
X58292Y-32254D01*
X58507Y-32254D01*
X58706Y-32172D01*
X58857Y-32020D01*
X58899Y-31917D01*
X58942Y-32020D01*
X59094Y-32171D01*
X59292Y-32254D01*
X59507Y-32254D01*
X59706Y-32172D01*
X59857Y-32020D01*
X59899Y-31917D01*
X59942Y-32020D01*
X60094Y-32171D01*
X60292Y-32254D01*
X60507Y-32254D01*
X60706Y-32172D01*
X60857Y-32020D01*
X60899Y-31917D01*
X60942Y-32020D01*
X61094Y-32171D01*
X61292Y-32254D01*
X61507Y-32254D01*
X61706Y-32172D01*
X61857Y-32020D01*
X61940Y-31822D01*
X61940Y-31607D01*
X61940Y-31179D01*
X61858Y-30980D01*
X61706Y-30829D01*
X61624Y-30795D01*
X62774Y-30795D01*
X62694Y-30828D01*
X62543Y-30980D01*
X62460Y-31178D01*
X62460Y-31393D01*
X62460Y-31821D01*
X62542Y-32020D01*
X62694Y-32171D01*
X62892Y-32254D01*
X63107Y-32254D01*
X63306Y-32172D01*
X63457Y-32020D01*
X63499Y-31917D01*
X63542Y-32020D01*
X63694Y-32171D01*
X63892Y-32254D01*
X64107Y-32254D01*
X64306Y-32172D01*
X64457Y-32020D01*
X64499Y-31917D01*
X64542Y-32020D01*
X64694Y-32171D01*
X64892Y-32254D01*
X65107Y-32254D01*
X65306Y-32172D01*
X65457Y-32020D01*
X65499Y-31917D01*
X65542Y-32020D01*
X65694Y-32171D01*
X65892Y-32254D01*
X66107Y-32254D01*
X66306Y-32172D01*
X66457Y-32020D01*
X66499Y-31917D01*
X66542Y-32020D01*
X66694Y-32171D01*
X66892Y-32254D01*
X67107Y-32254D01*
X67306Y-32172D01*
X67457Y-32020D01*
X67499Y-31917D01*
X67542Y-32020D01*
X67694Y-32171D01*
X67892Y-32254D01*
X68107Y-32254D01*
X68306Y-32172D01*
X68457Y-32020D01*
X68499Y-31917D01*
X68542Y-32020D01*
X68694Y-32171D01*
X68892Y-32254D01*
X69107Y-32254D01*
X69306Y-32172D01*
X69457Y-32020D01*
X69499Y-31917D01*
X69542Y-32020D01*
X69694Y-32171D01*
X69892Y-32254D01*
X70107Y-32254D01*
X70306Y-32172D01*
X70457Y-32020D01*
X70540Y-31822D01*
X70540Y-31607D01*
X70540Y-31179D01*
X70458Y-30980D01*
X70306Y-30829D01*
X70224Y-30795D01*
X71774Y-30795D01*
X71694Y-30828D01*
X71543Y-30980D01*
X71460Y-31178D01*
X71460Y-31393D01*
X71460Y-31821D01*
X71542Y-32020D01*
X71694Y-32171D01*
X71892Y-32254D01*
X72107Y-32254D01*
X72306Y-32172D01*
X72457Y-32020D01*
X72499Y-31917D01*
X72542Y-32020D01*
X72694Y-32171D01*
X72892Y-32254D01*
X73107Y-32254D01*
X73306Y-32172D01*
X73457Y-32020D01*
X73499Y-31917D01*
X73542Y-32020D01*
X73694Y-32171D01*
X73892Y-32254D01*
X74107Y-32254D01*
X74306Y-32172D01*
X74457Y-32020D01*
X74499Y-31917D01*
X74542Y-32020D01*
X74694Y-32171D01*
X74892Y-32254D01*
X75107Y-32254D01*
X75306Y-32172D01*
X75457Y-32020D01*
X75499Y-31917D01*
X75542Y-32020D01*
X75694Y-32171D01*
X75892Y-32254D01*
X76107Y-32254D01*
X76306Y-32172D01*
X76457Y-32020D01*
X76499Y-31917D01*
X76542Y-32020D01*
X76694Y-32171D01*
X76892Y-32254D01*
X77107Y-32254D01*
X77306Y-32172D01*
X77457Y-32020D01*
X77499Y-31917D01*
X77542Y-32020D01*
X77694Y-32171D01*
X77892Y-32254D01*
X78107Y-32254D01*
X78306Y-32172D01*
X78457Y-32020D01*
X78499Y-31917D01*
X78542Y-32020D01*
X78694Y-32171D01*
X78892Y-32254D01*
X79107Y-32254D01*
X79306Y-32172D01*
X79457Y-32020D01*
X79532Y-31840D01*
X79631Y-32080D01*
X79919Y-32368D01*
X80295Y-32525D01*
X80703Y-32525D01*
X81080Y-32369D01*
X81368Y-32081D01*
X81507Y-31745D01*
X81535Y-31811D01*
X81689Y-31965D01*
X81773Y-32000D01*
X81689Y-32035D01*
X81535Y-32189D01*
X81451Y-32391D01*
X81451Y-32609D01*
X81535Y-32811D01*
X81689Y-32965D01*
X81773Y-33000D01*
X81689Y-33035D01*
X81535Y-33189D01*
X81451Y-33391D01*
X81451Y-33609D01*
X81535Y-33811D01*
X81689Y-33965D01*
X81773Y-34000D01*
X81689Y-34035D01*
X81535Y-34189D01*
X81451Y-34391D01*
X81451Y-34609D01*
X81535Y-34811D01*
X81689Y-34965D01*
X81773Y-35000D01*
X81689Y-35035D01*
X81535Y-35189D01*
X81451Y-35391D01*
X81451Y-35609D01*
X81535Y-35811D01*
X81689Y-35965D01*
X81773Y-36000D01*
X81689Y-36035D01*
X81535Y-36189D01*
X81451Y-36391D01*
X81451Y-36609D01*
X81535Y-36811D01*
X81689Y-36965D01*
X81773Y-37000D01*
X81689Y-37035D01*
X81535Y-37189D01*
X81451Y-37391D01*
X81451Y-37609D01*
X81535Y-37811D01*
X81689Y-37965D01*
X81773Y-38000D01*
X81689Y-38035D01*
X81535Y-38189D01*
X81451Y-38391D01*
X81451Y-38609D01*
X81535Y-38811D01*
X81689Y-38965D01*
X81773Y-39000D01*
X81689Y-39035D01*
X81535Y-39189D01*
X81451Y-39391D01*
X81451Y-39609D01*
X81535Y-39811D01*
X81689Y-39965D01*
X81773Y-40000D01*
X81689Y-40035D01*
X81535Y-40189D01*
X81451Y-40391D01*
X81451Y-40609D01*
X81535Y-40811D01*
X81689Y-40965D01*
X81773Y-41000D01*
X81689Y-41035D01*
X81535Y-41189D01*
X81451Y-41391D01*
X81451Y-41609D01*
X81535Y-41811D01*
X81689Y-41965D01*
X81773Y-42000D01*
X81689Y-42035D01*
X81535Y-42189D01*
X81451Y-42391D01*
X81451Y-42609D01*
X81535Y-42811D01*
X81689Y-42965D01*
X81773Y-43000D01*
X81689Y-43035D01*
X81535Y-43189D01*
X81451Y-43391D01*
X81451Y-43609D01*
X81535Y-43811D01*
X81689Y-43965D01*
X81773Y-44000D01*
X81689Y-44035D01*
X81535Y-44189D01*
X81451Y-44391D01*
X81451Y-44609D01*
X81535Y-44811D01*
X81689Y-44965D01*
X81773Y-45000D01*
X81689Y-45035D01*
X81535Y-45189D01*
X81451Y-45391D01*
X81451Y-45609D01*
X81535Y-45811D01*
X81689Y-45965D01*
X81773Y-46000D01*
X81689Y-46035D01*
X81535Y-46189D01*
X81451Y-46391D01*
X81451Y-46609D01*
X81535Y-46811D01*
X81689Y-46965D01*
X81773Y-47000D01*
X81689Y-47035D01*
X81535Y-47189D01*
X81451Y-47391D01*
X81451Y-47609D01*
X81535Y-47811D01*
X81689Y-47965D01*
X81773Y-48000D01*
X81689Y-48035D01*
X81535Y-48189D01*
X81451Y-48391D01*
X81451Y-48609D01*
X81535Y-48811D01*
X81689Y-48965D01*
X81891Y-49049D01*
X82109Y-49049D01*
X82200Y-49011D01*
X82200Y-49851D01*
X82132Y-49919D01*
X81975Y-50295D01*
X81975Y-50703D01*
X82131Y-51080D01*
X82200Y-51149D01*
X82200Y-51205D01*
X82200Y-51205D01*
G37*
G54D24*
X82200Y-51205D02*
X81225Y-51205D01*
X81306Y-51172D01*
X81457Y-51020D01*
X81540Y-50822D01*
X81540Y-50607D01*
X81540Y-50179D01*
X81458Y-49980D01*
X81306Y-49829D01*
X81108Y-49746D01*
X80893Y-49746D01*
X80694Y-49828D01*
X80543Y-49980D01*
X80500Y-50082D01*
X80458Y-49980D01*
X80306Y-49829D01*
X80108Y-49746D01*
X79893Y-49746D01*
X79694Y-49828D01*
X79543Y-49980D01*
X79500Y-50082D01*
X79458Y-49980D01*
X79306Y-49829D01*
X79108Y-49746D01*
X78893Y-49746D01*
X78694Y-49828D01*
X78543Y-49980D01*
X78500Y-50082D01*
X78458Y-49980D01*
X78306Y-49829D01*
X78108Y-49746D01*
X77893Y-49746D01*
X77694Y-49828D01*
X77543Y-49980D01*
X77500Y-50082D01*
X77458Y-49980D01*
X77306Y-49829D01*
X77108Y-49746D01*
X76893Y-49746D01*
X76694Y-49828D01*
X76543Y-49980D01*
X76500Y-50082D01*
X76458Y-49980D01*
X76306Y-49829D01*
X76108Y-49746D01*
X75893Y-49746D01*
X75694Y-49828D01*
X75543Y-49980D01*
X75500Y-50082D01*
X75458Y-49980D01*
X75306Y-49829D01*
X75108Y-49746D01*
X74893Y-49746D01*
X74694Y-49828D01*
X74543Y-49980D01*
X74500Y-50082D01*
X74458Y-49980D01*
X74306Y-49829D01*
X74108Y-49746D01*
X73893Y-49746D01*
X73694Y-49828D01*
X73543Y-49980D01*
X73460Y-50178D01*
X73460Y-50393D01*
X73460Y-50821D01*
X73542Y-51020D01*
X73694Y-51171D01*
X73775Y-51205D01*
X72225Y-51205D01*
X72306Y-51172D01*
X72457Y-51020D01*
X72540Y-50822D01*
X72540Y-50607D01*
X72540Y-50179D01*
X72458Y-49980D01*
X72306Y-49829D01*
X72108Y-49746D01*
X71893Y-49746D01*
X71694Y-49828D01*
X71543Y-49980D01*
X71500Y-50082D01*
X71458Y-49980D01*
X71365Y-49887D01*
X71365Y-43373D01*
X71365Y-43128D01*
X71271Y-42902D01*
X71213Y-42843D01*
X71256Y-42826D01*
X71326Y-42756D01*
X71364Y-42665D01*
X71364Y-42566D01*
X71364Y-41836D01*
X71326Y-41744D01*
X71256Y-41674D01*
X71165Y-41636D01*
X71066Y-41636D01*
X70336Y-41636D01*
X70244Y-41674D01*
X70174Y-41744D01*
X70136Y-41835D01*
X70136Y-41934D01*
X70136Y-42664D01*
X70174Y-42756D01*
X70244Y-42826D01*
X70286Y-42843D01*
X70229Y-42901D01*
X70135Y-43127D01*
X70135Y-43372D01*
X70229Y-43598D01*
X70401Y-43771D01*
X70627Y-43865D01*
X70872Y-43865D01*
X71098Y-43771D01*
X71271Y-43599D01*
X71365Y-43373D01*
X71365Y-49887D01*
X71306Y-49829D01*
X71108Y-49746D01*
X70893Y-49746D01*
X70694Y-49828D01*
X70543Y-49980D01*
X70500Y-50082D01*
X70458Y-49980D01*
X70306Y-49829D01*
X70108Y-49746D01*
X69893Y-49746D01*
X69694Y-49828D01*
X69675Y-49847D01*
X69675Y-32885D01*
X69675Y-32716D01*
X69611Y-32560D01*
X69491Y-32440D01*
X69335Y-32375D01*
X69166Y-32375D01*
X69010Y-32439D01*
X68939Y-32510D01*
X68050Y-32510D01*
X67939Y-32532D01*
X67845Y-32595D01*
X67844Y-32595D01*
X67844Y-32596D01*
X67515Y-32925D01*
X67416Y-32925D01*
X67260Y-32989D01*
X67140Y-33109D01*
X67075Y-33265D01*
X67075Y-33434D01*
X67139Y-33590D01*
X67259Y-33710D01*
X67415Y-33775D01*
X67584Y-33775D01*
X67740Y-33711D01*
X67860Y-33591D01*
X67925Y-33435D01*
X67925Y-33335D01*
X68170Y-33090D01*
X68939Y-33090D01*
X69009Y-33160D01*
X69165Y-33225D01*
X69334Y-33225D01*
X69490Y-33161D01*
X69610Y-33041D01*
X69675Y-32885D01*
X69675Y-49847D01*
X69543Y-49980D01*
X69500Y-50082D01*
X69458Y-49980D01*
X69306Y-49829D01*
X69108Y-49746D01*
X68893Y-49746D01*
X68694Y-49828D01*
X68543Y-49980D01*
X68500Y-50082D01*
X68458Y-49980D01*
X68306Y-49829D01*
X68108Y-49746D01*
X67893Y-49746D01*
X67694Y-49828D01*
X67543Y-49980D01*
X67525Y-50022D01*
X67525Y-36885D01*
X67525Y-36716D01*
X67461Y-36560D01*
X67341Y-36440D01*
X67185Y-36375D01*
X67016Y-36375D01*
X66860Y-36439D01*
X66740Y-36559D01*
X66675Y-36715D01*
X66675Y-36758D01*
X63517Y-39917D01*
X63445Y-40023D01*
X63420Y-40150D01*
X63420Y-41636D01*
X63336Y-41636D01*
X63244Y-41674D01*
X63174Y-41744D01*
X63136Y-41835D01*
X63136Y-41934D01*
X63136Y-42664D01*
X63174Y-42756D01*
X63244Y-42826D01*
X63286Y-42843D01*
X63229Y-42901D01*
X63135Y-43127D01*
X63135Y-43372D01*
X63229Y-43598D01*
X63401Y-43771D01*
X63627Y-43865D01*
X63872Y-43865D01*
X64098Y-43771D01*
X64271Y-43599D01*
X64349Y-43410D01*
X66985Y-40775D01*
X67084Y-40775D01*
X67240Y-40711D01*
X67360Y-40591D01*
X67425Y-40435D01*
X67425Y-40266D01*
X67361Y-40110D01*
X67241Y-39990D01*
X67085Y-39925D01*
X66916Y-39925D01*
X66760Y-39989D01*
X66640Y-40109D01*
X66575Y-40265D01*
X66575Y-40365D01*
X64364Y-42576D01*
X64364Y-42566D01*
X64364Y-41836D01*
X64326Y-41744D01*
X64256Y-41674D01*
X64165Y-41636D01*
X64080Y-41636D01*
X64080Y-40286D01*
X67141Y-37225D01*
X67184Y-37225D01*
X67340Y-37161D01*
X67460Y-37041D01*
X67525Y-36885D01*
X67525Y-50022D01*
X67500Y-50082D01*
X67458Y-49980D01*
X67306Y-49829D01*
X67108Y-49746D01*
X66893Y-49746D01*
X66694Y-49828D01*
X66543Y-49980D01*
X66500Y-50082D01*
X66458Y-49980D01*
X66306Y-49829D01*
X66108Y-49746D01*
X65893Y-49746D01*
X65694Y-49828D01*
X65543Y-49980D01*
X65500Y-50082D01*
X65458Y-49980D01*
X65306Y-49829D01*
X65108Y-49746D01*
X64893Y-49746D01*
X64694Y-49828D01*
X64543Y-49980D01*
X64460Y-50178D01*
X64460Y-50393D01*
X64460Y-50821D01*
X64542Y-51020D01*
X64694Y-51171D01*
X64775Y-51205D01*
X63205Y-51205D01*
X63353Y-51125D01*
X63489Y-50957D01*
X63550Y-50750D01*
X63550Y-50550D01*
X63550Y-50450D01*
X63550Y-50250D01*
X63489Y-50043D01*
X63353Y-49875D01*
X63163Y-49772D01*
X63135Y-49768D01*
X63050Y-49815D01*
X63050Y-50450D01*
X63550Y-50450D01*
X63550Y-50550D01*
X63100Y-50550D01*
X63050Y-50550D01*
X62950Y-50550D01*
X62950Y-50450D01*
X62950Y-50400D01*
X62950Y-49815D01*
X62865Y-49768D01*
X62837Y-49772D01*
X62647Y-49875D01*
X62511Y-50043D01*
X62499Y-50081D01*
X62458Y-49980D01*
X62306Y-49829D01*
X62108Y-49746D01*
X61893Y-49746D01*
X61694Y-49828D01*
X61543Y-49980D01*
X61500Y-50082D01*
X61458Y-49980D01*
X61306Y-49829D01*
X61108Y-49746D01*
X60893Y-49746D01*
X60694Y-49828D01*
X60543Y-49980D01*
X60500Y-50082D01*
X60458Y-49980D01*
X60306Y-49829D01*
X60108Y-49746D01*
X59893Y-49746D01*
X59694Y-49828D01*
X59543Y-49980D01*
X59500Y-50082D01*
X59458Y-49980D01*
X59306Y-49829D01*
X59108Y-49746D01*
X58893Y-49746D01*
X58694Y-49828D01*
X58543Y-49980D01*
X58500Y-50082D01*
X58458Y-49980D01*
X58306Y-49829D01*
X58108Y-49746D01*
X57893Y-49746D01*
X57694Y-49828D01*
X57543Y-49980D01*
X57500Y-50082D01*
X57458Y-49980D01*
X57306Y-49829D01*
X57108Y-49746D01*
X56893Y-49746D01*
X56694Y-49828D01*
X56543Y-49980D01*
X56500Y-50082D01*
X56458Y-49980D01*
X56306Y-49829D01*
X56108Y-49746D01*
X55893Y-49746D01*
X55793Y-49787D01*
X55793Y-43829D01*
X55782Y-43616D01*
X55722Y-43469D01*
X55628Y-43442D01*
X55321Y-43750D01*
X55628Y-44058D01*
X55722Y-44031D01*
X55793Y-43829D01*
X55793Y-49787D01*
X55694Y-49828D01*
X55543Y-49980D01*
X55460Y-50178D01*
X55460Y-50393D01*
X55460Y-50821D01*
X55542Y-51020D01*
X55694Y-51171D01*
X55775Y-51205D01*
X55050Y-51205D01*
X55050Y-44250D01*
X55171Y-44293D01*
X55384Y-44282D01*
X55531Y-44222D01*
X55558Y-44128D01*
X55285Y-43856D01*
X55250Y-43821D01*
X55179Y-43750D01*
X55250Y-43679D01*
X55285Y-43644D01*
X55284Y-43643D01*
X55468Y-43460D01*
X56050Y-43025D01*
X56050Y-32127D01*
X56094Y-32171D01*
X56292Y-32254D01*
X56507Y-32254D01*
X56706Y-32172D01*
X56857Y-32020D01*
X56899Y-31917D01*
X56942Y-32020D01*
X57094Y-32171D01*
X57292Y-32254D01*
X57507Y-32254D01*
X57706Y-32172D01*
X57857Y-32020D01*
X57899Y-31917D01*
X57942Y-32020D01*
X58094Y-32171D01*
X58292Y-32254D01*
X58507Y-32254D01*
X58706Y-32172D01*
X58857Y-32020D01*
X58899Y-31917D01*
X58942Y-32020D01*
X59094Y-32171D01*
X59292Y-32254D01*
X59507Y-32254D01*
X59706Y-32172D01*
X59857Y-32020D01*
X59899Y-31917D01*
X59942Y-32020D01*
X60094Y-32171D01*
X60292Y-32254D01*
X60507Y-32254D01*
X60706Y-32172D01*
X60857Y-32020D01*
X60899Y-31917D01*
X60942Y-32020D01*
X61094Y-32171D01*
X61292Y-32254D01*
X61507Y-32254D01*
X61706Y-32172D01*
X61857Y-32020D01*
X61940Y-31822D01*
X61940Y-31607D01*
X61940Y-31179D01*
X61858Y-30980D01*
X61706Y-30829D01*
X61624Y-30795D01*
X62774Y-30795D01*
X62694Y-30828D01*
X62543Y-30980D01*
X62460Y-31178D01*
X62460Y-31393D01*
X62460Y-31821D01*
X62542Y-32020D01*
X62694Y-32171D01*
X62892Y-32254D01*
X63107Y-32254D01*
X63306Y-32172D01*
X63457Y-32020D01*
X63499Y-31917D01*
X63542Y-32020D01*
X63694Y-32171D01*
X63892Y-32254D01*
X64107Y-32254D01*
X64306Y-32172D01*
X64457Y-32020D01*
X64499Y-31917D01*
X64542Y-32020D01*
X64694Y-32171D01*
X64892Y-32254D01*
X65107Y-32254D01*
X65306Y-32172D01*
X65457Y-32020D01*
X65499Y-31917D01*
X65542Y-32020D01*
X65694Y-32171D01*
X65892Y-32254D01*
X66107Y-32254D01*
X66306Y-32172D01*
X66457Y-32020D01*
X66499Y-31917D01*
X66542Y-32020D01*
X66694Y-32171D01*
X66892Y-32254D01*
X67107Y-32254D01*
X67306Y-32172D01*
X67457Y-32020D01*
X67499Y-31917D01*
X67542Y-32020D01*
X67694Y-32171D01*
X67892Y-32254D01*
X68107Y-32254D01*
X68306Y-32172D01*
X68457Y-32020D01*
X68499Y-31917D01*
X68542Y-32020D01*
X68694Y-32171D01*
X68892Y-32254D01*
X69107Y-32254D01*
X69306Y-32172D01*
X69457Y-32020D01*
X69499Y-31917D01*
X69542Y-32020D01*
X69694Y-32171D01*
X69892Y-32254D01*
X70107Y-32254D01*
X70306Y-32172D01*
X70457Y-32020D01*
X70540Y-31822D01*
X70540Y-31607D01*
X70540Y-31179D01*
X70458Y-30980D01*
X70306Y-30829D01*
X70224Y-30795D01*
X71774Y-30795D01*
X71694Y-30828D01*
X71543Y-30980D01*
X71460Y-31178D01*
X71460Y-31393D01*
X71460Y-31821D01*
X71542Y-32020D01*
X71694Y-32171D01*
X71892Y-32254D01*
X72107Y-32254D01*
X72306Y-32172D01*
X72457Y-32020D01*
X72499Y-31917D01*
X72542Y-32020D01*
X72694Y-32171D01*
X72892Y-32254D01*
X73107Y-32254D01*
X73306Y-32172D01*
X73457Y-32020D01*
X73499Y-31917D01*
X73542Y-32020D01*
X73694Y-32171D01*
X73892Y-32254D01*
X74107Y-32254D01*
X74306Y-32172D01*
X74457Y-32020D01*
X74499Y-31917D01*
X74542Y-32020D01*
X74694Y-32171D01*
X74892Y-32254D01*
X75107Y-32254D01*
X75306Y-32172D01*
X75457Y-32020D01*
X75499Y-31917D01*
X75542Y-32020D01*
X75694Y-32171D01*
X75892Y-32254D01*
X76107Y-32254D01*
X76306Y-32172D01*
X76457Y-32020D01*
X76499Y-31917D01*
X76542Y-32020D01*
X76694Y-32171D01*
X76892Y-32254D01*
X77107Y-32254D01*
X77306Y-32172D01*
X77457Y-32020D01*
X77499Y-31917D01*
X77542Y-32020D01*
X77694Y-32171D01*
X77892Y-32254D01*
X78107Y-32254D01*
X78306Y-32172D01*
X78457Y-32020D01*
X78499Y-31917D01*
X78542Y-32020D01*
X78694Y-32171D01*
X78892Y-32254D01*
X79107Y-32254D01*
X79306Y-32172D01*
X79457Y-32020D01*
X79532Y-31840D01*
X79631Y-32080D01*
X79919Y-32368D01*
X80295Y-32525D01*
X80703Y-32525D01*
X81080Y-32369D01*
X81368Y-32081D01*
X81507Y-31745D01*
X81535Y-31811D01*
X81689Y-31965D01*
X81773Y-32000D01*
X81689Y-32035D01*
X81535Y-32189D01*
X81451Y-32391D01*
X81451Y-32609D01*
X81535Y-32811D01*
X81689Y-32965D01*
X81773Y-33000D01*
X81689Y-33035D01*
X81535Y-33189D01*
X81451Y-33391D01*
X81451Y-33609D01*
X81535Y-33811D01*
X81689Y-33965D01*
X81773Y-34000D01*
X81689Y-34035D01*
X81535Y-34189D01*
X81451Y-34391D01*
X81451Y-34609D01*
X81535Y-34811D01*
X81689Y-34965D01*
X81773Y-35000D01*
X81689Y-35035D01*
X81535Y-35189D01*
X81451Y-35391D01*
X81451Y-35609D01*
X81535Y-35811D01*
X81689Y-35965D01*
X81773Y-36000D01*
X81689Y-36035D01*
X81535Y-36189D01*
X81451Y-36391D01*
X81451Y-36609D01*
X81535Y-36811D01*
X81689Y-36965D01*
X81773Y-37000D01*
X81689Y-37035D01*
X81535Y-37189D01*
X81451Y-37391D01*
X81451Y-37609D01*
X81535Y-37811D01*
X81689Y-37965D01*
X81773Y-38000D01*
X81689Y-38035D01*
X81535Y-38189D01*
X81451Y-38391D01*
X81451Y-38609D01*
X81535Y-38811D01*
X81689Y-38965D01*
X81773Y-39000D01*
X81689Y-39035D01*
X81535Y-39189D01*
X81451Y-39391D01*
X81451Y-39609D01*
X81535Y-39811D01*
X81689Y-39965D01*
X81773Y-40000D01*
X81689Y-40035D01*
X81535Y-40189D01*
X81451Y-40391D01*
X81451Y-40609D01*
X81535Y-40811D01*
X81689Y-40965D01*
X81773Y-41000D01*
X81689Y-41035D01*
X81535Y-41189D01*
X81451Y-41391D01*
X81451Y-41609D01*
X81535Y-41811D01*
X81689Y-41965D01*
X81773Y-42000D01*
X81689Y-42035D01*
X81535Y-42189D01*
X81451Y-42391D01*
X81451Y-42609D01*
X81535Y-42811D01*
X81689Y-42965D01*
X81773Y-43000D01*
X81689Y-43035D01*
X81535Y-43189D01*
X81451Y-43391D01*
X81451Y-43609D01*
X81535Y-43811D01*
X81689Y-43965D01*
X81773Y-44000D01*
X81689Y-44035D01*
X81535Y-44189D01*
X81451Y-44391D01*
X81451Y-44609D01*
X81535Y-44811D01*
X81689Y-44965D01*
X81773Y-45000D01*
X81689Y-45035D01*
X81535Y-45189D01*
X81451Y-45391D01*
X81451Y-45609D01*
X81535Y-45811D01*
X81689Y-45965D01*
X81773Y-46000D01*
X81689Y-46035D01*
X81535Y-46189D01*
X81451Y-46391D01*
X81451Y-46609D01*
X81535Y-46811D01*
X81689Y-46965D01*
X81773Y-47000D01*
X81689Y-47035D01*
X81535Y-47189D01*
X81451Y-47391D01*
X81451Y-47609D01*
X81535Y-47811D01*
X81689Y-47965D01*
X81773Y-48000D01*
X81689Y-48035D01*
X81535Y-48189D01*
X81451Y-48391D01*
X81451Y-48609D01*
X81535Y-48811D01*
X81689Y-48965D01*
X81891Y-49049D01*
X82109Y-49049D01*
X82200Y-49011D01*
X82200Y-49851D01*
X82132Y-49919D01*
X81975Y-50295D01*
X81975Y-50703D01*
X82131Y-51080D01*
X82200Y-51149D01*
X82200Y-51205D01*
M02*
