G04 (created by PCBNEW-RS274X (2011-05-25)-stable) date Tue 11 Mar 2014 02:38:01 PM EDT*
G01*
G70*
G90*
%MOIN*%
G04 Gerber Fmt 3.4, Leading zero omitted, Abs format*
%FSLAX34Y34*%
G04 APERTURE LIST*
%ADD10C,0.006000*%
%ADD11C,0.009000*%
%ADD12C,0.175000*%
%ADD13O,0.080000X0.120000*%
%ADD14C,0.080000*%
%ADD15C,0.140000*%
%ADD16C,0.093000*%
%ADD17R,0.093000X0.093000*%
%ADD18R,0.120000X0.120000*%
%ADD19C,0.120000*%
G04 APERTURE END LIST*
G54D10*
G54D11*
X45000Y-51500D02*
X89500Y-51500D01*
X45000Y-30500D02*
X45000Y-51500D01*
X89500Y-30500D02*
X45000Y-30500D01*
X89500Y-51500D02*
X89500Y-30500D01*
%LPC*%
G54D12*
X50500Y-50500D03*
X51000Y-31500D03*
X83000Y-50500D03*
X80500Y-31500D03*
G54D13*
X56000Y-50500D03*
X57000Y-50500D03*
X58000Y-50500D03*
X59000Y-50500D03*
X60000Y-50500D03*
X61000Y-50500D03*
X62000Y-50500D03*
X63000Y-50500D03*
X65000Y-50500D03*
X66000Y-50500D03*
X67000Y-50500D03*
X68000Y-50500D03*
X69000Y-50500D03*
X70000Y-50500D03*
X71000Y-50500D03*
X72000Y-50500D03*
X74000Y-50500D03*
X75000Y-50500D03*
X76000Y-50500D03*
X77000Y-50500D03*
X78000Y-50500D03*
X79000Y-50500D03*
X80000Y-50500D03*
X81000Y-50500D03*
X52400Y-31500D03*
X53400Y-31500D03*
X54400Y-31500D03*
X55400Y-31500D03*
X56400Y-31500D03*
X57400Y-31500D03*
X58400Y-31500D03*
X59400Y-31500D03*
X60400Y-31500D03*
X61400Y-31500D03*
X63000Y-31500D03*
X70000Y-31500D03*
X69000Y-31500D03*
X68000Y-31500D03*
X67000Y-31500D03*
X66000Y-31500D03*
X65000Y-31500D03*
X64000Y-31500D03*
X72000Y-31500D03*
X73000Y-31500D03*
X74000Y-31500D03*
X75000Y-31500D03*
X76000Y-31500D03*
X77000Y-31500D03*
X78000Y-31500D03*
X79000Y-31500D03*
G54D14*
X82000Y-31500D03*
X83000Y-31500D03*
X82000Y-32500D03*
X83000Y-32500D03*
X82000Y-33500D03*
X83000Y-33500D03*
X82000Y-34500D03*
X83000Y-34500D03*
X82000Y-35500D03*
X83000Y-35500D03*
X82000Y-36500D03*
X83000Y-36500D03*
X82000Y-37500D03*
X83000Y-37500D03*
X82000Y-38500D03*
X83000Y-38500D03*
X82000Y-39500D03*
X83000Y-39500D03*
X82000Y-40500D03*
X83000Y-40500D03*
X82000Y-41500D03*
X83000Y-41500D03*
X82000Y-42500D03*
X83000Y-42500D03*
X82000Y-43500D03*
X83000Y-43500D03*
X82000Y-44500D03*
X83000Y-44500D03*
X82000Y-45500D03*
X83000Y-45500D03*
X82000Y-46500D03*
X83000Y-46500D03*
X82000Y-47500D03*
X83000Y-47500D03*
X82000Y-48500D03*
X83000Y-48500D03*
G54D15*
X47750Y-44750D03*
X47750Y-40750D03*
G54D14*
X50250Y-42750D03*
X51250Y-42750D03*
X51250Y-41750D03*
X51250Y-43750D03*
G54D16*
X87500Y-42750D03*
X86500Y-42750D03*
G54D17*
X88500Y-42750D03*
G54D16*
X85500Y-42750D03*
G54D18*
X52811Y-49500D03*
G54D19*
X54189Y-49500D03*
G54D16*
X70750Y-43250D03*
G54D17*
X70750Y-42250D03*
G54D16*
X63750Y-43250D03*
G54D17*
X63750Y-42250D03*
G54D14*
X55250Y-42750D03*
X55250Y-43750D03*
X55250Y-41750D03*
M02*
