G04 (created by PCBNEW-RS274X (2011-05-25)-stable) date Tue 11 Mar 2014 02:38:01 PM EDT*
G01*
G70*
G90*
%MOIN*%
G04 Gerber Fmt 3.4, Leading zero omitted, Abs format*
%FSLAX34Y34*%
G04 APERTURE LIST*
%ADD10C,0.006000*%
%ADD11C,0.009000*%
%ADD12C,0.155000*%
%ADD13O,0.060000X0.100000*%
%ADD14C,0.060000*%
%ADD15R,0.100000X0.050000*%
%ADD16C,0.120000*%
%ADD17C,0.073000*%
%ADD18R,0.073000X0.073000*%
%ADD19R,0.100000X0.090000*%
%ADD20R,0.100000X0.100000*%
%ADD21C,0.100000*%
%ADD22R,0.050000X0.100000*%
%ADD23R,0.022000X0.052400*%
%ADD24C,0.035000*%
%ADD25C,0.008000*%
%ADD26C,0.036000*%
%ADD27C,0.016000*%
%ADD28C,0.010000*%
G04 APERTURE END LIST*
G54D10*
G54D11*
X45000Y-51500D02*
X89500Y-51500D01*
X45000Y-30500D02*
X45000Y-51500D01*
X89500Y-30500D02*
X45000Y-30500D01*
X89500Y-51500D02*
X89500Y-30500D01*
G54D12*
X50500Y-50500D03*
X51000Y-31500D03*
X83000Y-50500D03*
X80500Y-31500D03*
G54D13*
X56000Y-50500D03*
X57000Y-50500D03*
X58000Y-50500D03*
X59000Y-50500D03*
X60000Y-50500D03*
X61000Y-50500D03*
X62000Y-50500D03*
X63000Y-50500D03*
X65000Y-50500D03*
X66000Y-50500D03*
X67000Y-50500D03*
X68000Y-50500D03*
X69000Y-50500D03*
X70000Y-50500D03*
X71000Y-50500D03*
X72000Y-50500D03*
X74000Y-50500D03*
X75000Y-50500D03*
X76000Y-50500D03*
X77000Y-50500D03*
X78000Y-50500D03*
X79000Y-50500D03*
X80000Y-50500D03*
X81000Y-50500D03*
X52400Y-31500D03*
X53400Y-31500D03*
X54400Y-31500D03*
X55400Y-31500D03*
X56400Y-31500D03*
X57400Y-31500D03*
X58400Y-31500D03*
X59400Y-31500D03*
X60400Y-31500D03*
X61400Y-31500D03*
X63000Y-31500D03*
X70000Y-31500D03*
X69000Y-31500D03*
X68000Y-31500D03*
X67000Y-31500D03*
X66000Y-31500D03*
X65000Y-31500D03*
X64000Y-31500D03*
X72000Y-31500D03*
X73000Y-31500D03*
X74000Y-31500D03*
X75000Y-31500D03*
X76000Y-31500D03*
X77000Y-31500D03*
X78000Y-31500D03*
X79000Y-31500D03*
G54D14*
X82000Y-31500D03*
X83000Y-31500D03*
X82000Y-32500D03*
X83000Y-32500D03*
X82000Y-33500D03*
X83000Y-33500D03*
X82000Y-34500D03*
X83000Y-34500D03*
X82000Y-35500D03*
X83000Y-35500D03*
X82000Y-36500D03*
X83000Y-36500D03*
X82000Y-37500D03*
X83000Y-37500D03*
X82000Y-38500D03*
X83000Y-38500D03*
X82000Y-39500D03*
X83000Y-39500D03*
X82000Y-40500D03*
X83000Y-40500D03*
X82000Y-41500D03*
X83000Y-41500D03*
X82000Y-42500D03*
X83000Y-42500D03*
X82000Y-43500D03*
X83000Y-43500D03*
X82000Y-44500D03*
X83000Y-44500D03*
X82000Y-45500D03*
X83000Y-45500D03*
X82000Y-46500D03*
X83000Y-46500D03*
X82000Y-47500D03*
X83000Y-47500D03*
X82000Y-48500D03*
X83000Y-48500D03*
G54D15*
X80500Y-43150D03*
X80500Y-44350D03*
G54D16*
X47750Y-44750D03*
X47750Y-40750D03*
G54D14*
X50250Y-42750D03*
X51250Y-42750D03*
X51250Y-41750D03*
X51250Y-43750D03*
G54D17*
X87500Y-42750D03*
X86500Y-42750D03*
G54D18*
X88500Y-42750D03*
G54D17*
X85500Y-42750D03*
G54D19*
X78744Y-46463D03*
X74256Y-46463D03*
X78744Y-43037D03*
X74256Y-43037D03*
G54D20*
X52811Y-49500D03*
G54D21*
X54189Y-49500D03*
G54D15*
X59500Y-42150D03*
X59500Y-43350D03*
G54D17*
X70750Y-43250D03*
G54D18*
X70750Y-42250D03*
G54D17*
X63750Y-43250D03*
G54D18*
X63750Y-42250D03*
G54D14*
X55250Y-42750D03*
X55250Y-43750D03*
X55250Y-41750D03*
G54D22*
X62600Y-47250D03*
X61400Y-47250D03*
G54D15*
X70850Y-34400D03*
X70850Y-35600D03*
G54D23*
X67126Y-35472D03*
X67500Y-35472D03*
X67874Y-35472D03*
X67874Y-34528D03*
X67500Y-34528D03*
X67126Y-34528D03*
G54D24*
X69250Y-32800D03*
X67500Y-33350D03*
X67100Y-36800D03*
X67000Y-40350D03*
G54D25*
X67500Y-34528D02*
X67500Y-33350D01*
X69250Y-32800D02*
X70850Y-34400D01*
G54D26*
X82000Y-31500D02*
X82000Y-31600D01*
X79200Y-34400D02*
X70850Y-34400D01*
X82000Y-31600D02*
X79200Y-34400D01*
X83000Y-31500D02*
X82000Y-31500D01*
G54D27*
X67874Y-35472D02*
X67874Y-39922D01*
X67874Y-39922D02*
X68943Y-40991D01*
X70750Y-42250D02*
X70202Y-42250D01*
X50250Y-42750D02*
X50250Y-41036D01*
X68943Y-40991D02*
X70202Y-42250D01*
X68000Y-40991D02*
X68943Y-40991D01*
X50250Y-41036D02*
X50295Y-40991D01*
X50295Y-40991D02*
X68000Y-40991D01*
G54D25*
X67874Y-34528D02*
X67874Y-31626D01*
X67874Y-31626D02*
X68000Y-31500D01*
G54D27*
X67126Y-36774D02*
X67126Y-35472D01*
X67100Y-36800D02*
X67126Y-36774D01*
X50734Y-42234D02*
X51250Y-42750D01*
X50734Y-41542D02*
X50734Y-42234D01*
X51021Y-41255D02*
X50734Y-41542D01*
X62207Y-41255D02*
X51021Y-41255D01*
X63202Y-42250D02*
X62207Y-41255D01*
X63750Y-42250D02*
X63202Y-42250D01*
G54D25*
X67126Y-34528D02*
X67126Y-31626D01*
X67126Y-31626D02*
X67000Y-31500D01*
G54D27*
X81850Y-44350D02*
X82000Y-44500D01*
X80500Y-44350D02*
X81850Y-44350D01*
G54D26*
X63000Y-48433D02*
X62600Y-48033D01*
X63000Y-50500D02*
X63000Y-48433D01*
X62600Y-47250D02*
X62600Y-48033D01*
G54D25*
X67500Y-35472D02*
X67500Y-39850D01*
X67500Y-39850D02*
X67000Y-40350D01*
G54D26*
X70750Y-43250D02*
X71150Y-43250D01*
X70850Y-36800D02*
X70850Y-35600D01*
X72000Y-37950D02*
X70850Y-36800D01*
X72000Y-42400D02*
X72000Y-37950D01*
X71150Y-43250D02*
X72000Y-42400D01*
X59433Y-42750D02*
X59500Y-42817D01*
X55250Y-42750D02*
X59433Y-42750D01*
X59500Y-43350D02*
X59500Y-42817D01*
X59500Y-43350D02*
X60283Y-43350D01*
X74256Y-43037D02*
X73473Y-43037D01*
X73260Y-43250D02*
X70750Y-43250D01*
X73473Y-43037D02*
X73260Y-43250D01*
X70750Y-43250D02*
X63750Y-43250D01*
X61000Y-50500D02*
X61000Y-49717D01*
X54189Y-49500D02*
X61000Y-49500D01*
X61000Y-48433D02*
X61000Y-49500D01*
X61400Y-48033D02*
X61000Y-48433D01*
X61000Y-49500D02*
X61000Y-49717D01*
X61400Y-47250D02*
X61400Y-48033D01*
X62000Y-49717D02*
X61000Y-49717D01*
X62000Y-50500D02*
X62000Y-49717D01*
X52250Y-42750D02*
X51250Y-43750D01*
X51250Y-41750D02*
X52250Y-42750D01*
X52250Y-42750D02*
X55250Y-42750D01*
X61400Y-43350D02*
X60283Y-43350D01*
X61500Y-43250D02*
X61400Y-43350D01*
X63750Y-43250D02*
X61500Y-43250D01*
X61400Y-43350D02*
X61400Y-47250D01*
G54D27*
X79704Y-43037D02*
X79817Y-43150D01*
X78744Y-43037D02*
X79704Y-43037D01*
X80500Y-43150D02*
X79817Y-43150D01*
G54D26*
X58317Y-41750D02*
X58717Y-42150D01*
X55250Y-41750D02*
X58317Y-41750D01*
X59500Y-42150D02*
X58717Y-42150D01*
G54D10*
G36*
X89205Y-51205D02*
X89114Y-51205D01*
X89114Y-43165D01*
X89114Y-43066D01*
X89114Y-42336D01*
X89076Y-42244D01*
X89006Y-42174D01*
X88915Y-42136D01*
X88816Y-42136D01*
X88086Y-42136D01*
X87994Y-42174D01*
X87924Y-42244D01*
X87906Y-42286D01*
X87849Y-42229D01*
X87623Y-42135D01*
X87378Y-42135D01*
X87152Y-42229D01*
X86999Y-42380D01*
X86849Y-42229D01*
X86623Y-42135D01*
X86378Y-42135D01*
X86152Y-42229D01*
X85999Y-42380D01*
X85849Y-42229D01*
X85623Y-42135D01*
X85378Y-42135D01*
X85152Y-42229D01*
X84979Y-42401D01*
X84885Y-42627D01*
X84885Y-42872D01*
X84979Y-43098D01*
X85151Y-43271D01*
X85377Y-43365D01*
X85622Y-43365D01*
X85848Y-43271D01*
X86000Y-43119D01*
X86151Y-43271D01*
X86377Y-43365D01*
X86622Y-43365D01*
X86848Y-43271D01*
X87000Y-43119D01*
X87151Y-43271D01*
X87377Y-43365D01*
X87622Y-43365D01*
X87848Y-43271D01*
X87906Y-43213D01*
X87924Y-43256D01*
X87994Y-43326D01*
X88085Y-43364D01*
X88184Y-43364D01*
X88914Y-43364D01*
X89006Y-43326D01*
X89076Y-43256D01*
X89114Y-43165D01*
X89114Y-51205D01*
X83744Y-51205D01*
X83868Y-51081D01*
X84025Y-50705D01*
X84025Y-50297D01*
X83869Y-49920D01*
X83581Y-49632D01*
X83205Y-49475D01*
X82797Y-49475D01*
X82420Y-49631D01*
X82132Y-49919D01*
X81975Y-50295D01*
X81975Y-50703D01*
X82131Y-51080D01*
X82256Y-51205D01*
X81225Y-51205D01*
X81306Y-51172D01*
X81457Y-51020D01*
X81540Y-50822D01*
X81540Y-50607D01*
X81540Y-50179D01*
X81458Y-49980D01*
X81306Y-49829D01*
X81108Y-49746D01*
X80893Y-49746D01*
X80694Y-49828D01*
X80543Y-49980D01*
X80500Y-50082D01*
X80458Y-49980D01*
X80306Y-49829D01*
X80108Y-49746D01*
X79893Y-49746D01*
X79694Y-49828D01*
X79543Y-49980D01*
X79500Y-50082D01*
X79493Y-50065D01*
X79493Y-46963D01*
X79493Y-46864D01*
X79493Y-45964D01*
X79455Y-45872D01*
X79385Y-45802D01*
X79294Y-45764D01*
X79195Y-45764D01*
X78195Y-45764D01*
X78103Y-45802D01*
X78033Y-45872D01*
X77995Y-45963D01*
X77995Y-46062D01*
X77995Y-46962D01*
X78033Y-47054D01*
X78103Y-47124D01*
X78194Y-47162D01*
X78293Y-47162D01*
X79293Y-47162D01*
X79385Y-47124D01*
X79455Y-47054D01*
X79493Y-46963D01*
X79493Y-50065D01*
X79458Y-49980D01*
X79306Y-49829D01*
X79108Y-49746D01*
X78893Y-49746D01*
X78694Y-49828D01*
X78543Y-49980D01*
X78500Y-50082D01*
X78458Y-49980D01*
X78306Y-49829D01*
X78108Y-49746D01*
X77893Y-49746D01*
X77694Y-49828D01*
X77543Y-49980D01*
X77500Y-50082D01*
X77458Y-49980D01*
X77306Y-49829D01*
X77108Y-49746D01*
X76893Y-49746D01*
X76694Y-49828D01*
X76543Y-49980D01*
X76500Y-50082D01*
X76458Y-49980D01*
X76306Y-49829D01*
X76108Y-49746D01*
X75893Y-49746D01*
X75694Y-49828D01*
X75543Y-49980D01*
X75500Y-50082D01*
X75458Y-49980D01*
X75306Y-49829D01*
X75108Y-49746D01*
X75006Y-49746D01*
X75006Y-43149D01*
X75006Y-42925D01*
X75005Y-42636D01*
X75005Y-42537D01*
X74967Y-42446D01*
X74897Y-42376D01*
X74805Y-42338D01*
X74368Y-42337D01*
X74306Y-42399D01*
X74306Y-42987D01*
X74944Y-42987D01*
X75006Y-42925D01*
X75006Y-43149D01*
X74944Y-43087D01*
X74306Y-43087D01*
X74306Y-43675D01*
X74368Y-43737D01*
X74805Y-43736D01*
X74897Y-43698D01*
X74967Y-43628D01*
X75005Y-43537D01*
X75005Y-43438D01*
X75006Y-43149D01*
X75006Y-49746D01*
X75005Y-49746D01*
X75005Y-46963D01*
X75005Y-46864D01*
X75005Y-45964D01*
X74967Y-45872D01*
X74897Y-45802D01*
X74806Y-45764D01*
X74707Y-45764D01*
X74206Y-45764D01*
X74206Y-43675D01*
X74206Y-43087D01*
X74206Y-42987D01*
X74206Y-42399D01*
X74144Y-42337D01*
X73707Y-42338D01*
X73615Y-42376D01*
X73545Y-42446D01*
X73507Y-42537D01*
X73507Y-42636D01*
X73506Y-42925D01*
X73568Y-42987D01*
X74206Y-42987D01*
X74206Y-43087D01*
X73568Y-43087D01*
X73506Y-43149D01*
X73507Y-43438D01*
X73507Y-43537D01*
X73545Y-43628D01*
X73615Y-43698D01*
X73707Y-43736D01*
X74144Y-43737D01*
X74206Y-43675D01*
X74206Y-45764D01*
X73707Y-45764D01*
X73615Y-45802D01*
X73545Y-45872D01*
X73507Y-45963D01*
X73507Y-46062D01*
X73507Y-46962D01*
X73545Y-47054D01*
X73615Y-47124D01*
X73706Y-47162D01*
X73805Y-47162D01*
X74805Y-47162D01*
X74897Y-47124D01*
X74967Y-47054D01*
X75005Y-46963D01*
X75005Y-49746D01*
X74893Y-49746D01*
X74694Y-49828D01*
X74543Y-49980D01*
X74500Y-50082D01*
X74458Y-49980D01*
X74306Y-49829D01*
X74108Y-49746D01*
X73893Y-49746D01*
X73694Y-49828D01*
X73543Y-49980D01*
X73460Y-50178D01*
X73460Y-50393D01*
X73460Y-50821D01*
X73542Y-51020D01*
X73694Y-51171D01*
X73775Y-51205D01*
X72225Y-51205D01*
X72306Y-51172D01*
X72457Y-51020D01*
X72540Y-50822D01*
X72540Y-50607D01*
X72540Y-50179D01*
X72458Y-49980D01*
X72306Y-49829D01*
X72108Y-49746D01*
X71893Y-49746D01*
X71694Y-49828D01*
X71600Y-49922D01*
X71600Y-35712D01*
X71600Y-35488D01*
X71599Y-35301D01*
X71561Y-35209D01*
X71491Y-35139D01*
X71400Y-35101D01*
X71301Y-35101D01*
X70962Y-35100D01*
X70900Y-35162D01*
X70900Y-35550D01*
X71538Y-35550D01*
X71600Y-35488D01*
X71600Y-35712D01*
X71538Y-35650D01*
X70900Y-35650D01*
X70900Y-36038D01*
X70962Y-36100D01*
X71301Y-36099D01*
X71400Y-36099D01*
X71491Y-36061D01*
X71561Y-35991D01*
X71599Y-35899D01*
X71600Y-35712D01*
X71600Y-49922D01*
X71543Y-49980D01*
X71500Y-50082D01*
X71458Y-49980D01*
X71357Y-49879D01*
X71306Y-49829D01*
X71108Y-49746D01*
X71104Y-49746D01*
X71104Y-43674D01*
X70750Y-43321D01*
X70679Y-43391D01*
X70396Y-43674D01*
X70430Y-43775D01*
X70655Y-43857D01*
X70894Y-43847D01*
X71070Y-43775D01*
X71104Y-43674D01*
X71104Y-49746D01*
X70893Y-49746D01*
X70694Y-49828D01*
X70543Y-49980D01*
X70500Y-50082D01*
X70458Y-49980D01*
X70306Y-49829D01*
X70108Y-49746D01*
X69893Y-49746D01*
X69694Y-49828D01*
X69543Y-49980D01*
X69500Y-50082D01*
X69458Y-49980D01*
X69306Y-49829D01*
X69108Y-49746D01*
X68893Y-49746D01*
X68694Y-49828D01*
X68543Y-49980D01*
X68500Y-50082D01*
X68458Y-49980D01*
X68306Y-49829D01*
X68108Y-49746D01*
X67893Y-49746D01*
X67694Y-49828D01*
X67543Y-49980D01*
X67500Y-50082D01*
X67458Y-49980D01*
X67306Y-49829D01*
X67108Y-49746D01*
X66893Y-49746D01*
X66694Y-49828D01*
X66543Y-49980D01*
X66500Y-50082D01*
X66458Y-49980D01*
X66306Y-49829D01*
X66108Y-49746D01*
X65893Y-49746D01*
X65694Y-49828D01*
X65543Y-49980D01*
X65500Y-50082D01*
X65458Y-49980D01*
X65306Y-49829D01*
X65108Y-49746D01*
X64893Y-49746D01*
X64694Y-49828D01*
X64543Y-49980D01*
X64460Y-50178D01*
X64460Y-50393D01*
X64460Y-50821D01*
X64542Y-51020D01*
X64694Y-51171D01*
X64775Y-51205D01*
X64357Y-51205D01*
X64104Y-51205D01*
X64104Y-43674D01*
X63750Y-43321D01*
X63679Y-43391D01*
X63396Y-43674D01*
X63430Y-43775D01*
X63655Y-43857D01*
X63894Y-43847D01*
X64070Y-43775D01*
X64104Y-43674D01*
X64104Y-51205D01*
X63225Y-51205D01*
X63306Y-51172D01*
X63457Y-51020D01*
X63540Y-50822D01*
X63540Y-50607D01*
X63540Y-50179D01*
X63458Y-49980D01*
X63430Y-49952D01*
X63430Y-48433D01*
X63397Y-48268D01*
X63304Y-48129D01*
X63304Y-48128D01*
X63062Y-47887D01*
X63099Y-47800D01*
X63099Y-47701D01*
X63099Y-46701D01*
X63061Y-46609D01*
X62991Y-46539D01*
X62900Y-46501D01*
X62801Y-46501D01*
X62301Y-46501D01*
X62209Y-46539D01*
X62139Y-46609D01*
X62101Y-46700D01*
X62101Y-46799D01*
X62101Y-47799D01*
X62139Y-47891D01*
X62170Y-47922D01*
X62170Y-48033D01*
X62203Y-48198D01*
X62296Y-48337D01*
X62570Y-48611D01*
X62570Y-49952D01*
X62543Y-49980D01*
X62500Y-50081D01*
X62489Y-50043D01*
X62353Y-49875D01*
X62163Y-49772D01*
X62135Y-49768D01*
X62050Y-49815D01*
X62050Y-50400D01*
X62050Y-50450D01*
X62050Y-50550D01*
X61950Y-50550D01*
X61950Y-50450D01*
X61950Y-49815D01*
X61900Y-49787D01*
X61900Y-47362D01*
X61900Y-47138D01*
X61899Y-46799D01*
X61899Y-46700D01*
X61861Y-46609D01*
X61791Y-46539D01*
X61699Y-46501D01*
X61512Y-46500D01*
X61450Y-46562D01*
X61450Y-47200D01*
X61838Y-47200D01*
X61900Y-47138D01*
X61900Y-47362D01*
X61838Y-47300D01*
X61450Y-47300D01*
X61450Y-47938D01*
X61512Y-48000D01*
X61699Y-47999D01*
X61791Y-47961D01*
X61861Y-47891D01*
X61899Y-47800D01*
X61899Y-47701D01*
X61900Y-47362D01*
X61900Y-49787D01*
X61865Y-49768D01*
X61837Y-49772D01*
X61647Y-49875D01*
X61511Y-50043D01*
X61500Y-50080D01*
X61489Y-50043D01*
X61353Y-49875D01*
X61350Y-49873D01*
X61350Y-47938D01*
X61350Y-47300D01*
X61350Y-47200D01*
X61350Y-46562D01*
X61288Y-46500D01*
X61101Y-46501D01*
X61009Y-46539D01*
X60939Y-46609D01*
X60901Y-46700D01*
X60901Y-46799D01*
X60900Y-47138D01*
X60962Y-47200D01*
X61350Y-47200D01*
X61350Y-47300D01*
X60962Y-47300D01*
X60900Y-47362D01*
X60901Y-47701D01*
X60901Y-47800D01*
X60939Y-47891D01*
X61009Y-47961D01*
X61101Y-47999D01*
X61288Y-48000D01*
X61350Y-47938D01*
X61350Y-49873D01*
X61163Y-49772D01*
X61135Y-49768D01*
X61050Y-49815D01*
X61050Y-50450D01*
X61450Y-50450D01*
X61550Y-50450D01*
X61950Y-50450D01*
X61950Y-50550D01*
X61900Y-50550D01*
X61550Y-50550D01*
X61450Y-50550D01*
X61100Y-50550D01*
X61050Y-50550D01*
X60950Y-50550D01*
X60950Y-50450D01*
X60950Y-50400D01*
X60950Y-49815D01*
X60865Y-49768D01*
X60837Y-49772D01*
X60647Y-49875D01*
X60511Y-50043D01*
X60499Y-50081D01*
X60458Y-49980D01*
X60306Y-49829D01*
X60250Y-49805D01*
X60250Y-43462D01*
X60250Y-43238D01*
X60249Y-43051D01*
X60211Y-42959D01*
X60141Y-42889D01*
X60050Y-42851D01*
X59951Y-42851D01*
X59612Y-42850D01*
X59550Y-42912D01*
X59550Y-43300D01*
X60188Y-43300D01*
X60250Y-43238D01*
X60250Y-43462D01*
X60188Y-43400D01*
X59550Y-43400D01*
X59550Y-43788D01*
X59612Y-43850D01*
X59951Y-43849D01*
X60050Y-43849D01*
X60141Y-43811D01*
X60211Y-43741D01*
X60249Y-43649D01*
X60250Y-43462D01*
X60250Y-49805D01*
X60108Y-49746D01*
X59893Y-49746D01*
X59694Y-49828D01*
X59543Y-49980D01*
X59500Y-50082D01*
X59458Y-49980D01*
X59450Y-49972D01*
X59450Y-43788D01*
X59450Y-43400D01*
X59450Y-43300D01*
X59450Y-42912D01*
X59388Y-42850D01*
X59049Y-42851D01*
X58950Y-42851D01*
X58859Y-42889D01*
X58789Y-42959D01*
X58751Y-43051D01*
X58750Y-43238D01*
X58812Y-43300D01*
X59450Y-43300D01*
X59450Y-43400D01*
X58812Y-43400D01*
X58750Y-43462D01*
X58751Y-43649D01*
X58789Y-43741D01*
X58859Y-43811D01*
X58950Y-43849D01*
X59049Y-43849D01*
X59388Y-43850D01*
X59450Y-43788D01*
X59450Y-49972D01*
X59306Y-49829D01*
X59108Y-49746D01*
X58893Y-49746D01*
X58694Y-49828D01*
X58543Y-49980D01*
X58500Y-50082D01*
X58458Y-49980D01*
X58306Y-49829D01*
X58108Y-49746D01*
X57893Y-49746D01*
X57694Y-49828D01*
X57543Y-49980D01*
X57500Y-50082D01*
X57458Y-49980D01*
X57306Y-49829D01*
X57108Y-49746D01*
X56893Y-49746D01*
X56694Y-49828D01*
X56543Y-49980D01*
X56500Y-50082D01*
X56458Y-49980D01*
X56306Y-49829D01*
X56108Y-49746D01*
X55893Y-49746D01*
X55799Y-49784D01*
X55799Y-43859D01*
X55799Y-43641D01*
X55793Y-43626D01*
X55793Y-42829D01*
X55782Y-42616D01*
X55722Y-42469D01*
X55628Y-42442D01*
X55321Y-42750D01*
X55628Y-43058D01*
X55722Y-43031D01*
X55793Y-42829D01*
X55793Y-43626D01*
X55715Y-43439D01*
X55561Y-43285D01*
X55469Y-43247D01*
X55531Y-43222D01*
X55558Y-43128D01*
X55250Y-42821D01*
X55179Y-42891D01*
X55179Y-42750D01*
X54872Y-42442D01*
X54778Y-42469D01*
X54707Y-42671D01*
X54718Y-42884D01*
X54778Y-43031D01*
X54872Y-43058D01*
X55179Y-42750D01*
X55179Y-42891D01*
X54942Y-43128D01*
X54969Y-43222D01*
X55034Y-43245D01*
X54939Y-43285D01*
X54785Y-43439D01*
X54701Y-43641D01*
X54701Y-43859D01*
X54785Y-44061D01*
X54939Y-44215D01*
X55141Y-44299D01*
X55359Y-44299D01*
X55561Y-44215D01*
X55715Y-44061D01*
X55799Y-43859D01*
X55799Y-49784D01*
X55694Y-49828D01*
X55543Y-49980D01*
X55460Y-50178D01*
X55460Y-50393D01*
X55460Y-50821D01*
X55542Y-51020D01*
X55694Y-51171D01*
X55775Y-51205D01*
X54928Y-51205D01*
X54928Y-49627D01*
X54920Y-49335D01*
X54823Y-49100D01*
X54709Y-49050D01*
X54639Y-49120D01*
X54639Y-48980D01*
X54589Y-48866D01*
X54316Y-48761D01*
X54024Y-48769D01*
X53789Y-48866D01*
X53739Y-48980D01*
X54189Y-49429D01*
X54639Y-48980D01*
X54639Y-49120D01*
X54260Y-49500D01*
X54709Y-49950D01*
X54823Y-49900D01*
X54928Y-49627D01*
X54928Y-51205D01*
X54639Y-51205D01*
X54639Y-50020D01*
X54189Y-49571D01*
X54118Y-49641D01*
X54118Y-49500D01*
X53669Y-49050D01*
X53560Y-49097D01*
X53560Y-48951D01*
X53522Y-48859D01*
X53452Y-48789D01*
X53361Y-48751D01*
X53262Y-48751D01*
X52262Y-48751D01*
X52170Y-48789D01*
X52100Y-48859D01*
X52062Y-48950D01*
X52062Y-49049D01*
X52062Y-50049D01*
X52100Y-50141D01*
X52170Y-50211D01*
X52261Y-50249D01*
X52360Y-50249D01*
X53360Y-50249D01*
X53452Y-50211D01*
X53522Y-50141D01*
X53560Y-50050D01*
X53560Y-49951D01*
X53560Y-49902D01*
X53669Y-49950D01*
X54118Y-49500D01*
X54118Y-49641D01*
X53739Y-50020D01*
X53789Y-50134D01*
X54062Y-50239D01*
X54354Y-50231D01*
X54589Y-50134D01*
X54639Y-50020D01*
X54639Y-51205D01*
X51793Y-51205D01*
X51793Y-43829D01*
X51782Y-43616D01*
X51722Y-43469D01*
X51628Y-43442D01*
X51321Y-43750D01*
X51628Y-44058D01*
X51722Y-44031D01*
X51793Y-43829D01*
X51793Y-51205D01*
X51558Y-51205D01*
X51558Y-44128D01*
X51250Y-43821D01*
X51179Y-43891D01*
X51179Y-43750D01*
X50872Y-43442D01*
X50778Y-43469D01*
X50707Y-43671D01*
X50718Y-43884D01*
X50778Y-44031D01*
X50872Y-44058D01*
X51179Y-43750D01*
X51179Y-43891D01*
X50942Y-44128D01*
X50969Y-44222D01*
X51171Y-44293D01*
X51384Y-44282D01*
X51531Y-44222D01*
X51558Y-44128D01*
X51558Y-51205D01*
X51244Y-51205D01*
X51368Y-51081D01*
X51525Y-50705D01*
X51525Y-50297D01*
X51369Y-49920D01*
X51081Y-49632D01*
X50705Y-49475D01*
X50297Y-49475D01*
X49920Y-49631D01*
X49632Y-49919D01*
X49475Y-50295D01*
X49475Y-50703D01*
X49631Y-51080D01*
X49756Y-51205D01*
X48600Y-51205D01*
X48600Y-44920D01*
X48600Y-44582D01*
X48600Y-40920D01*
X48600Y-40582D01*
X48471Y-40270D01*
X48232Y-40030D01*
X47920Y-39900D01*
X47582Y-39900D01*
X47270Y-40029D01*
X47030Y-40268D01*
X46900Y-40580D01*
X46900Y-40918D01*
X47029Y-41230D01*
X47268Y-41470D01*
X47580Y-41600D01*
X47918Y-41600D01*
X48230Y-41471D01*
X48470Y-41232D01*
X48600Y-40920D01*
X48600Y-44582D01*
X48471Y-44270D01*
X48232Y-44030D01*
X47920Y-43900D01*
X47582Y-43900D01*
X47270Y-44029D01*
X47030Y-44268D01*
X46900Y-44580D01*
X46900Y-44918D01*
X47029Y-45230D01*
X47268Y-45470D01*
X47580Y-45600D01*
X47918Y-45600D01*
X48230Y-45471D01*
X48470Y-45232D01*
X48600Y-44920D01*
X48600Y-51205D01*
X45295Y-51205D01*
X45295Y-30795D01*
X50256Y-30795D01*
X50132Y-30919D01*
X49975Y-31295D01*
X49975Y-31703D01*
X50131Y-32080D01*
X50419Y-32368D01*
X50795Y-32525D01*
X51203Y-32525D01*
X51580Y-32369D01*
X51868Y-32081D01*
X51917Y-31961D01*
X51942Y-32020D01*
X52094Y-32171D01*
X52292Y-32254D01*
X52507Y-32254D01*
X52706Y-32172D01*
X52857Y-32020D01*
X52899Y-31917D01*
X52942Y-32020D01*
X53094Y-32171D01*
X53292Y-32254D01*
X53507Y-32254D01*
X53706Y-32172D01*
X53857Y-32020D01*
X53899Y-31917D01*
X53942Y-32020D01*
X54094Y-32171D01*
X54292Y-32254D01*
X54507Y-32254D01*
X54706Y-32172D01*
X54857Y-32020D01*
X54899Y-31917D01*
X54942Y-32020D01*
X55094Y-32171D01*
X55292Y-32254D01*
X55507Y-32254D01*
X55706Y-32172D01*
X55857Y-32020D01*
X55899Y-31917D01*
X55942Y-32020D01*
X56094Y-32171D01*
X56292Y-32254D01*
X56507Y-32254D01*
X56706Y-32172D01*
X56857Y-32020D01*
X56899Y-31917D01*
X56942Y-32020D01*
X57094Y-32171D01*
X57292Y-32254D01*
X57507Y-32254D01*
X57706Y-32172D01*
X57857Y-32020D01*
X57899Y-31917D01*
X57942Y-32020D01*
X58094Y-32171D01*
X58292Y-32254D01*
X58507Y-32254D01*
X58706Y-32172D01*
X58857Y-32020D01*
X58899Y-31917D01*
X58942Y-32020D01*
X59094Y-32171D01*
X59292Y-32254D01*
X59507Y-32254D01*
X59706Y-32172D01*
X59857Y-32020D01*
X59899Y-31917D01*
X59942Y-32020D01*
X60094Y-32171D01*
X60292Y-32254D01*
X60507Y-32254D01*
X60706Y-32172D01*
X60857Y-32020D01*
X60899Y-31917D01*
X60942Y-32020D01*
X61094Y-32171D01*
X61292Y-32254D01*
X61507Y-32254D01*
X61706Y-32172D01*
X61857Y-32020D01*
X61940Y-31822D01*
X61940Y-31607D01*
X61940Y-31179D01*
X61858Y-30980D01*
X61706Y-30829D01*
X61624Y-30795D01*
X62774Y-30795D01*
X62694Y-30828D01*
X62543Y-30980D01*
X62460Y-31178D01*
X62460Y-31393D01*
X62460Y-31821D01*
X62542Y-32020D01*
X62694Y-32171D01*
X62892Y-32254D01*
X63107Y-32254D01*
X63306Y-32172D01*
X63457Y-32020D01*
X63499Y-31917D01*
X63542Y-32020D01*
X63694Y-32171D01*
X63892Y-32254D01*
X64107Y-32254D01*
X64306Y-32172D01*
X64457Y-32020D01*
X64499Y-31917D01*
X64542Y-32020D01*
X64694Y-32171D01*
X64892Y-32254D01*
X65107Y-32254D01*
X65306Y-32172D01*
X65457Y-32020D01*
X65499Y-31917D01*
X65542Y-32020D01*
X65694Y-32171D01*
X65892Y-32254D01*
X66107Y-32254D01*
X66306Y-32172D01*
X66457Y-32020D01*
X66499Y-31917D01*
X66542Y-32020D01*
X66694Y-32171D01*
X66836Y-32230D01*
X66836Y-34094D01*
X66805Y-34125D01*
X66767Y-34216D01*
X66767Y-34315D01*
X66767Y-34839D01*
X66805Y-34931D01*
X66874Y-35000D01*
X66805Y-35069D01*
X66767Y-35160D01*
X66767Y-35259D01*
X66767Y-35783D01*
X66796Y-35853D01*
X66796Y-36503D01*
X66740Y-36559D01*
X66675Y-36715D01*
X66675Y-36884D01*
X66739Y-37040D01*
X66859Y-37160D01*
X67015Y-37225D01*
X67184Y-37225D01*
X67340Y-37161D01*
X67460Y-37041D01*
X67525Y-36885D01*
X67525Y-36716D01*
X67461Y-36560D01*
X67456Y-36555D01*
X67456Y-35853D01*
X67485Y-35784D01*
X67485Y-35685D01*
X67485Y-35422D01*
X67515Y-35422D01*
X67515Y-35783D01*
X67544Y-35853D01*
X67544Y-39922D01*
X67569Y-40049D01*
X67641Y-40155D01*
X68146Y-40661D01*
X68000Y-40661D01*
X50295Y-40661D01*
X50169Y-40686D01*
X50133Y-40710D01*
X50061Y-40758D01*
X50017Y-40803D01*
X49945Y-40909D01*
X49920Y-41036D01*
X49920Y-42304D01*
X49785Y-42439D01*
X49701Y-42641D01*
X49701Y-42859D01*
X49785Y-43061D01*
X49939Y-43215D01*
X50141Y-43299D01*
X50359Y-43299D01*
X50561Y-43215D01*
X50715Y-43061D01*
X50750Y-42976D01*
X50785Y-43061D01*
X50939Y-43215D01*
X51030Y-43252D01*
X50969Y-43278D01*
X50942Y-43372D01*
X51250Y-43679D01*
X51558Y-43372D01*
X51531Y-43278D01*
X51465Y-43254D01*
X51561Y-43215D01*
X51715Y-43061D01*
X51799Y-42859D01*
X51799Y-42641D01*
X51715Y-42439D01*
X51561Y-42285D01*
X51469Y-42247D01*
X51531Y-42222D01*
X51558Y-42128D01*
X51285Y-41856D01*
X51250Y-41821D01*
X51179Y-41750D01*
X51250Y-41679D01*
X51321Y-41750D01*
X51356Y-41785D01*
X51628Y-42058D01*
X51722Y-42031D01*
X51793Y-41829D01*
X51782Y-41616D01*
X51769Y-41585D01*
X54724Y-41585D01*
X54701Y-41641D01*
X54701Y-41859D01*
X54785Y-42061D01*
X54939Y-42215D01*
X55030Y-42252D01*
X54969Y-42278D01*
X54942Y-42372D01*
X55250Y-42679D01*
X55558Y-42372D01*
X55531Y-42278D01*
X55465Y-42254D01*
X55561Y-42215D01*
X55596Y-42180D01*
X58138Y-42180D01*
X58412Y-42454D01*
X58413Y-42454D01*
X58552Y-42547D01*
X58717Y-42580D01*
X58828Y-42580D01*
X58859Y-42611D01*
X58950Y-42649D01*
X59049Y-42649D01*
X60049Y-42649D01*
X60141Y-42611D01*
X60211Y-42541D01*
X60249Y-42450D01*
X60249Y-42351D01*
X60249Y-41851D01*
X60211Y-41759D01*
X60141Y-41689D01*
X60050Y-41651D01*
X59951Y-41651D01*
X58951Y-41651D01*
X58862Y-41687D01*
X58760Y-41585D01*
X62071Y-41585D01*
X62969Y-42483D01*
X63075Y-42555D01*
X63076Y-42555D01*
X63096Y-42558D01*
X63136Y-42566D01*
X63136Y-42664D01*
X63174Y-42756D01*
X63244Y-42826D01*
X63275Y-42839D01*
X63237Y-42878D01*
X63272Y-42913D01*
X63225Y-42930D01*
X63143Y-43155D01*
X63153Y-43394D01*
X63225Y-43570D01*
X63326Y-43604D01*
X63644Y-43285D01*
X63679Y-43250D01*
X63750Y-43179D01*
X63821Y-43250D01*
X63856Y-43285D01*
X64174Y-43604D01*
X64275Y-43570D01*
X64357Y-43345D01*
X64347Y-43106D01*
X64275Y-42930D01*
X64227Y-42913D01*
X64263Y-42878D01*
X64224Y-42839D01*
X64256Y-42826D01*
X64326Y-42756D01*
X64364Y-42665D01*
X64364Y-42566D01*
X64364Y-41836D01*
X64326Y-41744D01*
X64256Y-41674D01*
X64165Y-41636D01*
X64066Y-41636D01*
X63336Y-41636D01*
X63244Y-41674D01*
X63174Y-41744D01*
X63170Y-41752D01*
X62739Y-41321D01*
X68000Y-41321D01*
X68806Y-41321D01*
X69968Y-42483D01*
X69969Y-42483D01*
X70040Y-42530D01*
X70075Y-42554D01*
X70076Y-42555D01*
X70136Y-42566D01*
X70136Y-42664D01*
X70174Y-42756D01*
X70244Y-42826D01*
X70275Y-42839D01*
X70237Y-42878D01*
X70272Y-42913D01*
X70225Y-42930D01*
X70143Y-43155D01*
X70153Y-43394D01*
X70225Y-43570D01*
X70326Y-43604D01*
X70644Y-43285D01*
X70679Y-43250D01*
X70750Y-43179D01*
X70821Y-43250D01*
X70856Y-43285D01*
X71174Y-43604D01*
X71275Y-43570D01*
X71357Y-43345D01*
X71347Y-43106D01*
X71275Y-42930D01*
X71227Y-42913D01*
X71263Y-42878D01*
X71224Y-42839D01*
X71256Y-42826D01*
X71326Y-42756D01*
X71364Y-42665D01*
X71364Y-42566D01*
X71364Y-41836D01*
X71326Y-41744D01*
X71256Y-41674D01*
X71165Y-41636D01*
X71066Y-41636D01*
X70800Y-41636D01*
X70800Y-36038D01*
X70800Y-35650D01*
X70800Y-35550D01*
X70800Y-35162D01*
X70738Y-35100D01*
X70399Y-35101D01*
X70300Y-35101D01*
X70209Y-35139D01*
X70139Y-35209D01*
X70101Y-35301D01*
X70100Y-35488D01*
X70162Y-35550D01*
X70800Y-35550D01*
X70800Y-35650D01*
X70162Y-35650D01*
X70100Y-35712D01*
X70101Y-35899D01*
X70139Y-35991D01*
X70209Y-36061D01*
X70300Y-36099D01*
X70399Y-36099D01*
X70738Y-36100D01*
X70800Y-36038D01*
X70800Y-41636D01*
X70336Y-41636D01*
X70244Y-41674D01*
X70174Y-41744D01*
X70170Y-41751D01*
X69177Y-40759D01*
X69176Y-40758D01*
X69176Y-40757D01*
X68204Y-39785D01*
X68204Y-35853D01*
X68233Y-35784D01*
X68233Y-35685D01*
X68233Y-35161D01*
X68195Y-35069D01*
X68126Y-35000D01*
X68195Y-34931D01*
X68233Y-34840D01*
X68233Y-34741D01*
X68233Y-34217D01*
X68195Y-34125D01*
X68164Y-34094D01*
X68164Y-32230D01*
X68306Y-32172D01*
X68457Y-32020D01*
X68499Y-31917D01*
X68542Y-32020D01*
X68694Y-32171D01*
X68892Y-32254D01*
X69107Y-32254D01*
X69306Y-32172D01*
X69457Y-32020D01*
X69499Y-31917D01*
X69542Y-32020D01*
X69694Y-32171D01*
X69892Y-32254D01*
X70107Y-32254D01*
X70306Y-32172D01*
X70457Y-32020D01*
X70540Y-31822D01*
X70540Y-31607D01*
X70540Y-31179D01*
X70458Y-30980D01*
X70306Y-30829D01*
X70224Y-30795D01*
X71774Y-30795D01*
X71694Y-30828D01*
X71543Y-30980D01*
X71460Y-31178D01*
X71460Y-31393D01*
X71460Y-31821D01*
X71542Y-32020D01*
X71694Y-32171D01*
X71892Y-32254D01*
X72107Y-32254D01*
X72306Y-32172D01*
X72457Y-32020D01*
X72499Y-31917D01*
X72542Y-32020D01*
X72694Y-32171D01*
X72892Y-32254D01*
X73107Y-32254D01*
X73306Y-32172D01*
X73457Y-32020D01*
X73499Y-31917D01*
X73542Y-32020D01*
X73694Y-32171D01*
X73892Y-32254D01*
X74107Y-32254D01*
X74306Y-32172D01*
X74457Y-32020D01*
X74499Y-31917D01*
X74542Y-32020D01*
X74694Y-32171D01*
X74892Y-32254D01*
X75107Y-32254D01*
X75306Y-32172D01*
X75457Y-32020D01*
X75499Y-31917D01*
X75542Y-32020D01*
X75694Y-32171D01*
X75892Y-32254D01*
X76107Y-32254D01*
X76306Y-32172D01*
X76457Y-32020D01*
X76499Y-31917D01*
X76542Y-32020D01*
X76694Y-32171D01*
X76892Y-32254D01*
X77107Y-32254D01*
X77306Y-32172D01*
X77457Y-32020D01*
X77499Y-31917D01*
X77542Y-32020D01*
X77694Y-32171D01*
X77892Y-32254D01*
X78107Y-32254D01*
X78306Y-32172D01*
X78457Y-32020D01*
X78499Y-31917D01*
X78542Y-32020D01*
X78694Y-32171D01*
X78892Y-32254D01*
X79107Y-32254D01*
X79306Y-32172D01*
X79457Y-32020D01*
X79532Y-31840D01*
X79631Y-32080D01*
X79919Y-32368D01*
X80295Y-32525D01*
X80467Y-32525D01*
X79022Y-33970D01*
X71522Y-33970D01*
X71491Y-33939D01*
X71400Y-33901D01*
X71301Y-33901D01*
X70761Y-33901D01*
X69675Y-32814D01*
X69675Y-32716D01*
X69611Y-32560D01*
X69491Y-32440D01*
X69335Y-32375D01*
X69166Y-32375D01*
X69010Y-32439D01*
X68890Y-32559D01*
X68825Y-32715D01*
X68825Y-32884D01*
X68889Y-33040D01*
X69009Y-33160D01*
X69165Y-33225D01*
X69264Y-33225D01*
X70112Y-34072D01*
X70101Y-34100D01*
X70101Y-34199D01*
X70101Y-34699D01*
X70139Y-34791D01*
X70209Y-34861D01*
X70300Y-34899D01*
X70399Y-34899D01*
X71399Y-34899D01*
X71491Y-34861D01*
X71522Y-34830D01*
X79200Y-34830D01*
X79364Y-34797D01*
X79365Y-34797D01*
X79504Y-34704D01*
X81494Y-32713D01*
X81535Y-32811D01*
X81689Y-32965D01*
X81773Y-33000D01*
X81689Y-33035D01*
X81535Y-33189D01*
X81451Y-33391D01*
X81451Y-33609D01*
X81535Y-33811D01*
X81689Y-33965D01*
X81773Y-34000D01*
X81689Y-34035D01*
X81535Y-34189D01*
X81451Y-34391D01*
X81451Y-34609D01*
X81535Y-34811D01*
X81689Y-34965D01*
X81773Y-35000D01*
X81689Y-35035D01*
X81535Y-35189D01*
X81451Y-35391D01*
X81451Y-35609D01*
X81535Y-35811D01*
X81689Y-35965D01*
X81773Y-36000D01*
X81689Y-36035D01*
X81535Y-36189D01*
X81451Y-36391D01*
X81451Y-36609D01*
X81535Y-36811D01*
X81689Y-36965D01*
X81773Y-37000D01*
X81689Y-37035D01*
X81535Y-37189D01*
X81451Y-37391D01*
X81451Y-37609D01*
X81535Y-37811D01*
X81689Y-37965D01*
X81773Y-38000D01*
X81689Y-38035D01*
X81535Y-38189D01*
X81451Y-38391D01*
X81451Y-38609D01*
X81535Y-38811D01*
X81689Y-38965D01*
X81773Y-39000D01*
X81689Y-39035D01*
X81535Y-39189D01*
X81451Y-39391D01*
X81451Y-39609D01*
X81535Y-39811D01*
X81689Y-39965D01*
X81773Y-40000D01*
X81689Y-40035D01*
X81535Y-40189D01*
X81451Y-40391D01*
X81451Y-40609D01*
X81535Y-40811D01*
X81689Y-40965D01*
X81773Y-41000D01*
X81689Y-41035D01*
X81535Y-41189D01*
X81451Y-41391D01*
X81451Y-41609D01*
X81535Y-41811D01*
X81689Y-41965D01*
X81773Y-42000D01*
X81689Y-42035D01*
X81535Y-42189D01*
X81451Y-42391D01*
X81451Y-42609D01*
X81535Y-42811D01*
X81689Y-42965D01*
X81773Y-43000D01*
X81689Y-43035D01*
X81535Y-43189D01*
X81451Y-43391D01*
X81451Y-43609D01*
X81535Y-43811D01*
X81689Y-43965D01*
X81773Y-44000D01*
X81725Y-44020D01*
X81249Y-44020D01*
X81249Y-43450D01*
X81249Y-43351D01*
X81249Y-42851D01*
X81211Y-42759D01*
X81141Y-42689D01*
X81050Y-42651D01*
X80951Y-42651D01*
X79951Y-42651D01*
X79859Y-42689D01*
X79818Y-42729D01*
X79704Y-42707D01*
X79493Y-42707D01*
X79493Y-42538D01*
X79455Y-42446D01*
X79385Y-42376D01*
X79294Y-42338D01*
X79195Y-42338D01*
X78195Y-42338D01*
X78103Y-42376D01*
X78033Y-42446D01*
X77995Y-42537D01*
X77995Y-42636D01*
X77995Y-43536D01*
X78033Y-43628D01*
X78103Y-43698D01*
X78194Y-43736D01*
X78293Y-43736D01*
X79293Y-43736D01*
X79385Y-43698D01*
X79455Y-43628D01*
X79493Y-43537D01*
X79493Y-43438D01*
X79493Y-43367D01*
X79567Y-43367D01*
X79583Y-43383D01*
X79584Y-43383D01*
X79655Y-43430D01*
X79690Y-43454D01*
X79691Y-43455D01*
X79759Y-43468D01*
X79789Y-43541D01*
X79859Y-43611D01*
X79950Y-43649D01*
X80049Y-43649D01*
X81049Y-43649D01*
X81141Y-43611D01*
X81211Y-43541D01*
X81249Y-43450D01*
X81249Y-44020D01*
X81236Y-44020D01*
X81211Y-43959D01*
X81141Y-43889D01*
X81050Y-43851D01*
X80951Y-43851D01*
X79951Y-43851D01*
X79859Y-43889D01*
X79789Y-43959D01*
X79751Y-44050D01*
X79751Y-44149D01*
X79751Y-44649D01*
X79789Y-44741D01*
X79859Y-44811D01*
X79950Y-44849D01*
X80049Y-44849D01*
X81049Y-44849D01*
X81141Y-44811D01*
X81211Y-44741D01*
X81236Y-44680D01*
X81480Y-44680D01*
X81535Y-44811D01*
X81689Y-44965D01*
X81773Y-45000D01*
X81689Y-45035D01*
X81535Y-45189D01*
X81451Y-45391D01*
X81451Y-45609D01*
X81535Y-45811D01*
X81689Y-45965D01*
X81773Y-46000D01*
X81689Y-46035D01*
X81535Y-46189D01*
X81451Y-46391D01*
X81451Y-46609D01*
X81535Y-46811D01*
X81689Y-46965D01*
X81773Y-47000D01*
X81689Y-47035D01*
X81535Y-47189D01*
X81451Y-47391D01*
X81451Y-47609D01*
X81535Y-47811D01*
X81689Y-47965D01*
X81773Y-48000D01*
X81689Y-48035D01*
X81535Y-48189D01*
X81451Y-48391D01*
X81451Y-48609D01*
X81535Y-48811D01*
X81689Y-48965D01*
X81891Y-49049D01*
X82109Y-49049D01*
X82311Y-48965D01*
X82465Y-48811D01*
X82500Y-48726D01*
X82535Y-48811D01*
X82689Y-48965D01*
X82891Y-49049D01*
X83109Y-49049D01*
X83311Y-48965D01*
X83465Y-48811D01*
X83549Y-48609D01*
X83549Y-48391D01*
X83465Y-48189D01*
X83311Y-48035D01*
X83226Y-48000D01*
X83311Y-47965D01*
X83465Y-47811D01*
X83549Y-47609D01*
X83549Y-47391D01*
X83465Y-47189D01*
X83311Y-47035D01*
X83226Y-47000D01*
X83311Y-46965D01*
X83465Y-46811D01*
X83549Y-46609D01*
X83549Y-46391D01*
X83465Y-46189D01*
X83311Y-46035D01*
X83226Y-46000D01*
X83311Y-45965D01*
X83465Y-45811D01*
X83549Y-45609D01*
X83549Y-45391D01*
X83465Y-45189D01*
X83311Y-45035D01*
X83226Y-45000D01*
X83311Y-44965D01*
X83465Y-44811D01*
X83549Y-44609D01*
X83549Y-44391D01*
X83465Y-44189D01*
X83311Y-44035D01*
X83226Y-44000D01*
X83311Y-43965D01*
X83465Y-43811D01*
X83549Y-43609D01*
X83549Y-43391D01*
X83465Y-43189D01*
X83311Y-43035D01*
X83226Y-43000D01*
X83311Y-42965D01*
X83465Y-42811D01*
X83549Y-42609D01*
X83549Y-42391D01*
X83465Y-42189D01*
X83311Y-42035D01*
X83226Y-42000D01*
X83311Y-41965D01*
X83465Y-41811D01*
X83549Y-41609D01*
X83549Y-41391D01*
X83465Y-41189D01*
X83311Y-41035D01*
X83226Y-41000D01*
X83311Y-40965D01*
X83465Y-40811D01*
X83549Y-40609D01*
X83549Y-40391D01*
X83465Y-40189D01*
X83311Y-40035D01*
X83226Y-40000D01*
X83311Y-39965D01*
X83465Y-39811D01*
X83549Y-39609D01*
X83549Y-39391D01*
X83465Y-39189D01*
X83311Y-39035D01*
X83226Y-39000D01*
X83311Y-38965D01*
X83465Y-38811D01*
X83549Y-38609D01*
X83549Y-38391D01*
X83465Y-38189D01*
X83311Y-38035D01*
X83226Y-38000D01*
X83311Y-37965D01*
X83465Y-37811D01*
X83549Y-37609D01*
X83549Y-37391D01*
X83465Y-37189D01*
X83311Y-37035D01*
X83226Y-37000D01*
X83311Y-36965D01*
X83465Y-36811D01*
X83549Y-36609D01*
X83549Y-36391D01*
X83465Y-36189D01*
X83311Y-36035D01*
X83226Y-36000D01*
X83311Y-35965D01*
X83465Y-35811D01*
X83549Y-35609D01*
X83549Y-35391D01*
X83465Y-35189D01*
X83311Y-35035D01*
X83226Y-35000D01*
X83311Y-34965D01*
X83465Y-34811D01*
X83549Y-34609D01*
X83549Y-34391D01*
X83465Y-34189D01*
X83311Y-34035D01*
X83226Y-34000D01*
X83311Y-33965D01*
X83465Y-33811D01*
X83549Y-33609D01*
X83549Y-33391D01*
X83465Y-33189D01*
X83311Y-33035D01*
X83226Y-33000D01*
X83311Y-32965D01*
X83465Y-32811D01*
X83549Y-32609D01*
X83549Y-32391D01*
X83465Y-32189D01*
X83311Y-32035D01*
X83226Y-32000D01*
X83311Y-31965D01*
X83465Y-31811D01*
X83549Y-31609D01*
X83549Y-31391D01*
X83465Y-31189D01*
X83311Y-31035D01*
X83109Y-30951D01*
X82891Y-30951D01*
X82689Y-31035D01*
X82654Y-31070D01*
X82346Y-31070D01*
X82311Y-31035D01*
X82109Y-30951D01*
X81891Y-30951D01*
X81689Y-31035D01*
X81535Y-31189D01*
X81507Y-31254D01*
X81369Y-30920D01*
X81244Y-30795D01*
X89205Y-30795D01*
X89205Y-51205D01*
X89205Y-51205D01*
G37*
G54D28*
X89205Y-51205D02*
X89114Y-51205D01*
X89114Y-43165D01*
X89114Y-43066D01*
X89114Y-42336D01*
X89076Y-42244D01*
X89006Y-42174D01*
X88915Y-42136D01*
X88816Y-42136D01*
X88086Y-42136D01*
X87994Y-42174D01*
X87924Y-42244D01*
X87906Y-42286D01*
X87849Y-42229D01*
X87623Y-42135D01*
X87378Y-42135D01*
X87152Y-42229D01*
X86999Y-42380D01*
X86849Y-42229D01*
X86623Y-42135D01*
X86378Y-42135D01*
X86152Y-42229D01*
X85999Y-42380D01*
X85849Y-42229D01*
X85623Y-42135D01*
X85378Y-42135D01*
X85152Y-42229D01*
X84979Y-42401D01*
X84885Y-42627D01*
X84885Y-42872D01*
X84979Y-43098D01*
X85151Y-43271D01*
X85377Y-43365D01*
X85622Y-43365D01*
X85848Y-43271D01*
X86000Y-43119D01*
X86151Y-43271D01*
X86377Y-43365D01*
X86622Y-43365D01*
X86848Y-43271D01*
X87000Y-43119D01*
X87151Y-43271D01*
X87377Y-43365D01*
X87622Y-43365D01*
X87848Y-43271D01*
X87906Y-43213D01*
X87924Y-43256D01*
X87994Y-43326D01*
X88085Y-43364D01*
X88184Y-43364D01*
X88914Y-43364D01*
X89006Y-43326D01*
X89076Y-43256D01*
X89114Y-43165D01*
X89114Y-51205D01*
X83744Y-51205D01*
X83868Y-51081D01*
X84025Y-50705D01*
X84025Y-50297D01*
X83869Y-49920D01*
X83581Y-49632D01*
X83205Y-49475D01*
X82797Y-49475D01*
X82420Y-49631D01*
X82132Y-49919D01*
X81975Y-50295D01*
X81975Y-50703D01*
X82131Y-51080D01*
X82256Y-51205D01*
X81225Y-51205D01*
X81306Y-51172D01*
X81457Y-51020D01*
X81540Y-50822D01*
X81540Y-50607D01*
X81540Y-50179D01*
X81458Y-49980D01*
X81306Y-49829D01*
X81108Y-49746D01*
X80893Y-49746D01*
X80694Y-49828D01*
X80543Y-49980D01*
X80500Y-50082D01*
X80458Y-49980D01*
X80306Y-49829D01*
X80108Y-49746D01*
X79893Y-49746D01*
X79694Y-49828D01*
X79543Y-49980D01*
X79500Y-50082D01*
X79493Y-50065D01*
X79493Y-46963D01*
X79493Y-46864D01*
X79493Y-45964D01*
X79455Y-45872D01*
X79385Y-45802D01*
X79294Y-45764D01*
X79195Y-45764D01*
X78195Y-45764D01*
X78103Y-45802D01*
X78033Y-45872D01*
X77995Y-45963D01*
X77995Y-46062D01*
X77995Y-46962D01*
X78033Y-47054D01*
X78103Y-47124D01*
X78194Y-47162D01*
X78293Y-47162D01*
X79293Y-47162D01*
X79385Y-47124D01*
X79455Y-47054D01*
X79493Y-46963D01*
X79493Y-50065D01*
X79458Y-49980D01*
X79306Y-49829D01*
X79108Y-49746D01*
X78893Y-49746D01*
X78694Y-49828D01*
X78543Y-49980D01*
X78500Y-50082D01*
X78458Y-49980D01*
X78306Y-49829D01*
X78108Y-49746D01*
X77893Y-49746D01*
X77694Y-49828D01*
X77543Y-49980D01*
X77500Y-50082D01*
X77458Y-49980D01*
X77306Y-49829D01*
X77108Y-49746D01*
X76893Y-49746D01*
X76694Y-49828D01*
X76543Y-49980D01*
X76500Y-50082D01*
X76458Y-49980D01*
X76306Y-49829D01*
X76108Y-49746D01*
X75893Y-49746D01*
X75694Y-49828D01*
X75543Y-49980D01*
X75500Y-50082D01*
X75458Y-49980D01*
X75306Y-49829D01*
X75108Y-49746D01*
X75006Y-49746D01*
X75006Y-43149D01*
X75006Y-42925D01*
X75005Y-42636D01*
X75005Y-42537D01*
X74967Y-42446D01*
X74897Y-42376D01*
X74805Y-42338D01*
X74368Y-42337D01*
X74306Y-42399D01*
X74306Y-42987D01*
X74944Y-42987D01*
X75006Y-42925D01*
X75006Y-43149D01*
X74944Y-43087D01*
X74306Y-43087D01*
X74306Y-43675D01*
X74368Y-43737D01*
X74805Y-43736D01*
X74897Y-43698D01*
X74967Y-43628D01*
X75005Y-43537D01*
X75005Y-43438D01*
X75006Y-43149D01*
X75006Y-49746D01*
X75005Y-49746D01*
X75005Y-46963D01*
X75005Y-46864D01*
X75005Y-45964D01*
X74967Y-45872D01*
X74897Y-45802D01*
X74806Y-45764D01*
X74707Y-45764D01*
X74206Y-45764D01*
X74206Y-43675D01*
X74206Y-43087D01*
X74206Y-42987D01*
X74206Y-42399D01*
X74144Y-42337D01*
X73707Y-42338D01*
X73615Y-42376D01*
X73545Y-42446D01*
X73507Y-42537D01*
X73507Y-42636D01*
X73506Y-42925D01*
X73568Y-42987D01*
X74206Y-42987D01*
X74206Y-43087D01*
X73568Y-43087D01*
X73506Y-43149D01*
X73507Y-43438D01*
X73507Y-43537D01*
X73545Y-43628D01*
X73615Y-43698D01*
X73707Y-43736D01*
X74144Y-43737D01*
X74206Y-43675D01*
X74206Y-45764D01*
X73707Y-45764D01*
X73615Y-45802D01*
X73545Y-45872D01*
X73507Y-45963D01*
X73507Y-46062D01*
X73507Y-46962D01*
X73545Y-47054D01*
X73615Y-47124D01*
X73706Y-47162D01*
X73805Y-47162D01*
X74805Y-47162D01*
X74897Y-47124D01*
X74967Y-47054D01*
X75005Y-46963D01*
X75005Y-49746D01*
X74893Y-49746D01*
X74694Y-49828D01*
X74543Y-49980D01*
X74500Y-50082D01*
X74458Y-49980D01*
X74306Y-49829D01*
X74108Y-49746D01*
X73893Y-49746D01*
X73694Y-49828D01*
X73543Y-49980D01*
X73460Y-50178D01*
X73460Y-50393D01*
X73460Y-50821D01*
X73542Y-51020D01*
X73694Y-51171D01*
X73775Y-51205D01*
X72225Y-51205D01*
X72306Y-51172D01*
X72457Y-51020D01*
X72540Y-50822D01*
X72540Y-50607D01*
X72540Y-50179D01*
X72458Y-49980D01*
X72306Y-49829D01*
X72108Y-49746D01*
X71893Y-49746D01*
X71694Y-49828D01*
X71600Y-49922D01*
X71600Y-35712D01*
X71600Y-35488D01*
X71599Y-35301D01*
X71561Y-35209D01*
X71491Y-35139D01*
X71400Y-35101D01*
X71301Y-35101D01*
X70962Y-35100D01*
X70900Y-35162D01*
X70900Y-35550D01*
X71538Y-35550D01*
X71600Y-35488D01*
X71600Y-35712D01*
X71538Y-35650D01*
X70900Y-35650D01*
X70900Y-36038D01*
X70962Y-36100D01*
X71301Y-36099D01*
X71400Y-36099D01*
X71491Y-36061D01*
X71561Y-35991D01*
X71599Y-35899D01*
X71600Y-35712D01*
X71600Y-49922D01*
X71543Y-49980D01*
X71500Y-50082D01*
X71458Y-49980D01*
X71357Y-49879D01*
X71306Y-49829D01*
X71108Y-49746D01*
X71104Y-49746D01*
X71104Y-43674D01*
X70750Y-43321D01*
X70679Y-43391D01*
X70396Y-43674D01*
X70430Y-43775D01*
X70655Y-43857D01*
X70894Y-43847D01*
X71070Y-43775D01*
X71104Y-43674D01*
X71104Y-49746D01*
X70893Y-49746D01*
X70694Y-49828D01*
X70543Y-49980D01*
X70500Y-50082D01*
X70458Y-49980D01*
X70306Y-49829D01*
X70108Y-49746D01*
X69893Y-49746D01*
X69694Y-49828D01*
X69543Y-49980D01*
X69500Y-50082D01*
X69458Y-49980D01*
X69306Y-49829D01*
X69108Y-49746D01*
X68893Y-49746D01*
X68694Y-49828D01*
X68543Y-49980D01*
X68500Y-50082D01*
X68458Y-49980D01*
X68306Y-49829D01*
X68108Y-49746D01*
X67893Y-49746D01*
X67694Y-49828D01*
X67543Y-49980D01*
X67500Y-50082D01*
X67458Y-49980D01*
X67306Y-49829D01*
X67108Y-49746D01*
X66893Y-49746D01*
X66694Y-49828D01*
X66543Y-49980D01*
X66500Y-50082D01*
X66458Y-49980D01*
X66306Y-49829D01*
X66108Y-49746D01*
X65893Y-49746D01*
X65694Y-49828D01*
X65543Y-49980D01*
X65500Y-50082D01*
X65458Y-49980D01*
X65306Y-49829D01*
X65108Y-49746D01*
X64893Y-49746D01*
X64694Y-49828D01*
X64543Y-49980D01*
X64460Y-50178D01*
X64460Y-50393D01*
X64460Y-50821D01*
X64542Y-51020D01*
X64694Y-51171D01*
X64775Y-51205D01*
X64357Y-51205D01*
X64104Y-51205D01*
X64104Y-43674D01*
X63750Y-43321D01*
X63679Y-43391D01*
X63396Y-43674D01*
X63430Y-43775D01*
X63655Y-43857D01*
X63894Y-43847D01*
X64070Y-43775D01*
X64104Y-43674D01*
X64104Y-51205D01*
X63225Y-51205D01*
X63306Y-51172D01*
X63457Y-51020D01*
X63540Y-50822D01*
X63540Y-50607D01*
X63540Y-50179D01*
X63458Y-49980D01*
X63430Y-49952D01*
X63430Y-48433D01*
X63397Y-48268D01*
X63304Y-48129D01*
X63304Y-48128D01*
X63062Y-47887D01*
X63099Y-47800D01*
X63099Y-47701D01*
X63099Y-46701D01*
X63061Y-46609D01*
X62991Y-46539D01*
X62900Y-46501D01*
X62801Y-46501D01*
X62301Y-46501D01*
X62209Y-46539D01*
X62139Y-46609D01*
X62101Y-46700D01*
X62101Y-46799D01*
X62101Y-47799D01*
X62139Y-47891D01*
X62170Y-47922D01*
X62170Y-48033D01*
X62203Y-48198D01*
X62296Y-48337D01*
X62570Y-48611D01*
X62570Y-49952D01*
X62543Y-49980D01*
X62500Y-50081D01*
X62489Y-50043D01*
X62353Y-49875D01*
X62163Y-49772D01*
X62135Y-49768D01*
X62050Y-49815D01*
X62050Y-50400D01*
X62050Y-50450D01*
X62050Y-50550D01*
X61950Y-50550D01*
X61950Y-50450D01*
X61950Y-49815D01*
X61900Y-49787D01*
X61900Y-47362D01*
X61900Y-47138D01*
X61899Y-46799D01*
X61899Y-46700D01*
X61861Y-46609D01*
X61791Y-46539D01*
X61699Y-46501D01*
X61512Y-46500D01*
X61450Y-46562D01*
X61450Y-47200D01*
X61838Y-47200D01*
X61900Y-47138D01*
X61900Y-47362D01*
X61838Y-47300D01*
X61450Y-47300D01*
X61450Y-47938D01*
X61512Y-48000D01*
X61699Y-47999D01*
X61791Y-47961D01*
X61861Y-47891D01*
X61899Y-47800D01*
X61899Y-47701D01*
X61900Y-47362D01*
X61900Y-49787D01*
X61865Y-49768D01*
X61837Y-49772D01*
X61647Y-49875D01*
X61511Y-50043D01*
X61500Y-50080D01*
X61489Y-50043D01*
X61353Y-49875D01*
X61350Y-49873D01*
X61350Y-47938D01*
X61350Y-47300D01*
X61350Y-47200D01*
X61350Y-46562D01*
X61288Y-46500D01*
X61101Y-46501D01*
X61009Y-46539D01*
X60939Y-46609D01*
X60901Y-46700D01*
X60901Y-46799D01*
X60900Y-47138D01*
X60962Y-47200D01*
X61350Y-47200D01*
X61350Y-47300D01*
X60962Y-47300D01*
X60900Y-47362D01*
X60901Y-47701D01*
X60901Y-47800D01*
X60939Y-47891D01*
X61009Y-47961D01*
X61101Y-47999D01*
X61288Y-48000D01*
X61350Y-47938D01*
X61350Y-49873D01*
X61163Y-49772D01*
X61135Y-49768D01*
X61050Y-49815D01*
X61050Y-50450D01*
X61450Y-50450D01*
X61550Y-50450D01*
X61950Y-50450D01*
X61950Y-50550D01*
X61900Y-50550D01*
X61550Y-50550D01*
X61450Y-50550D01*
X61100Y-50550D01*
X61050Y-50550D01*
X60950Y-50550D01*
X60950Y-50450D01*
X60950Y-50400D01*
X60950Y-49815D01*
X60865Y-49768D01*
X60837Y-49772D01*
X60647Y-49875D01*
X60511Y-50043D01*
X60499Y-50081D01*
X60458Y-49980D01*
X60306Y-49829D01*
X60250Y-49805D01*
X60250Y-43462D01*
X60250Y-43238D01*
X60249Y-43051D01*
X60211Y-42959D01*
X60141Y-42889D01*
X60050Y-42851D01*
X59951Y-42851D01*
X59612Y-42850D01*
X59550Y-42912D01*
X59550Y-43300D01*
X60188Y-43300D01*
X60250Y-43238D01*
X60250Y-43462D01*
X60188Y-43400D01*
X59550Y-43400D01*
X59550Y-43788D01*
X59612Y-43850D01*
X59951Y-43849D01*
X60050Y-43849D01*
X60141Y-43811D01*
X60211Y-43741D01*
X60249Y-43649D01*
X60250Y-43462D01*
X60250Y-49805D01*
X60108Y-49746D01*
X59893Y-49746D01*
X59694Y-49828D01*
X59543Y-49980D01*
X59500Y-50082D01*
X59458Y-49980D01*
X59450Y-49972D01*
X59450Y-43788D01*
X59450Y-43400D01*
X59450Y-43300D01*
X59450Y-42912D01*
X59388Y-42850D01*
X59049Y-42851D01*
X58950Y-42851D01*
X58859Y-42889D01*
X58789Y-42959D01*
X58751Y-43051D01*
X58750Y-43238D01*
X58812Y-43300D01*
X59450Y-43300D01*
X59450Y-43400D01*
X58812Y-43400D01*
X58750Y-43462D01*
X58751Y-43649D01*
X58789Y-43741D01*
X58859Y-43811D01*
X58950Y-43849D01*
X59049Y-43849D01*
X59388Y-43850D01*
X59450Y-43788D01*
X59450Y-49972D01*
X59306Y-49829D01*
X59108Y-49746D01*
X58893Y-49746D01*
X58694Y-49828D01*
X58543Y-49980D01*
X58500Y-50082D01*
X58458Y-49980D01*
X58306Y-49829D01*
X58108Y-49746D01*
X57893Y-49746D01*
X57694Y-49828D01*
X57543Y-49980D01*
X57500Y-50082D01*
X57458Y-49980D01*
X57306Y-49829D01*
X57108Y-49746D01*
X56893Y-49746D01*
X56694Y-49828D01*
X56543Y-49980D01*
X56500Y-50082D01*
X56458Y-49980D01*
X56306Y-49829D01*
X56108Y-49746D01*
X55893Y-49746D01*
X55799Y-49784D01*
X55799Y-43859D01*
X55799Y-43641D01*
X55793Y-43626D01*
X55793Y-42829D01*
X55782Y-42616D01*
X55722Y-42469D01*
X55628Y-42442D01*
X55321Y-42750D01*
X55628Y-43058D01*
X55722Y-43031D01*
X55793Y-42829D01*
X55793Y-43626D01*
X55715Y-43439D01*
X55561Y-43285D01*
X55469Y-43247D01*
X55531Y-43222D01*
X55558Y-43128D01*
X55250Y-42821D01*
X55179Y-42891D01*
X55179Y-42750D01*
X54872Y-42442D01*
X54778Y-42469D01*
X54707Y-42671D01*
X54718Y-42884D01*
X54778Y-43031D01*
X54872Y-43058D01*
X55179Y-42750D01*
X55179Y-42891D01*
X54942Y-43128D01*
X54969Y-43222D01*
X55034Y-43245D01*
X54939Y-43285D01*
X54785Y-43439D01*
X54701Y-43641D01*
X54701Y-43859D01*
X54785Y-44061D01*
X54939Y-44215D01*
X55141Y-44299D01*
X55359Y-44299D01*
X55561Y-44215D01*
X55715Y-44061D01*
X55799Y-43859D01*
X55799Y-49784D01*
X55694Y-49828D01*
X55543Y-49980D01*
X55460Y-50178D01*
X55460Y-50393D01*
X55460Y-50821D01*
X55542Y-51020D01*
X55694Y-51171D01*
X55775Y-51205D01*
X54928Y-51205D01*
X54928Y-49627D01*
X54920Y-49335D01*
X54823Y-49100D01*
X54709Y-49050D01*
X54639Y-49120D01*
X54639Y-48980D01*
X54589Y-48866D01*
X54316Y-48761D01*
X54024Y-48769D01*
X53789Y-48866D01*
X53739Y-48980D01*
X54189Y-49429D01*
X54639Y-48980D01*
X54639Y-49120D01*
X54260Y-49500D01*
X54709Y-49950D01*
X54823Y-49900D01*
X54928Y-49627D01*
X54928Y-51205D01*
X54639Y-51205D01*
X54639Y-50020D01*
X54189Y-49571D01*
X54118Y-49641D01*
X54118Y-49500D01*
X53669Y-49050D01*
X53560Y-49097D01*
X53560Y-48951D01*
X53522Y-48859D01*
X53452Y-48789D01*
X53361Y-48751D01*
X53262Y-48751D01*
X52262Y-48751D01*
X52170Y-48789D01*
X52100Y-48859D01*
X52062Y-48950D01*
X52062Y-49049D01*
X52062Y-50049D01*
X52100Y-50141D01*
X52170Y-50211D01*
X52261Y-50249D01*
X52360Y-50249D01*
X53360Y-50249D01*
X53452Y-50211D01*
X53522Y-50141D01*
X53560Y-50050D01*
X53560Y-49951D01*
X53560Y-49902D01*
X53669Y-49950D01*
X54118Y-49500D01*
X54118Y-49641D01*
X53739Y-50020D01*
X53789Y-50134D01*
X54062Y-50239D01*
X54354Y-50231D01*
X54589Y-50134D01*
X54639Y-50020D01*
X54639Y-51205D01*
X51793Y-51205D01*
X51793Y-43829D01*
X51782Y-43616D01*
X51722Y-43469D01*
X51628Y-43442D01*
X51321Y-43750D01*
X51628Y-44058D01*
X51722Y-44031D01*
X51793Y-43829D01*
X51793Y-51205D01*
X51558Y-51205D01*
X51558Y-44128D01*
X51250Y-43821D01*
X51179Y-43891D01*
X51179Y-43750D01*
X50872Y-43442D01*
X50778Y-43469D01*
X50707Y-43671D01*
X50718Y-43884D01*
X50778Y-44031D01*
X50872Y-44058D01*
X51179Y-43750D01*
X51179Y-43891D01*
X50942Y-44128D01*
X50969Y-44222D01*
X51171Y-44293D01*
X51384Y-44282D01*
X51531Y-44222D01*
X51558Y-44128D01*
X51558Y-51205D01*
X51244Y-51205D01*
X51368Y-51081D01*
X51525Y-50705D01*
X51525Y-50297D01*
X51369Y-49920D01*
X51081Y-49632D01*
X50705Y-49475D01*
X50297Y-49475D01*
X49920Y-49631D01*
X49632Y-49919D01*
X49475Y-50295D01*
X49475Y-50703D01*
X49631Y-51080D01*
X49756Y-51205D01*
X48600Y-51205D01*
X48600Y-44920D01*
X48600Y-44582D01*
X48600Y-40920D01*
X48600Y-40582D01*
X48471Y-40270D01*
X48232Y-40030D01*
X47920Y-39900D01*
X47582Y-39900D01*
X47270Y-40029D01*
X47030Y-40268D01*
X46900Y-40580D01*
X46900Y-40918D01*
X47029Y-41230D01*
X47268Y-41470D01*
X47580Y-41600D01*
X47918Y-41600D01*
X48230Y-41471D01*
X48470Y-41232D01*
X48600Y-40920D01*
X48600Y-44582D01*
X48471Y-44270D01*
X48232Y-44030D01*
X47920Y-43900D01*
X47582Y-43900D01*
X47270Y-44029D01*
X47030Y-44268D01*
X46900Y-44580D01*
X46900Y-44918D01*
X47029Y-45230D01*
X47268Y-45470D01*
X47580Y-45600D01*
X47918Y-45600D01*
X48230Y-45471D01*
X48470Y-45232D01*
X48600Y-44920D01*
X48600Y-51205D01*
X45295Y-51205D01*
X45295Y-30795D01*
X50256Y-30795D01*
X50132Y-30919D01*
X49975Y-31295D01*
X49975Y-31703D01*
X50131Y-32080D01*
X50419Y-32368D01*
X50795Y-32525D01*
X51203Y-32525D01*
X51580Y-32369D01*
X51868Y-32081D01*
X51917Y-31961D01*
X51942Y-32020D01*
X52094Y-32171D01*
X52292Y-32254D01*
X52507Y-32254D01*
X52706Y-32172D01*
X52857Y-32020D01*
X52899Y-31917D01*
X52942Y-32020D01*
X53094Y-32171D01*
X53292Y-32254D01*
X53507Y-32254D01*
X53706Y-32172D01*
X53857Y-32020D01*
X53899Y-31917D01*
X53942Y-32020D01*
X54094Y-32171D01*
X54292Y-32254D01*
X54507Y-32254D01*
X54706Y-32172D01*
X54857Y-32020D01*
X54899Y-31917D01*
X54942Y-32020D01*
X55094Y-32171D01*
X55292Y-32254D01*
X55507Y-32254D01*
X55706Y-32172D01*
X55857Y-32020D01*
X55899Y-31917D01*
X55942Y-32020D01*
X56094Y-32171D01*
X56292Y-32254D01*
X56507Y-32254D01*
X56706Y-32172D01*
X56857Y-32020D01*
X56899Y-31917D01*
X56942Y-32020D01*
X57094Y-32171D01*
X57292Y-32254D01*
X57507Y-32254D01*
X57706Y-32172D01*
X57857Y-32020D01*
X57899Y-31917D01*
X57942Y-32020D01*
X58094Y-32171D01*
X58292Y-32254D01*
X58507Y-32254D01*
X58706Y-32172D01*
X58857Y-32020D01*
X58899Y-31917D01*
X58942Y-32020D01*
X59094Y-32171D01*
X59292Y-32254D01*
X59507Y-32254D01*
X59706Y-32172D01*
X59857Y-32020D01*
X59899Y-31917D01*
X59942Y-32020D01*
X60094Y-32171D01*
X60292Y-32254D01*
X60507Y-32254D01*
X60706Y-32172D01*
X60857Y-32020D01*
X60899Y-31917D01*
X60942Y-32020D01*
X61094Y-32171D01*
X61292Y-32254D01*
X61507Y-32254D01*
X61706Y-32172D01*
X61857Y-32020D01*
X61940Y-31822D01*
X61940Y-31607D01*
X61940Y-31179D01*
X61858Y-30980D01*
X61706Y-30829D01*
X61624Y-30795D01*
X62774Y-30795D01*
X62694Y-30828D01*
X62543Y-30980D01*
X62460Y-31178D01*
X62460Y-31393D01*
X62460Y-31821D01*
X62542Y-32020D01*
X62694Y-32171D01*
X62892Y-32254D01*
X63107Y-32254D01*
X63306Y-32172D01*
X63457Y-32020D01*
X63499Y-31917D01*
X63542Y-32020D01*
X63694Y-32171D01*
X63892Y-32254D01*
X64107Y-32254D01*
X64306Y-32172D01*
X64457Y-32020D01*
X64499Y-31917D01*
X64542Y-32020D01*
X64694Y-32171D01*
X64892Y-32254D01*
X65107Y-32254D01*
X65306Y-32172D01*
X65457Y-32020D01*
X65499Y-31917D01*
X65542Y-32020D01*
X65694Y-32171D01*
X65892Y-32254D01*
X66107Y-32254D01*
X66306Y-32172D01*
X66457Y-32020D01*
X66499Y-31917D01*
X66542Y-32020D01*
X66694Y-32171D01*
X66836Y-32230D01*
X66836Y-34094D01*
X66805Y-34125D01*
X66767Y-34216D01*
X66767Y-34315D01*
X66767Y-34839D01*
X66805Y-34931D01*
X66874Y-35000D01*
X66805Y-35069D01*
X66767Y-35160D01*
X66767Y-35259D01*
X66767Y-35783D01*
X66796Y-35853D01*
X66796Y-36503D01*
X66740Y-36559D01*
X66675Y-36715D01*
X66675Y-36884D01*
X66739Y-37040D01*
X66859Y-37160D01*
X67015Y-37225D01*
X67184Y-37225D01*
X67340Y-37161D01*
X67460Y-37041D01*
X67525Y-36885D01*
X67525Y-36716D01*
X67461Y-36560D01*
X67456Y-36555D01*
X67456Y-35853D01*
X67485Y-35784D01*
X67485Y-35685D01*
X67485Y-35422D01*
X67515Y-35422D01*
X67515Y-35783D01*
X67544Y-35853D01*
X67544Y-39922D01*
X67569Y-40049D01*
X67641Y-40155D01*
X68146Y-40661D01*
X68000Y-40661D01*
X50295Y-40661D01*
X50169Y-40686D01*
X50133Y-40710D01*
X50061Y-40758D01*
X50017Y-40803D01*
X49945Y-40909D01*
X49920Y-41036D01*
X49920Y-42304D01*
X49785Y-42439D01*
X49701Y-42641D01*
X49701Y-42859D01*
X49785Y-43061D01*
X49939Y-43215D01*
X50141Y-43299D01*
X50359Y-43299D01*
X50561Y-43215D01*
X50715Y-43061D01*
X50750Y-42976D01*
X50785Y-43061D01*
X50939Y-43215D01*
X51030Y-43252D01*
X50969Y-43278D01*
X50942Y-43372D01*
X51250Y-43679D01*
X51558Y-43372D01*
X51531Y-43278D01*
X51465Y-43254D01*
X51561Y-43215D01*
X51715Y-43061D01*
X51799Y-42859D01*
X51799Y-42641D01*
X51715Y-42439D01*
X51561Y-42285D01*
X51469Y-42247D01*
X51531Y-42222D01*
X51558Y-42128D01*
X51285Y-41856D01*
X51250Y-41821D01*
X51179Y-41750D01*
X51250Y-41679D01*
X51321Y-41750D01*
X51356Y-41785D01*
X51628Y-42058D01*
X51722Y-42031D01*
X51793Y-41829D01*
X51782Y-41616D01*
X51769Y-41585D01*
X54724Y-41585D01*
X54701Y-41641D01*
X54701Y-41859D01*
X54785Y-42061D01*
X54939Y-42215D01*
X55030Y-42252D01*
X54969Y-42278D01*
X54942Y-42372D01*
X55250Y-42679D01*
X55558Y-42372D01*
X55531Y-42278D01*
X55465Y-42254D01*
X55561Y-42215D01*
X55596Y-42180D01*
X58138Y-42180D01*
X58412Y-42454D01*
X58413Y-42454D01*
X58552Y-42547D01*
X58717Y-42580D01*
X58828Y-42580D01*
X58859Y-42611D01*
X58950Y-42649D01*
X59049Y-42649D01*
X60049Y-42649D01*
X60141Y-42611D01*
X60211Y-42541D01*
X60249Y-42450D01*
X60249Y-42351D01*
X60249Y-41851D01*
X60211Y-41759D01*
X60141Y-41689D01*
X60050Y-41651D01*
X59951Y-41651D01*
X58951Y-41651D01*
X58862Y-41687D01*
X58760Y-41585D01*
X62071Y-41585D01*
X62969Y-42483D01*
X63075Y-42555D01*
X63076Y-42555D01*
X63096Y-42558D01*
X63136Y-42566D01*
X63136Y-42664D01*
X63174Y-42756D01*
X63244Y-42826D01*
X63275Y-42839D01*
X63237Y-42878D01*
X63272Y-42913D01*
X63225Y-42930D01*
X63143Y-43155D01*
X63153Y-43394D01*
X63225Y-43570D01*
X63326Y-43604D01*
X63644Y-43285D01*
X63679Y-43250D01*
X63750Y-43179D01*
X63821Y-43250D01*
X63856Y-43285D01*
X64174Y-43604D01*
X64275Y-43570D01*
X64357Y-43345D01*
X64347Y-43106D01*
X64275Y-42930D01*
X64227Y-42913D01*
X64263Y-42878D01*
X64224Y-42839D01*
X64256Y-42826D01*
X64326Y-42756D01*
X64364Y-42665D01*
X64364Y-42566D01*
X64364Y-41836D01*
X64326Y-41744D01*
X64256Y-41674D01*
X64165Y-41636D01*
X64066Y-41636D01*
X63336Y-41636D01*
X63244Y-41674D01*
X63174Y-41744D01*
X63170Y-41752D01*
X62739Y-41321D01*
X68000Y-41321D01*
X68806Y-41321D01*
X69968Y-42483D01*
X69969Y-42483D01*
X70040Y-42530D01*
X70075Y-42554D01*
X70076Y-42555D01*
X70136Y-42566D01*
X70136Y-42664D01*
X70174Y-42756D01*
X70244Y-42826D01*
X70275Y-42839D01*
X70237Y-42878D01*
X70272Y-42913D01*
X70225Y-42930D01*
X70143Y-43155D01*
X70153Y-43394D01*
X70225Y-43570D01*
X70326Y-43604D01*
X70644Y-43285D01*
X70679Y-43250D01*
X70750Y-43179D01*
X70821Y-43250D01*
X70856Y-43285D01*
X71174Y-43604D01*
X71275Y-43570D01*
X71357Y-43345D01*
X71347Y-43106D01*
X71275Y-42930D01*
X71227Y-42913D01*
X71263Y-42878D01*
X71224Y-42839D01*
X71256Y-42826D01*
X71326Y-42756D01*
X71364Y-42665D01*
X71364Y-42566D01*
X71364Y-41836D01*
X71326Y-41744D01*
X71256Y-41674D01*
X71165Y-41636D01*
X71066Y-41636D01*
X70800Y-41636D01*
X70800Y-36038D01*
X70800Y-35650D01*
X70800Y-35550D01*
X70800Y-35162D01*
X70738Y-35100D01*
X70399Y-35101D01*
X70300Y-35101D01*
X70209Y-35139D01*
X70139Y-35209D01*
X70101Y-35301D01*
X70100Y-35488D01*
X70162Y-35550D01*
X70800Y-35550D01*
X70800Y-35650D01*
X70162Y-35650D01*
X70100Y-35712D01*
X70101Y-35899D01*
X70139Y-35991D01*
X70209Y-36061D01*
X70300Y-36099D01*
X70399Y-36099D01*
X70738Y-36100D01*
X70800Y-36038D01*
X70800Y-41636D01*
X70336Y-41636D01*
X70244Y-41674D01*
X70174Y-41744D01*
X70170Y-41751D01*
X69177Y-40759D01*
X69176Y-40758D01*
X69176Y-40757D01*
X68204Y-39785D01*
X68204Y-35853D01*
X68233Y-35784D01*
X68233Y-35685D01*
X68233Y-35161D01*
X68195Y-35069D01*
X68126Y-35000D01*
X68195Y-34931D01*
X68233Y-34840D01*
X68233Y-34741D01*
X68233Y-34217D01*
X68195Y-34125D01*
X68164Y-34094D01*
X68164Y-32230D01*
X68306Y-32172D01*
X68457Y-32020D01*
X68499Y-31917D01*
X68542Y-32020D01*
X68694Y-32171D01*
X68892Y-32254D01*
X69107Y-32254D01*
X69306Y-32172D01*
X69457Y-32020D01*
X69499Y-31917D01*
X69542Y-32020D01*
X69694Y-32171D01*
X69892Y-32254D01*
X70107Y-32254D01*
X70306Y-32172D01*
X70457Y-32020D01*
X70540Y-31822D01*
X70540Y-31607D01*
X70540Y-31179D01*
X70458Y-30980D01*
X70306Y-30829D01*
X70224Y-30795D01*
X71774Y-30795D01*
X71694Y-30828D01*
X71543Y-30980D01*
X71460Y-31178D01*
X71460Y-31393D01*
X71460Y-31821D01*
X71542Y-32020D01*
X71694Y-32171D01*
X71892Y-32254D01*
X72107Y-32254D01*
X72306Y-32172D01*
X72457Y-32020D01*
X72499Y-31917D01*
X72542Y-32020D01*
X72694Y-32171D01*
X72892Y-32254D01*
X73107Y-32254D01*
X73306Y-32172D01*
X73457Y-32020D01*
X73499Y-31917D01*
X73542Y-32020D01*
X73694Y-32171D01*
X73892Y-32254D01*
X74107Y-32254D01*
X74306Y-32172D01*
X74457Y-32020D01*
X74499Y-31917D01*
X74542Y-32020D01*
X74694Y-32171D01*
X74892Y-32254D01*
X75107Y-32254D01*
X75306Y-32172D01*
X75457Y-32020D01*
X75499Y-31917D01*
X75542Y-32020D01*
X75694Y-32171D01*
X75892Y-32254D01*
X76107Y-32254D01*
X76306Y-32172D01*
X76457Y-32020D01*
X76499Y-31917D01*
X76542Y-32020D01*
X76694Y-32171D01*
X76892Y-32254D01*
X77107Y-32254D01*
X77306Y-32172D01*
X77457Y-32020D01*
X77499Y-31917D01*
X77542Y-32020D01*
X77694Y-32171D01*
X77892Y-32254D01*
X78107Y-32254D01*
X78306Y-32172D01*
X78457Y-32020D01*
X78499Y-31917D01*
X78542Y-32020D01*
X78694Y-32171D01*
X78892Y-32254D01*
X79107Y-32254D01*
X79306Y-32172D01*
X79457Y-32020D01*
X79532Y-31840D01*
X79631Y-32080D01*
X79919Y-32368D01*
X80295Y-32525D01*
X80467Y-32525D01*
X79022Y-33970D01*
X71522Y-33970D01*
X71491Y-33939D01*
X71400Y-33901D01*
X71301Y-33901D01*
X70761Y-33901D01*
X69675Y-32814D01*
X69675Y-32716D01*
X69611Y-32560D01*
X69491Y-32440D01*
X69335Y-32375D01*
X69166Y-32375D01*
X69010Y-32439D01*
X68890Y-32559D01*
X68825Y-32715D01*
X68825Y-32884D01*
X68889Y-33040D01*
X69009Y-33160D01*
X69165Y-33225D01*
X69264Y-33225D01*
X70112Y-34072D01*
X70101Y-34100D01*
X70101Y-34199D01*
X70101Y-34699D01*
X70139Y-34791D01*
X70209Y-34861D01*
X70300Y-34899D01*
X70399Y-34899D01*
X71399Y-34899D01*
X71491Y-34861D01*
X71522Y-34830D01*
X79200Y-34830D01*
X79364Y-34797D01*
X79365Y-34797D01*
X79504Y-34704D01*
X81494Y-32713D01*
X81535Y-32811D01*
X81689Y-32965D01*
X81773Y-33000D01*
X81689Y-33035D01*
X81535Y-33189D01*
X81451Y-33391D01*
X81451Y-33609D01*
X81535Y-33811D01*
X81689Y-33965D01*
X81773Y-34000D01*
X81689Y-34035D01*
X81535Y-34189D01*
X81451Y-34391D01*
X81451Y-34609D01*
X81535Y-34811D01*
X81689Y-34965D01*
X81773Y-35000D01*
X81689Y-35035D01*
X81535Y-35189D01*
X81451Y-35391D01*
X81451Y-35609D01*
X81535Y-35811D01*
X81689Y-35965D01*
X81773Y-36000D01*
X81689Y-36035D01*
X81535Y-36189D01*
X81451Y-36391D01*
X81451Y-36609D01*
X81535Y-36811D01*
X81689Y-36965D01*
X81773Y-37000D01*
X81689Y-37035D01*
X81535Y-37189D01*
X81451Y-37391D01*
X81451Y-37609D01*
X81535Y-37811D01*
X81689Y-37965D01*
X81773Y-38000D01*
X81689Y-38035D01*
X81535Y-38189D01*
X81451Y-38391D01*
X81451Y-38609D01*
X81535Y-38811D01*
X81689Y-38965D01*
X81773Y-39000D01*
X81689Y-39035D01*
X81535Y-39189D01*
X81451Y-39391D01*
X81451Y-39609D01*
X81535Y-39811D01*
X81689Y-39965D01*
X81773Y-40000D01*
X81689Y-40035D01*
X81535Y-40189D01*
X81451Y-40391D01*
X81451Y-40609D01*
X81535Y-40811D01*
X81689Y-40965D01*
X81773Y-41000D01*
X81689Y-41035D01*
X81535Y-41189D01*
X81451Y-41391D01*
X81451Y-41609D01*
X81535Y-41811D01*
X81689Y-41965D01*
X81773Y-42000D01*
X81689Y-42035D01*
X81535Y-42189D01*
X81451Y-42391D01*
X81451Y-42609D01*
X81535Y-42811D01*
X81689Y-42965D01*
X81773Y-43000D01*
X81689Y-43035D01*
X81535Y-43189D01*
X81451Y-43391D01*
X81451Y-43609D01*
X81535Y-43811D01*
X81689Y-43965D01*
X81773Y-44000D01*
X81725Y-44020D01*
X81249Y-44020D01*
X81249Y-43450D01*
X81249Y-43351D01*
X81249Y-42851D01*
X81211Y-42759D01*
X81141Y-42689D01*
X81050Y-42651D01*
X80951Y-42651D01*
X79951Y-42651D01*
X79859Y-42689D01*
X79818Y-42729D01*
X79704Y-42707D01*
X79493Y-42707D01*
X79493Y-42538D01*
X79455Y-42446D01*
X79385Y-42376D01*
X79294Y-42338D01*
X79195Y-42338D01*
X78195Y-42338D01*
X78103Y-42376D01*
X78033Y-42446D01*
X77995Y-42537D01*
X77995Y-42636D01*
X77995Y-43536D01*
X78033Y-43628D01*
X78103Y-43698D01*
X78194Y-43736D01*
X78293Y-43736D01*
X79293Y-43736D01*
X79385Y-43698D01*
X79455Y-43628D01*
X79493Y-43537D01*
X79493Y-43438D01*
X79493Y-43367D01*
X79567Y-43367D01*
X79583Y-43383D01*
X79584Y-43383D01*
X79655Y-43430D01*
X79690Y-43454D01*
X79691Y-43455D01*
X79759Y-43468D01*
X79789Y-43541D01*
X79859Y-43611D01*
X79950Y-43649D01*
X80049Y-43649D01*
X81049Y-43649D01*
X81141Y-43611D01*
X81211Y-43541D01*
X81249Y-43450D01*
X81249Y-44020D01*
X81236Y-44020D01*
X81211Y-43959D01*
X81141Y-43889D01*
X81050Y-43851D01*
X80951Y-43851D01*
X79951Y-43851D01*
X79859Y-43889D01*
X79789Y-43959D01*
X79751Y-44050D01*
X79751Y-44149D01*
X79751Y-44649D01*
X79789Y-44741D01*
X79859Y-44811D01*
X79950Y-44849D01*
X80049Y-44849D01*
X81049Y-44849D01*
X81141Y-44811D01*
X81211Y-44741D01*
X81236Y-44680D01*
X81480Y-44680D01*
X81535Y-44811D01*
X81689Y-44965D01*
X81773Y-45000D01*
X81689Y-45035D01*
X81535Y-45189D01*
X81451Y-45391D01*
X81451Y-45609D01*
X81535Y-45811D01*
X81689Y-45965D01*
X81773Y-46000D01*
X81689Y-46035D01*
X81535Y-46189D01*
X81451Y-46391D01*
X81451Y-46609D01*
X81535Y-46811D01*
X81689Y-46965D01*
X81773Y-47000D01*
X81689Y-47035D01*
X81535Y-47189D01*
X81451Y-47391D01*
X81451Y-47609D01*
X81535Y-47811D01*
X81689Y-47965D01*
X81773Y-48000D01*
X81689Y-48035D01*
X81535Y-48189D01*
X81451Y-48391D01*
X81451Y-48609D01*
X81535Y-48811D01*
X81689Y-48965D01*
X81891Y-49049D01*
X82109Y-49049D01*
X82311Y-48965D01*
X82465Y-48811D01*
X82500Y-48726D01*
X82535Y-48811D01*
X82689Y-48965D01*
X82891Y-49049D01*
X83109Y-49049D01*
X83311Y-48965D01*
X83465Y-48811D01*
X83549Y-48609D01*
X83549Y-48391D01*
X83465Y-48189D01*
X83311Y-48035D01*
X83226Y-48000D01*
X83311Y-47965D01*
X83465Y-47811D01*
X83549Y-47609D01*
X83549Y-47391D01*
X83465Y-47189D01*
X83311Y-47035D01*
X83226Y-47000D01*
X83311Y-46965D01*
X83465Y-46811D01*
X83549Y-46609D01*
X83549Y-46391D01*
X83465Y-46189D01*
X83311Y-46035D01*
X83226Y-46000D01*
X83311Y-45965D01*
X83465Y-45811D01*
X83549Y-45609D01*
X83549Y-45391D01*
X83465Y-45189D01*
X83311Y-45035D01*
X83226Y-45000D01*
X83311Y-44965D01*
X83465Y-44811D01*
X83549Y-44609D01*
X83549Y-44391D01*
X83465Y-44189D01*
X83311Y-44035D01*
X83226Y-44000D01*
X83311Y-43965D01*
X83465Y-43811D01*
X83549Y-43609D01*
X83549Y-43391D01*
X83465Y-43189D01*
X83311Y-43035D01*
X83226Y-43000D01*
X83311Y-42965D01*
X83465Y-42811D01*
X83549Y-42609D01*
X83549Y-42391D01*
X83465Y-42189D01*
X83311Y-42035D01*
X83226Y-42000D01*
X83311Y-41965D01*
X83465Y-41811D01*
X83549Y-41609D01*
X83549Y-41391D01*
X83465Y-41189D01*
X83311Y-41035D01*
X83226Y-41000D01*
X83311Y-40965D01*
X83465Y-40811D01*
X83549Y-40609D01*
X83549Y-40391D01*
X83465Y-40189D01*
X83311Y-40035D01*
X83226Y-40000D01*
X83311Y-39965D01*
X83465Y-39811D01*
X83549Y-39609D01*
X83549Y-39391D01*
X83465Y-39189D01*
X83311Y-39035D01*
X83226Y-39000D01*
X83311Y-38965D01*
X83465Y-38811D01*
X83549Y-38609D01*
X83549Y-38391D01*
X83465Y-38189D01*
X83311Y-38035D01*
X83226Y-38000D01*
X83311Y-37965D01*
X83465Y-37811D01*
X83549Y-37609D01*
X83549Y-37391D01*
X83465Y-37189D01*
X83311Y-37035D01*
X83226Y-37000D01*
X83311Y-36965D01*
X83465Y-36811D01*
X83549Y-36609D01*
X83549Y-36391D01*
X83465Y-36189D01*
X83311Y-36035D01*
X83226Y-36000D01*
X83311Y-35965D01*
X83465Y-35811D01*
X83549Y-35609D01*
X83549Y-35391D01*
X83465Y-35189D01*
X83311Y-35035D01*
X83226Y-35000D01*
X83311Y-34965D01*
X83465Y-34811D01*
X83549Y-34609D01*
X83549Y-34391D01*
X83465Y-34189D01*
X83311Y-34035D01*
X83226Y-34000D01*
X83311Y-33965D01*
X83465Y-33811D01*
X83549Y-33609D01*
X83549Y-33391D01*
X83465Y-33189D01*
X83311Y-33035D01*
X83226Y-33000D01*
X83311Y-32965D01*
X83465Y-32811D01*
X83549Y-32609D01*
X83549Y-32391D01*
X83465Y-32189D01*
X83311Y-32035D01*
X83226Y-32000D01*
X83311Y-31965D01*
X83465Y-31811D01*
X83549Y-31609D01*
X83549Y-31391D01*
X83465Y-31189D01*
X83311Y-31035D01*
X83109Y-30951D01*
X82891Y-30951D01*
X82689Y-31035D01*
X82654Y-31070D01*
X82346Y-31070D01*
X82311Y-31035D01*
X82109Y-30951D01*
X81891Y-30951D01*
X81689Y-31035D01*
X81535Y-31189D01*
X81507Y-31254D01*
X81369Y-30920D01*
X81244Y-30795D01*
X89205Y-30795D01*
X89205Y-51205D01*
M02*
